<svg id="argxs" xmlns="http://www.w3.org/2000/svg" width="247" height="82" fill="none" viewBox="0 0 247 82">
    <defs>
        <linearGradient id="argxs_dot_peek_dark_attr_1" x1="59.9325" x2="1.33687" y1="59.6756" y2="1.07937" gradientUnits="userSpaceOnUse">
            <stop offset=".29" stop-color="#6B57FF"/>
            <stop offset=".89" stop-color="#07C3F2"/>
        </linearGradient>
        <linearGradient id="argxs_dot_peek_dark_attr_2" x1="7.67063" x2="61.1256" y1="64.3925" y2="39.6094" gradientUnits="userSpaceOnUse">
            <stop offset=".3" stop-color="#FF45ED"/>
            <stop offset=".84" stop-color="#6B57FF"/>
        </linearGradient>
    </defs>
    <path fill="#fff" fill-rule="evenodd" clip-rule="evenodd"
          d="M97.9 25.73c1.1.64 2 1.51 2.71 2.59V17h5.05v29.98h-5.05V43.7c-.71 1.07-1.61 1.94-2.71 2.59-1.36.8-2.95 1.2-4.76 1.2-1.94 0-3.68-.49-5.22-1.47-1.54-.98-2.75-2.34-3.62-4.09-.87-1.75-1.3-3.72-1.3-5.92 0-2.2.43-4.17 1.3-5.92.87-1.75 2.08-3.11 3.61-4.09 1.53-.98 3.28-1.47 5.23-1.47 1.81 0 3.4.4 4.76 1.2Zm-.28 16.36c.94-.59 1.67-1.41 2.2-2.46.53-1.05.79-2.26.79-3.63s-.26-2.58-.79-3.63c-.52-1.05-1.26-1.87-2.2-2.46-.94-.59-2.05-.89-3.25-.89-1.2 0-2.27.3-3.21.89-.94.59-1.67 1.41-2.19 2.46s-.78 2.26-.78 3.63.26 2.58.78 3.64 1.25 1.88 2.19 2.46c.94.59 1.99.88 3.21.88s2.31-.3 3.25-.89Zm23.25-17.56c2.15 0 4.11.5 5.86 1.5h-.01c1.75 1 3.13 2.37 4.14 4.12 1.01 1.74 1.51 3.7 1.51 5.85 0 2.15-.5 4.1-1.51 5.85-1 1.75-2.39 3.12-4.14 4.12-1.75 1-3.73 1.5-5.88 1.5s-4.11-.5-5.86-1.5-3.13-2.37-4.14-4.12c-1.01-1.74-1.51-3.7-1.51-5.85 0-2.15.5-4.1 1.5-5.85s2.38-3.12 4.14-4.12c1.77-1 3.75-1.5 5.9-1.5Zm3.26 17.55c.95-.58 1.69-1.4 2.21-2.46s.78-2.25.78-3.62-.26-2.58-.79-3.63c-.52-1.05-1.26-1.87-2.21-2.46-.95-.59-2.04-.89-3.26-.89-1.22 0-2.31.3-3.26.88-.94.58-1.68 1.4-2.2 2.46-.52 1.06-.78 2.28-.78 3.64 0 1.36.26 2.56.78 3.62.52 1.05 1.25 1.88 2.2 2.46.94.59 2.04.88 3.26.88 1.22 0 2.31-.3 3.27-.88Zm13.38-22.38h4.7v5.35h5.82l-.02 4.39h-5.82l.02 11.06c0 .6.2 1.1.59 1.49.39.39.89.59 1.49.59h3.72v4.39h-4.73c-1.17 0-2.23-.25-3.16-.75-.93-.5-1.66-1.2-2.18-2.08-.52-.89-.78-1.89-.78-3l-.02-11.71h-3.85l.02-4.39h2.4c.55 0 .98-.16 1.31-.5.32-.33.49-.76.49-1.29V19.7Zm26.76-2.7c2.05 0 3.86.37 5.41 1.13 1.56.76 2.76 1.83 3.61 3.21.85 1.38 1.27 2.96 1.27 4.79s-.43 3.44-1.29 4.83c-.86 1.39-2.08 2.47-3.66 3.24s-3.41 1.16-5.51 1.16h-7.21v11.6h-5.33V17h12.71Zm2.38 13.29c.77-.39 1.36-.93 1.78-1.64v.01c.42-.7.63-1.55.63-2.49 0-.94-.21-1.76-.63-2.46-.42-.7-1.02-1.24-1.78-1.62-.77-.38-1.67-.57-2.71-.57h-7.06v9.35h7.06c1.04 0 1.94-.19 2.71-.58Zm20.42-5.76c2.16 0 4.08.49 5.76 1.46l-.02-.01c1.69.98 3 2.33 3.93 4.06.93 1.73 1.4 3.71 1.4 5.94v1.22h-17.29c.1 1.01.35 1.94.78 2.77.54 1.05 1.28 1.87 2.23 2.45.95.59 2.02.88 3.22.88 1.06 0 2.01-.21 2.85-.62.85-.41 1.54-.99 2.1-1.73h5.5c-.52 1.36-1.27 2.52-2.25 3.49-.98.97-2.17 1.72-3.57 2.25-1.39.53-2.94.79-4.64.79-2.15 0-4.09-.5-5.81-1.48-1.72-.99-3.08-2.36-4.07-4.11-.99-1.76-1.49-3.78-1.49-5.93s.5-4.1 1.5-5.84c1-1.74 2.36-3.11 4.1-4.1 1.74-.99 3.61-1.49 5.77-1.49Zm-6.108 9.28h12.018c-.12-.67-.31-1.3-.59-1.89-.5-1.06-1.21-1.89-2.13-2.49-.92-.6-1.98-.9-3.18-.9-1.2 0-2.27.29-3.22.87-.95.58-1.69 1.38-2.23 2.4-.328.6171-.538 1.2937-.668 2.01Zm30.998-9.28c2.16 0 4.08.49 5.76 1.46l-.02-.01c1.69.98 3 2.33 3.93 4.06.93 1.73 1.4 3.71 1.4 5.94v1.22h-17.29c.1 1.01.35 1.94.78 2.77.54 1.05 1.28 1.87 2.23 2.45.95.59 2.02.88 3.22.88 1.06 0 2.01-.21 2.85-.62.84-.41 1.54-.99 2.1-1.73h5.5c-.52 1.36-1.27 2.52-2.25 3.49-.98.97-2.17 1.72-3.57 2.25-1.39.53-2.94.79-4.64.79-2.15 0-4.09-.5-5.81-1.48-1.72-.99-3.08-2.36-4.07-4.11-.99-1.76-1.49-3.78-1.49-5.93s.5-4.1 1.5-5.84c1-1.74 2.37-3.11 4.1-4.1 1.74-.99 3.61-1.49 5.77-1.49Zm-6.118 9.28h12.018c-.12-.67-.31-1.3-.59-1.89-.5-1.06-1.21-1.89-2.13-2.49-.92-.6-1.98-.9-3.18-.9-1.2 0-2.27.29-3.22.87-.95.58-1.69 1.38-2.23 2.4-.328.6171-.538 1.2937-.668 2.01Zm31.482 1.4652L246.2 25.05h-5.86l-8.56 9.76V17h-5.05v29.96h5.05V36.09l8.67 10.87h6.14l-9.266-11.6848ZM90.2292 67.5157c.869 0 1.6581.2397 2.3573.6992.6992.4694 1.2486 1.1087 1.6481 1.9178.3996.8091.5993 1.728.5993 2.7468 0 1.0189-.1997 1.9378-.5993 2.7469-.3995.819-.9489 1.4583-1.6481 1.9178-.6992.4694-1.4883.6992-2.3673.6992-.819 0-1.5382-.1798-2.1475-.5394-.4795-.2697-.8391-.6692-1.1487-1.1287v1.4284h-2.9167v-14.004h2.9267v5.1841c.3096-.4495.6692-.8491 1.1487-1.1287.6093-.3596 1.3285-.5394 2.1475-.5394Zm.4495 7.7811c.3696-.2298.6592-.5594.869-.9789s.3096-.889.3096-1.4384c0-.5493-.0998-1.0288-.3096-1.4483s-.4994-.7492-.869-.9789c-.3696-.2297-.7891-.3496-1.2785-.3496-.4895 0-.919.1199-1.2886.3496-.3695.2297-.6592.5594-.869.9789-.2097.4195-.3096.889-.3096 1.4383 0 .5494.0999 1.0289.3096 1.4484.2098.4195.4995.7491.869.9789.3696.2297.8091.3496 1.2886.3496.4794 0 .9089-.1199 1.2785-.3496Zm7.1518-7.5414 2.3575 6.3627h.01l2.167-6.3627h2.937l-4.255 10.8675c-.3.7792-.739 1.3984-1.3087 1.8679-.5693.4695-1.2685.6992-2.0876.6992h-1.8279v-2.587h1.6381c.2298 0 .4195-.05.5694-.1499.1498-.0998.2796-.2497.3895-.4594l.2997-.6093-3.9055-9.629h3.0165Zm16.5215 6.4326c.169-.3096.249-.6592.249-1.0488v-9.1395h3.097v9.3593c0 .879-.2 1.6681-.61 2.3773-.409.7091-.968 1.2585-1.678 1.6581-.709.3995-1.518.5993-2.407.5993h-2.367v-2.8468h1.958c.399 0 .749-.0799 1.048-.2497.31-.1698.54-.3995.71-.7092Zm15.242-1.8978h-6.492v3.0165h7.371v2.697h-10.388v-14.004h10.188v2.7069h-7.171v2.9666h6.492v2.617Zm6.153-5.5137h-4.155v-2.7768h11.377v2.7768h-4.126v11.2172h-3.096V66.7765Zm17.18 3.8956c.29.0799.56.1798.809.3096h.01c.57.3097 1.019.7292 1.339 1.2785.319.5494.479 1.1687.479 1.8579 0 .7492-.199 1.4184-.609 2.0077-.41.5893-.979 1.0488-1.718 1.3784-.739.3297-1.578.4995-2.517.4995h-6.343v-14.004h6.223c.889 0 1.688.1598 2.387.4695.699.3096 1.239.7491 1.628 1.3085.39.5593.58 1.1986.58 1.9078 0 .6193-.15 1.1686-.44 1.6481-.289.4794-.699.859-1.208 1.1187-.18.0943-.386.153-.585.2098l-.035.01Zm-2.796-4.3251h-2.747v3.4461h2.747c.379 0 .719-.0799 1.008-.2198.3-.1398.52-.3396.69-.6093.169-.2697.249-.5893.249-.9289 0-.3396-.09-.6393-.249-.889-.17-.2597-.4-.4495-.69-.5893-.289-.1399-.629-.2098-1.008-.2098Zm1.238 9.0896c.32-.1498.569-.3496.749-.6193v.02c.18-.2697.27-.5694.27-.9289 0-.3596-.09-.6793-.27-.9589-.18-.2797-.439-.4995-.759-.6493-.33-.1498-.699-.2297-1.109-.2297h-2.866v3.5858h2.866c.42 0 .799-.0699 1.119-.2197Zm16.541-4.6647c-.429.6693-1.029 1.1987-1.808 1.5682h-.01c-.14.07-.299.1299-.459.1898l3.196 5.4738h-3.536l-2.837-5.1042h-2.017v5.1042h-3.097v-14.004h6.133c1.009 0 1.898.1798 2.667.5494.769.3696 1.359.889 1.778 1.5582.42.6692.629 1.4284.629 2.3173 0 .889-.209 1.6781-.639 2.3473Zm-3.556-.6093c.32-.1598.57-.3895.739-.6792v.01c.17-.2897.26-.6293.26-1.0288 0-.3995-.09-.7392-.26-1.0288-.169-.2897-.419-.5094-.739-.6693-.319-.1498-.699-.2297-1.128-.2297h-2.787v3.8656h2.787c.429 0 .809-.0799 1.128-.2398Zm5.494 7.8411 5.004-14.004h3.366l5.104 14.004h-3.086l-1.059-3.0865h-5.194l-.989 3.0865h-3.146Zm6.453-10.3781-1.609 4.9443h3.706l-1.718-4.9443-.19-.899-.189.899Zm11.426 10.3781h-3.196v-14.004h3.196v14.004Zm5.434-14.004 6.013 9.4692h.01v-9.4692h2.827v14.004h-3.046l-5.994-9.4692v9.4692h-2.826v-14.004h3.016Zm19.628 6.4326c.549.3996.979.889 1.278 1.4684v-.02c.31.5893.46 1.2286.46 1.9178 0 .849-.23 1.6081-.68 2.2774-.449.6692-1.078 1.1986-1.877 1.5782-.809.3795-1.738.5693-2.767.5693s-1.948-.1898-2.747-.5594c-.799-.3695-1.428-.8989-1.888-1.5582-.459-.6592-.699-1.4383-.709-2.3073h3.096c0 .3596.1.6792.29.9589.19.2797.459.4894.809.6392.35.1499.749.2298 1.179.2298.429 0 .799-.0699 1.118-.1998.32-.1298.56-.3196.74-.5693.179-.2498.269-.5294.269-.8391 0-.3895-.12-.7092-.359-.9689-.24-.2597-.57-.4395-.979-.5393l-2.517-.5194c-.66-.1399-1.239-.3896-1.738-.7492-.5-.3596-.889-.8191-1.159-1.3584-.27-.5494-.409-1.1587-.409-1.8279 0-.8391.219-1.5782.639-2.2275.429-.6492 1.019-1.1587 1.778-1.5282.759-.3696 1.618-.5494 2.597-.5494.979 0 1.858.1798 2.617.5294.759.3496 1.358.839 1.788 1.4683.429.6193.659 1.3485.679 2.1575H211.2c0-.2996-.089-.5693-.249-.809-.17-.2398-.4-.4196-.689-.5494-.29-.1398-.64-.1998-1.019-.1998-.38 0-.719.0699-1.009.1898-.29.1199-.52.2997-.679.5194-.16.2297-.24.4894-.24.7891 0 .3396.11.6093.33.839.219.2298.519.3796.889.4695l2.377.4894c.709.1299 1.328.3996 1.878.7891Z"/>
    <path fill="url(#argxs_dot_peek_dark_attr_1)"
          d="M0 4.125v34.1275c0 1.6581.993125 3.155 2.52063 3.8L39.9419 57.85c.5181.2187 1.0756.3294 1.6381.3244l18.3287-.15c2.265-.0188 4.0913-1.86 4.0913-4.125V36.2337c0-.8056-.2356-1.5931-.6781-2.2662L42.2131 1.85938C41.45.69875 40.155 0 38.7663 0H4.125C1.84687 0 0 1.84687 0 4.125Z"/>
    <path fill="url(#argxs_dot_peek_dark_attr_2)"
          d="M6 49.015v10.8619c0 2.2781 1.84687 4.125 4.125 4.125h12.5656c.2 0 .4-.0144.5981-.0438L60.4738 58.51c2.0256-.2969 3.5268-2.0344 3.5268-4.0812V39.0312c0-2.2787-1.8475-4.1256-4.1262-4.1249l-18.5044.0043c-.4256 0-.8488.0663-1.2538.1957L8.87062 45.085c-1.70937.5463-2.86999 2.135-2.86999 3.9294L6 49.015Z"/>
    <path fill="#FF45ED"
          d="M6 47.55v12.2588c0 2.3037 1.88688 4.1612 4.1906 4.1243L20.9994 64c1.1812-.0188 2.5318-.7862 3.3006-1.6831l32.7069-38.1581c.6406-.7475.9931-1.7001.9931-2.6844V10.125C58 7.84687 56.1531 6 53.875 6H42.8719c-1.1894 0-2.3213.51375-3.1044 1.40875L7.02063 44.8338C6.3625 45.5856 6 46.5506 6 47.55Z"/>
    <path fill="#000" d="M52 12H12v40h40V12Z"/>
    <path fill="#fff" fill-rule="evenodd" clip-rule="evenodd"
          d="M17.0068 16.9922H22.72c1.4218 0 2.6956.3212 3.8212.9644 1.1256.6431 2.0063 1.5343 2.6419 2.6743.6362 1.14.9537 2.4275.9537 3.8644 0 1.4369-.3181 2.7244-.9537 3.8644-.6363 1.14-1.5169 2.0312-2.6419 2.6744-1.1256.6431-2.3994.9643-3.8212.9643h-5.7132V16.9922Zm8.0282 11.8762c.6718-.4 1.19-.9737 1.5543-1.7206.3644-.7469.5469-1.6306.5469-2.6531 0-1.0225-.1825-1.9063-.5469-2.6531-.3643-.7469-.8825-1.32-1.5543-1.7207-.6719-.4-1.4544-.6-2.3475-.6h-2.755v9.9469h2.755c.8931 0 1.6756-.1994 2.3475-.5994Z"/>
    <path fill="#fff" d="M32.9941 43.9984h-16v3h16v-3Z"/>
    <path fill="#fff" fill-rule="evenodd" clip-rule="evenodd"
          d="M39.1406 16.9922h-6.4419l-.0006 15.0069h2.9262v-5.67h3.43c1.0794 0 2.0225-.195 2.83-.5844.8075-.39 1.4313-.9381 1.8707-1.6456.4393-.7075.6593-1.5438.6593-2.4657 0-.9218-.2162-1.7325-.6487-2.4331-.4325-.7006-1.0469-1.2437-1.8438-1.6294-.7968-.3856-1.7237-.5787-2.7812-.5787Zm1.9506 5.8475c-.2.3394-.4837.6-.8519.7825-.3681.1819-.7987.2737-1.2918.2737h-3.3232v-4.47h3.3232c.4931 0 .9237.0907 1.2918.2732.3675.1825.6519.4393.8519.7718.2.3325.3.7163.3 1.1738 0 .4575-.1.8556-.3 1.195Z"/>
</svg>