<svg id="argxs" xmlns="http://www.w3.org/2000/svg" width="274" height="82" fill="none" viewBox="0 0 274 82">
    <defs>
        <linearGradient id="argxs_team_city_dark_attr_1" x1="7.67061" x2="61.125" y1="64.3921" y2="39.6093" gradientUnits="userSpaceOnUse">
            <stop offset=".1" stop-color="#3BEA62"/>
            <stop offset=".59" stop-color="#6B57FF"/>
        </linearGradient>
        <linearGradient id="argxs_team_city_dark_attr_2" x1="59.9324" x2="1.33688" y1="59.6755" y2="1.07996" gradientUnits="userSpaceOnUse">
            <stop offset=".26" stop-color="#6B57FF"/>
            <stop offset=".65" stop-color="#07C3F2"/>
        </linearGradient>
    </defs>
    <path fill="#fff" fill-rule="evenodd"
          d="M83 17.02h23.85v4.82H97.6v25.15h-5.31V21.84H83v-4.82Zm33.09 7.53c2.16 0 4.08.49 5.76 1.46l-.02-.01c1.69.98 3 2.33 3.93 4.06.93 1.73 1.4 3.71 1.4 5.94v1.22h-17.29c.1 1.01.35 1.94.78 2.77.54 1.05 1.28 1.87 2.23 2.45.95.59 2.02.88 3.22.88 1.06 0 2.01-.21 2.85-.62.85-.41 1.54-.99 2.1-1.73h5.5c-.52 1.36-1.27 2.52-2.25 3.49-.98.97-2.17 1.72-3.57 2.25-1.39.53-2.94.79-4.64.79-2.15 0-4.09-.49-5.81-1.48-1.72-.99-3.08-2.36-4.07-4.11-.99-1.76-1.49-3.78-1.49-5.93s.5-4.1 1.5-5.84c1-1.74 2.37-3.11 4.1-4.1 1.74-.99 3.61-1.49 5.77-1.49Zm-6.108 9.28H122c-.12-.67-.31-1.3-.59-1.89-.5-1.06-1.21-1.89-2.13-2.49-.92-.6-1.98-.9-3.18-.9-1.2 0-2.27.29-3.22.87-.95.58-1.69 1.38-2.23 2.4-.328.6171-.538 1.2937-.668 2.01Zm34.668-8.08c1.11.66 2.02 1.54 2.73 2.63v-3.31h4.97v21.92h-4.97v-3.31c-.71 1.09-1.62 1.98-2.73 2.63-1.36.8-2.95 1.2-4.76 1.2-1.94 0-3.68-.49-5.22-1.47-1.54-.98-2.75-2.34-3.62-4.09-.87-1.75-1.31-3.72-1.31-5.92 0-2.2.44-4.17 1.31-5.92.87-1.75 2.08-3.11 3.61-4.09 1.53-.98 3.27-1.47 5.23-1.47 1.81 0 3.4.4 4.76 1.2Zm-.29 16.36c.95-.59 1.68-1.41 2.21-2.46s.79-2.26.79-3.63-.26-2.58-.79-3.63c-.53-1.05-1.27-1.87-2.21-2.46-.94-.59-2.05-.89-3.25-.89-1.2 0-2.27.3-3.21.89-.94.59-1.67 1.41-2.19 2.46s-.78 2.26-.78 3.63.26 2.58.78 3.64 1.25 1.88 2.19 2.46c.94.59 1.99.88 3.21.88s2.31-.3 3.25-.89Zm38.19-17.56c1.56 0 2.92.35 4.1 1.06l-.01.03c1.18.71 2.08 1.71 2.72 3.01.63 1.3.95 2.81.95 4.54v13.83h-5.05V33.79c0-.99-.17-1.84-.5-2.55-.33-.72-.81-1.26-1.44-1.65-.63-.39-1.39-.58-2.27-.58-.94 0-1.77.21-2.49.64-.72.43-1.28 1.04-1.67 1.84-.39.8-.59 1.73-.59 2.8V47h-4.94V33.77c0-.99-.17-1.84-.5-2.55-.34-.72-.83-1.26-1.46-1.65-.64-.39-1.4-.58-2.28-.58-.95 0-1.79.21-2.5.64-.72.43-1.26 1.04-1.65 1.84-.39.8-.58 1.73-.58 2.8v12.71h-5.05V25.06h4.9v3.36c.61-1.14 1.39-2.05 2.37-2.71 1.16-.78 2.57-1.17 4.12-1.17 1.55 0 2.9.35 4.03 1.06 1.13.71 2.01 1.71 2.62 3.01l.06.15c.67-1.27 1.56-2.28 2.7-3.01 1.26-.8 2.73-1.2 4.41-1.2Zm26.82-3.21c-1.84 0-3.51.46-5 1.38v-.02c-1.49.92-2.66 2.19-3.5 3.81-.84 1.62-1.26 3.44-1.26 5.47s.42 3.85 1.26 5.47c.84 1.62 2.01 2.89 3.5 3.81 1.49.92 3.16 1.38 5 1.38 1.36 0 2.62-.22 3.78-.68 1.17-.46 2.17-1.11 3-1.97.83-.86 1.46-1.86 1.87-3h5.61c-.49 2.06-1.39 3.88-2.73 5.47-1.34 1.59-3 2.82-5 3.7-2 .88-4.19 1.32-6.57 1.32-2.86 0-5.44-.67-7.74-2.02-2.31-1.34-4.12-3.2-5.44-5.56-1.32-2.36-1.98-5-1.98-7.91s.66-5.55 1.98-7.91c1.32-2.36 3.14-4.21 5.44-5.56 2.31-1.35 4.89-2.02 7.74-2.02 2.38 0 4.57.44 6.57 1.32 2 .87 3.66 2.11 5 3.7 1.34 1.59 2.25 3.42 2.73 5.47h-5.61c-.41-1.14-1.04-2.14-1.87-3-.84-.86-1.84-1.51-3-1.97-1.17-.45-2.42-.68-3.78-.68Zm23.27 1.41h-5.76v-5.01h5.76v5.01Zm-.35 24.23h-5.05V25.06h5.05v21.92Zm7.04-27.27h4.7v5.35h5.82l-.02 4.39h-5.82l.02 11.06c0 .6.2 1.1.59 1.49.39.39.89.59 1.49.59h3.72v4.39h-4.73c-1.17 0-2.23-.25-3.16-.75-.93-.5-1.66-1.2-2.18-2.08-.52-.89-.78-1.89-.78-3l-.02-11.71h-3.85l.02-4.39h2.4c.55 0 .98-.16 1.31-.5.32-.33.49-.76.49-1.29v-3.55Zm28.2 16.2V25.06l-.02-.03h5.05v20.48c0 1.69-.37 3.15-1.13 4.39-.75 1.24-1.83 2.2-3.23 2.88-1.4.68-3.04 1.02-4.92 1.02h-8.2v-4.39h7.88c.96 0 1.77-.17 2.45-.49.68-.32 1.2-.8 1.56-1.43.37-.63.55-1.39.55-2.29l.04-3.15c-.61.97-1.39 1.75-2.34 2.34-1.25.77-2.72 1.16-4.4 1.16-1.57 0-2.95-.34-4.13-1.01-1.18-.67-2.1-1.65-2.76-2.94-.65-1.29-.98-2.83-.98-4.63V25.05h5.03v11.17c0 1.06.18 1.96.54 2.7.36.74.87 1.31 1.54 1.7.67.39 1.47.59 2.4.59.99 0 1.88-.22 2.65-.67.77-.45 1.37-1.07 1.79-1.88.42-.81.63-1.72.63-2.75ZM90.2229 67.5157c.869 0 1.6581.2397 2.3573.6992.6992.4694 1.2485 1.1087 1.6481 1.9178.3995.8091.5993 1.728.5993 2.7468 0 1.0189-.1998 1.9378-.5993 2.7469-.3996.819-.9489 1.4583-1.6481 1.9178-.6992.4694-1.4883.6992-2.3673.6992-.8191 0-1.5383-.1798-2.1476-.5394-.4794-.2697-.839-.6692-1.1486-1.1287v1.4284H84v-14.004h2.9266v5.1841c.3097-.4495.6693-.8491 1.1487-1.1287.6093-.3596 1.3285-.5394 2.1476-.5394Zm.4494 7.7811c.3696-.2298.6593-.5594.8691-.9789.2097-.4195.3096-.889.3096-1.4384 0-.5493-.0999-1.0288-.3096-1.4483-.2098-.4195-.4995-.7492-.8691-.9789-.3695-.2297-.789-.3496-1.2785-.3496-.4894 0-.9189.1199-1.2885.3496-.3696.2297-.6593.5594-.869.9789-.2098.4195-.3097.889-.3097 1.4383 0 .5494.0999 1.0289.3097 1.4484.2097.4195.4994.7491.869.9789.3696.2297.8091.3496 1.2885.3496.4795 0 .909-.1199 1.2785-.3496Zm7.1518-7.5414 2.3569 6.3627h.01l2.168-6.3627h2.937l-4.256 10.8675c-.299.7792-.739 1.3984-1.308 1.8679-.5694.4695-1.2686.6992-2.0876.6992h-1.828v-2.587h1.6382c.2297 0 .4195-.05.5693-.1499.1498-.0998.2797-.2497.3896-.4594l.2996-.6093-3.9055-9.629h3.0165Zm16.5209 6.4326c.17-.3096.25-.6592.25-1.0488v-9.1395h3.096v9.3593c0 .879-.199 1.6681-.609 2.3773-.409.7091-.969 1.2585-1.678 1.6581-.709.3995-1.518.5993-2.407.5993h-2.368v-2.8468h1.958c.4 0 .749-.0799 1.049-.2497.31-.1698.539-.3995.709-.7092Zm15.243-1.8978h-6.493v3.0165h7.372v2.697h-10.388v-14.004h10.188v2.7069h-7.172v2.9666h6.493v2.617Zm6.153-5.5137h-4.156v-2.7768h11.377v2.7768h-4.125v11.2172h-3.096V66.7765Zm17.18 3.8956c.29.0799.559.1798.809.3096h.01c.569.3097 1.019.7292 1.338 1.2785.32.5494.48 1.1687.48 1.8579 0 .7492-.2 1.4184-.609 2.0077-.41.5893-.979 1.0488-1.718 1.3784-.74.3297-1.579.4995-2.517.4995h-6.343v-14.004h6.223c.889 0 1.688.1598 2.387.4695.699.3096 1.238.7491 1.628 1.3085.39.5593.579 1.1986.579 1.9078 0 .6193-.149 1.1686-.439 1.6481-.29.4794-.699.859-1.209 1.1187-.179.0943-.385.153-.584.2098l-.035.01Zm-2.797-4.3251h-2.747v3.4461h2.747c.38 0 .719-.0799 1.009-.2198.3-.1398.519-.3396.689-.6093.17-.2697.25-.5893.25-.9289 0-.3396-.09-.6393-.25-.889-.17-.2597-.399-.4495-.689-.5893-.29-.1399-.629-.2098-1.009-.2098Zm1.239 9.0896c.319-.1498.569-.3496.749-.6193v.02c.18-.2697.27-.5694.27-.9289 0-.3596-.09-.6793-.27-.9589-.18-.2797-.44-.4995-.759-.6493-.33-.1498-.699-.2297-1.109-.2297h-2.867v3.5858h2.867c.42 0 .799-.0699 1.119-.2197Zm16.541-4.6647c-.43.6693-1.029 1.1987-1.808 1.5682h-.01c-.14.07-.3.1299-.46.1898l3.197 5.4738h-3.536l-2.837-5.1042h-2.018v5.1042h-3.096v-14.004h6.133c1.009 0 1.898.1798 2.667.5494.769.3696 1.358.889 1.778 1.5582.419.6692.629 1.4284.629 2.3173 0 .889-.21 1.6781-.639 2.3473Zm-3.556-.6093c.319-.1598.569-.3895.739-.6792v.01c.17-.2897.26-.6293.26-1.0288 0-.3995-.09-.7392-.26-1.0288-.17-.2897-.42-.5094-.739-.6693-.32-.1498-.699-.2297-1.129-.2297h-2.787v3.8656h2.787c.43 0 .809-.0799 1.129-.2398Zm5.494 7.8411 5.004-14.004h3.366l5.104 14.004h-3.086l-1.059-3.0865h-5.194l-.989 3.0865h-3.146Zm6.452-10.3781-1.608 4.9443h3.706l-1.718-4.9443-.19-.899-.19.899Zm11.427 10.3781h-3.196v-14.004h3.196v14.004Zm5.434-14.004 6.013 9.4692h.01v-9.4692h2.827v14.004h-3.047l-5.993-9.4692v9.4692h-2.827v-14.004h3.017Zm19.627 6.4326c.55.3996.979.889 1.279 1.4684v-.02c.309.5893.459 1.2286.459 1.9178 0 .849-.229 1.6081-.679 2.2774-.449.6692-1.079 1.1986-1.878 1.5782-.809.3795-1.738.5693-2.767.5693-1.028 0-1.947-.1898-2.746-.5594-.8-.3695-1.429-.8989-1.888-1.5582-.46-.6592-.699-1.4383-.709-2.3073h3.096c0 .3596.1.6792.29.9589.189.2797.459.4894.809.6392.349.1499.749.2298 1.178.2298.43 0 .799-.0699 1.119-.1998.32-.1298.559-.3196.739-.5693.18-.2498.27-.5294.27-.8391 0-.3895-.12-.7092-.36-.9689-.239-.2597-.569-.4395-.979-.5393l-2.517-.5194c-.659-.1399-1.238-.3896-1.738-.7492-.499-.3596-.889-.8191-1.158-1.3584-.27-.5494-.41-1.1587-.41-1.8279 0-.8391.22-1.5782.639-2.2275.43-.6492 1.019-1.1587 1.778-1.5282.76-.3696 1.619-.5494 2.597-.5494.979 0 1.858.1798 2.617.5294.76.3496 1.359.839 1.788 1.4683.43.6193.66 1.3485.68 2.1575h-3.097c0-.2996-.09-.5693-.25-.809-.169-.2398-.399-.4196-.689-.5494-.289-.1398-.639-.1998-1.019-.1998-.379 0-.719.0699-1.008.1898-.29.1199-.52.2997-.68.5194-.159.2297-.239.4894-.239.7891 0 .3396.109.6093.329.839.22.2298.52.3796.889.4695l2.377.4894c.71.1299 1.329.3996 1.878.7891Z"
          clip-rule="evenodd"/>
    <path fill="#3BEA62"
          d="M6 47.5501v12.2586c0 2.3038 1.8869 4.1612 4.1906 4.1244l11.043-.1763c1.1812-.0187 2.2975-.5431 3.0662-1.44l32.7065-38.1583c.6406-.7475.9931-1.7.9931-2.6843V10.125c0-2.27815-1.8469-4.125-4.125-4.125H42.8715c-1.1894 0-2.3213.51375-3.1044 1.40874L7.02062 44.8333C6.3625 45.5851 6 46.5501 6 47.5495v.0006Z"/>
    <path fill="url(#argxs_team_city_dark_attr_1)"
          d="M6 49.0148v10.8618c0 2.2781 1.84685 4.1249 4.125 4.1249h12.5655c.2 0 .3999-.0144.5981-.0437l37.1845-5.4481C62.4987 58.2128 64 56.4754 64 54.4285V39.0312c0-2.2787-1.8475-4.1256-4.1262-4.1249l-18.5042.0043c-.4256 0-.8487.0663-1.2537.1956L8.87063 45.0849c-1.70935.5462-2.86996 2.135-2.86996 3.9293L6 49.0148Z"/>
    <path fill="url(#argxs_team_city_dark_attr_2)"
          d="M0 4.12558V38.2527c0 1.6581.993118 3.1549 2.5206 3.7999l37.4208 15.7973c.5181.2188 1.0756.3294 1.6381.3244l18.3286-.15c2.2649-.0187 4.0912-1.86 4.0912-4.1249V36.2339c0-.8056-.2356-1.5931-.6781-2.2662L42.2126 1.85873C41.4502.698116 40.1546 0 38.7658 0H4.12495C1.84685 0 0 1.84685 0 4.12495v.00063Z"/>
    <path fill="#000" d="M51.9995 12H12v39.9995h39.9995V12Z"/>
    <path fill="#fff"
          d="M30.043 28.4594c.6643 1.1825 1.5787 2.1118 2.7437 2.7868v-.0025c1.165.6756 2.4656 1.0131 3.9018 1.0131 1.215 0 2.3294-.225 3.3444-.675 1.0144-.4499 1.86-1.0806 2.5349-1.8918.675-.8112 1.1269-1.7419 1.3557-2.7925h-3.0657c-.2.5431-.498 1.0207-.8949 1.4313-.3963.4112-.8732.7275-1.4307.9487-.5574.2219-1.1649.3325-1.8224.3325-.8863 0-1.6869-.2212-2.4013-.6644-.7143-.4431-1.2737-1.0518-1.6774-1.8274-.4038-.775-.6056-1.6488-.6056-2.6206 0-.9719.2018-1.845.6056-2.6206.4037-.775.9631-1.3844 1.6774-1.8275.715-.4431 1.515-.6644 2.4013-.6644.6575 0 1.265.1113 1.8224.3325.5569.2219 1.0344.5381 1.4307.9488.3969.4112.6949.8881.8949 1.4312h3.0657c-.2288-1.0506-.6807-1.9812-1.3557-2.7925-.6756-.8112-1.5205-1.4418-2.5349-1.8918-1.015-.45-2.1294-.675-3.3444-.675-1.4368 0-2.7374.3381-3.9018 1.0131-1.1644.675-2.0794 1.6043-2.7437 2.7868-.6644 1.1825-.9968 2.5025-.9968 3.9606s.3324 2.7781.9968 3.9606Z"/>
    <path fill="#fff" d="M16.0006 16.9951h12.0367v2.6369h-4.5449v12.3692h-2.9262V19.632H16l.0006-2.6369Z"/>
    <path fill="#fff" d="M32.9988 44.001H16.999v2.9999h15.9998V44.001Z"/>
</svg>