<svg xmlns="http://www.w3.org/2000/svg" width="381" height="82" fill="none" viewBox="0 0 381 82">
    <defs>
        <linearGradient id="a" x1="-.390625" x2="24.3925" y1="7.67063" y2="61.1256" gradientUnits="userSpaceOnUse">
            <stop offset=".19" stop-color="#FF45ED"/>
            <stop offset=".54" stop-color="#FF0A67"/>
        </linearGradient>
        <linearGradient id="b" x1="4.32509" x2="62.9207" y1="59.9325" y2="1.33625" gradientUnits="userSpaceOnUse">
            <stop offset=".26" stop-color="#FF0A67"/>
            <stop offset=".65" stop-color="#FDB60D"/>
        </linearGradient>
    </defs>
    <path fill="#fff" fill-rule="evenodd"
          d="M105.71 30.97c-.86 1.39-2.08 2.47-3.66 3.24h.01c-.53.26-1.1.46-1.68.63l7.29 12.13h-6.12l-6.73-11.5999h-5.49V46.97H84V17.01h12.7c2.06 0 3.86.37 5.42 1.13 1.56.76 2.76 1.83 3.61 3.21.85 1.38 1.27 2.96 1.27 4.79s-.43 3.44-1.29 4.83Zm-9.32-.09c1.04 0 1.95-.2 2.71-.58v.01c.77-.39 1.36-.93 1.78-1.64.42-.7.63-1.5499.63-2.4899s-.21-1.7601-.63-2.4601c-.43-.7-1.02-1.24-1.78-1.62-.77-.38-1.67-.57-2.71-.57h-7.06v9.35h7.06Zm24.56-6.35c2.16 0 4.08.4901 5.76 1.4601l-.02-.0101c1.69.98 3 2.33 3.93 4.06.93 1.73 1.4 3.71 1.4 5.94v1.22h-17.29c.1 1.01.35 1.94.78 2.77.54 1.05 1.28 1.87 2.23 2.45.95.59 2.02.88 3.22.88 1.06 0 2.01-.2099 2.85-.6199.84-.41 1.54-.9901 2.1-1.7301h5.5c-.52 1.36-1.27 2.52-2.25 3.49-.98.97-2.18 1.72-3.57 2.25-1.39.53-2.94.79-4.64.79-2.15 0-4.09-.5-5.81-1.48-1.72-.99-3.08-2.36-4.07-4.11-.99-1.76-1.49-3.78-1.49-5.93s.5-4.0999 1.5-5.8399c1-1.74 2.37-3.1101 4.1-4.1001 1.74-.99 3.61-1.49 5.77-1.49Zm-6.118 9.29h12.018c-.12-.67-.31-1.2999-.59-1.8899-.5-1.06-1.21-1.8901-2.13-2.4901-.92-.6-1.98-.9-3.18-.9-1.2 0-2.27.29-3.22.87-.95.58-1.69 1.38-2.23 2.4-.328.6171-.538 1.2937-.668 2.01Zm34.068-4.16c1.45.33 2.75.9 3.89 1.73l-.04.03c1.15.83 2.03 1.84 2.67 3.04.63 1.2.95 2.51.95 3.94 0 1.73-.46 3.29-1.38 4.67-.92 1.38-2.21 2.47-3.87 3.26-1.66.79-3.54 1.19-5.68 1.19-2.14 0-4.04-.39-5.69-1.17-1.65-.77-2.95-1.86-3.88-3.26-.93-1.4-1.41-3.01-1.42-4.84h5.35c0 .93.24 1.74.73 2.45.48.71 1.16 1.26 2.02 1.66.87.4 1.9.6 2.99.6 1.09 0 2.04-.19 2.86-.55.82-.36 1.45-.87 1.9-1.52.45-.65.67-1.4.67-2.24 0-1.04-.31-1.91-.94-2.58-.63-.67-1.49-1.15-2.59-1.42l-5.22-1.18c-1.41-.33-2.64-.87-3.7-1.63-1.05-.75-1.88-1.69-2.46-2.8-.59-1.12-.88-2.37-.88-3.75 0-1.69.44-3.19 1.31-4.52.87-1.32 2.09-2.36 3.64-3.12 1.56-.75 3.28-1.13 5.29-1.13 2.01 0 3.8.3701 5.37 1.1001 1.57.73 2.79 1.75 3.66 3.06.87 1.3 1.32 2.7999 1.33 4.4799h-5.35c0-.79-.21-1.49-.61-2.12-.4-.63-.98-1.12-1.73-1.46-.75-.34-1.63-.51-2.6-.51-.97 0-1.83.16-2.57.49-.74.33-1.32.79-1.73 1.39-.41.6-.62 1.3-.62 2.1 0 .89.29 1.64.88 2.21.59.57 1.39 1 2.4 1.27l5.05 1.13Zm23.35-5.12c1.57 0 2.95.34 4.13 1.03l.01.01c1.18.68 2.1 1.67 2.76 2.97.65 1.29.98 2.84.98 4.64v13.78h-5.03V33.96c0-1.06-.18-1.96-.54-2.7-.36-.74-.87-1.31-1.54-1.7-.67-.39-1.47-.59-2.4-.59-.99 0-1.88.22-2.65.67-.77.45-1.37 1.07-1.79 1.87-.42.8-.63 1.72-.63 2.76v12.69h-5.05V17h4.94v6.79l-.06 4.04v.57c.64-1.12 1.46-2.02 2.5-2.68 1.25-.79 2.7-1.18 4.37-1.18Zm26.46 1.2001c1.11.66 2.02 1.54 2.73 2.63V25.06h4.96v21.92h-4.96v-3.31c-.71 1.09-1.62 1.98-2.73 2.63-1.36.8-2.95 1.2-4.76 1.2-1.94 0-3.68-.49-5.22-1.47-1.54-.98-2.75-2.34-3.62-4.09-.87-1.75-1.3-3.72-1.3-5.92 0-2.2.43-4.17 1.3-5.92.87-1.75 2.08-3.11 3.61-4.09 1.53-.98 3.28-1.47 5.23-1.47 1.81 0 3.4.4001 4.76 1.2001ZM198.43 42.1c.94-.59 1.67-1.41 2.2-2.46.53-1.05.79-2.26.79-3.63s-.26-2.58-.79-3.63c-.52-1.05-1.26-1.87-2.2-2.46-.94-.59-2.05-.89-3.25-.89-1.2 0-2.27.3-3.21.89-.94.59-1.67 1.41-2.19 2.46s-.78 2.26-.78 3.63.26 2.59.78 3.64c.52 1.05 1.25 1.88 2.19 2.46.94.59 1.99.8801 3.21.8801s2.31-.3001 3.25-.8901Zm17.97-13.7299c.57-.93 1.27-1.6901 2.1-2.2601l-.01.0101c1.17-.81 2.54-1.2101 4.09-1.2101h.81V30h-1.41c-1.12 0-2.11.2101-2.94.6201-.84.42-1.48 1.0099-1.93 1.7799-.45.77-.67 1.68-.67 2.74v11.83h-5.05V25.05h5.01v3.3201Zm22.39-3.8301c1.95 0 3.7.49 5.23 1.47v-.03c1.54.98 2.74 2.34 3.61 4.09.87 1.75 1.31 3.7201 1.31 5.9201 0 2.2-.44 4.1699-1.31 5.9199-.87 1.75-2.08 3.11-3.62 4.09s-3.28 1.47-5.22 1.47c-1.81 0-3.4-.4-4.76-1.2-1.11-.65-2-1.52-2.71-2.6v10.14h-5.05V25.05h4.94v3.47c.73-1.16 1.66-2.0999 2.83-2.7799 1.37-.8 2.95-1.2001 4.75-1.2001Zm1.99 17.56c.94-.59 1.67-1.41 2.19-2.46s.78-2.26.78-3.63-.26-2.58-.78-3.63c-.52-1.05-1.25-1.87-2.19-2.46-.94-.59-1.99-.89-3.21-.89s-2.31.3-3.25.89c-.95.59-1.68 1.41-2.21 2.46s-.79 2.26-.79 3.63.26 2.58.79 3.64c.53 1.05 1.27 1.88 2.21 2.46.94.59 2.05.8801 3.25.8801 1.2 0 2.27-.3001 3.21-.8901Zm22.05-17.57c2.16 0 4.08.4901 5.76 1.4601l-.02-.0101c1.69.98 3 2.33 3.93 4.06.93 1.73 1.4 3.71 1.4 5.94v1.22h-17.29c.1 1.01.35 1.94.78 2.77.54 1.05 1.28 1.87 2.23 2.45.95.59 2.02.88 3.22.88 1.06 0 2-.2099 2.85-.6199.85-.41 1.54-.9901 2.1-1.7301h5.5c-.52 1.36-1.27 2.52-2.25 3.49-.98.97-2.17 1.72-3.57 2.25-1.39.53-2.94.79-4.64.79-2.15 0-4.09-.5-5.81-1.48-1.72-.99-3.08-2.36-4.07-4.11-.99-1.76-1.49-3.78-1.49-5.93s.5-4.0999 1.5-5.8399c1-1.74 2.37-3.1101 4.1-4.1001 1.74-.99 3.61-1.49 5.77-1.49Zm-6.118 9.29h12.018c-.12-.67-.31-1.2999-.59-1.8899-.5-1.06-1.21-1.8901-2.13-2.4901-.92-.6-1.98-.9-3.18-.9-1.2 0-2.27.29-3.22.87-.95.58-1.69 1.38-2.23 2.4-.328.6171-.538 1.2937-.668 2.01Zm25.888-5.4499c.57-.93 1.27-1.6901 2.1-2.2601l-.01.0101c1.17-.81 2.53-1.2101 4.09-1.2101h.81V30h-1.41c-1.12 0-2.11.2101-2.94.6201-.84.42-1.48 1.0099-1.93 1.7799-.45.77-.67 1.68-.67 2.74v11.83h-5.05V25.05h5.01v3.3201Zm36.82-7.0401c-1.84 0-3.51.46-5 1.38v-.01c-1.49.92-2.66 2.19-3.5 3.81-.84 1.62-1.26 3.44-1.26 5.47s.42 3.85 1.26 5.47c.84 1.62 2.01 2.89 3.5 3.81 1.49.92 3.16 1.38 5 1.38 1.36 0 2.62-.22 3.78-.68 1.17-.46 2.17-1.1099 3-1.9699.83-.86 1.46-1.86 1.87-3h5.61c-.49 2.06-1.39 3.8799-2.73 5.4699-1.34 1.59-3 2.82-5 3.7-2 .88-4.19 1.32-6.57 1.32-2.86 0-5.44-.67-7.74-2.02-2.31-1.34-4.12-3.2-5.44-5.56-1.32-2.36-1.98-4.9999-1.98-7.9099s.66-5.5501 1.98-7.9101c1.32-2.36 3.14-4.21 5.44-5.56 2.31-1.35 4.89-2.02 7.74-2.02 2.38 0 4.57.44 6.57 1.32 2 .87 3.66 2.11 5 3.7 1.34 1.59 2.25 3.4201 2.73 5.4701h-5.61c-.41-1.15-1.04-2.14-1.87-3-.84-.86-1.84-1.5101-3-1.9701-1.17-.46-2.42-.69-3.78-.69Zm24.95 3.81h4.15v7.52l7.47-.02v3.94l-7.47.02v7.49h-4.15V36.6l-7.47.0201v-3.94l7.47-.0201v-7.52Zm28.1 0v7.52l7.47-.02v3.94l-7.47.02v7.49h-4.15V36.6l-7.47.0201v-3.94l7.47-.0201v-7.52h4.15ZM90.2292 67.5157c.869 0 1.6581.2397 2.3573.6992.6992.4694 1.2486 1.1087 1.6481 1.9178.3996.8091.5993 1.728.5993 2.7468 0 1.0189-.1997 1.9378-.5993 2.7469-.3995.819-.9489 1.4583-1.6481 1.9178-.6992.4694-1.4883.6992-2.3673.6992-.819 0-1.5382-.1798-2.1475-.5394-.4795-.2697-.8391-.6692-1.1487-1.1287v1.4284h-2.9167v-14.004h2.9267v5.1841c.3096-.4495.6692-.8491 1.1487-1.1287.6093-.3596 1.3285-.5394 2.1475-.5394Zm.4495 7.7811c.3696-.2298.6592-.5594.869-.9789s.3096-.889.3096-1.4384c0-.5493-.0998-1.0288-.3096-1.4483s-.4994-.7492-.869-.9789c-.3696-.2297-.7891-.3496-1.2785-.3496-.4895 0-.919.1199-1.2886.3496-.3695.2297-.6592.5594-.869.9789-.2097.4195-.3096.889-.3096 1.4383 0 .5494.0999 1.0289.3096 1.4484.2098.4195.4995.7491.869.9789.3696.2297.8091.3496 1.2886.3496.4794 0 .9089-.1199 1.2785-.3496Zm7.1518-7.5414 2.3575 6.3627h.01l2.167-6.3627h2.937l-4.255 10.8675c-.3.7792-.739 1.3984-1.3087 1.8679-.5693.4695-1.2685.6992-2.0876.6992h-1.8279v-2.587h1.6381c.2298 0 .4195-.05.5694-.1499.1498-.0998.2796-.2497.3895-.4594l.2997-.6093-3.9055-9.629h3.0165Zm16.5215 6.4326c.169-.3096.249-.6592.249-1.0488v-9.1395h3.097v9.3593c0 .879-.2 1.6681-.61 2.3773-.409.7091-.968 1.2585-1.678 1.6581-.709.3995-1.518.5993-2.407.5993h-2.367v-2.8468h1.958c.399 0 .749-.0799 1.048-.2497.31-.1698.54-.3995.71-.7092Zm15.242-1.8978h-6.492v3.0165h7.371v2.697h-10.388v-14.004h10.188v2.7069h-7.171v2.9666h6.492v2.617Zm6.153-5.5137h-4.155v-2.7768h11.377v2.7768h-4.126v11.2172h-3.096V66.7765Zm17.18 3.8956c.29.0799.56.1798.809.3096h.01c.57.3097 1.019.7292 1.339 1.2785.319.5494.479 1.1687.479 1.8579 0 .7492-.199 1.4184-.609 2.0077-.41.5893-.979 1.0488-1.718 1.3784-.739.3297-1.578.4995-2.517.4995h-6.343v-14.004h6.223c.889 0 1.688.1598 2.387.4695.699.3096 1.239.7491 1.628 1.3085.39.5593.58 1.1986.58 1.9078 0 .6193-.15 1.1686-.44 1.6481-.289.4794-.699.859-1.208 1.1187-.18.0943-.386.153-.585.2098l-.035.01Zm-2.796-4.3251h-2.747v3.4461h2.747c.379 0 .719-.0799 1.008-.2198.3-.1398.52-.3396.69-.6093.169-.2697.249-.5893.249-.9289 0-.3396-.09-.6393-.249-.889-.17-.2597-.4-.4495-.69-.5893-.289-.1399-.629-.2098-1.008-.2098Zm1.238 9.0896c.32-.1498.569-.3496.749-.6193v.02c.18-.2697.27-.5694.27-.9289 0-.3596-.09-.6793-.27-.9589-.18-.2797-.439-.4995-.759-.6493-.33-.1498-.699-.2297-1.109-.2297h-2.866v3.5858h2.866c.42 0 .799-.0699 1.119-.2197Zm16.541-4.6647c-.429.6693-1.029 1.1987-1.808 1.5682h-.01c-.14.07-.299.1299-.459.1898l3.196 5.4738h-3.536l-2.837-5.1042h-2.017v5.1042h-3.097v-14.004h6.133c1.009 0 1.898.1798 2.667.5494.769.3696 1.359.889 1.778 1.5582.42.6692.629 1.4284.629 2.3173 0 .889-.209 1.6781-.639 2.3473Zm-3.556-.6093c.32-.1598.57-.3895.739-.6792v.01c.17-.2897.26-.6293.26-1.0288 0-.3995-.09-.7392-.26-1.0288-.169-.2897-.419-.5094-.739-.6693-.319-.1498-.699-.2297-1.128-.2297h-2.787v3.8656h2.787c.429 0 .809-.0799 1.128-.2398Zm5.494 7.8411 5.004-14.004h3.366l5.104 14.004h-3.086l-1.059-3.0865h-5.194l-.989 3.0865h-3.146Zm6.453-10.3781-1.609 4.9443h3.706l-1.718-4.9443-.19-.899-.189.899Zm11.426 10.3781h-3.196v-14.004h3.196v14.004Zm5.434-14.004 6.013 9.4692h.01v-9.4692h2.827v14.004h-3.046l-5.994-9.4692v9.4692h-2.826v-14.004h3.016Zm19.628 6.4326c.549.3996.979.889 1.278 1.4684v-.02c.31.5893.46 1.2286.46 1.9178 0 .849-.23 1.6081-.68 2.2774-.449.6692-1.078 1.1986-1.877 1.5782-.809.3795-1.738.5693-2.767.5693s-1.948-.1898-2.747-.5594c-.799-.3695-1.428-.8989-1.888-1.5582-.459-.6592-.699-1.4383-.709-2.3073h3.096c0 .3596.1.6792.29.9589.19.2797.459.4894.809.6392.35.1499.749.2298 1.179.2298.429 0 .799-.0699 1.118-.1998.32-.1298.56-.3196.74-.5693.179-.2498.269-.5294.269-.8391 0-.3895-.12-.7092-.359-.9689-.24-.2597-.57-.4395-.979-.5393l-2.517-.5194c-.66-.1399-1.239-.3896-1.738-.7492-.5-.3596-.889-.8191-1.159-1.3584-.27-.5494-.409-1.1587-.409-1.8279 0-.8391.219-1.5782.639-2.2275.429-.6492 1.019-1.1587 1.778-1.5282.759-.3696 1.618-.5494 2.597-.5494.979 0 1.858.1798 2.617.5294.759.3496 1.358.839 1.788 1.4683.429.6193.659 1.3485.679 2.1575H211.2c0-.2996-.089-.5693-.249-.809-.17-.2398-.4-.4196-.689-.5494-.29-.1398-.64-.1998-1.019-.1998-.38 0-.719.0699-1.009.1898-.29.1199-.52.2997-.679.5194-.16.2297-.24.4894-.24.7891 0 .3396.11.6093.33.839.219.2298.519.3796.889.4695l2.377.4894c.709.1299 1.328.3996 1.878.7891Z"
          clip-rule="evenodd"/>
    <path fill="#FF45ED"
          d="M16.4501 6H4.19132C1.88757 6 .03007 7.88688.066946 10.1906l.17625 11.0431C.261946 22.415.786321 23.5312 1.6832 24.3l38.1587 32.7069c.7475.6406 1.7.9931 2.6844.9931h11.3494c2.2781 0 4.125-1.8469 4.125-4.125V42.8719c0-1.1894-.5138-2.3213-1.4088-3.1044L19.1663 7.02063C18.4144 6.3625 17.4494 6 16.4501 6Z"/>
    <path fill="url(#a)"
          d="M14.9875 6H4.125C1.84687 6 0 7.84687 0 10.125v12.5656c0 .2.014375.4.04375.5981l5.44813 37.1851c.29687 2.0256 2.03437 3.5268 4.08124 3.5268H24.9706c2.2788 0 4.1256-1.8475 4.125-4.1262L29.0912 41.37c0-.4256-.0662-.8488-.1956-1.2538L18.9169 8.87062c-.5463-1.70937-2.135-2.86999-3.9294-2.86999V6Z"/>
    <path fill="url(#b)"
          d="M59.8757 0H25.7482c-1.6581 0-3.155.993125-3.8 2.52063L6.15071 39.9419c-.21875.5181-.32938 1.0756-.32438 1.6381l.15 18.3287C5.99508 62.1737 7.83633 64 10.1013 64H27.767c.8056 0 1.5931-.2356 2.2662-.6781l32.1094-21.1088c1.1606-.7625 1.8587-2.0581 1.8587-3.4468V4.125c0-2.27813-1.8468-4.125-4.125-4.125h-.0006Z"/>
    <path fill="#000" d="M52 12H12v40h40V12Z"/>
    <path fill="#fff" d="M44.4108 15.9883v3.6244h3.5818v2.1806h-3.5818v3.6381h-2.2644V21.807h-3.5819v-2.1806h3.5819v-3.6381h2.2644Z"/>
    <path fill="#fff" d="M34.1908 22.5564h2.2643v3.6244h3.5819v2.1806h-3.5819v3.6381h-2.2643v-3.6243h-3.5819v-2.1807h3.5819v-3.6381Z"/>
    <path fill="#fff" fill-rule="evenodd"
          d="M16.9961 16.9939h6.4419c1.0506 0 1.9756.1931 2.7762.5787.8.3857 1.4169.9288 1.8488 1.6294.4325.7006.6487 1.5113.6487 2.4331 0 .9219-.22 1.7488-.6594 2.46-.4393.7113-1.065 1.2613-1.8756 1.6507-.2232.1071-.4563.1995-.6992.2772l3.5555 5.9778h-3.355l-3.2351-5.6707h-2.5206v5.67h-2.9262V16.9939Zm7.5406 6.63c.3681-.1825.6519-.4431.8519-.7825.2-.3394.3-.7344.3-1.1844 0-.45-.1-.8519-.3-1.1844-.2-.3325-.4844-.5893-.8519-.7718-.3681-.1825-.7987-.2732-1.2919-.2732h-3.3231v4.47h3.3231c.4932 0 .9238-.0918 1.2919-.2737Z"
          clip-rule="evenodd"/>
    <path fill="#fff" d="M32.999 44.0002h-16v3h16v-3Z"/>
</svg>