<svg xmlns="http://www.w3.org/2000/svg" width="226" height="79" fill="none" viewBox="0 0 226 79">
    <defs>
        <linearGradient id="a" x1="64.712" x2="39.8491" y1="56.3782" y2="2.75258" gradientUnits="userSpaceOnUse">
            <stop offset=".21" stop-color="#007DFE"/>
            <stop offset=".55" stop-color="#FFB700"/>
        </linearGradient>
        <linearGradient id="b" x1="59.7719" x2="1.06701" y1="3.98138" y2="62.6868" gradientUnits="userSpaceOnUse">
            <stop offset=".23" stop-color="#FFB700"/>
            <stop offset=".73" stop-color="#FF0A67"/>
        </linearGradient>
    </defs>
    <path fill="#fff" fill-rule="evenodd"
          d="M105.698 30.96c-.86 1.39-2.08 2.47-3.66 3.24h.01c-.53.26-1.1.46-1.68.63l7.29 12.13h-6.12l-6.7297-11.6h-5.49v11.6h-5.33V17h12.7c2.06 0 3.8597.37 5.4197 1.13 1.56.76 2.76 1.83 3.61 3.21.85 1.38 1.27 2.96 1.27 4.79s-.43 3.44-1.29 4.83Zm-9.3197-.1c1.04 0 1.95-.2 2.71-.58v.01c.77-.39 1.3597-.93 1.7797-1.64.42-.7.63-1.55.63-2.49 0-.94-.21-1.76-.63-2.46-.43-.7-1.0197-1.24-1.7797-1.62-.77-.38-1.67-.57-2.71-.57h-7.06v9.35h7.06Zm20.1497-8.14h-5.76v-5.01h5.76v5.01Zm-.35 24.23h-5.05V25.03h5.05v21.92Zm18.57-21.23c1.1.64 2 1.51 2.71 2.59v-11.3h5.05v29.96h-5.05v-3.28c-.71 1.07-1.61 1.94-2.71 2.59-1.36.8-2.95 1.2-4.76 1.2-1.94 0-3.68-.49-5.22-1.47-1.54-.98-2.75-2.34-3.62-4.09-.87-1.75-1.3-3.72-1.3-5.92 0-2.2.43-4.17 1.3-5.92.87-1.75 2.08-3.11 3.61-4.09 1.53-.98 3.28-1.47 5.23-1.47 1.81 0 3.4.4 4.76 1.2Zm-.28 16.36c.94-.59 1.67-1.41 2.2-2.46.53-1.05.79-2.26.79-3.63s-.26-2.58-.79-3.63c-.52-1.05-1.26-1.87-2.2-2.46-.94-.59-2.05-.89-3.25-.89-1.2 0-2.27.3-3.21.89-.94.59-1.67 1.41-2.19 2.46s-.78 2.26-.78 3.63.26 2.59.78 3.64c.52 1.05 1.25 1.88 2.19 2.46.94.59 1.99.88 3.21.88s2.31-.3 3.25-.89Zm23.15-17.56c2.16 0 4.08.49 5.76 1.46l-.02-.01c1.69.98 3 2.33 3.93 4.06.93 1.73 1.4 3.71 1.4 5.94v1.22h-17.29c.1 1.01.35 1.94.78 2.77.54 1.05 1.28 1.87 2.23 2.45.95.59 2.02.88 3.22.88 1.06 0 2.01-.21 2.85-.62.84-.41 1.54-.99 2.1-1.73h5.5c-.52 1.36-1.27 2.52-2.25 3.49-.98.97-2.18 1.72-3.57 2.25-1.39.53-2.94.79-4.64.79-2.15 0-4.09-.5-5.81-1.48-1.72-.99-3.08-2.36-4.07-4.11-.99-1.76-1.49-3.78-1.49-5.93s.5-4.1 1.5-5.84c1-1.74 2.37-3.11 4.1-4.1 1.74-.99 3.61-1.49 5.77-1.49ZM151.5 33.8h12.018c-.12-.67-.31-1.3-.59-1.89-.5-1.06-1.21-1.89-2.13-2.49-.92-.6-1.98-.9-3.18-.9-1.2 0-2.27.29-3.22.87-.95.58-1.69 1.38-2.23 2.4-.328.6171-.538 1.2937-.668 2.01Zm27.988-7.7c1.17-.81 2.54-1.21 4.09-1.21l-.01.01h.81v5.09h-1.41c-1.12 0-2.11.21-2.94.62-.84.42-1.48 1.01-1.93 1.78-.45.77-.67 1.68-.67 2.74v11.83h-5.05V25.04h5.01v3.32c.57-.93 1.27-1.69 2.1-2.26ZM87.7046 74.19c.17-.31.25-.66.25-1.05h.01v-9.15h3.1v9.37c0 .88-.2 1.67-.61 2.38s-.97 1.26-1.68 1.66c-.71.4-1.52.6-2.41.6h-2.37v-2.85h1.95c.4 0 .75-.08 1.05-.25.31-.17.54-.4.71-.71Zm15.2604-1.9h-6.5004v3.02h7.3804v2.7H93.4446V63.99h10.2004v2.71h-7.1804v2.97h6.5004v2.62Zm6.16-5.52h-4.16v-2.78h11.39v2.78h-4.13V78h-3.1V66.77Zm17.2 3.9c.29.08.56.18.81.31h.01c.57.31 1.02.73 1.34 1.28.32.55.48 1.17.48 1.86 0 .75-.2 1.42-.61 2.01-.41.59-.98 1.05-1.72 1.38-.74.33-1.58.5-2.52.5h-6.35V63.99h6.23c.89 0 1.69.16 2.39.47.7.31 1.24.75 1.63 1.31.39.56.58 1.2.58 1.91 0 .62-.15 1.17-.44 1.65-.29.48-.7.86-1.21 1.12-.18.0945-.386.1532-.585.21l-.035.01Zm-2.8-4.33h-2.75v3.45h2.75c.38 0 .72-.08 1.01-.22.3-.14.52-.34.69-.61.17-.27.25-.59.25-.93 0-.34-.09-.64-.25-.89-.17-.26-.4-.45-.69-.59-.29-.14-.63-.21-1.01-.21Zm1.24 9.1c.32-.15.57-.35.75-.62v.02c.18-.27.27-.57.27-.93 0-.36-.09-.68-.27-.96-.18-.28-.44-.5-.76-.65-.33-.15-.7-.23-1.11-.23h-2.87v3.59h2.87c.42 0 .8-.07 1.12-.22Zm16.56-4.67c-.43.67-1.03 1.2-1.81 1.57h-.01c-.14.07-.3.13-.46.19l3.2 5.48h-3.54l-2.84-5.11h-2.02v5.11h-3.1V63.99h6.14c1.01 0 1.9.18 2.67.55.77.37 1.36.89 1.78 1.56.42.67.63 1.43.63 2.32 0 .89-.21 1.68-.64 2.35Zm-3.56-.61c.32-.16.57-.39.74-.68v.01c.17-.29.26-.63.26-1.03s-.09-.74-.26-1.03c-.17-.29-.42-.51-.74-.67-.32-.15-.7-.23-1.13-.23h-2.79v3.87h2.79c.43 0 .81-.08 1.13-.24Zm5.51 7.85 5.01-14.02h3.36l5.12 14.02h-3.09l-1.06-3.09h-5.2l-.99 3.09h-3.15Zm6.46-10.39-1.61 4.95h3.71l-1.72-4.95-.19-.9-.19.9Zm11.43 10.39h-3.2V63.99h3.2v14.02Zm5.44-14.02 6.02 9.48h.01v-9.48h2.83v14.02h-3.05l-6-9.48v9.48h-2.83V63.99h3.02Zm17.78 5.66c.71.13 1.33.4 1.88.79v-.02c.55.4.97.88 1.28 1.47.31.59.46 1.23.46 1.92 0 .85-.23 1.61-.68 2.28-.45.67-1.08 1.2-1.88 1.58-.81.38-1.74.57-2.77.57s-1.95-.19-2.75-.56c-.8-.37-1.43-.9-1.89-1.56-.46-.66-.7-1.44-.71-2.31h3.1c0 .36.1.68.29.96.19.28.46.49.81.64.35.15.75.23 1.18.23.43 0 .8-.07 1.12-.2.32-.13.56-.32.74-.57.18-.25.27-.53.27-.84 0-.39-.12-.71-.36-.97s-.57-.44-.98-.54l-2.52-.52c-.66-.14-1.24-.39-1.74-.75s-.89-.82-1.16-1.36c-.27-.55-.41-1.16-.41-1.83 0-.84.22-1.58.64-2.23.43-.65 1.02-1.16 1.78-1.53.76-.37 1.62-.55 2.6-.55s1.86.18 2.62.53c.76.35 1.36.84 1.79 1.47.43.62.66 1.35.68 2.16h-3.1c0-.3-.09-.57-.25-.81-.17-.24-.4-.42-.69-.55-.29-.14-.64-.2-1.02-.2s-.72.07-1.01.19c-.29.12-.52.3-.68.52-.16.23-.24.49-.24.79 0 .34.11.61.33.84.22.23.52.38.89.47l2.38.49Zm14.38 8.36h-3.2V63.99h3.2v14.02Zm7.88-14.02c1.33 0 2.53.31 3.59.91 1.06.61 1.9 1.44 2.5 2.51.61 1.06.91 2.27.91 3.59 0 1.32-.31 2.52-.91 3.59-.6 1.07-1.43 1.9-2.5 2.51-1.07.61-2.26.91-3.59.91h-5.47V63.99h5.47Zm2.01 10.86c.58-.35 1.03-.85 1.34-1.5v-.01c.31-.65.47-1.44.47-2.35 0-.91-.16-1.7-.47-2.35-.31-.65-.76-1.15-1.34-1.5-.58-.35-1.26-.52-2.05-.52h-2.32v8.75h2.32c.79 0 1.47-.17 2.05-.52Zm9.8-2.56v3.02h7.38v2.7h-10.4V63.99h10.2v2.71h-7.18v2.97h6.5v2.62h-6.5Z"
          clip-rule="evenodd"/>
    <path fill="#007DFE"
          d="m48.0473 58.18 11.8755-.0017c2.2493 0 4.0721-1.8234 4.0721-4.0727V42.599c0-1.1887-.5196-2.3186-1.422-3.0924L24.4115 6.79677c-.7383-.63244-1.6786-.98036-2.6508-.98036H9.88523c-2.24931 0-4.07273 1.82341-4.07273 4.07272V21.3975c0 1.1887.51956 2.3185 1.42196 3.0924L45.3953 57.1991c.7384.633 1.6786.9804 2.6514.9804l.0006.0005Z"/>
    <path fill="url(#a)"
          d="M49.4753 58.1818h10.4466c2.2493 0 4.0727-1.8234 4.0727-4.0727V41.0164c0-.1925-.014-.3851-.0407-.576L58.6762 3.49673C58.3893 1.49004 56.6712 0 54.6442 0h-15.673c-2.2499 0-4.0733 1.824-4.0728 4.07389l.0047 18.53851c0 .4375.0704.8721.2089 1.2869l10.4995 31.4979c.5544 1.6629 2.1108 2.7846 3.8638 2.7846Z"/>
    <path fill="url(#b)"
          d="M4.06687 64H38.0352c1.6291 0 3.1016-.9711 3.7434-2.4681l16.0681-37.4906c.217-.5068.3293-1.0531.3293-1.6046V4.07273C58.176 1.82342 56.3525 0 54.1032 0H36.1373c-.8047 0-1.5913.238545-2.261.685382L1.80767 22.0881c-1.13222.7558-1.811784 2.0265-1.811784 3.3874l-.001745 34.4518C-.00586 62.1766 1.81756 64 4.06687 64Z"/>
    <path fill="#000" d="M51.9941 12h-40v40h40V12Z"/>
    <path fill="#fff" fill-rule="evenodd"
          d="M43.4426 20.643c-.636-1.1382-1.5181-2.0359-2.6465-2.6787-1.1216-.6429-2.3929-.9643-3.814-.9643h-5.7104v14.9994h5.7104c1.4211 0 2.6924-.3214 3.814-.9642 1.1284-.6429 2.0105-1.5268 2.6465-2.665.6354-1.1519.9534-2.4376.9534-3.8702 0-1.4326-.318-2.7189-.9534-3.857ZM40.85 27.1517c-.3645.7502-.8822 1.3253-1.5537 1.7139-.6716.4023-1.4539.6026-2.3464.6026h-2.7533v-9.937h2.7533c.8925 0 1.6748.2009 2.3464.6021.6715.3885 1.1892.9648 1.5537 1.7144.3645.7502.5464 1.6335.5464 2.6517s-.1819 1.9021-.5464 2.6523Z"
          clip-rule="evenodd"/>
    <path fill="#fff" fill-rule="evenodd"
          d="M20.0139 26.335h2.5243L25.7673 32h3.3537l-3.5712-6.0083c.0732-.0233.1478-.0446.2224-.0659.1682-.0481.3363-.0962.4881-.1665.8145-.4018 1.4395-.9511 1.8752-1.6605.4425-.71.6641-1.5267.6641-2.4646s-.2182-1.7276-.6538-2.4239c-.4287-.6962-1.0429-1.2455-1.843-1.6335-.8001-.3885-1.7253-.5762-2.7751-.5762h-6.4393V32h2.9249l.0006-5.665Zm0-6.8974h3.3215c.493 0 .9212.0942 1.2857.2681.3713.1877.6572.4419.8569.7771.1998.3346.3002.7232.3002 1.1784 0 .4551-.0999.8437-.3002 1.1921-.2003.3346-.4856.5895-.8569.7766-.3645.1871-.7927.268-1.2857.268h-3.3215v-4.4603Z"
          clip-rule="evenodd"/>
    <path fill="#fff" d="M16.9883 44h16v3h-16v-3Z"/>
</svg>