<svg id="argxs" xmlns="http://www.w3.org/2000/svg" width="259" height="82" fill="none" viewBox="0 0 259 82">
    <defs>
        <linearGradient id="argxs_dot_trace_dark_attr_1" x1="-.390625" x2="24.3925" y1="7.67063" y2="61.1256" gradientUnits="userSpaceOnUse">
            <stop offset=".18" stop-color="#6B57FF"/>
            <stop offset=".54" stop-color="#FF2358"/>
        </linearGradient>
        <linearGradient id="argxs_dot_trace_dark_attr_2" x1="4.32509" x2="62.9207" y1="59.9325" y2="1.33625" gradientUnits="userSpaceOnUse">
            <stop offset=".12" stop-color="#FF2358"/>
            <stop offset=".92" stop-color="#FF45ED"/>
        </linearGradient>
    </defs>
    <path fill="#fff" fill-rule="evenodd" clip-rule="evenodd"
          d="M97.91 25.74c1.1.64 2 1.52 2.71 2.59v-11.3h5.05v29.96h-5.05v-3.28c-.71 1.07-1.61 1.94-2.71 2.59-1.36.8-2.95 1.2-4.76 1.2-1.94 0-3.68-.49-5.22-1.47-1.54-.98-2.75-2.34-3.62-4.09-.87-1.75-1.31-3.72-1.31-5.92 0-2.2.44-4.17 1.31-5.92.87-1.75 2.08-3.11 3.61-4.09 1.53-.98 3.27-1.47 5.23-1.47 1.81 0 3.4.4 4.76 1.2Zm-.29 16.36c.95-.59 1.68-1.41 2.21-2.46s.79-2.26.79-3.63-.26-2.58-.79-3.63c-.53-1.05-1.27-1.87-2.21-2.46-.94-.59-2.05-.89-3.25-.89-1.2 0-2.27.3-3.21.89-.94.59-1.67 1.41-2.19 2.46s-.78 2.26-.78 3.63.26 2.58.78 3.64 1.25 1.88 2.19 2.46c.94.59 1.99.88 3.21.88s2.31-.3 3.25-.89Zm23.26-17.57c2.15 0 4.11.5 5.86 1.5s3.13 2.37 4.14 4.12c1.01 1.74 1.51 3.7 1.51 5.85 0 2.15-.5 4.1-1.51 5.85s-2.38 3.12-4.14 4.12c-1.76 1-3.74 1.5-5.89 1.5-2.15 0-4.11-.5-5.86-1.5s-3.13-2.37-4.14-4.12c-1.01-1.74-1.51-3.7-1.51-5.85 0-2.15.5-4.1 1.5-5.85s2.38-3.12 4.14-4.12c1.77-1 3.75-1.5 5.9-1.5Zm3.26 17.55c.95-.58 1.69-1.4 2.21-2.46s.78-2.25.78-3.62-.26-2.58-.79-3.63c-.52-1.05-1.26-1.87-2.21-2.46-.95-.59-2.04-.89-3.26-.89-1.22 0-2.31.3-3.26.88-.95.58-1.68 1.4-2.2 2.46-.52 1.06-.78 2.28-.78 3.64 0 1.36.26 2.56.78 3.62.52 1.05 1.25 1.88 2.2 2.46.94.59 2.04.88 3.26.88 1.22 0 2.32-.3 3.27-.88Zm13.38-22.38h4.7v5.35h5.82l-.02 4.39h-5.82l.02 11.06c0 .6.2 1.1.59 1.49.4.39.89.59 1.49.59h3.72v4.39h-4.73c-1.17 0-2.23-.25-3.16-.75-.93-.5-1.66-1.2-2.18-2.08-.52-.89-.78-1.89-.78-3l-.02-11.71h-3.85l.02-4.39h2.4c.55 0 .98-.17 1.31-.5.33-.33.49-.76.49-1.29V19.7Zm11.05-2.7h23.85v4.82h-9.25v25.15h-5.31V21.82h-9.29V17Zm28.24 11.37c.57-.93 1.27-1.69 2.1-2.26l-.01.01c1.17-.81 2.54-1.21 4.09-1.21h.81V30h-1.41c-1.12 0-2.11.21-2.94.62-.84.42-1.48 1.01-1.93 1.78-.45.77-.67 1.68-.67 2.74v11.83h-5.05V25.05h5.01v3.32Zm23.28-2.64c1.11.66 2.02 1.54 2.73 2.63v-3.31h4.96v21.92h-4.96v-3.31c-.71 1.09-1.62 1.98-2.73 2.63-1.36.8-2.95 1.2-4.76 1.2-1.94 0-3.68-.49-5.22-1.47-1.54-.98-2.75-2.34-3.62-4.09-.87-1.75-1.3-3.72-1.3-5.92 0-2.2.43-4.17 1.3-5.92.87-1.75 2.08-3.11 3.61-4.09 1.53-.98 3.28-1.47 5.23-1.47 1.81 0 3.4.4 4.76 1.2Zm-.28 16.37c.94-.59 1.67-1.41 2.2-2.46.53-1.05.79-2.26.79-3.63s-.26-2.58-.79-3.63c-.52-1.05-1.26-1.87-2.2-2.46-.94-.59-2.05-.89-3.25-.89-1.2 0-2.27.3-3.21.89-.94.59-1.67 1.41-2.19 2.46s-.78 2.26-.78 3.63.26 2.58.78 3.64 1.25 1.88 2.19 2.46c.94.59 1.99.88 3.21.88s2.31-.3 3.25-.89Zm23.21-13.09c-1.17 0-2.23.3-3.16.9v-.01c-.93.6-1.66 1.43-2.19 2.49-.53 1.07-.79 2.29-.79 3.61 0 1.32.26 2.52.79 3.58.52 1.06 1.25 1.89 2.19 2.5.94.61 1.99.91 3.16.91.8 0 1.55-.15 2.25-.45.7-.3 1.31-.71 1.83-1.25s.93-1.18 1.23-1.92h5.37c-.39 1.6-1.08 3.01-2.09 4.23-1 1.22-2.25 2.17-3.73 2.85-1.48.68-3.11 1.02-4.88 1.02-2.14 0-4.07-.5-5.81-1.5-1.74-1-3.1-2.37-4.09-4.12-.99-1.74-1.49-3.7-1.49-5.85 0-2.15.5-4.1 1.49-5.85s2.36-3.12 4.09-4.12 3.67-1.5 5.81-1.5c1.77 0 3.4.34 4.88 1.02 1.48.68 2.72 1.63 3.73 2.85 1.01 1.22 1.7 2.63 2.09 4.23h-5.37c-.3-.75-.71-1.38-1.23-1.92-.52-.53-1.13-.95-1.83-1.25-.7-.3-1.45-.45-2.25-.45Zm33.9 1.04c.93 1.73 1.4 3.71 1.4 5.94l-.02-.01v1.22h-17.29c.1 1.01.35 1.94.78 2.77.54 1.05 1.28 1.87 2.23 2.45.95.59 2.02.88 3.22.88 1.06 0 2.01-.21 2.85-.62.85-.41 1.54-.99 2.1-1.73h5.5c-.52 1.36-1.27 2.52-2.25 3.49-.98.97-2.17 1.72-3.57 2.25-1.39.53-2.94.79-4.64.79-2.15 0-4.09-.5-5.81-1.48-1.72-.99-3.08-2.36-4.07-4.11-.99-1.76-1.49-3.78-1.49-5.93s.5-4.1 1.5-5.84c1-1.74 2.36-3.11 4.1-4.1 1.74-.99 3.61-1.49 5.77-1.49 2.16 0 4.08.49 5.76 1.46 1.69.98 3 2.33 3.93 4.06Zm-15.798 3.76c.13-.7163.34-1.3928.668-2.01.54-1.02 1.28-1.82 2.23-2.4.95-.58 2.02-.87 3.22-.87 1.2 0 2.26.3 3.18.9.92.6 1.63 1.43 2.13 2.49.28.59.47 1.22.59 1.89h-12.018ZM90.2292 67.5157c.869 0 1.6581.2397 2.3573.6992.6992.4694 1.2486 1.1087 1.6481 1.9178.3996.8091.5993 1.728.5993 2.7468 0 1.0189-.1997 1.9378-.5993 2.7469-.3995.819-.9489 1.4583-1.6481 1.9178-.6992.4694-1.4883.6992-2.3673.6992-.819 0-1.5382-.1798-2.1475-.5394-.4795-.2697-.8391-.6692-1.1487-1.1287v1.4284h-2.9167v-14.004h2.9267v5.1841c.3096-.4495.6692-.8491 1.1487-1.1287.6093-.3596 1.3285-.5394 2.1475-.5394Zm.4495 7.7811c.3696-.2298.6592-.5594.869-.9789s.3096-.889.3096-1.4384c0-.5493-.0998-1.0288-.3096-1.4483s-.4994-.7492-.869-.9789c-.3696-.2297-.7891-.3496-1.2785-.3496-.4895 0-.919.1199-1.2886.3496-.3695.2297-.6592.5594-.869.9789-.2097.4195-.3096.889-.3096 1.4383 0 .5494.0999 1.0289.3096 1.4484.2098.4195.4995.7491.869.9789.3696.2297.8091.3496 1.2886.3496.4794 0 .9089-.1199 1.2785-.3496Zm7.1518-7.5414 2.3575 6.3627h.01l2.167-6.3627h2.937l-4.255 10.8675c-.3.7792-.739 1.3984-1.3087 1.8679-.5693.4695-1.2685.6992-2.0876.6992h-1.8279v-2.587h1.6381c.2298 0 .4195-.05.5694-.1499.1498-.0998.2796-.2497.3895-.4594l.2997-.6093-3.9055-9.629h3.0165Zm16.5215 6.4326c.169-.3096.249-.6592.249-1.0488v-9.1395h3.097v9.3593c0 .879-.2 1.6681-.61 2.3773-.409.7091-.968 1.2585-1.678 1.6581-.709.3995-1.518.5993-2.407.5993h-2.367v-2.8468h1.958c.399 0 .749-.0799 1.048-.2497.31-.1698.54-.3995.71-.7092Zm15.242-1.8978h-6.492v3.0165h7.371v2.697h-10.388v-14.004h10.188v2.7069h-7.171v2.9666h6.492v2.617Zm6.153-5.5137h-4.155v-2.7768h11.377v2.7768h-4.126v11.2172h-3.096V66.7765Zm17.18 3.8956c.29.0799.56.1798.809.3096h.01c.57.3097 1.019.7292 1.339 1.2785.319.5494.479 1.1687.479 1.8579 0 .7492-.199 1.4184-.609 2.0077-.41.5893-.979 1.0488-1.718 1.3784-.739.3297-1.578.4995-2.517.4995h-6.343v-14.004h6.223c.889 0 1.688.1598 2.387.4695.699.3096 1.239.7491 1.628 1.3085.39.5593.58 1.1986.58 1.9078 0 .6193-.15 1.1686-.44 1.6481-.289.4794-.699.859-1.208 1.1187-.18.0943-.386.153-.585.2098l-.035.01Zm-2.796-4.3251h-2.747v3.4461h2.747c.379 0 .719-.0799 1.008-.2198.3-.1398.52-.3396.69-.6093.169-.2697.249-.5893.249-.9289 0-.3396-.09-.6393-.249-.889-.17-.2597-.4-.4495-.69-.5893-.289-.1399-.629-.2098-1.008-.2098Zm1.238 9.0896c.32-.1498.569-.3496.749-.6193v.02c.18-.2697.27-.5694.27-.9289 0-.3596-.09-.6793-.27-.9589-.18-.2797-.439-.4995-.759-.6493-.33-.1498-.699-.2297-1.109-.2297h-2.866v3.5858h2.866c.42 0 .799-.0699 1.119-.2197Zm16.541-4.6647c-.429.6693-1.029 1.1987-1.808 1.5682h-.01c-.14.07-.299.1299-.459.1898l3.196 5.4738h-3.536l-2.837-5.1042h-2.017v5.1042h-3.097v-14.004h6.133c1.009 0 1.898.1798 2.667.5494.769.3696 1.359.889 1.778 1.5582.42.6692.629 1.4284.629 2.3173 0 .889-.209 1.6781-.639 2.3473Zm-3.556-.6093c.32-.1598.57-.3895.739-.6792v.01c.17-.2897.26-.6293.26-1.0288 0-.3995-.09-.7392-.26-1.0288-.169-.2897-.419-.5094-.739-.6693-.319-.1498-.699-.2297-1.128-.2297h-2.787v3.8656h2.787c.429 0 .809-.0799 1.128-.2398Zm5.494 7.8411 5.004-14.004h3.366l5.104 14.004h-3.086l-1.059-3.0865h-5.194l-.989 3.0865h-3.146Zm6.453-10.3781-1.609 4.9443h3.706l-1.718-4.9443-.19-.899-.189.899Zm11.426 10.3781h-3.196v-14.004h3.196v14.004Zm5.434-14.004 6.013 9.4692h.01v-9.4692h2.827v14.004h-3.046l-5.994-9.4692v9.4692h-2.826v-14.004h3.016Zm19.628 6.4326c.549.3996.979.889 1.278 1.4684v-.02c.31.5893.46 1.2286.46 1.9178 0 .849-.23 1.6081-.68 2.2774-.449.6692-1.078 1.1986-1.877 1.5782-.809.3795-1.738.5693-2.767.5693s-1.948-.1898-2.747-.5594c-.799-.3695-1.428-.8989-1.888-1.5582-.459-.6592-.699-1.4383-.709-2.3073h3.096c0 .3596.1.6792.29.9589.19.2797.459.4894.809.6392.35.1499.749.2298 1.179.2298.429 0 .799-.0699 1.118-.1998.32-.1298.56-.3196.74-.5693.179-.2498.269-.5294.269-.8391 0-.3895-.12-.7092-.359-.9689-.24-.2597-.57-.4395-.979-.5393l-2.517-.5194c-.66-.1399-1.239-.3896-1.738-.7492-.5-.3596-.889-.8191-1.159-1.3584-.27-.5494-.409-1.1587-.409-1.8279 0-.8391.219-1.5782.639-2.2275.429-.6492 1.019-1.1587 1.778-1.5282.759-.3696 1.618-.5494 2.597-.5494.979 0 1.858.1798 2.617.5294.759.3496 1.358.839 1.788 1.4683.429.6193.659 1.3485.679 2.1575H211.2c0-.2996-.089-.5693-.249-.809-.17-.2398-.4-.4196-.689-.5494-.29-.1398-.64-.1998-1.019-.1998-.38 0-.719.0699-1.009.1898-.29.1199-.52.2997-.679.5194-.16.2297-.24.4894-.24.7891 0 .3396.11.6093.33.839.219.2298.519.3796.889.4695l2.377.4894c.709.1299 1.328.3996 1.878.7891Z"/>
    <path fill="#6B57FF"
          d="M16.4501 6H4.19132C1.88757 6 .03007 7.88688.066946 10.1906l.17625 11.0431C.261946 22.415.786321 23.5312 1.6832 24.3l38.1587 32.7069c.7475.6406 1.7.9931 2.6844.9931h11.3494c2.2781 0 4.125-1.8469 4.125-4.125V42.8719c0-1.1894-.5138-2.3213-1.4088-3.1044L19.1663 7.02063C18.4144 6.3625 17.4494 6 16.4501 6Z"/>
    <path fill="url(#argxs_dot_trace_dark_attr_1)"
          d="M14.9875 6H4.125C1.84687 6 0 7.84687 0 10.125v12.5656c0 .2.014375.4.04375.5981l5.44813 37.1851c.29687 2.0256 2.03437 3.5268 4.08124 3.5268H24.9706c2.2788 0 4.1256-1.8475 4.125-4.1262L29.0912 41.37c0-.4256-.0662-.8488-.1956-1.2538L18.9169 8.87062c-.5463-1.70937-2.135-2.86999-3.9294-2.86999V6Z"/>
    <path fill="url(#argxs_dot_trace_dark_attr_2)"
          d="M59.8757 0H25.7482c-1.6581 0-3.155.993125-3.8 2.52063L6.15071 39.9419c-.21875.5181-.32938 1.0756-.32438 1.6381l.15 18.3287C5.99508 62.1737 7.83633 64 10.1013 64H27.767c.8056 0 1.5931-.2356 2.2662-.6781l32.1094-21.1088c1.1606-.7625 1.8587-2.0581 1.8587-3.4468V4.125C64.0007 1.84687 62.1538 0 59.8757 0Z"/>
    <path fill="#000" d="M52 12H12v40h40V12Z"/>
    <path fill="#fff" fill-rule="evenodd" clip-rule="evenodd"
          d="M16.9902 16.9922h5.7132c1.4218 0 2.6956.3212 3.8212.9644 1.1256.6431 2.0063 1.5343 2.6425 2.6743.6356 1.14.9538 2.4275.9538 3.8644 0 1.4369-.3182 2.7244-.9538 3.8644-.6362 1.14-1.5169 2.0312-2.6425 2.6744-1.1256.6431-2.3994.9643-3.8212.9643h-5.7132V16.9922Zm8.0282 11.8762c.6718-.4 1.19-.9737 1.5543-1.7206.3644-.7469.5469-1.6306.5469-2.6531 0-1.0225-.1825-1.9063-.5469-2.6531-.3643-.7469-.8825-1.32-1.5543-1.7207-.6719-.4-1.4544-.6-2.3475-.6h-2.755v9.9469h2.755c.8931 0 1.6756-.1994 2.3475-.5994Z"/>
    <path fill="#fff" d="M32.9932 43.9984h-16v3h16v-3Z"/>
    <path fill="#fff" d="M43.1646 16.9922H31.1277l-.0006 2.6369h4.5663v12.3693h2.9262V19.6291h4.545v-2.6369Z"/>
</svg>