<svg xmlns="http://www.w3.org/2000/svg" width="292" height="79" fill="none" viewBox="0 0 292 79">
    <defs>
        <linearGradient id="ws_gr_a" x1="7.62141" x2="61.2476" y1="64.7192" y2="39.8564" gradientUnits="userSpaceOnUse">
            <stop offset=".22" stop-color="#F0EB18"/>
            <stop offset=".59" stop-color="#00C4F4"/>
        </linearGradient>
        <linearGradient id="ws_gr_b" x1="60.0186" x2="1.31316" y1="59.7777" y2="1.07287" gradientUnits="userSpaceOnUse">
            <stop offset=".19" stop-color="#00C4F4"/>
            <stop offset=".83" stop-color="#007DFE"/>
        </linearGradient>
    </defs>
    <path fill="#fff" fill-rule="evenodd"
          d="m113.704 40.17 6.76-23.18h5.42l-9.25 29.96h-5.91l-6.76-23.07-6.8296 23.07h-5.88l-9.27-29.96h5.54l6.98 23.18 6.6996-23.18h5.65l6.85 23.18Zm23.25-15.65c2.16 0 4.08.49 5.76 1.46l-.02-.01c1.69.98 3 2.33 3.93 4.06.93 1.73 1.4 3.71 1.4 5.94v1.22h-17.29c.1 1.01.35 1.94.78 2.77.54 1.05 1.28 1.87 2.23 2.45.95.59 2.02.88 3.22.88 1.06 0 2.01-.21 2.85-.62.84-.41 1.54-.99 2.1-1.73h5.5c-.52 1.36-1.27 2.52-2.25 3.49-.98.97-2.18 1.72-3.57 2.25-1.39.53-2.94.79-4.64.79-2.15 0-4.09-.5-5.81-1.48-1.72-.99-3.08-2.36-4.07-4.11-.99-1.76-1.49-3.78-1.49-5.93s.5-4.1 1.5-5.84c1-1.74 2.37-3.11 4.1-4.1 1.74-.99 3.61-1.49 5.77-1.49Zm-6.118 9.28h12.018c-.12-.67-.31-1.3-.59-1.89-.5-1.06-1.21-1.89-2.13-2.49-.92-.6-1.98-.9-3.18-.9-1.2 0-2.27.29-3.22.87-.95.58-1.69 1.38-2.23 2.4-.328.6171-.538 1.2937-.668 2.01Zm33.428-9.28c1.94 0 3.68.49 5.21 1.47v-.03c1.54.98 2.74 2.34 3.61 4.09.87 1.75 1.31 3.72 1.31 5.92 0 2.2-.44 4.17-1.31 5.92-.87 1.75-2.08 3.11-3.61 4.09-1.53.98-3.27 1.47-5.23 1.47-1.8 0-3.38-.4-4.75-1.2-1.11-.64-2.01-1.52-2.72-2.6v3.29h-5.05V16.98h5.05v11.34c.71-1.08 1.61-1.95 2.72-2.6 1.37-.8 2.96-1.2 4.77-1.2Zm1.97 17.56c.94-.59 1.67-1.41 2.19-2.46s.78-2.26.78-3.63-.26-2.58-.78-3.63c-.52-1.05-1.25-1.87-2.19-2.46-.94-.59-1.99-.89-3.21-.89s-2.31.3-3.25.89c-.95.59-1.68 1.41-2.21 2.46s-.79 2.26-.79 3.63.26 2.58.79 3.64c.53 1.05 1.27 1.88 2.21 2.46.94.59 2.05.88 3.25.88 1.2 0 2.27-.3 3.21-.89Zm25.28-12.44c1.46.33 2.76.9 3.9 1.73l-.05.03c1.14.83 2.03 1.84 2.66 3.04.63 1.2.95 2.51.95 3.94 0 1.73-.46 3.29-1.38 4.67-.92 1.38-2.21 2.47-3.87 3.26-1.66.79-3.54 1.19-5.68 1.19-2.14 0-4.04-.4-5.69-1.17-1.65-.77-2.95-1.86-3.88-3.26-.93-1.4-1.41-3.01-1.42-4.84h5.35c0 .93.25 1.74.73 2.45.48.71 1.15 1.26 2.02 1.66.87.4 1.9.6 2.99.6 1.09 0 2.04-.19 2.86-.55.83-.36 1.46-.87 1.91-1.52.45-.65.67-1.4.67-2.24 0-1.04-.31-1.9-.94-2.58-.63-.67-1.49-1.15-2.59-1.42l-5.22-1.18c-1.41-.33-2.65-.88-3.7-1.63-1.05-.75-1.88-1.69-2.46-2.8-.59-1.12-.88-2.37-.88-3.75 0-1.69.44-3.19 1.31-4.52.87-1.32 2.08-2.36 3.64-3.12 1.56-.75 3.28-1.13 5.29-1.13 2.01 0 3.8.37 5.37 1.1 1.57.73 2.79 1.76 3.66 3.06.87 1.3 1.32 2.8 1.33 4.48h-5.35c0-.79-.2-1.49-.61-2.12-.4-.63-.98-1.12-1.73-1.46-.75-.34-1.63-.51-2.6-.51-.97 0-1.83.16-2.57.49-.74.33-1.32.79-1.73 1.39-.41.6-.62 1.3-.62 2.1 0 .89.29 1.63.88 2.21.59.57 1.39 1 2.4 1.27l5.05 1.13Zm13.93-9.95h4.7v5.35h5.82l-.02 4.39h-5.82l.02 11.06c0 .6.2 1.1.59 1.49.4.39.89.59 1.49.59h3.72v4.39h-4.73c-1.17 0-2.23-.25-3.16-.75-.93-.5-1.66-1.19-2.18-2.08-.52-.89-.78-1.89-.78-3l-.02-11.71h-3.85l.02-4.39h2.4c.55 0 .98-.17 1.31-.5.33-.33.49-.76.49-1.29v-3.55Zm23.38 4.83c2.15 0 4.11.5 5.86 1.5h-.01c1.75 1 3.13 2.37 4.14 4.12 1.01 1.74 1.51 3.7 1.51 5.85 0 2.15-.51 4.1-1.51 5.85s-2.39 3.12-4.14 4.12c-1.75 1-3.73 1.5-5.88 1.5s-4.11-.5-5.86-1.5-3.13-2.38-4.14-4.12c-1.01-1.74-1.51-3.7-1.51-5.85 0-2.15.5-4.1 1.5-5.85s2.38-3.12 4.14-4.12c1.77-1 3.75-1.5 5.9-1.5Zm3.25 17.55c.95-.58 1.69-1.4 2.21-2.46s.78-2.25.78-3.62-.26-2.58-.79-3.63c-.52-1.05-1.26-1.87-2.21-2.46-.95-.59-2.04-.89-3.26-.89-1.22 0-2.31.3-3.26.88-.94.58-1.68 1.4-2.2 2.46-.52 1.06-.78 2.28-.78 3.64 0 1.36.26 2.57.78 3.62.52 1.05 1.25 1.88 2.2 2.46.94.59 2.04.88 3.26.88 1.22 0 2.31-.3 3.27-.88Zm16.91-13.72c.57-.93 1.27-1.69 2.1-2.26l-.01.01c1.17-.81 2.54-1.21 4.09-1.21h.81v5.09h-1.41c-1.12 0-2.11.21-2.94.62-.84.42-1.48 1.01-1.93 1.78-.45.77-.67 1.68-.67 2.74v11.83h-5.05V25.03h5.01v3.32Zm39.17-2.77c1.18.71 2.08 1.71 2.72 3.01l-.01.03c.63 1.3.95 2.81.95 4.54v13.83h-5.05V33.76c0-.99-.17-1.84-.5-2.55-.33-.72-.81-1.27-1.44-1.65-.63-.39-1.39-.58-2.27-.58-.94 0-1.77.21-2.49.64-.72.43-1.28 1.04-1.67 1.84-.39.8-.59 1.73-.59 2.8v12.71h-4.94V33.74c0-.99-.17-1.84-.5-2.55-.34-.72-.83-1.27-1.46-1.65-.64-.39-1.4-.58-2.28-.58-.95 0-1.79.21-2.5.64-.72.43-1.26 1.04-1.65 1.84-.39.8-.58 1.73-.58 2.8v12.71h-5.05V25.03h4.9v3.36c.61-1.14 1.39-2.05 2.37-2.71 1.16-.78 2.57-1.17 4.12-1.17 1.55 0 2.9.35 4.03 1.06 1.13.71 2.01 1.71 2.62 3.01l.06.15c.67-1.27 1.56-2.28 2.7-3.01 1.26-.8 2.73-1.2 4.41-1.2 1.56 0 2.92.35 4.1 1.06ZM87.6978 74.19c.17-.31.25-.66.25-1.05h.01v-9.15h3.1v9.37c0 .88-.2 1.67-.61 2.38s-.97 1.26-1.68 1.66c-.71.4-1.52.6-2.41.6h-2.37v-2.85h1.95c.4 0 .75-.08 1.05-.25.31-.17.54-.4.71-.71Zm15.2602-1.9h-6.5002v3.02h7.3802v2.7H93.4378V63.99h10.2002v2.71h-7.1802v2.97h6.5002v2.62Zm6.16-5.52h-4.16v-2.78h11.39v2.78h-4.13V78h-3.1V66.77Zm17.2 3.9c.29.08.56.18.81.31h.01c.57.31 1.02.73 1.34 1.28.32.55.48 1.17.48 1.86 0 .75-.2 1.42-.61 2.01-.41.59-.98 1.05-1.72 1.38-.74.33-1.58.5-2.52.5h-6.35V63.99h6.23c.89 0 1.69.16 2.39.47.7.31 1.24.75 1.63 1.31.39.56.58 1.2.58 1.91 0 .62-.15 1.17-.44 1.65-.29.48-.7.86-1.21 1.12-.18.0945-.386.1532-.585.21l-.035.01Zm-2.8-4.33h-2.75v3.45h2.75c.38 0 .72-.08 1.01-.22.3-.14.52-.34.69-.61.17-.27.25-.59.25-.93 0-.34-.09-.64-.25-.89-.17-.26-.4-.45-.69-.59-.29-.14-.63-.21-1.01-.21Zm1.24 9.1c.32-.15.57-.35.75-.62v.02c.18-.27.27-.57.27-.93 0-.36-.09-.68-.27-.96-.18-.28-.44-.5-.76-.65-.33-.15-.7-.23-1.11-.23h-2.87v3.59h2.87c.42 0 .8-.07 1.12-.22Zm16.56-4.67c-.43.67-1.03 1.2-1.81 1.57h-.01c-.14.07-.3.13-.46.19l3.2 5.48h-3.54l-2.84-5.11h-2.02v5.11h-3.1V63.99h6.14c1.01 0 1.9.18 2.67.55.77.37 1.36.89 1.78 1.56.42.67.63 1.43.63 2.32 0 .89-.21 1.68-.64 2.35Zm-3.56-.61c.32-.16.57-.39.74-.68v.01c.17-.29.26-.63.26-1.03s-.09-.74-.26-1.03c-.17-.29-.42-.51-.74-.67-.32-.15-.7-.23-1.13-.23h-2.79v3.87h2.79c.43 0 .81-.08 1.13-.24Zm5.51 7.85 5.01-14.02h3.36l5.12 14.02h-3.09l-1.06-3.09h-5.2l-.99 3.09h-3.15Zm6.46-10.39-1.61 4.95h3.71l-1.72-4.95-.19-.9-.19.9Zm11.43 10.39h-3.2V63.99h3.2v14.02Zm5.44-14.02 6.02 9.48h.01v-9.48h2.83v14.02h-3.05l-6-9.48v9.48h-2.83V63.99h3.02Zm17.78 5.66c.71.13 1.33.4 1.88.79v-.02c.55.4.97.88 1.28 1.47.31.59.46 1.23.46 1.92 0 .85-.23 1.61-.68 2.28-.45.67-1.08 1.2-1.88 1.58-.81.38-1.74.57-2.77.57s-1.95-.19-2.75-.56c-.8-.37-1.43-.9-1.89-1.56-.46-.66-.7-1.44-.71-2.31h3.1c0 .36.1.68.29.96.19.28.46.49.81.64.35.15.75.23 1.18.23.43 0 .8-.07 1.12-.2.32-.13.56-.32.74-.57.18-.25.27-.53.27-.84 0-.39-.12-.71-.36-.97s-.57-.44-.98-.54l-2.52-.52c-.66-.14-1.24-.39-1.74-.75s-.89-.82-1.16-1.36c-.27-.55-.41-1.16-.41-1.83 0-.84.22-1.58.64-2.23.43-.65 1.02-1.16 1.78-1.53.76-.37 1.62-.55 2.6-.55s1.86.18 2.62.53c.76.35 1.36.84 1.79 1.47.43.62.66 1.35.68 2.16h-3.1c0-.3-.09-.57-.25-.81-.17-.24-.4-.42-.69-.55-.29-.14-.64-.2-1.02-.2s-.72.07-1.01.19c-.29.12-.52.3-.68.52-.16.23-.24.49-.24.79 0 .34.11.61.33.84.22.23.52.38.89.47l2.38.49Zm14.38 8.36h-3.2V63.99h3.2v14.02Zm7.88-14.02c1.33 0 2.53.31 3.59.91 1.06.61 1.9 1.44 2.5 2.51.61 1.06.91 2.27.91 3.59 0 1.32-.31 2.52-.91 3.59-.6 1.07-1.43 1.9-2.5 2.51-1.07.61-2.26.91-3.59.91h-5.47V63.99h5.47Zm2.01 10.86c.58-.35 1.03-.85 1.34-1.5v-.01c.31-.65.47-1.44.47-2.35 0-.91-.16-1.7-.47-2.35-.31-.65-.76-1.15-1.34-1.5-.58-.35-1.26-.52-2.05-.52h-2.32v8.75h2.32c.79 0 1.47-.17 2.05-.52Zm9.8-2.56v3.02h7.38v2.7h-10.4V63.99h10.2v2.71h-7.18v2.97h6.5v2.62h-6.5Z"
          clip-rule="evenodd"/>
    <path fill="#F0EB18"
          d="m5.81836 48.0512.00174 11.8755c0 2.2493 1.82342 4.0721 4.07273 4.0721H21.3994c1.1887 0 2.3186-.5196 3.0924-1.422l32.7098-38.1614c.6325-.7383.9804-1.6786.9804-2.6508V9.88913c0-2.24931-1.8234-4.07272-4.0727-4.07272H42.6009c-1.1887 0-2.3185.51956-3.0924 1.42196L6.79872 45.3998c-.63302.7383-.98036 1.6786-.98036 2.6514Z"/>
    <path fill="url(#ws_gr_a)"
          d="M5.81836 49.4825v10.4466c0 2.2493 1.82342 4.0727 4.07273 4.0727H22.9837c.1926 0 .3852-.014.576-.0407l36.9437-5.2771c2.0067-.2868 3.4968-2.005 3.4968-4.032V38.979c0-2.2499-1.824-4.0733-4.0739-4.0727l-18.5385.0046c-.4375 0-.8721.0704-1.287.2089L8.60294 45.6193c-1.66284.5544-2.78458 2.1108-2.78458 3.8638v-.0006Z"/>
    <path fill="url(#ws_gr_b)"
          d="M0 4.07273V38.041c0 1.6291.971054 3.1017 2.46807 3.7434L39.9587 57.8525c.5067.217 1.0531.3293 1.6046.3293h18.364c2.2493 0 4.0727-1.8234 4.0727-4.0727v-17.966c0-.8046-.2386-1.5913-.6854-2.2609L41.9113 1.81353C41.1561.681309 39.8854.001745 38.5239.001745L4.07273 0C1.82342 0 0 1.82342 0 4.07273Z"/>
    <path fill="#000" d="M52 12H12v40h40V12Z"/>
    <path fill="#fff"
          d="m21.2377 27.961-2.4224-10.9532h-3.0321l3.6224 15.0044h3.3226l2.5613-10.8998 2.5292 10.8998h3.333l3.6441-15.0044h-2.9689L29.4797 27.961l-2.7008-10.9532h-2.9581L21.2377 27.961Z"/>
    <path fill="#fff"
          d="M38.2224 31.6804c.8429.3927 1.8074.5896 2.8937.5896s2.0515-.1998 2.8944-.6005c.8428-.4008 1.4968-.9503 1.9613-1.6507.4714-.7074.7073-1.5049.7073-2.3903 0-.7222-.1607-1.3865-.4822-1.9934-.3216-.6149-.7717-1.1294-1.3505-1.5434-.5718-.422-1.2252-.7073-1.9613-.8572l-2.551-.5575c-.4644-.1137-.8325-.3066-1.1041-.5787-.2646-.2722-.3967-.615-.3967-1.0289 0-.364.0965-.6815.2894-.9537.1929-.2785.461-.4932.8038-.643.3497-.1568.7539-.236 1.2109-.236.457 0 .8607.0815 1.2109.2463.3571.1567.6321.3818.8251.6752.1929.2854.2893.6109.2893.9755h2.9259c-.0074-.8572-.236-1.614-.6861-2.272-.4432-.6648-1.0645-1.1833-1.8649-1.5542-.8003-.3715-1.7253-.5575-2.7329-.5575-1.0077 0-1.908.1929-2.7009.5788-.7929.3789-1.4107.9106-1.8539 1.5967-.4427.6792-.6643 1.4469-.6643 2.3041 0 .7073.1464 1.3441.4392 1.9079.2934.5644.7039 1.0398 1.2327 1.4256.5288.379 1.1506.6471 1.8649.8038l2.6474.5897c.5076.1223.9037.3393 1.1897.654.2928.3146.4392.7113.4392 1.1896 0 .3859-.1074.7286-.3215 1.0289-.2073.3003-.5036.5357-.8894.7074-.3789.1648-.8004.2463-1.3292.2463-.5288 0-.9967-.0925-1.4038-.2785-.4071-.186-.7251-.4432-.9537-.7716-.2285-.3279-.3427-.7114-.3427-1.1466h-2.9368c.0143.9215.2572 1.7362.7286 2.4436.4788.7073 1.1362 1.2579 1.9722 1.6507Z"/>
    <path fill="#fff" d="M16.9932 44h16v3h-16v-3Z"/>
</svg>