<svg id="argxs" xmlns="http://www.w3.org/2000/svg" width="275" height="79" fill="none" viewBox="0 0 275 79">
    <defs>
        <linearGradient id="argxs_data_spell_light_attr_1" x1="3.98196" x2="62.6868" y1="4.22439" y2="62.9293" gradientUnits="userSpaceOnUse">
            <stop offset=".28" stop-color="#007DFE"/>
            <stop offset=".73" stop-color="#00D980"/>
        </linearGradient>
        <linearGradient id="argxs_data_spell_light_attr_2" x1="56.3788" x2="1.93862" y1="-.717381" y2="24.5231" gradientUnits="userSpaceOnUse">
            <stop offset=".32" stop-color="#F0EB18"/>
            <stop offset=".55" stop-color="#007DFE"/>
        </linearGradient>
    </defs>
    <path fill="#000" fill-rule="evenodd" clip-rule="evenodd"
          d="M95.2241 17.0369c2.83 0 5.3599.65 7.5899 1.93l.01-.02c2.23 1.29 3.98 3.06 5.23 5.33 1.25 2.27 1.88 4.84 1.88 7.73 0 2.89-.62 5.46-1.88 7.73-1.25 2.27-3 4.05-5.23 5.33-2.24 1.29-4.7599 1.93-7.5899 1.93h-11.24v-29.96h11.23Zm4.8599 24.06c1.4-.85 2.49-2.04 3.25-3.6v.01c.76-1.56 1.14-3.38 1.14-5.48 0-2.1-.38-3.92-1.14-5.48-.76-1.56-1.85-2.76-3.25-3.6-1.3999-.84-3.0399-1.26-4.8899-1.26h-5.86v20.67h5.86c1.85 0 3.49-.41 4.8899-1.26Zm27.92-15.33c1.11.66 2.02 1.54 2.73 2.63v-3.31h4.96v21.92h-4.96v-3.31c-.71 1.09-1.62 1.98-2.73 2.63-1.36.8-2.95 1.2-4.76 1.2-1.94 0-3.68-.49-5.22-1.47-1.54-.98-2.75-2.34-3.62-4.09-.87-1.75-1.3-3.72-1.3-5.92 0-2.2.43-4.17 1.3-5.92.87-1.75 2.08-3.11 3.61-4.09 1.53-.98 3.28-1.47 5.23-1.47 1.81 0 3.4.4 4.76 1.2Zm-.29 16.36c.94-.59 1.67-1.41 2.2-2.46.53-1.05.79-2.26.79-3.63s-.26-2.58-.79-3.63c-.52-1.05-1.26-1.87-2.2-2.46-.94-.59-2.05-.89-3.25-.89-1.2 0-2.27.3-3.21.89-.94.59-1.67 1.41-2.19 2.46s-.78 2.26-.78 3.63.26 2.58.78 3.64 1.25 1.88 2.19 2.46c.94.59 1.99.88 3.21.88s2.31-.3 3.25-.89Zm15.11-22.39h4.7v5.35h5.82l-.02 4.39h-5.82l.02 11.06c0 .6.2 1.1.59 1.49.39.39.89.59 1.49.59h3.72v4.39h-4.73c-1.17 0-2.23-.25-3.16-.75-.93-.5-1.66-1.2-2.18-2.08-.52-.89-.78-1.89-.78-3l-.02-11.71h-3.85l.02-4.39h2.4c.55 0 .98-.16 1.31-.5.32-.33.49-.76.49-1.29v-3.55Zm27.02 6.03c1.11.66 2.02 1.54 2.73 2.63v-3.31h4.97v21.92h-4.97v-3.31c-.71 1.09-1.62 1.98-2.73 2.63-1.36.8-2.95 1.2-4.76 1.2-1.94 0-3.68-.49-5.22-1.47-1.54-.98-2.75-2.34-3.62-4.09-.87-1.75-1.31-3.72-1.31-5.92 0-2.2.44-4.17 1.31-5.92.87-1.75 2.08-3.11 3.61-4.09 1.53-.98 3.27-1.47 5.23-1.47 1.81 0 3.4.4 4.76 1.2Zm-.29 16.36c.95-.59 1.68-1.41 2.21-2.46s.79-2.26.79-3.63-.26-2.58-.79-3.63c-.53-1.05-1.27-1.87-2.21-2.46-.94-.59-2.05-.89-3.25-.89-1.2 0-2.27.3-3.21.89-.94.59-1.67 1.41-2.19 2.46s-.78 2.26-.78 3.63.26 2.58.78 3.64 1.25 1.88 2.19 2.46c.94.59 1.99.88 3.21.88s2.31-.3 3.25-.89Zm26.82-12.44c1.45.33 2.75.9 3.89 1.73l-.04.03c1.15.83 2.03 1.84 2.67 3.04.63 1.2.95 2.51.95 3.94 0 1.73-.46 3.29-1.38 4.67-.92 1.38-2.21 2.47-3.87 3.26-1.66.79-3.54 1.19-5.68 1.19-2.14 0-4.04-.39-5.69-1.17-1.65-.77-2.95-1.86-3.88-3.26-.93-1.4-1.41-3.01-1.42-4.84h5.35c0 .93.24 1.74.73 2.45.48.71 1.16 1.26 2.02 1.66.87.4 1.9.6 2.99.6 1.09 0 2.04-.19 2.86-.55.82-.36 1.45-.87 1.9-1.52.45-.65.67-1.4.67-2.24 0-1.04-.31-1.91-.94-2.58-.63-.67-1.49-1.15-2.59-1.42l-5.22-1.18c-1.41-.33-2.64-.87-3.7-1.63-1.05-.75-1.87-1.68-2.46-2.8-.59-1.12-.88-2.37-.88-3.75 0-1.69.44-3.19 1.31-4.52.87-1.32 2.09-2.36 3.64-3.12 1.56-.75 3.28-1.13 5.29-1.13 2.01 0 3.8.37 5.37 1.1 1.57.73 2.79 1.75 3.66 3.06.87 1.3 1.32 2.8 1.33 4.48h-5.35c0-.79-.21-1.49-.61-2.12-.4-.63-.98-1.12-1.73-1.46-.75-.34-1.63-.51-2.6-.51-.97 0-1.83.16-2.57.49-.74.33-1.32.79-1.73 1.39-.41.6-.62 1.3-.62 2.1 0 .89.3 1.63.88 2.21.59.57 1.39 1 2.4 1.27l5.05 1.13Zm24.13-5.12c1.95 0 3.7.49 5.23 1.47l.01-.03c1.54.98 2.74 2.34 3.61 4.09.87 1.75 1.3 3.72 1.3 5.92 0 2.2-.43 4.17-1.3 5.92-.87 1.75-2.08 3.11-3.62 4.09s-3.28 1.47-5.22 1.47c-1.81 0-3.4-.4-4.76-1.2-1.11-.64-2-1.52-2.71-2.6v10.14h-5.05v-28.76h4.94v3.47c.72-1.16 1.65-2.1 2.82-2.78 1.37-.8 2.95-1.2 4.75-1.2Zm1.99 17.56c.94-.59 1.67-1.41 2.19-2.46s.78-2.26.78-3.63-.26-2.58-.78-3.63c-.52-1.05-1.25-1.87-2.19-2.46-.94-.59-1.99-.89-3.21-.89s-2.31.3-3.25.89c-.94.59-1.67 1.41-2.2 2.46-.53 1.05-.79 2.26-.79 3.63s.26 2.58.79 3.64c.52 1.06 1.26 1.88 2.2 2.46.94.59 2.05.88 3.25.88 1.2 0 2.27-.3 3.21-.89Zm22.05-17.56c2.16 0 4.08.49 5.76 1.46l-.02-.01c1.69.98 3 2.33 3.93 4.06.93 1.73 1.4 3.71 1.4 5.94v1.22h-17.29c.1 1.01.35 1.94.78 2.77.54 1.05 1.28 1.87 2.23 2.45.95.59 2.02.88 3.22.88 1.06 0 2.01-.21 2.85-.62.85-.41 1.54-.99 2.1-1.73h5.5c-.52 1.36-1.27 2.52-2.25 3.49-.98.97-2.17 1.72-3.57 2.25-1.39.53-2.94.79-4.64.79-2.15 0-4.09-.5-5.81-1.48-1.72-.99-3.08-2.36-4.07-4.11-.99-1.76-1.49-3.78-1.49-5.93s.5-4.1 1.5-5.84c1-1.74 2.36-3.11 4.1-4.1 1.74-.99 3.61-1.49 5.77-1.49Zm-6.118 9.28h12.018c-.12-.67-.31-1.3-.59-1.89-.5-1.06-1.21-1.89-2.13-2.49-.92-.6-1.98-.9-3.18-.9-1.2 0-2.27.29-3.22.87-.95.58-1.69 1.38-2.23 2.4-.328.6171-.538 1.2937-.668 2.01Zm25.908 13.15h-5.05v-29.96h5.05v29.96Zm4.89 0v-29.96h5.05v29.96h-5.05Zm-181.5199 27.19c.17-.31.25-.66.25-1.05h.01v-9.15h3.1v9.37c0 .88-.2 1.67-.61 2.38s-.97 1.26-1.68 1.66c-.71.4-1.52.6-2.41.6h-2.37v-2.85h1.95c.4 0 .75-.08 1.05-.25.31-.17.54-.4.71-.71Zm15.2599-1.9h-6.4999v3.02h7.3799v2.7H93.4441v-14.02h10.1999v2.71h-7.1799v2.97h6.4999v2.62Zm6.16-5.52h-4.16v-2.78h11.39v2.78h-4.13v11.23h-3.1v-11.23Zm17.2 3.9c.29.08.56.18.81.31h.01c.57.31 1.02.73 1.34 1.28.32.55.48 1.17.48 1.86 0 .75-.2 1.42-.61 2.01-.41.59-.98 1.05-1.72 1.38-.74.33-1.58.5-2.52.5h-6.35v-14.02h6.23c.89 0 1.69.16 2.39.47.7.31 1.24.75 1.63 1.31.39.56.58 1.2.58 1.91 0 .62-.15 1.17-.44 1.65-.29.48-.7.86-1.21 1.12-.179.0944-.386.1532-.585.21l-.035.01Zm-2.8-4.33h-2.75v3.45h2.75c.38 0 .72-.08 1.01-.22.3-.14.52-.34.69-.61.17-.27.25-.59.25-.93 0-.34-.09-.64-.25-.89-.17-.26-.4-.45-.69-.59-.29-.14-.63-.21-1.01-.21Zm1.24 9.1c.32-.15.57-.35.75-.62v.02c.18-.27.27-.57.27-.93 0-.36-.09-.68-.27-.96-.18-.28-.44-.5-.76-.65-.33-.15-.7-.23-1.11-.23h-2.87v3.59h2.87c.42 0 .8-.07 1.12-.22Zm16.56-4.67c-.43.67-1.03 1.2-1.81 1.57h-.01c-.14.07-.3.13-.46.19l3.2 5.48h-3.54l-2.84-5.11h-2.02v5.11h-3.1v-14.02h6.14c1.01 0 1.9.18 2.67.55.77.37 1.36.89 1.78 1.56.42.67.63 1.43.63 2.32 0 .89-.21 1.68-.64 2.35Zm-3.56-.61c.32-.16.57-.39.74-.68v.01c.17-.29.26-.63.26-1.03s-.09-.74-.26-1.03c-.17-.29-.42-.51-.74-.67-.32-.15-.7-.23-1.13-.23h-2.79v3.87h2.79c.43 0 .81-.08 1.13-.24Zm5.51 7.85 5.01-14.02h3.36l5.12 14.02h-3.09l-1.06-3.09h-5.2l-.99 3.09h-3.15Zm6.46-10.39-1.61 4.95h3.71l-1.72-4.95-.19-.9-.19.9Zm11.43 10.39h-3.2v-14.02h3.2v14.02Zm5.44-14.02 6.02 9.48h.01v-9.48h2.83v14.02h-3.05l-6-9.48v9.48h-2.83v-14.02h3.02Zm17.78 5.66c.71.13 1.33.4 1.88.79v-.02c.55.4.97.88 1.28 1.47.31.59.46 1.23.46 1.92 0 .85-.23 1.61-.68 2.28-.45.67-1.08 1.2-1.88 1.58-.81.38-1.74.57-2.77.57s-1.95-.19-2.75-.56c-.8-.37-1.43-.9-1.89-1.56-.46-.66-.7-1.44-.71-2.31h3.1c0 .36.1.68.29.96.19.28.46.49.81.64.35.15.75.23 1.18.23.43 0 .8-.07 1.12-.2.32-.13.56-.32.74-.57.18-.25.27-.53.27-.84 0-.39-.12-.71-.36-.97s-.57-.44-.98-.54l-2.52-.52c-.66-.14-1.24-.39-1.74-.75s-.89-.82-1.16-1.36c-.27-.55-.41-1.16-.41-1.83 0-.84.22-1.58.64-2.23.43-.65 1.02-1.16 1.78-1.53.76-.37 1.62-.55 2.6-.55s1.86.18 2.62.53c.76.35 1.36.84 1.79 1.47.43.62.66 1.35.68 2.16h-3.1c0-.3-.09-.57-.25-.81-.17-.24-.4-.42-.69-.55-.29-.14-.64-.2-1.02-.2s-.72.07-1.01.19c-.29.12-.52.3-.68.52-.16.23-.24.49-.24.79 0 .34.11.61.33.84.22.23.52.38.89.47l2.38.49Zm14.38 8.36h-3.2v-14.02h3.2v14.02Zm7.88-14.02c1.33 0 2.53.31 3.59.91 1.06.61 1.9 1.44 2.5 2.51.61 1.06.91 2.27.91 3.59 0 1.32-.31 2.52-.91 3.59-.6 1.07-1.43 1.9-2.5 2.51-1.07.61-2.26.91-3.59.91h-5.47v-14.02h5.47Zm2.01 10.86c.58-.35 1.03-.85 1.34-1.5v-.01c.31-.65.47-1.44.47-2.35 0-.91-.16-1.7-.47-2.35-.31-.65-.76-1.15-1.34-1.5-.58-.35-1.26-.52-2.05-.52h-2.32v8.75h2.32c.79 0 1.47-.17 2.05-.52Zm9.8-2.56v3.02h7.38v2.7h-10.4v-14.02h10.2v2.71h-7.18v2.97h6.5v2.62h-6.5Z"/>
    <path fill="url(#argxs_data_spell_light_attr_1)"
          d="M64 59.9294V25.9611c0-1.6291-.9711-3.1017-2.4681-3.7434L24.0413 6.14962c-.5068-.21702-1.0531-.32931-1.6046-.32931H4.07273C1.82342 5.82031 0 7.64373 0 9.89304V27.859c0 .8047.238545 1.5913.685382 2.261L22.0887 62.1886c.7552 1.1322 2.0265 1.8118 3.3874 1.8118l34.4512.0017c2.2493 0 4.0727-1.8234 4.0727-4.0727Z"/>
    <path fill="url(#argxs_data_spell_light_attr_2)"
          d="M58.1818 14.5193V4.07273C58.1818 1.82342 56.3584 0 54.1091 0H41.0164c-.1925 0-.3851.013964-.576.040727L3.49673 5.3184C1.49062 5.60465 0 7.32334 0 9.34982V25.0228c0 2.2499 1.824 4.0733 4.07389 4.0728l18.53851-.0047c.4375 0 .8721-.0704 1.2869-.2089l31.4979-10.4995c1.6629-.5544 2.7846-2.1108 2.7846-3.8638v.0006Z"/>
    <path fill="#F0EB18"
          d="m58.182 15.9476-.0018-11.87545C58.1797 1.82342 56.3562 0 54.1075 0H42.6009c-1.1886 0-2.3185.519564-3.0924 1.42196L6.79872 39.5834c-.63243.7383-.98036 1.6786-.98036 2.6508v11.8755c0 2.2493 1.82342 4.0727 4.07273 4.0727H21.3994c1.1887 0 2.3186-.5196 3.0924-1.422L57.2016 18.599c.6331-.7383.9804-1.6786.9804-2.6514Z"/>
    <path fill="#000" d="M52 12H12v40h40V12Z"/>
    <path fill="#fff" fill-rule="evenodd" clip-rule="evenodd"
          d="M22.8086 16.966h-5.7144v15.0099h5.7144c1.4222 0 2.6944-.3216 3.8167-.9649 1.1292-.6433 2.012-1.5278 2.6484-2.6668.6358-1.1522.954-2.4388.954-3.873 0-1.4342-.3182-2.7208-.954-3.8597-.6364-1.1396-1.5192-2.0373-2.6484-2.6806-1.1223-.6433-2.3945-.9649-3.8167-.9649Zm2.3159 11.8744c-.672.4021-1.4543.6031-2.348.6031l-2.7553-.0005v-9.9441h2.7553c.8931 0 1.676.201 2.348.6031.672.3889 1.1901.9649 1.5548 1.7156s.5468 1.6353.5468 2.6536c0 1.0184-.1821 1.9029-.5468 2.6536-.3647.7507-.8828 1.3268-1.5548 1.7156Z"/>
    <path fill="#fff"
          d="M34.3597 31.6411c.8438.402 1.8087.5898 2.8949.5898 1.0867 0 2.0522-.2016 2.8954-.6036.8437-.3889 1.4973-.9517 1.962-1.6485.4715-.7099.7076-1.5008.7076-2.3853 0-.7237-.1608-1.394-.4825-1.9971-.3216-.6163-.7719-1.1257-1.3509-1.541-.5715-.4285-1.2257-.7099-1.962-.8575l-2.5519-.5629c-.4647-.1069-.8329-.3079-1.1045-.5761-.2648-.2683-.3969-.6169-.3969-1.0322 0-.3618.0965-.6835.2895-.9517.1929-.2814.4612-.4957.8041-.6433.3503-.1608.7541-.2412 1.2113-.2412.4572 0 .861.0936 1.2114.2544.3572.1609.6323.3757.8253.6703.193.2947.2895.6163.2895.9782h2.927c-.0075-.8581-.2361-1.6221-.6864-2.2786-.4428-.657-1.0649-1.1797-1.8655-1.5548-.8007-.3618-1.726-.5491-2.734-.5491s-1.9087.1873-2.7019.5761c-.7932.3757-1.4112.9116-1.8546 1.595-.4428.683-.6645 1.4475-.6645 2.305 0 .7105.1464 1.3406.4394 1.9167.2935.5628.7041 1.0315 1.2331 1.4204.529.375 1.1511.6433 1.8656.8041l2.6484.5899c.5077.1206.904.3348 1.1901.6565.2929.3084.4394.7105.4394 1.1929 0 .3751-.1074.7237-.3217 1.0184-.2067.3084-.5037.5364-.8897.7105-.3791.1608-.8012.2544-1.3296.2544-.5285 0-.9971-.0936-1.4044-.2814-.4072-.1873-.7254-.4423-.954-.7771-.2286-.3217-.3429-.71-.3429-1.139h-2.9379c.0144.9115.2573 1.7288.7289 2.4393.479.7105 1.1367 1.2602 1.9729 1.6485Z"/>
    <path fill="#fff" d="M16.9941 44.0009h16v3h-16v-3Z"/>
</svg>