<svg xmlns="http://www.w3.org/2000/svg" width="358" height="74" fill="none" viewBox="0 0 358 74">
    <defs>
        <linearGradient id="a" x1="3.67981" x2="44.5038" y1="5.32" y2="42.84" gradientUnits="userSpaceOnUse">
            <stop offset="0" stop-color="#3BEA62"/>
            <stop offset="1" stop-color="#6B57FF"/>
        </linearGradient>
    </defs>
    <path fill="#fff" fill-rule="evenodd"
          d="M82.2078 13.33c-1.84 0-3.51.46-5 1.38v-.01c-1.49.92-2.66 2.19-3.5 3.81-.84 1.62-1.26 3.44-1.26 5.47s.42 3.85 1.26 5.47c.84 1.62 2.01 2.89 3.5 3.81 1.49.92 3.16 1.38 5 1.38 1.36 0 2.61-.22 3.78-.68 1.17-.46 2.17-1.11 3-1.97.83-.86 1.46-1.86 1.87-3h5.61c-.49 2.06-1.39 3.88-2.73 5.47-1.34 1.59-3 2.82-5 3.7-2 .88-4.19 1.32-6.57 1.32-2.86 0-5.44-.67-7.74-2.02-2.31-1.34-4.12-3.2-5.44-5.56-1.32-2.36-1.98-5-1.98-7.91s.66-5.55 1.98-7.91c1.32-2.36 3.14-4.21 5.44-5.56 2.31-1.35 4.89-2.02 7.74-2.02 2.38 0 4.57.44 6.57 1.32 2 .87 3.66 2.11 5 3.7 1.34 1.59 2.25 3.42 2.73 5.47h-5.61c-.41-1.15-1.03-2.14-1.87-3-.84-.86-1.83-1.51-3-1.97-1.17-.46-2.42-.69-3.78-.69Zm28.3702 3.21c2.15 0 4.11.5 5.86 1.5s3.13 2.37 4.14 4.12c1.01 1.74 1.51 3.7 1.51 5.85 0 2.15-.5 4.1-1.51 5.85s-2.38 3.12-4.14 4.12c-1.76 1-3.74 1.5-5.89 1.5-2.15 0-4.11-.5-5.86-1.5s-3.13-2.37-4.14-4.12c-1.0102-1.74-1.5102-3.7-1.5102-5.85 0-2.15.5-4.1 1.5002-5.85 1-1.75 2.38-3.12 4.14-4.12 1.77-1 3.75-1.5 5.9-1.5Zm3.26 17.55c.95-.58 1.69-1.4 2.21-2.46s.78-2.25.78-3.62-.26-2.58-.79-3.63c-.52-1.05-1.26-1.87-2.21-2.46-.95-.59-2.04-.89-3.26-.89-1.22 0-2.31.3-3.26.88-.95.58-1.68 1.4-2.2 2.46-.52 1.06-.78 2.28-.78 3.64 0 1.36.26 2.56.78 3.62.52 1.05 1.25 1.88 2.2 2.46.94.59 2.04.88 3.26.88 1.22 0 2.32-.3 3.27-.88Zm25.67-16.35c1.1.64 2 1.51 2.71 2.59V9h5.05v29.99h-5.05v-3.28c-.71 1.07-1.61 1.94-2.71 2.59-1.36.8-2.95 1.2-4.76 1.2-1.94 0-3.68-.49-5.22-1.47-1.54-.98-2.75-2.34-3.62-4.09-.87-1.75-1.3-3.72-1.3-5.92 0-2.2.43-4.17 1.3-5.92.87-1.75 2.08-3.11 3.61-4.09 1.53-.98 3.28-1.47 5.23-1.47 1.81 0 3.4.4 4.76 1.2Zm-.28 16.36c.94-.59 1.67-1.41 2.2-2.46.53-1.05.79-2.26.79-3.63s-.26-2.58-.79-3.63c-.52-1.05-1.26-1.87-2.2-2.46-.94-.59-2.05-.89-3.25-.89-1.2 0-2.27.3-3.21.89-.94.59-1.67 1.41-2.19 2.46s-.78 2.26-.78 3.63.26 2.58.78 3.64 1.25 1.88 2.19 2.46c.94.59 1.99.88 3.21.88s2.31-.3 3.25-.89Zm23.14-17.57c2.16 0 4.08.49 5.76 1.46l-.02-.01c1.69.98 3 2.33 3.93 4.06.93 1.73 1.4 3.71 1.4 5.94v1.22h-17.29c.1 1.01.35 1.94.78 2.77.54 1.05 1.28 1.87 2.23 2.45.95.59 2.02.88 3.22.88 1.06 0 2.01-.21 2.85-.62.84-.41 1.54-.99 2.1-1.73h5.5c-.52 1.36-1.27 2.52-2.25 3.49-.98.97-2.17 1.72-3.57 2.25-1.39.53-2.94.79-4.64.79-2.15 0-4.09-.5-5.81-1.48-1.72-.99-3.08-2.36-4.07-4.11-.99-1.76-1.49-3.78-1.49-5.93s.5-4.1 1.5-5.84c1-1.74 2.37-3.11 4.1-4.1 1.74-.99 3.61-1.49 5.77-1.49Zm-6.108 9.29h12.018c-.12-.67-.31-1.3-.59-1.89-.5-1.06-1.21-1.89-2.13-2.49-.92-.6-1.98-.9-3.18-.9-1.2 0-2.27.29-3.22.87-.95.58-1.69 1.38-2.23 2.4-.329.6171-.538 1.2937-.668 2.01ZM212.448 9l6.85 23.18L226.058 9h5.42l-9.24 29.96h-5.91l-6.76-23.07-6.83 23.07h-5.88L187.588 9h5.54l6.97 23.18 6.7-23.18h5.65Zm26.78 29.97h-5.05V17.05h5.05v21.92Zm.35-24.23h-5.76V9.73h5.76v5.01Zm6.68-3.04h4.7v5.35h5.82l-.02 4.39h-5.82l.02 11.06c0 .6.2 1.1.59 1.49.4.39.89.59 1.49.59h3.72v4.39h-4.73c-1.17 0-2.23-.25-3.16-.75-.93-.5-1.66-1.2-2.18-2.08-.52-.89-.78-1.89-.78-3l-.02-11.71h-3.85l.02-4.39h2.4c.55 0 .98-.17 1.31-.5.33-.33.49-.76.49-1.29V11.7Zm25.39 4.83c1.57 0 2.95.34 4.13 1.03l.01.02c1.18.68 2.11 1.68 2.76 2.97.65 1.29.98 2.84.98 4.64v13.78h-5.03V25.96c0-1.06-.18-1.96-.54-2.7-.36-.74-.87-1.31-1.54-1.7-.67-.39-1.47-.59-2.4-.59-.99 0-1.88.22-2.65.67-.77.45-1.37 1.07-1.79 1.87-.42.8-.63 1.72-.63 2.76v12.69h-5.05V9h4.94v6.78l-.06 4.04v.57c.64-1.12 1.46-2.02 2.5-2.68 1.25-.79 2.7-1.18 4.37-1.18Zm42.35 15.74.49-1.67v-.01L323.458 9h6.91v29.96h-5.26V17.69l.04-1.13-9.27 22.41h-3.94l-9.25-22.26.06.98v21.27h-5.26V9h6.83l9.19 21.6.49 1.67Zm41.67-10.22c.93 1.73 1.4 3.71 1.4 5.94l-.02-.01v1.22h-17.29c.1 1.01.35 1.94.78 2.77.54 1.05 1.28 1.87 2.23 2.45.95.59 2.02.88 3.22.88 1.06 0 2.01-.21 2.85-.62.85-.41 1.54-.99 2.1-1.73h5.5c-.52 1.36-1.27 2.52-2.25 3.49-.98.97-2.17 1.72-3.57 2.25-1.39.53-2.94.79-4.64.79-2.15 0-4.09-.5-5.81-1.48-1.72-.99-3.08-2.36-4.07-4.11-.99-1.76-1.49-3.78-1.49-5.93s.5-4.1 1.5-5.84c1-1.74 2.36-3.11 4.1-4.1 1.74-.99 3.61-1.49 5.77-1.49 2.16 0 4.08.49 5.76 1.46 1.69.98 3 2.33 3.93 4.06Zm-15.808 3.77c.13-.7163.339-1.3929.668-2.01.54-1.02 1.28-1.82 2.23-2.4.95-.58 2.02-.87 3.22-.87 1.2 0 2.26.3 3.18.9.92.6 1.63 1.43 2.13 2.49.28.59.47 1.22.59 1.89H339.86ZM74.2307 59.5157c.869 0 1.6581.2397 2.3573.6992.6992.4694 1.2485 1.1087 1.6481 1.9178.3995.8091.5993 1.728.5993 2.7468 0 1.0189-.1998 1.9378-.5993 2.7469-.3996.819-.9489 1.4583-1.6481 1.9178-.6992.4694-1.4883.6992-2.3673.6992-.8191 0-1.5382-.1798-2.1475-.5394-.4795-.2697-.8391-.6692-1.1487-1.1287v1.4284h-2.9167v-14.004h2.9267v5.1841c.3096-.4495.6692-.8491 1.1486-1.1287.6093-.3596 1.3285-.5394 2.1476-.5394Zm.4495 7.7811c.3695-.2298.6592-.5594.869-.9789.2097-.4195.3096-.889.3096-1.4384 0-.5493-.0999-1.0288-.3096-1.4483-.2098-.4195-.4995-.7492-.869-.9789-.3696-.2297-.7891-.3496-1.2786-.3496-.4894 0-.9189.1199-1.2885.3496-.3696.2297-.6592.5594-.869.9789s-.3096.889-.3096 1.4383c0 .5494.0998 1.0289.3096 1.4484s.4994.7491.869.9789c.3696.2297.8091.3496 1.2885.3496.4795 0 .909-.1199 1.2786-.3496Zm7.1518-7.5414 2.3573 6.3627h.0099l2.1676-6.3627h2.9366l-4.2551 10.8675c-.2997.7792-.7392 1.3984-1.3085 1.8679-.5694.4695-1.2686.6992-2.0876.6992h-1.8279v-2.587h1.6381c.2297 0 .4195-.05.5693-.1499.1499-.0998.2797-.2497.3896-.4594l.2996-.6093-3.9055-9.629h3.0166Zm16.521 6.4326c.1698-.3096.2497-.6592.2497-1.0488v-9.1395h3.0963v9.3593c0 .879-.2 1.6681-.609 2.3773-.41.7091-.969 1.2585-1.6782 1.6581-.7092.3995-1.5183.5993-2.4072.5993h-2.3673v-2.8468h1.9577c.3996 0 .7492-.0799 1.0488-.2497.3097-.1698.5394-.3995.7092-.7092Zm15.243-1.8978h-6.493v3.0165h7.372v2.697h-10.389v-14.004h10.189v2.7069h-7.172v2.9666h6.493v2.617Zm6.152-5.5137h-4.155v-2.7768h11.377v2.7768h-4.125v11.2172h-3.097V58.7765Zm17.181 3.8956c.289.0799.559.1798.809.3096h.01c.569.3097 1.019.7292 1.338 1.2785.32.5494.48 1.1687.48 1.8579 0 .7492-.2 1.4184-.61 2.0077-.409.5893-.978 1.0488-1.718 1.3784-.739.3297-1.578.4995-2.517.4995h-6.342v-14.004h6.222c.889 0 1.689.1598 2.388.4695.699.3096 1.238.7491 1.628 1.3085.389.5593.579 1.1986.579 1.9078 0 .6193-.15 1.1686-.439 1.6481-.29.4794-.7.859-1.209 1.1187-.179.0943-.385.153-.584.2098l-.035.01Zm-2.797-4.3251h-2.747v3.4461h2.747c.38 0 .719-.0799 1.009-.2198.299-.1398.519-.3396.689-.6093.17-.2697.25-.5893.25-.9289 0-.3396-.09-.6393-.25-.889-.17-.2597-.4-.4495-.689-.5893-.29-.1399-.629-.2098-1.009-.2098Zm1.239 9.0896c.319-.1498.569-.3496.749-.6193v.02c.179-.2697.269-.5694.269-.9289 0-.3596-.09-.6793-.269-.9589-.18-.2797-.44-.4995-.759-.6493-.33-.1498-.7-.2297-1.109-.2297h-2.867v3.5858h2.867c.419 0 .799-.0699 1.119-.2197Zm16.541-4.6647c-.43.6693-1.029 1.1987-1.808 1.5682h-.01c-.14.07-.3.1299-.46.1898l3.197 5.4738h-3.536l-2.837-5.1042h-2.018v5.1042h-3.096v-14.004h6.133c1.009 0 1.898.1798 2.667.5494.769.3696 1.358.889 1.778 1.5582.419.6692.629 1.4284.629 2.3173 0 .889-.21 1.6781-.639 2.3473Zm-3.556-.6093c.319-.1598.569-.3895.739-.6792v.01c.17-.2897.26-.6293.26-1.0288 0-.3995-.09-.7392-.26-1.0288-.17-.2897-.42-.5094-.739-.6693-.32-.1498-.7-.2297-1.129-.2297h-2.787v3.8656h2.787c.429 0 .809-.0799 1.129-.2398Zm5.493 7.8411 5.005-14.004h3.366l5.104 14.004h-3.087l-1.058-3.0865h-5.194l-.989 3.0865h-3.147Zm6.453-10.3781-1.608 4.9443h3.706l-1.718-4.9443-.19-.899-.19.899Zm11.427 10.3781h-3.196v-14.004h3.196v14.004Zm5.434-14.004 6.013 9.4692h.01v-9.4692h2.826v14.004h-3.046l-5.993-9.4692v9.4692h-2.827v-14.004h3.017Zm19.627 6.4326c.549.3996.979.889 1.279 1.4684v-.02c.309.5893.459 1.2286.459 1.9178 0 .849-.23 1.6081-.679 2.2774-.45.6692-1.079 1.1986-1.878 1.5782-.809.3795-1.738.5693-2.767.5693s-1.948-.1898-2.747-.5594c-.799-.3695-1.428-.8989-1.887-1.5582-.46-.6592-.7-1.4383-.71-2.3073h3.097c0 .3596.1.6792.289.9589.19.2797.46.4894.81.6392.349.1499.749.2298 1.178.2298.43 0 .799-.0699 1.119-.1998.32-.1298.559-.3196.739-.5693.18-.2498.27-.5294.27-.8391 0-.3895-.12-.7092-.36-.9689-.24-.2597-.569-.4395-.979-.5393l-2.517-.5194c-.659-.1399-1.238-.3896-1.738-.7492-.499-.3596-.889-.8191-1.158-1.3584-.27-.5494-.41-1.1587-.41-1.8279 0-.8391.22-1.5782.639-2.2275.43-.6492 1.019-1.1587 1.778-1.5282.759-.3696 1.618-.5494 2.597-.5494.979 0 1.858.1798 2.617.5294.759.3496 1.359.839 1.788 1.4683.43.6193.659 1.3485.679 2.1575h-3.096c0-.2996-.09-.5693-.25-.809-.17-.2398-.399-.4196-.689-.5494-.29-.1398-.639-.1998-1.019-.1998-.379 0-.719.0699-1.009.1898-.289.1199-.519.2997-.679.5194-.16.2297-.24.4894-.24.7891 0 .3396.11.6093.33.839.22.2298.519.3796.889.4695l2.377.4894c.709.1299 1.329.3996 1.878.7891Z"
          clip-rule="evenodd"/>
    <path fill="url(#a)" d="M.007813 0v36H18.0078l9-36H.007813ZM15.0078 30H6.00781v-6H16.2078l-1.2 6Zm15-18-9 36h27V12h-18Zm12 30h-13.8l1.8-6h12v6Z"/>
</svg>