<svg width="52" height="50" viewBox="0 0 52 50" fill="none" xmlns="http://www.w3.org/2000/svg">
    <ellipse cx="26.2857" cy="25" rx="25.7143" ry="25" fill="#1D1C39"/>
    <path d="M27.7099 20.8746C29.0831 20.8746 29.8737 20.1463 29.8737 18.8922C29.8737 17.7189 29.0415 16.9098 27.7515 16.9098H24.6305V14.6847C24.6305 13.0664 23.4237 12.2168 22.2586 12.2168C21.0934 12.2168 19.8867 13.0664 19.8867 14.6847V30.1392C19.8867 33.8612 21.4263 35.52 24.8386 35.52C26.6695 35.52 27.7515 35.0749 28.5421 34.5895C29.1247 34.2658 29.3744 33.578 29.3744 33.0521C29.3744 32.0407 28.7086 30.9483 27.7099 30.9483C27.585 30.9483 27.4186 30.9888 27.2937 31.0292C27.2521 31.0697 27.1689 31.0697 27.1273 31.1102C26.8776 31.2315 26.5031 31.3934 26.0037 31.3934C25.3795 31.3934 24.6721 31.1911 24.6721 29.5323V20.8746H27.7099Z"
          fill="white"/>
    <path d="M37.863 27.3887C35.5743 27.3887 33.7017 29.2092 33.7017 31.4344C33.7017 33.6595 35.5743 35.48 37.863 35.48C40.1517 35.48 42.0243 33.6595 42.0243 31.4344C42.0243 29.1688 40.1517 27.3887 37.863 27.3887Z"
          fill="#FF22B1"/>
</svg>