<svg xmlns="http://www.w3.org/2000/svg" width="282" height="79" fill="none" viewBox="0 0 282 79">
    <defs>
        <linearGradient id="a" x1="7.61555" x2="61.2417" y1="64.7192" y2="39.8564" gradientUnits="userSpaceOnUse">
            <stop offset=".08" stop-color="#00D886"/>
            <stop offset=".46" stop-color="#FFAB00"/>
        </linearGradient>
        <linearGradient id="b" x1="60.0127" x2="1.30731" y1="59.7777" y2="1.07287" gradientUnits="userSpaceOnUse">
            <stop offset=".19" stop-color="#FFAB00"/>
            <stop offset=".83" stop-color="#FF004C"/>
        </linearGradient>
    </defs>
    <path fill="#000" fill-rule="evenodd"
          d="M105.697 30.96c-.86 1.39-2.08 2.47-3.66 3.24h.01c-.53.26-1.1.46-1.68.63l7.29 12.13h-6.12l-6.7297-11.6h-5.49v11.6h-5.33V17h12.7c2.06 0 3.8597.37 5.4197 1.13 1.56.76 2.76 1.83 3.61 3.21.85 1.38 1.27 2.96 1.27 4.79s-.43 3.44-1.29 4.83Zm-9.3197-.1c1.04 0 1.95-.19 2.71-.58v.01c.77-.39 1.3597-.93 1.7797-1.64.42-.7.63-1.55.63-2.49 0-.94-.21-1.76-.63-2.46-.43-.7-1.0197-1.24-1.7797-1.62-.77-.38-1.67-.57-2.71-.57h-7.06v9.35h7.06Zm28.3697 9.62c.42-.81.63-1.72.63-2.75h-.01V25.04h5.05v21.9h-4.9v-3.23c-.63 1.06-1.44 1.93-2.45 2.56-1.25.79-2.72 1.18-4.4 1.18-1.57 0-2.95-.34-4.13-1.03-1.18-.68-2.1-1.67-2.76-2.97-.65-1.29-.98-2.84-.98-4.64V25.03h5.03v13.01c0 1.06.18 1.96.54 2.7.36.74.87 1.31 1.53 1.7.67.39 1.47.59 2.41.59.99 0 1.88-.22 2.65-.67.77-.45 1.37-1.07 1.79-1.88Zm22.25-6.45c1.16.2 2.17.61 3.04 1.22l-.03-.02c.87.61 1.54 1.38 2 2.3.47.92.7 1.92.7 2.99 0 1.32-.4 2.52-1.19 3.58-.79 1.06-1.87 1.88-3.25 2.47-1.38.59-2.82.88-4.59.88s-3.36-.28-4.77-.84c-1.41-.57-2.54-1.36-3.37-2.4-.83-1.03-1.29-2.22-1.38-3.56h5.05c.08.59.31 1.09.7 1.5.39.41.9.73 1.54.95.63.22 1.37.33 2.21.33.79 0 1.49-.11 2.12-.34.63-.23 1.12-.54 1.47-.95.35-.4.52-.88.52-1.42 0-.4-.1-.76-.29-1.09-.19-.32-.46-.6-.81-.82-.35-.22-.75-.37-1.21-.44l-4.86-.81c-1.17-.19-2.19-.58-3.06-1.17-.87-.59-1.54-1.33-2.02-2.21-.48-.88-.72-1.85-.72-2.91 0-1.3.35-2.46 1.05-3.48.7-1.02 1.7-1.82 2.99-2.4 1.29-.58 2.81-.87 4.46-.87s3.14.27 4.46.81c1.32.54 2.37 1.31 3.15 2.31.78 1 1.22 2.17 1.32 3.51h-5.03c-.08-.55-.3-1.03-.65-1.44-.35-.4-.81-.72-1.37-.95-.56-.23-1.16-.34-1.87-.34-.71 0-1.34.11-1.89.33-.55.22-.97.53-1.27.93-.3.4-.45.86-.45 1.37 0 .39.09.72.28 1.01.18.29.46.53.82.71.36.19.82.33 1.38.43l4.82.83Zm11.69-14.34h4.7v5.35h5.82l-.02 4.39h-5.82l.02 11.06c0 .6.2 1.1.59 1.49.39.39.89.59 1.49.59h3.72v4.39h-4.73c-1.17 0-2.23-.25-3.16-.75-.93-.5-1.66-1.2-2.18-2.08-.52-.89-.78-1.89-.78-3l-.02-11.71h-3.85l.02-4.39h2.4c.55 0 .98-.16 1.31-.5.32-.33.49-.76.49-1.29v-3.55Zm35.76 11.27c-.86 1.39-2.08 2.47-3.66 3.24-.52.26-1.09.46-1.67.63l7.29 12.13h-6.12l-6.73-11.6h-5.49v11.6h-5.33V17h12.71c2.05 0 3.86.37 5.41 1.13 1.56.76 2.76 1.83 3.61 3.21.85 1.38 1.27 2.96 1.27 4.79s-.43 3.44-1.29 4.83Zm-9.32-.1c1.04 0 1.95-.19 2.71-.58v.01c.77-.39 1.36-.94 1.78-1.64.42-.7.63-1.55.63-2.49 0-.94-.21-1.76-.63-2.46-.42-.7-1.01-1.24-1.78-1.62-.77-.38-1.67-.57-2.71-.57h-7.06v9.35h7.06Zm24.73-6.34c2.15 0 4.11.5 5.86 1.5s3.13 2.38 4.14 4.12c1.01 1.74 1.51 3.7 1.51 5.85 0 2.15-.5 4.1-1.51 5.85s-2.39 3.12-4.14 4.12c-1.76 1-3.74 1.5-5.89 1.5-2.15 0-4.11-.5-5.86-1.5s-3.13-2.37-4.14-4.12c-1.01-1.74-1.51-3.7-1.51-5.85 0-2.15.5-4.1 1.5-5.85s2.38-3.12 4.14-4.12c1.77-1 3.75-1.5 5.9-1.5Zm3.26 17.55c.95-.58 1.69-1.4 2.21-2.46s.78-2.25.78-3.62-.26-2.58-.79-3.63c-.52-1.05-1.26-1.87-2.21-2.46-.95-.59-2.04-.89-3.26-.89-1.22 0-2.31.3-3.26.88-.95.58-1.68 1.4-2.2 2.46-.52 1.06-.78 2.28-.78 3.64 0 1.36.26 2.56.78 3.62.52 1.05 1.25 1.88 2.2 2.46.94.59 2.04.88 3.26.88 1.22 0 2.32-.3 3.27-.88Zm13.89-17.04 5.71 15.52h.01l5.5-15.52h5.22l-8.37 21.92h-4.99l-8.45-21.92h5.37Zm28.05-.51c2.16 0 4.08.49 5.76 1.46l-.02-.01c1.69.98 3 2.33 3.93 4.06.93 1.73 1.4 3.71 1.4 5.94v1.22h-17.29c.1 1.01.35 1.94.78 2.77.54 1.05 1.28 1.87 2.23 2.45.95.59 2.02.88 3.22.88 1.06 0 2.01-.21 2.85-.62.85-.41 1.54-.99 2.1-1.73h5.5c-.52 1.36-1.27 2.52-2.25 3.49-.98.97-2.17 1.72-3.57 2.25-1.39.53-2.94.79-4.64.79-2.15 0-4.09-.49-5.81-1.48-1.72-.99-3.08-2.36-4.07-4.11-.99-1.76-1.49-3.78-1.49-5.93s.5-4.1 1.5-5.84c1-1.74 2.37-3.11 4.1-4.1 1.74-.99 3.61-1.49 5.77-1.49Zm-6.118 9.28h12.018c-.12-.67-.31-1.3-.59-1.89-.5-1.06-1.21-1.89-2.13-2.49-.92-.6-1.98-.9-3.18-.9-1.2 0-2.27.29-3.22.87-.95.58-1.69 1.38-2.23 2.4-.328.6171-.538 1.2937-.668 2.01Zm27.988-7.7c1.17-.81 2.53-1.21 4.09-1.21l-.01.01h.81v5.09h-1.41c-1.12 0-2.1.2-2.94.62-.84.42-1.48 1.01-1.93 1.78-.45.77-.67 1.68-.67 2.74v11.83h-5.05V25.04h5.01v3.32c.57-.93 1.27-1.69 2.1-2.26ZM87.6973 74.19c.17-.31.25-.66.25-1.05h.01v-9.15h3.1v9.37c0 .88-.2 1.67-.61 2.38s-.97 1.26-1.68 1.66c-.71.4-1.52.6-2.41.6h-2.37v-2.85h1.95c.4 0 .75-.08 1.05-.25.31-.17.54-.4.71-.71Zm15.2597-1.9h-6.4997v3.02h7.3797v2.7H93.4373V63.99h10.1997v2.71h-7.1797v2.97h6.4997v2.62Zm6.16-5.52h-4.16v-2.78h11.39v2.78h-4.13V78h-3.1V66.77Zm17.2 3.9c.29.08.56.18.81.31h.01c.57.31 1.02.73 1.34 1.28.32.55.48 1.17.48 1.86 0 .75-.2 1.42-.61 2.01-.41.59-.98 1.05-1.72 1.38-.74.33-1.58.5-2.52.5h-6.35V63.99h6.23c.89 0 1.69.16 2.39.47.7.31 1.24.75 1.63 1.31.39.56.58 1.2.58 1.91 0 .62-.15 1.17-.44 1.65-.29.48-.7.86-1.21 1.12-.179.0945-.385.1532-.585.21l-.035.01Zm-2.8-4.33h-2.75v3.45h2.75c.38 0 .72-.08 1.01-.22.3-.14.52-.34.69-.61.17-.27.25-.59.25-.93 0-.34-.09-.64-.25-.89-.17-.26-.4-.45-.69-.59-.29-.14-.63-.21-1.01-.21Zm1.24 9.1c.32-.15.57-.35.75-.62v.02c.18-.27.27-.57.27-.93 0-.36-.09-.68-.27-.96-.18-.28-.44-.5-.76-.65-.33-.15-.7-.23-1.11-.23h-2.87v3.59h2.87c.42 0 .8-.07 1.12-.22Zm16.56-4.67c-.43.67-1.03 1.2-1.81 1.57h-.01c-.14.07-.3.13-.46.19l3.2 5.48h-3.54l-2.84-5.11h-2.02v5.11h-3.1V63.99h6.14c1.01 0 1.9.18 2.67.55.77.37 1.36.89 1.78 1.56.42.67.63 1.43.63 2.32 0 .89-.21 1.68-.64 2.35Zm-3.56-.61c.32-.16.57-.39.74-.68v.01c.17-.29.26-.63.26-1.03s-.09-.74-.26-1.03c-.17-.29-.42-.51-.74-.67-.32-.15-.7-.23-1.13-.23h-2.79v3.87h2.79c.43 0 .81-.08 1.13-.24Zm5.51 7.85 5.01-14.02h3.36l5.12 14.02h-3.09l-1.06-3.09h-5.2l-.99 3.09h-3.15Zm6.46-10.39-1.61 4.95h3.71l-1.72-4.95-.19-.9-.19.9Zm11.43 10.39h-3.2V63.99h3.2v14.02Zm5.44-14.02 6.02 9.48h.01v-9.48h2.83v14.02h-3.05l-6-9.48v9.48h-2.83V63.99h3.02Zm17.78 5.66c.71.13 1.33.4 1.88.79v-.02c.55.4.97.88 1.28 1.47.31.59.46 1.23.46 1.92 0 .85-.23 1.61-.68 2.28-.45.67-1.08 1.2-1.88 1.58-.81.38-1.74.57-2.77.57s-1.95-.19-2.75-.56c-.8-.37-1.43-.9-1.89-1.56-.46-.66-.7-1.44-.71-2.31h3.1c0 .36.1.68.29.96.19.28.46.49.81.64.35.15.75.23 1.18.23.43 0 .8-.07 1.12-.2.32-.13.56-.32.74-.57.18-.25.27-.53.27-.84 0-.39-.12-.71-.36-.97s-.57-.44-.98-.54l-2.52-.52c-.66-.14-1.24-.39-1.74-.75s-.89-.82-1.16-1.36c-.27-.55-.41-1.16-.41-1.83 0-.84.22-1.58.64-2.23.43-.65 1.02-1.16 1.78-1.53.76-.37 1.62-.55 2.6-.55s1.86.18 2.62.53c.76.35 1.36.84 1.79 1.47.43.62.66 1.35.68 2.16h-3.1c0-.3-.09-.57-.25-.81-.17-.24-.4-.42-.69-.55-.29-.14-.64-.2-1.02-.2s-.72.07-1.01.19c-.29.12-.52.3-.68.52-.16.23-.24.49-.24.79 0 .34.11.61.33.84.22.23.52.38.89.47l2.38.49Zm14.38 8.36h-3.2V63.99h3.2v14.02Zm7.88-14.02c1.33 0 2.53.31 3.59.91 1.06.61 1.9 1.44 2.5 2.51.61 1.06.91 2.27.91 3.59 0 1.32-.31 2.52-.91 3.59-.6 1.07-1.43 1.9-2.5 2.51-1.07.61-2.26.91-3.59.91h-5.47V63.99h5.47Zm2.01 10.86c.58-.35 1.03-.85 1.34-1.5v-.01c.31-.65.47-1.44.47-2.35 0-.91-.16-1.7-.47-2.35-.31-.65-.76-1.15-1.34-1.5-.58-.35-1.26-.52-2.05-.52h-2.32v8.75h2.32c.79 0 1.47-.17 2.05-.52Zm9.8-2.56v3.02h7.38v2.7h-10.4V63.99h10.2v2.71h-7.18v2.97h6.5v2.62h-6.5Z"
          clip-rule="evenodd"/>
    <path fill="#00D886"
          d="m5.8125 48.0551.00175 11.8755c0 2.2493 1.82341 4.0721 4.07272 4.0721H21.3936c1.1886 0 2.3185-.5196 3.0924-1.422l32.7098-38.1614c.6324-.7383.9803-1.6786.9803-2.6508V9.89304c0-2.24931-1.8234-4.07273-4.0727-4.07273H42.595c-1.1886 0-2.3185.51957-3.0923 1.42197L6.79286 45.4037c-.63301.7384-.98036 1.6786-.98036 2.6514Z"/>
    <path fill="url(#a)"
          d="M5.8125 49.4825v10.4466c0 2.2493 1.82342 4.0727 4.07273 4.0727H22.9779c.1926 0 .3851-.014.576-.0407l36.9437-5.2771c2.0067-.2868 3.4967-2.005 3.4967-4.032V38.979c0-2.2499-1.824-4.0733-4.0739-4.0727l-18.5385.0046c-.4375 0-.8721.0704-1.2869.2089L8.59708 45.6193c-1.66283.5544-2.78458 2.1108-2.78458 3.8638v-.0006Z"/>
    <path fill="url(#b)"
          d="M-.00586 4.07273V38.041c0 1.6291.971055 3.1017 2.46807 3.7434L39.9528 57.8525c.5068.217 1.0531.3293 1.6047.3293h18.3639c2.2493 0 4.0727-1.8234 4.0727-4.0727v-17.966c0-.8046-.2385-1.5913-.6854-2.2609L41.9054 1.81353C41.1502.681309 39.8795.001745 38.5181.001745L4.06687 0C1.81756 0-.00586 1.82342-.00586 4.07273Z"/>
    <path fill="#000" d="M51.9941 12h-40v40h40V12Z"/>
    <path fill="#fff" fill-rule="evenodd"
          d="M20.014 26.3347h2.5244L25.7676 32h3.3538l-3.5713-6.0085c.0732-.0233.1478-.0446.2224-.0659.1682-.0481.3363-.0962.4882-.1666.8145-.4017 1.439-.9511 1.8752-1.6605.4425-.71.6641-1.5268.6641-2.4647 0-.9379-.2181-1.7277-.6538-2.4239-.4287-.6963-1.0429-1.2456-1.843-1.6342C25.503 17.1871 24.5783 17 23.5279 17h-6.4395v15h2.925l.0006-5.6653Zm0-6.897h3.3217c.493 0 .9212.0936 1.2857.2681.3714.1871.6572.4419.8575.7772.1998.3346.3002.7232.3002 1.1784 0 .4551-.0999.8437-.3002 1.1921-.2003.3347-.4856.5895-.8575.7766-.3645.1877-.7927.2681-1.2857.2681H20.014v-4.4605Z"
          clip-rule="evenodd"/>
    <path fill="#fff" fill-rule="evenodd"
          d="m43.5612 32-3.5713-6.0085c.0732-.0233.1478-.0446.2224-.0659.1682-.0481.3363-.0962.4882-.1666.8145-.4017 1.4395-.9511 1.8752-1.6605.4425-.71.6641-1.5268.6641-2.4647 0-.9379-.2181-1.7277-.6538-2.4239-.4287-.6963-1.0429-1.2456-1.843-1.6342-.8002-.3886-1.7249-.5757-2.7753-.5757h-6.4395v15h2.925v-5.6653h2.5244L40.2068 32h3.3544Zm-9.1069-12.5623h3.3217c.4931 0 .9213.0936 1.2857.2681.3714.1871.6573.4419.857.7772.1998.3346.3002.7232.3002 1.1784 0 .4551-.0999.8437-.3002 1.1921-.2003.3347-.4856.5895-.857.7766-.3644.1877-.7926.2681-1.2857.2681h-3.3217v-4.4605Z"
          clip-rule="evenodd"/>
    <path fill="#fff" d="M16.9883 44h16v3h-16v-3Z"/>
</svg>