<svg xmlns="http://www.w3.org/2000/svg" width="215" height="82" fill="none" viewBox="0 0 215 82">
    <defs>
        <linearGradient id="hub_gr_a" x1="59.6841" x2="1.08781" y1="4.0675" y2="62.6638" gradientUnits="userSpaceOnUse">
            <stop offset=".25" stop-color="#7256FF"/>
            <stop offset=".73" stop-color="#00C4F4"/>
        </linearGradient>
        <linearGradient id="hub_gr_b" x1="64.399" x2="39.6152" y1="56.3294" y2="2.87437" gradientUnits="userSpaceOnUse">
            <stop offset=".3" stop-color="#F0EB18"/>
            <stop offset=".58" stop-color="#7256FF"/>
        </linearGradient>
    </defs>
    <path fill="#fff" fill-rule="evenodd"
          d="M89.3378 29.24h13.5002V17h5.31v29.96h-5.31V34.05H89.3378v12.91h-5.33V17h5.33v12.24Zm38.6202 11.43c.41-.76.62-1.63.62-2.61V25.05h5.03v13.78c0 1.73-.41 3.24-1.23 4.55-.82 1.31-1.98 2.32-3.48 3.03s-3.24 1.07-5.22 1.07c-1.98 0-3.72-.36-5.22-1.07-1.5-.71-2.66-1.72-3.48-3.03-.82-1.31-1.23-2.82-1.23-4.55V25.05h5.03v13.01c0 .98.21 1.85.62 2.61.41.75.98 1.34 1.72 1.75.74.41 1.59.62 2.56.62s1.82-.21 2.56-.62c.73-.41 1.31-.99 1.72-1.75ZM156.168 26c1.54.98 2.74 2.34 3.61 4.09v-.02c.87 1.75 1.3 3.72 1.3 5.92 0 2.2-.43 4.17-1.3 5.92-.87 1.75-2.08 3.11-3.61 4.09-1.53.98-3.28 1.47-5.23 1.47-1.8 0-3.38-.4-4.75-1.2-1.11-.64-2.01-1.52-2.72-2.6v3.29h-5.05V17h5.05v11.33c.71-1.08 1.61-1.95 2.72-2.6 1.37-.8 2.96-1.2 4.77-1.2 1.94 0 3.68.49 5.21 1.47Zm-3.23 16.09c.94-.59 1.67-1.41 2.19-2.46s.78-2.26.78-3.63-.26-2.58-.78-3.63c-.52-1.05-1.25-1.87-2.19-2.46-.94-.59-1.99-.89-3.21-.89s-2.31.3-3.25.89c-.94.59-1.67 1.41-2.2 2.46-.53 1.05-.79 2.26-.79 3.63s.26 2.58.79 3.64c.52 1.05 1.26 1.88 2.2 2.46.94.59 2.05.88 3.25.88 1.2 0 2.27-.3 3.21-.89ZM90.2307 67.5157c.869 0 1.6581.2397 2.3573.6992.6992.4694 1.2485 1.1087 1.6481 1.9178.3995.8091.5993 1.728.5993 2.7468 0 1.0189-.1998 1.9378-.5993 2.7469-.3996.819-.9489 1.4583-1.6481 1.9178-.6992.4694-1.4883.6992-2.3673.6992-.8191 0-1.5382-.1798-2.1475-.5394-.4795-.2697-.8391-.6692-1.1487-1.1287v1.4284h-2.9167v-14.004h2.9267v5.1841c.3096-.4495.6692-.8491 1.1486-1.1287.6093-.3596 1.3285-.5394 2.1476-.5394Zm.4495 7.7811c.3695-.2298.6592-.5594.869-.9789.2097-.4195.3096-.889.3096-1.4384 0-.5493-.0999-1.0288-.3096-1.4483-.2098-.4195-.4995-.7492-.869-.9789-.3696-.2297-.7891-.3496-1.2786-.3496-.4894 0-.9189.1199-1.2885.3496-.3696.2297-.6592.5594-.869.9789s-.3096.889-.3096 1.4383c0 .5494.0998 1.0289.3096 1.4484s.4994.7491.869.9789c.3696.2297.8091.3496 1.2885.3496.4795 0 .909-.1199 1.2786-.3496Zm7.1518-7.5414 2.357 6.3627h.01l2.168-6.3627h2.936l-4.255 10.8675c-.299.7792-.739 1.3984-1.3082 1.8679-.5694.4695-1.2686.6992-2.0876.6992h-1.8279v-2.587h1.6381c.2297 0 .4195-.05.5693-.1499.1499-.0998.2797-.2497.3896-.4594l.2996-.6093-3.9055-9.629h3.0166Zm16.521 6.4326c.17-.3096.25-.6592.25-1.0488v-9.1395h3.096v9.3593c0 .879-.2 1.6681-.609 2.3773-.41.7091-.969 1.2585-1.678 1.6581-.709.3995-1.518.5993-2.407.5993h-2.368v-2.8468h1.958c.4 0 .749-.0799 1.049-.2497.309-.1698.539-.3995.709-.7092Zm15.243-1.8978h-6.493v3.0165h7.372v2.697h-10.389v-14.004h10.189v2.7069h-7.172v2.9666h6.493v2.617Zm6.152-5.5137h-4.155v-2.7768h11.377v2.7768h-4.125v11.2172h-3.097V66.7765Zm17.181 3.8956c.289.0799.559.1798.809.3096h.01c.569.3097 1.019.7292 1.338 1.2785.32.5494.48 1.1687.48 1.8579 0 .7492-.2 1.4184-.61 2.0077-.409.5893-.978 1.0488-1.718 1.3784-.739.3297-1.578.4995-2.517.4995h-6.342v-14.004h6.222c.889 0 1.689.1598 2.388.4695.699.3096 1.238.7491 1.628 1.3085.389.5593.579 1.1986.579 1.9078 0 .6193-.15 1.1686-.439 1.6481-.29.4794-.7.859-1.209 1.1187-.179.0943-.385.153-.584.2098l-.035.01Zm-2.797-4.3251h-2.747v3.4461h2.747c.38 0 .719-.0799 1.009-.2198.299-.1398.519-.3396.689-.6093.17-.2697.25-.5893.25-.9289 0-.3396-.09-.6393-.25-.889-.17-.2597-.4-.4495-.689-.5893-.29-.1399-.629-.2098-1.009-.2098Zm1.239 9.0896c.319-.1498.569-.3496.749-.6193v.02c.179-.2697.269-.5694.269-.9289 0-.3596-.09-.6793-.269-.9589-.18-.2797-.44-.4995-.759-.6493-.33-.1498-.7-.2297-1.109-.2297h-2.867v3.5858h2.867c.419 0 .799-.0699 1.119-.2197Zm16.541-4.6647c-.43.6693-1.029 1.1987-1.808 1.5682h-.01c-.14.07-.3.1299-.46.1898l3.197 5.4738h-3.536l-2.837-5.1042h-2.018v5.1042h-3.096v-14.004h6.133c1.009 0 1.898.1798 2.667.5494.769.3696 1.358.889 1.778 1.5582.419.6692.629 1.4284.629 2.3173 0 .889-.21 1.6781-.639 2.3473Zm-3.556-.6093c.319-.1598.569-.3895.739-.6792v.01c.17-.2897.26-.6293.26-1.0288 0-.3995-.09-.7392-.26-1.0288-.17-.2897-.42-.5094-.739-.6693-.32-.1498-.7-.2297-1.129-.2297h-2.787v3.8656h2.787c.429 0 .809-.0799 1.129-.2398Zm5.493 7.8411 5.005-14.004h3.366l5.104 14.004h-3.087l-1.058-3.0865h-5.194l-.989 3.0865h-3.147Zm6.453-10.3781-1.608 4.9443h3.706l-1.718-4.9443-.19-.899-.19.899Zm11.427 10.3781h-3.196v-14.004h3.196v14.004Zm5.434-14.004 6.013 9.4692h.01v-9.4692h2.826v14.004h-3.046l-5.993-9.4692v9.4692h-2.827v-14.004h3.017Zm19.627 6.4326c.549.3996.979.889 1.279 1.4684v-.02c.309.5893.459 1.2286.459 1.9178 0 .849-.23 1.6081-.679 2.2774-.45.6692-1.079 1.1986-1.878 1.5782-.809.3795-1.738.5693-2.767.5693s-1.948-.1898-2.747-.5594c-.799-.3695-1.428-.8989-1.887-1.5582-.46-.6592-.7-1.4383-.71-2.3073h3.097c0 .3596.1.6792.289.9589.19.2797.46.4894.81.6392.349.1499.749.2298 1.178.2298.43 0 .799-.0699 1.119-.1998.32-.1298.559-.3196.739-.5693.18-.2498.27-.5294.27-.8391 0-.3895-.12-.7092-.36-.9689-.24-.2597-.569-.4395-.979-.5393l-2.517-.5194c-.659-.1399-1.238-.3896-1.738-.7492-.499-.3596-.889-.8191-1.158-1.3584-.27-.5494-.41-1.1587-.41-1.8279 0-.8391.22-1.5782.639-2.2275.43-.6492 1.019-1.1587 1.778-1.5282.759-.3696 1.618-.5494 2.597-.5494.979 0 1.858.1798 2.617.5294.759.3496 1.359.839 1.788 1.4683.43.6193.659 1.3485.679 2.1575h-3.096c0-.2996-.09-.5693-.25-.809-.17-.2398-.399-.4196-.689-.5494-.29-.1398-.639-.1998-1.019-.1998-.379 0-.719.0699-1.009.1898-.289.1199-.519.2997-.679.5194-.16.2297-.24.4894-.24.7891 0 .3396.11.6093.33.839.22.2298.519.3796.889.4695l2.377.4894c.709.1299 1.329.3996 1.878.7891Z"
          clip-rule="evenodd"/>
    <path fill="url(#hub_gr_a)"
          d="M4.13281 64H38.2603c1.6581 0 3.155-.9931 3.8-2.5206l15.7975-37.4213c.2188-.5181.3294-1.0756.3244-1.6381l-.15-18.32875C58.0141 1.82625 56.1728 0 53.9078 0H36.2422c-.8056 0-1.5931.235625-2.2663.678125L1.86719 21.7869C.706563 22.55.007813 23.845.007813 25.2337V59.875C.007813 62.1531 1.85469 64 4.13281 64Z"/>
    <path fill="url(#hub_gr_b)"
          d="M49.0209 58h10.8618c2.2782 0 4.125-1.8469 4.125-4.125V41.3094c0-.2-.0143-.4-.0437-.5981L58.5159 3.52688C58.2196 1.50125 56.4821 0 54.4346 0H39.0371c-2.2787 0-4.1256 1.8475-4.125 4.12625l.0044 18.50435c0 .4256.0662.8488.1956 1.2538L45.0909 55.13c.5462 1.7094 2.135 2.87 3.9293 2.87h.0007Z"/>
    <path fill="#F0EB18"
          d="M47.5578 58h12.2588c2.3037 0 4.1612-1.8869 4.1243-4.1906L64.0078 43c-.0187-1.1812-.7862-2.5312-1.6831-3.3L24.1666 6.99312C23.4191 6.3525 22.4666 6 21.4822 6H10.1328c-2.27811 0-4.12499 1.84687-4.12499 4.125v11.0031c0 1.1894.51375 2.3213 1.40875 3.1044L44.8416 56.9794C45.5934 57.6375 46.5584 58 47.5578 58Z"/>
    <path fill="#000" d="M52.0078 12h-40v40h40V12Z"/>
    <path fill="#fff" fill-rule="evenodd"
          d="M43.3952 18.9009c-.4068-.6006-.9768-1.0681-1.7093-1.4043-.7332-.3357-1.5669-.5044-2.5032-.5044h-6.5168v15.0062h6.6456c.9862 0 1.865-.1768 2.6369-.5306.7718-.3537 1.3718-.845 1.8006-1.4737.4287-.6288.6431-1.3469.6431-2.1544 0-.7431-.1712-1.4075-.5144-1.9938-.3431-.5862-.8218-1.0418-1.4362-1.3668-.2558-.1353-.5264-.2425-.8119-.3215.2162-.0644.4227-.1464.6194-.246.5575-.2819.9894-.6807 1.2969-1.195.3068-.5144.4606-1.1075.4606-1.7794 0-.7569-.2038-1.4363-.6113-2.0363Zm-2.6256 3.4188c-.1862.3075-.4487.5431-.7881.7075-.3394.165-.7306.2469-1.1738.2469h-3.2906v-3.9982h3.2906c.4432 0 .8344.0819 1.1738.2463.3394.1644.6025.395.7881.6912.1856.2963.2788.6444.2788 1.045 0 .4007-.0932.7538-.2788 1.0613Zm-1.8331 7.3962h-3.4194v-4.2243h3.4194c.4856 0 .9144.0893 1.2862.2681.3719.1787.6594.4325.8632.7612.2037.3288.3056.6932.3056 1.115 0 .4219-.1019.7882-.3056 1.0988-.2038.3112-.4919.5525-.8632.7237-.3718.1719-.8006.2575-1.2862.2575Z"
          clip-rule="evenodd"/>
    <path fill="#fff" d="M17.0059 16.9928h2.9262v6.0344h6.4419v-6.0344h2.9262v15.0063H26.374v-6.335h-6.4419v6.335h-2.9262V16.9928Z"/>
    <path fill="#fff" d="M33.0083 43.9991h-16v3h16v-3Z"/>
</svg>