<svg id="argxs" version="1.1" xmlns="http://www.w3.org/2000/svg" xmlns:xlink="http://www.w3.org/1999/xlink" width="1385.198" height="1362.9" viewBox="0 0 1385.198 1362.9">
    <defs>
        <clipPath>
            <use xlink:href="#argxs_astro_pi_mission_zero_attr_1" x="0" y="0" width="100%" height="100%" overflow="visible"/>
        </clipPath>
        <filter filterUnits="userSpaceOnUse" x="848.9" y="818" width="183.3" height="252.2">
            <feFlood result="flood"/>
            <feBlend in="SourceGraphic" in2="flood" mode="normal"/>
        </filter>
        <path id="argxs_astro_pi_mission_zero_attr_1" d="M927.3 905.9c-2.8 7.6-11.4 12.6-19.3 11.3l-52.4-8.7L982.3 1096l72.6-42.5v-46.8L947.8 850.1z"/>
    </defs>
    <path fill="#E8E8E4" d="M1358.158 551.7c.2-.8.4-1.7.6-2.5l.4-1.8c.6-1.7 1.1-3.5 1.5-5.3l1.9-8.7c.1-.4.2-.9.3-1.3l1.7-7.7c.1-.5.2-.9.3-1.4l1.6-7.5c.1-.5.2-1 .4-1.5l5.8-27 11.5-53.2c5.3-24.3-10.2-48.2-34.5-53.5l-19.2-4.2c-.5-.1-1-.2-1.4-.3-.5-.1-1-.2-1.4-.3l-19.2-4.2c-1.8-.4-3.7-.7-5.5-.8-1.8-.6-3.6-1.1-5.4-1.5l-19.2-4.2c-.5-.1-1-.2-1.4-.3-.5-.1-.9-.2-1.4-.3l-6.3-1.4c-8.7-13.3-17.9-26.3-27.6-38.9 1.3-40.4-1.8-78.2-9.4-112.6-15.3-69.7-48-123.9-97.2-161-44.1-33.4-98.1-50.3-160.4-50.3-6.9 0-13.9.2-21 .6-63.4 3.7-132.4 24.1-205.3 60.5-5.9 2.9-11.8 6-17.8 9.2h-2.2c-70 0-138.6 11.1-204.2 33l2.6-5.9c-3.2 1.1-6.3 2.2-9.4 3.4l-133-22s-12-19.5-12.1-19.5c-11-17.6-29.4-29.7-50.7-33.2-4.3-.7-8.8-1.1-13.3-1.1-15.3 0-30.6 4.2-44.2 12.2-17.6 10.3-31 26.2-37.7 44.6-7.7 21.1-6 43.9 4.7 62.5l9.9 17.1-153.7 419-28.8 17c-5.3 3.1-10.2 6.8-14.7 10.9l-1.3-.3c-17.6 10.3-31 26.2-37.7 44.6-7.7 21.1-6 43.8 4.7 62.5.3.4.5.9.7 1.2.1.1.2.3.3.4l65.5 106c4.8 7.7 11 14.4 18.2 19.8 3.4 17.4 7.6 34.7 12.4 51.7-1.6 7.1-3 14.2-4.3 21.1-15.2 80.1-16 152.1-2.3 214 15.3 69.7 48 123.9 97.2 161 44.1 33.4 98.1 50.3 160.4 50.3 6.9 0 14-.2 21-.6 35.6-2.1 73.3-9.5 112.2-22.1 75.5 29.9 155.3 45 237.3 45 64.7 0 128.4-9.5 189.7-28.3 32.3 11.9 66.3 18.3 101.1 18.8h4.8c80.7 0 156.8-31.2 214.3-87.8 57.6-56.7 90-132.4 91.3-213.2.4-26.2-2.5-52.1-8.7-77.4 35.7-81.6 53.7-168.4 53.7-258.4 0-52.1-6.2-103.9-18.5-154.2l1.8-8.4c.4-.6.5-1.5.6-2.3z"/>
    <g transform="translate(-267.442 -176.6)">
        <circle cx="1004.3" cy="892.9" r="592.2" fill="#233465"/>
        <path fill="none" d="M1439.6 408.7c-11.8-53.7-36.2-94.8-72.4-122.2-32.4-24.5-72.8-36.9-120.3-36.9-5.6 0-11.2.2-17 .5-53.6 3.2-113.1 20.9-176.8 52.5 156.7 12.8 296.1 86.5 394.4 197.5.9-33-1.8-63.6-7.9-91.4z"/>
        <path fill="none" d="M449.3 1099.9v.1c-13.4 70.5-14.3 133-2.7 185.7 11.8 53.7 36.2 94.8 72.4 122.2 36.2 27.4 82.4 39.6 137.3 36.4 28.8-1.7 59.4-7.6 91.4-17.6-137-66-244.8-183.2-298.4-326.8z"/>
        <path fill="#E22084" d="M769.6 1436.7c-7.2-3.1-14.4-6.4-21.5-9.8-.2-.1-.5-.1-.8-.1-31.9 10-62.3 15.8-91 17.5-54.9 3.2-101.1-9-137.3-36.4-36.2-27.4-60.6-68.5-72.4-122.2-11.6-52.7-10.7-115.2 2.7-185.7v-.1c7.1-37.5 18.3-78.3 31.9-117.9 1.5-4.4-2.7-10-10-10-5.5 0-7 3.6-8.2 7-10.2 29.6-18.6 58.7-25.2 87.2-2.4 10.3-4.5 20.4-6.5 30.5-13.8 72.9-14.7 137.9-2.5 193 12.8 58 39.4 102.7 79.2 132.8 35.7 27 79.7 40.6 131.2 40.6 5.9 0 12-.2 18.1-.5 35.2-2.1 72.7-10.1 112.1-23.9 1-.4 1-1.6.2-2z"/>
        <path fill="#E22084" d="M1457.4 404.8c-12.8-58-39.4-102.7-79.2-132.8-39.8-30.1-90-43.6-149.3-40-56.4 3.3-118.6 21.8-185 55-8.8 4.4-17.6 9-26.4 13.9 12 .3 23.9.9 35.7 1.8 63.8-31.7 123.2-49.4 176.8-52.5 5.8-.3 11.4-.5 17-.5 47.5 0 87.9 12.4 120.3 36.9 36.2 27.4 60.6 68.5 72.4 122.2 6.1 27.8 8.8 58.4 7.9 91.4-.7 29.5-4.3 61-10.6 94.3-1.3 6.9-2.7 13.9-4.3 20.9l17.2 6.3c1.8-8 3.4-15.9 4.9-23.8 5.1-26.9 8.4-52.7 10-77.3 2.7-42.2.2-81-7.4-115.8z"/>
        <circle cx="701.8" cy="1170.7" r="81.9" fill="#D32028"/>
        <g fill="#FDCC38">
            <circle cx="903.9" cy="1191.4" r="8.7"/>
            <circle cx="945.7" cy="1328.7" r="4.8"/>
            <circle cx="775.1" cy="1320.9" r="3"/>
            <circle cx="1275.5" cy="463.6" r="8.7"/>
            <circle cx="1243.4" cy="893.8" r="4.8"/>
            <circle cx="1188.6" cy="389.3" r="3"/>
            <circle cx="1499.7" cy="963.3" r="4.8"/>
            <circle cx="1381.4" cy="881.4" r="3"/>
            <circle cx="552.2" cy="1097.7" r="4.8"/>
        </g>
        <circle cx="701.8" cy="1170.7" r="72.8" fill="#EC8A21"/>
        <circle cx="701.8" cy="1170.7" r="63.7" fill="#F2CA16"/>
        <defs>
            <circle id="argxs_astro_pi_mission_zero_attr_2" cx="701.3" cy="1170.5" r="81.9"/>
        </defs>
        <use xlink:href="#argxs_astro_pi_mission_zero_attr_2" x="0" y="0" width="100%" height="100%" overflow="visible" fill="#2FBCED"/>
        <clipPath id="argxs_astro_pi_mission_zero_attr_3">
            <use xlink:href="#argxs_astro_pi_mission_zero_attr_2" x="0" y="0" width="100%" height="100%" overflow="visible"/>
        </clipPath>
        <g fill="#009249" clip-path="url(#argxs_astro_pi_mission_zero_attr_3)">
            <path d="M627.5 1221.4c3.8-1.6 4-2 5.4-4.2 1.5-2.2 4.6-3.2 6.2-4.9 1.6-1.7 2.1-2.8 2.5-5 .3-2.2.2-2.8 2.1-6 1.9-3.1 1.6-3.3 4-5.2 2.4-1.9-.4-3.2 3.5-2.7s7.2 2 12.3 1c5.1-1 5.4-2.8 9.7-3.2 4.3-.4 5.7-.5 9.1-.5 3.4 0 6.3-1.8 8.7-.7 2.4 1.1 3.7 2.9 3.4 6-.3 3.1-3.4 4.5-1.3 6.2 2.1 1.7 1.5 1.9 3.7 3 2.3 1.1 6.1 2.6 8.6 3.3 2.5.7 1.9.3 5.5 2.6 3.5 2.3 4.1 3.4 6.1 2.6 2-.8 3.1.5 5-1.4s.1-2 1.7-4c1.5-2 3-4.4 5.2-3.1 2.2 1.3.3.9 3.4 2.6 3.1 1.7-2.3 1.7 4.3 2 6.6.3 5.2.5 9.4.3s4.1-.2 5.7-.7c1.6-.4.6-3 3.4-1.6s5.1 1.5 7-.5c1.9-2 2-3.8 3.9-5.4 1.9-1.6 2.6-3.4 3.2-5.8.6-2.4.8-4.6.1-6.5-.7-1.9.7-5-2.7-2.8-3.4 2.2-4.8 3.2-7.3 3.2s-4.7-3.3-7.3-.7c-2.6 2.6-3.4.3-6.5-1.4s-.1-5.8-3.4-8.6c-3.3-2.7-4.7-4.3-6.1-4.2-1.4.1-2.9.3-3.8.7-.9.4-3.1.2-3.3 2.2-.2 2-.2 2.3.3 3.4.6 1.1 3.2 1.9 3.5 3 .3 1.1 0 1.6-.3 1.9-.3.3-.7 1-2.2 1.3-1.5.3-1.4 1-1.9 1.6-.6.6-1.6 1-1.9-.6-.3-1.5-1.3-1.2-1.2-2.7.1-1.5-1.6-3-2.6-5.1-1-2.1-1.8-1.9-1.7-4.2 0-2.2-.6-4-2.1-5.3-1.6-1.3-3.2-1.6-4.4-2.7-1.2-1.2-2.8-1.8-3.3-2.2-.5-.4-2.3-3.2-3.6-3.8-1.3-.6-2-1.9-2.6-2.9-.6-1-.5.1-1.7 0s-2.3.5-2.5.9c-.2.4-.2 1.6 0 2.3.2.7 1.7 2.9 3 4.9 1.3 2 3.3 5.8 5.2 6.4 1.9.6 4 .8 5.3 1.8 1.3.9 2.9 1.5 3.2 2.5.3 1 .2 1.7-.3 1.6-.6-.1-1.7-2.1-2.4-2.2-.7-.1-1.2.4-1.5.9-.4.5-.8 1.3-.4 1.7.4.4 1.1.5 1.2 1.6 0 1-.6 2.5-.8 2.9-.2.4-1.3 1.3-1.5 1.4-.3.2-1.6 1.3-1.6.2s.5-2.2.9-2.6c.4-.4.2-1.9-.2-2.8-.5-.9-.9-1.9-1.3-2.3-.4-.4-5-3.4-5.5-3.8-.5-.4-5.1-2.8-6.8-5.3-1.7-2.5-4.4-6.2-5.9-5.7-1.6.5-3.4 2.4-5.9 3.2-2.4.8-6.6-1-8-.5-1.4.5-2.6 1.7-2.8 3.3-.2 1.6-1.4 3.2-2.4 4-1 .7-3.1.7-5.1 3.3-2 2.6-1.4 2.7-2.3 4.8-.9 2.1-1.4 3.9-3.3 5s-4.9 1.8-7.3 1.8c-2.4 0-3.1 1.1-4.9.1-1.9-1-2.8-1.4-4.9-2.8-2.1-1.3-2.7-2.7-2.9-4.9-.2-2.2 2-4.4 1.4-8.5-.6-4.1-.7-5 .3-6.1 1-1.1 6.3-1.5 10.8-.9 4.5.6 8 2.9 9.3-.9 1.3-3.8 2.1-6.4.9-7.8-1.2-1.4-2.9-4.3-5.1-4.6-2.2-.3-4.5-1-3.3-2.2 1.2-1.2 4.3-1 6.1-1.1 1.8-.1 1.4.1 3-1.1 1.6-1.2 3.3-1.5 4.5-2.3 1.2-.9 2.3-1.8 3.7-2.7 1.4-.9 6.7-3.4 8.6-6.4 1.9-3 6.3-3.9 7.9-3.5 1.6.4 2.6-.2 2.9-2.1.2-1.9-1.6-3.2-1.3-4.5.2-1.3-.2-2.9.7-3.6.9-.7 3.7-2.9 4.2-2.4s1.2 1.5.4 2.7c-.9 1.1-2.3 2-1.8 3.3.5 1.3-.4 3.4.6 3.8 1 .3 1.4.5 2.4 1.2s2.2-.5 4-.3c1.8.2 2.3 1.6 9.2.4 6.9-1.2 7.4-.5 9.6-1.9 2.2-1.4 1.1-5 2.2-6.4 1.1-1.3 2.5-2.2 3.5-1.4 1 .9 2.8 1.9 3.8.7s-1-4.2 1.1-5.4c2.1-1.2 2.1.1 5.8-.6 3.7-.7 7.4-1.7 4.6-2.7-2.8-1-4.7-1.7-7.3-1.6-2.6.1-8.9 2-11-1.9-2.1-3.9-2.5-4.8-1.1-6.5 1.4-1.7 3.6-3.9 6.3-5.2 2.6-1.3 35.2-.7 51.8 5.7 16.6 6.4 22 27.1 25.2 30.8 3.3 3.7 5.3 19.7 1.5 21.9-3.8 2.2-5.4 2.7-7.4 4-2 1.3-6.7-.2-4.8 3.1 2 3.4 3.3 5.1 4.9 6.4 1.6 1.3 5.7 2.2 4.6 5.4-1.1 3.2-3.2 4.6.5 6.5 3.6 1.9 4.4 3.5 4.4 3.5s-1.6 13.9-4.8 15.1c-3.2 1.2-3.1 1.5-4.9 2.5-1.8 1-1.8 2-.9 3s2.5 2.6 2.5 3.3c0 .6-18.2 32.7-23.2 35.6-5 2.9-6.5 3.5-6.3 1.8.2-1.7.5-4.9-.4-7.6-.8-2.7-1.4-8.3-2.9-12.7-1.5-4.4-7.7.8-6.5 5.8 1.3 5-.9 2.5.4 9 1.3 6.4.9 6.7 1.1 8.2.2 1.5 1 9.2 1 9.2s-107.1 37.8-116 24.7c-8.9-13.1-12.9-40.8-15.7-46.5-2.8-5.8-5-16.2-5-16.2z"/>
            <path d="M691.9 1175.2c.4 0 .9 0 1.1 1.2.2 1.2.1 3.1-.1 4-.3.9.2 1.6-.3 1.7-.5.1-1.3-.1-1.6.1-.2.2-1.7.7-1.4-1 .3-1.6.1-1.4.2-2.5.1-1-.7-1.4-.6-2 .2-.4 1.8-1.6 2.7-1.5z"/>
            <path d="M701 1187.1s.8.8 1.1 1c.3.2 1 .5 1.9.9.8.5 1.7.8 2.2 1.1.5.3.6.3 1.2.3s1-.4 1-.9-.1-2.4.2-2.8c.3-.4.5-.9.4-.9-.1.1-2.2.8-2.7.7-.4 0-1.5 0-1.9-.2-.4-.2-1.2-.6-1.6-.5-.4.1-.2.1-.7.3-.5.3-1.6.3-1.1 1z"/>
            <path d="M661.2 1117.7c-.1.9 0 2 .7 3.3.7 1.3.7.6 1.1 2.3.4 1.7 1.1 3.1 1.7 3.6.6.5.9.7 2.2 2.5 1.2 1.8 1.1 2.2 2.4 4 1.3 1.8 3.1 2.1 3.1 3.5s1 4.4-1.9 5.3c-2.9.9-3.4 1-4.9 1.4-1.5.4-6 .9-6.8 1.4-.8.5-3.8.6-3.8.6s-.2-.3.8-1.7c1-1.5.4-2.1 2.1-1.9 1.7.2 2.7-.9 2.8-.9 0 0-.4-.1-1.7-.5-1.3-.3-2.5-.7-1.3-1.8 1.2-1.2.3-2.4 1.4-3 1-.6 2.7-.1 2.8-1.6.1-1.5 1.7.3.5-1.8-1.3-2.1-1.3-1.8-2.3-2.8-1-1-1.7-1.3-2-2.4-.3-1.1.4-1.8.1-2.9-.2-1 .1-1.3-.6-2.9-.7-1.6-.4-2.8-.1-3.1.2-.1 3.7-.6 3.7-.6z"/>
            <path d="M643.8 1141.1c1.2.7 2.5.1 3.3-.5.9-.6 1.1-1.8 2.9-1.9 1.9 0 1.7 1.8 2.8-.1 1.1-1.9.8-5.3.8-5.3s.1-1.7 1.4-1.7c1.3 0 1.1-1.9.2-2.1-.9-.2-2.2-.6-2.9-.3-.7.2-1.2.2-2.8 1.4-1.7 1.2-1.4 2.2-2.2 2.4-.8.2-1.5 1.2-2.2 2.1-.6.8-1.4 2.4-1.7 3.3 0 .9-1.3 1.8.4 2.7z"/>
            <path d="M687.9 1103.6c-.2 1.4-.7 2.3-.9 2.9-.2.6-1.6-.1-1.9 2.1-.3 2.2-1.4 2.3-.3 3.9 1.1 1.6-.5 2.5.3 3.7.8 1.2 1.8 3.3 2.2 2.9.4-.4 1.7-1.2 3.3-1.1 1.7 0 2.4-2 4.2-2.2 1.8-.2 1.8-1.6 2.7-.9.9.7 1.4 4.1 2.2 5 .8.9 1.3 2.4 2 3.2.7.8-.4 3.6 1.8 3.3 2.2-.4 2-.9 3.4-1.1 1.5-.2 2.4.5 3.2-1.7.8-2.3 1-5 1.2-5.5.2-.6 1.2-2.1 2.4-2.6s1.5-.9.9-2.6c-.6-1.7-2.7-.5-2.6-2.8.1-2.3.3-4.8.3-4.8s.7-1.1 2-2c1.3-.9 4-1 5.1-2 1.1-.9 1-5.6 1.1-6.1.1-.5-15.5.9-15.5.9z"/>
        </g>
        <path fill="#B62C87" d="M471.3 978.9c2 0 3 .8 3.4 1.3-13.9 40.5-25 81.4-32.1 118.5v.1c-13.5 71.4-14.4 134.8-2.6 188.5 12.2 55.3 37.4 97.8 75 126.2 33.6 25.4 75.5 38.3 124.5 38.3 5.7 0 11.5-.2 17.4-.5 28.5-1.7 58.9-7.4 90.4-17.1 1.9.9 3.9 1.8 5.9 2.8-33.6 10.7-65.9 17-96.1 18.8-6 .4-11.9.5-17.7.5-49.9 0-92.7-13.2-127.1-39.2-38.4-29.1-64.2-72.4-76.6-128.8-11.9-54.2-11.1-118.3 2.6-190.3 1.9-9.8 4-20 6.4-30.2 6.5-28.1 15-57.2 25-86.5.4-1.2.7-2 1-2.3 0-.1.2-.1.6-.1m0-6.9c-5.5 0-7 3.6-8.2 7-10.2 29.6-18.6 58.7-25.2 87.2-2.4 10.3-4.5 20.4-6.5 30.5-13.8 72.9-14.7 137.9-2.5 193 12.8 58 39.4 102.7 79.2 132.8 35.7 27 79.7 40.6 131.2 40.6 5.9 0 12-.2 18.1-.5 35.2-2.1 72.7-10.1 112.1-23.9.9-.3.9-1.6.1-2-7.2-3.1-14.4-6.4-21.5-9.8-.1-.1-.3-.1-.5-.1h-.3c-31.9 10-62.3 15.8-91 17.5-5.8.3-11.4.5-17 .5-47.5 0-87.9-12.4-120.3-36.9-36.2-27.4-60.6-68.5-72.4-122.2-11.6-52.7-10.7-115.2 2.7-185.7v-.1c7.1-37.5 18.3-78.3 31.9-117.9 1.6-4.4-2.6-10-9.9-10z"/>
        <path fill="#B62C87" d="M1247 238.3c49.9 0 92.7 13.2 127.1 39.2 38.4 29.1 64.2 72.4 76.6 128.8 7.5 34.1 10 72.3 7.3 113.8-1.6 24.3-4.9 50-9.9 76.4-1 5.2-2.1 10.5-3.2 15.9l-4.2-1.5c1.1-5.1 2.1-10.2 3-15.2 6.3-33.5 10-65.6 10.7-95.4.8-33.5-1.9-64.8-8.1-93.1-12.2-55.3-37.4-97.8-75-126.2-33.6-25.4-75.5-38.3-124.5-38.3-5.7 0-11.5.2-17.4.5-54 3.2-113.8 20.8-177.8 52.4-2.9-.2-5.7-.4-8.6-.6 1.3-.6 2.5-1.3 3.8-1.9 65.6-32.7 126.9-51 182.4-54.3 6-.3 12-.5 17.8-.5m0-6.9c-5.9 0-12 .2-18.1.5-56.4 3.3-118.6 21.8-185 55-8.8 4.4-17.6 9-26.4 13.9 12 .3 23.9.9 35.7 1.8 63.8-31.7 123.2-49.4 176.8-52.5 5.8-.3 11.4-.5 17-.5 47.5 0 87.9 12.4 120.3 36.9 36.2 27.4 60.6 68.5 72.4 122.2 6.1 27.8 8.8 58.4 7.9 91.4-.7 29.5-4.3 61-10.6 94.3-1.3 6.9-2.7 13.9-4.3 20.9l17.2 6.3c1.8-8 3.4-15.9 4.9-23.8 5.1-26.9 8.4-52.7 10-77.3 2.7-42.2.2-80.9-7.5-115.8-12.8-58-39.4-102.7-79.2-132.8-35.6-26.9-79.6-40.5-131.1-40.5z"/>
        <g fill="#FDCC38">
            <path transform="rotate(12.258 1293.431 592.502)" d="M1283.9 538h19.3v109h-19.3z"/>
            <path transform="rotate(12.258 1315.158 597.225)" d="M1305.7 542.7h19.3v109h-19.3z"/>
            <path transform="rotate(12.258 1344.834 603.677)" d="M1335.3 549.1h19.3v109h-19.3z"/>
            <path transform="rotate(12.258 1366.56 608.4)" d="M1357.1 553.9h19.3v109h-19.3z"/>
            <path transform="rotate(12.258 1512.39 640.475)" d="M1502.9 585.9h19.3v109h-19.3z"/>
            <path transform="rotate(12.258 1534.116 645.198)" d="M1524.6 590.6h19.3v109h-19.3z"/>
            <path transform="rotate(12.258 1563.792 651.65)" d="M1554.3 597.1h19.3v109h-19.3z"/>
            <path transform="rotate(12.258 1585.52 656.374)" d="M1576 601.8h19.3v109H1576z"/>
            <path transform="rotate(-167.742 1554.614 799.401)" d="M1544.9 744.9h19.3v109h-19.3z"/>
            <path transform="rotate(-167.742 1532.885 794.68)" d="M1523.2 740.2h19.3v109h-19.3z"/>
            <path transform="rotate(-167.742 1503.206 788.23)" d="M1493.5 733.7h19.3v109h-19.3z"/>
            <path transform="rotate(-167.742 1481.476 783.507)" d="M1471.8 729h19.3v109h-19.3z"/>
            <path transform="rotate(-167.742 1335.632 751.441)" d="M1326 697h19.3v109H1326z"/>
            <path transform="rotate(-167.742 1313.903 746.719)" d="M1304.2 692.2h19.3v109h-19.3z"/>
            <path transform="rotate(-167.742 1284.224 740.269)" d="M1274.6 685.8h19.3v109h-19.3z"/>
            <path transform="rotate(-167.742 1262.495 735.547)" d="M1252.8 681.1h19.3v109h-19.3z"/>
            <g fill="#939597">
                <path transform="rotate(12.258 1427.329 680.994)" d="M1417.8 648.9h19.3v64.2h-19.3z"/>
                <path transform="rotate(102.263 1424.271 695.787)" d="M1414.6 641.3h19.3v109h-19.3z"/>
                <path transform="rotate(12.258 1420.603 711.93)" d="M1414.3 607.3h13v209.2h-13z"/>
                <path transform="rotate(102.263 1434.788 621.574)" d="M1428.3 597.7h13v47.7h-13z"/>
                <path transform="rotate(12.258 1414.026 742.182)" d="M1404.5 717.1h19.5v50.2h-19.5z"/>
                <path transform="rotate(12.258 1405.472 781.527)" d="M1395.9 771.8h19.5v19.3h-19.5z"/>
                <path transform="rotate(102.263 1401.252 801.684)" d="M1395.8 755.4h11V848h-11z"/>
                <path transform="rotate(102.263 1424.105 695.843)" d="M1417.6 536.7h13v318.4h-13z"/>
                <path transform="rotate(102.263 1291.867 652.674)" d="M1289.7 631.9h4.3v41.6h-4.3z"/>
                <path transform="rotate(102.263 1343.275 663.846)" d="M1341.1 643.1h4.3v41.6h-4.3z"/>
                <path transform="rotate(102.263 1510.847 700.635)" d="M1508.7 679.9h4.3v41.6h-4.3z"/>
                <path transform="rotate(102.263 1562.255 711.808)" d="M1560.1 691h4.3v41.6h-4.3z"/>
                <path transform="rotate(-77.737 1556.347 739.177)" d="M1554.2 718.4h4.3V760h-4.3z"/>
                <path transform="rotate(-77.737 1504.938 728.005)" d="M1502.7 707.2h4.3v41.6h-4.3z"/>
                <path transform="rotate(-77.737 1337.362 691.219)" d="M1335.2 670.5h4.3v41.6h-4.3z"/>
                <path transform="rotate(-77.737 1285.953 680.047)" d="M1283.8 659.3h4.3v41.6h-4.3z"/>
            </g>
            <path transform="rotate(-167.742 1390.211 732.697)" fill="#FDCC38" d="M1380.5 703.4h19.3V762h-19.3z"/>
            <path transform="rotate(-167.742 1439.323 743.37)" fill="#FDCC38" d="M1429.7 714.1h19.3v58.6h-19.3z"/>
        </g>
    </g>
    <g transform="translate(-267.442 -176.6)">
        <path fill="#C8BB9A" d="M782.6 1163.5c-3.1-37.4-31-66.8-66.1-73.5 22.7 10.7 39.3 32.9 41.6 59.7 3.4 40-26.4 75.2-66.4 78.6-29.6 2.5-56.5-13.1-69.9-37.6 9.7 38 45.7 64.6 86.2 61.2 45-3.8 78.4-43.4 74.6-88.4z"/>
        <path fill="#E2D3A9" d="M758.1 1149.7c-2.3-26.8-18.8-49-41.6-59.7-3-.6-6-1-9.1-1.2-4.3-.3-8.7-.3-13.2 0-45.1 3.8-78.5 43.4-74.7 88.4.1.6.1 1.3.2 1.9.4 4 1.1 7.8 2.1 11.6 13.4 24.5 40.3 40.1 69.9 37.6 40-3.4 69.8-38.6 66.4-78.6z"/>
    </g>
    <g transform="translate(-267.442 -176.6)">
        <path transform="rotate(12.204 1293.708 592.385)" fill="#ECA60B" d="M1284.2 537.8h19.3v109h-19.3z"/>
        <path transform="rotate(12.204 1315.44 597.09)" fill="#ECA60B" d="M1305.9 542.5h19.3v109h-19.3z"/>
        <path transform="rotate(12.204 1345.122 603.515)" fill="#ECA60B" d="M1335.6 548.9h19.3v109h-19.3z"/>
        <path transform="rotate(12.204 1366.853 608.219)" fill="#ECA60B" d="M1357.3 553.6h19.3v109h-19.3z"/>
        <path transform="rotate(12.204 1512.713 640.163)" fill="#ECA60B" d="M1503.2 585.6h19.3v109h-19.3z"/>
        <path transform="rotate(12.204 1534.445 644.868)" fill="#ECA60B" d="M1525 590.3h19.3v109H1525z"/>
        <path transform="rotate(12.204 1564.127 651.293)" fill="#ECA60B" d="M1554.6 596.7h19.3v109h-19.3z"/>
        <path transform="rotate(12.204 1585.859 655.998)" fill="#ECA60B" d="M1576.4 601.4h19.3v109h-19.3z"/>
        <path transform="rotate(-167.796 1555.064 799.003)" fill="#ECA60B" d="M1545.4 744.5h19.3v109h-19.3z"/>
        <path transform="rotate(-167.796 1533.33 794.3)" fill="#ECA60B" d="M1523.7 739.8h19.3v109h-19.3z"/>
        <path transform="rotate(-167.796 1503.646 787.878)" fill="#ECA60B" d="M1494 733.4h19.3v109H1494z"/>
        <path transform="rotate(-167.796 1481.912 783.175)" fill="#ECA60B" d="M1472.2 728.7h19.3v109h-19.3z"/>
        <path transform="rotate(-167.796 1336.039 751.243)" fill="#ECA60B" d="M1326.4 696.8h19.3v109h-19.3z"/>
        <path transform="rotate(-167.796 1314.305 746.54)" fill="#ECA60B" d="M1304.6 692.1h19.3v109h-19.3z"/>
        <path transform="rotate(-167.796 1284.62 740.118)" fill="#ECA60B" d="M1275 685.6h19.3v109H1275z"/>
        <path transform="rotate(-167.796 1262.887 735.416)" fill="#ECA60B" d="M1253.2 680.9h19.3v109h-19.3z"/>
        <path transform="rotate(-167.796 1390.601 732.45)" fill="#ECA60B" d="M1380.9 703.2h19.3v58.6h-19.3z"/>
        <path transform="rotate(-167.796 1439.722 743.077)" fill="#ECA60B" d="M1430.1 713.8h19.3v58.6h-19.3z"/>
        <g fill="#F6B71E">
            <path transform="rotate(12.204 1293.902 591.496)" d="M1284.4 546h19.3v90.8h-19.3z"/>
            <path transform="rotate(12.204 1315.633 596.2)" d="M1306.1 550.7h19.3v90.8h-19.3z"/>
            <path transform="rotate(12.204 1345.316 602.626)" d="M1335.8 557.1h19.3v90.8h-19.3z"/>
            <path transform="rotate(12.204 1367.047 607.33)" d="M1357.5 561.8h19.3v90.8h-19.3z"/>
            <path transform="rotate(12.204 1512.907 639.275)" d="M1503.4 593.8h19.3v90.8h-19.3z"/>
            <path transform="rotate(12.204 1534.639 643.98)" d="M1525.1 598.5h19.3v90.8h-19.3z"/>
            <path transform="rotate(12.204 1564.321 650.405)" d="M1554.8 604.9h19.3v90.8h-19.3z"/>
            <path transform="rotate(12.204 1586.053 655.11)" d="M1576.6 609.6h19.3v90.8h-19.3z"/>
            <path transform="rotate(-167.796 1555.258 798.114)" d="M1545.6 752.7h19.3v90.8h-19.3z"/>
            <path transform="rotate(-167.796 1533.524 793.412)" d="M1523.9 748h19.3v90.8h-19.3z"/>
            <path transform="rotate(-167.796 1503.84 786.99)" d="M1494.2 741.6h19.3v90.8h-19.3z"/>
            <path transform="rotate(-167.796 1482.106 782.287)" d="M1472.4 736.9h19.3v90.8h-19.3z"/>
            <path transform="rotate(-167.796 1336.233 750.355)" d="M1326.6 705h19.3v90.8h-19.3z"/>
            <path transform="rotate(-167.796 1314.5 745.652)" d="M1304.8 700.3h19.3v90.8h-19.3z"/>
            <path transform="rotate(-167.796 1284.815 739.23)" d="M1275.1 693.8h19.3v90.8h-19.3z"/>
            <path transform="rotate(-167.796 1263.081 734.527)" d="M1253.4 689.1h19.3v90.8h-19.3z"/>
            <path transform="rotate(-167.796 1390.795 731.56)" d="M1381.1 711.4h19.3v40.4h-19.3z"/>
            <path transform="rotate(-167.796 1439.916 742.189)" d="M1430.3 722h19.3v40.4h-19.3z"/>
        </g>
        <g fill="#FAC224">
            <path transform="rotate(12.204 1293.902 591.496)" d="M1284.4 555.1h19.3v72.6h-19.3z"/>
            <path transform="rotate(12.204 1315.633 596.2)" d="M1306.1 559.8h19.3v72.6h-19.3z"/>
            <path transform="rotate(12.204 1345.316 602.626)" d="M1335.8 566.2h19.3v72.6h-19.3z"/>
            <path transform="rotate(12.204 1367.047 607.33)" d="M1357.5 570.9h19.3v72.6h-19.3z"/>
            <path transform="rotate(12.204 1512.907 639.275)" d="M1503.4 602.9h19.3v72.6h-19.3z"/>
            <path transform="rotate(12.204 1534.639 643.98)" d="M1525.1 607.6h19.3v72.6h-19.3z"/>
            <path transform="rotate(12.204 1564.321 650.405)" d="M1554.8 614h19.3v72.6h-19.3z"/>
            <path transform="rotate(12.204 1586.053 655.11)" d="M1576.6 618.7h19.3v72.6h-19.3z"/>
            <path transform="rotate(-167.796 1555.258 798.114)" d="M1545.6 761.8h19.3v72.6h-19.3z"/>
            <path transform="rotate(-167.796 1533.524 793.412)" d="M1523.9 757.1h19.3v72.6h-19.3z"/>
            <path transform="rotate(-167.796 1503.84 786.99)" d="M1494.2 750.7h19.3v72.6h-19.3z"/>
            <path transform="rotate(-167.796 1482.106 782.287)" d="M1472.4 746h19.3v72.6h-19.3z"/>
            <path transform="rotate(-167.796 1336.233 750.355)" d="M1326.6 714.1h19.3v72.6h-19.3z"/>
            <path transform="rotate(-167.796 1314.5 745.652)" d="M1304.8 709.4h19.3V782h-19.3z"/>
            <path transform="rotate(-167.796 1284.815 739.23)" d="M1275.1 702.9h19.3v72.6h-19.3z"/>
            <path transform="rotate(-167.796 1263.081 734.527)" d="M1253.4 698.2h19.3v72.6h-19.3z"/>
            <path d="M1402.6 722.8l-18.9-4.1-4.7 21.7 18.9 4.1z"/>
            <path d="M1451.7 733.4l-18.9-4.1-4.6 21.7 18.9 4.1z"/>
        </g>
        <g fill="#FDCC38">
            <path d="M1278.9 616l18.9 4.1 11.4-53.2-18.9-4.1z"/>
            <path d="M1300.6 620.7l18.9 4.1 11.4-53.2-18.9-4.1z"/>
            <path d="M1330.3 627.1l18.9 4.1 11.4-53.2-18.9-4.1z"/>
            <path d="M1352 631.8l19 4.1 11.4-53.2-18.9-4.1z"/>
            <path d="M1497.9 663.8l18.9 4 11.4-53.2-18.9-4.1z"/>
            <path d="M1519.7 668.5l18.9 4 11.4-53.2-18.9-4.1z"/>
            <path d="M1549.3 674.9l18.9 4.1 11.5-53.3-18.9-4.1z"/>
            <path d="M1571.1 679.6l18.9 4.1 11.4-53.3-18.9-4z"/>
            <path d="M1570.4 773.6l-18.9-4.1-11.4 53.2 18.9 4.1z"/>
            <path d="M1548.7 768.9l-18.9-4.1-11.4 53.2 18.9 4.1z"/>
            <path d="M1519 762.4l-18.9-4-11.4 53.2 18.9 4.1z"/>
            <path d="M1497.3 757.7l-18.9-4.1-11.4 53.3 18.9 4.1z"/>
            <path d="M1351.4 725.8l-18.9-4.1-11.4 53.2 18.9 4.1z"/>
            <path d="M1329.7 721.1l-18.9-4.1-11.5 53.2 19 4.1z"/>
            <path d="M1300 714.7l-18.9-4.1-11.4 53.2 18.9 4.1z"/>
            <path d="M1278.2 710l-18.9-4.1-11.4 53.2 18.9 4.1z"/>
            <path d="M1400.6 731.6l-18.9-4-2.7 12.8 18.9 4.1z"/>
            <path d="M1449.8 742.3l-19-4.1-2.6 12.8 18.9 4.1z"/>
        </g>
    </g>
    <path transform="rotate(-.6)" fill="#766C79" stroke-width="1" d="M702.553 246.044h55.298v62.097h-55.298z"/>
    <g transform="translate(-267.442 -176.6)">
        <path fill="#D20B76" d="M608.3 266.4l65.3 105.8c.1.2.3.5.4.7l-65.3-105.8c-.1-.2-.3-.5-.4-.7z"/>
        <path fill="#766C79" d="M720.3 453.5L655 347.7l-46.3-80.6L674 372.9z"/>
        <path fill="#BAB0BE" d="M588.3 253.7c8.6 1.4 16.1 6 20.4 13.5l46.3 80.6c8.5 14.9 1 35.4-16.8 45.9-8.9 5.2-18.7 7-27.4 5.6-8.6-1.4-16.1-6-20.4-13.5l-46.3-80.6c-8.5-14.9-1-35.4 16.8-45.9 9-5.3 18.8-7.1 27.4-5.6z"/>
        <path fill="#D20B76" d="M656.2 492.2l-65.3-105.8c4.3 7 11.6 11.4 20 12.7 8.6 1.4 18.4-.3 27.4-5.6 17.8-10.5 25.4-31 16.8-45.9l65.3 105.8c8.5 14.9 1 35.4-16.8 45.9-8.9 5.2-18.7 7-27.4 5.6-8.4-1.4-15.7-5.7-20-12.7z"/>
    </g>
    <g transform="translate(-267.442 -176.6)">
        <path fill="#9D92A0" d="M463.8 652.2l134-304.7 58.1-14.6 221.3 52.3-78 229.6L648.7 761l-109.4-15.1z"/>
        <path fill="#766C79" d="M1197.4 531.1c1.4-3.9 1-7.7-.8-10.7l-82.3-133.3c1.8 3 2.2 6.8.8 10.7l-29.8 81.2c-1.4 3.9-1 7.7.8 10.7l82.3 133.3c-1.8-3-2.2-6.8-.8-10.7z"/>
        <path fill="#9D92A0" d="M1025.5 604.2c-6.3-10.2-17.1-17.6-31.2-19.9l-84.2-13.9c-29.1-4.8-61 13.9-71.2 41.9-5.3 14.5-3.8 28.5 2.9 39.4L924.1 785c-6.7-10.9-8.2-25-2.9-39.4 10.2-27.9 42.1-46.7 71.2-41.9l84.2 13.9c14 2.3 24.9 9.7 31.2 19.9z"/>
        <path fill="#766C79" d="M1035.5 620.2c-6.3-10.2-17.1-17.6-31.2-19.9l-84.2-13.9c-29.1-4.8-61 13.9-71.2 41.9-5.3 14.5-3.8 28.5 2.9 39.4L934.1 801c-6.7-10.9-8.2-25-2.9-39.4 10.2-27.9 42.1-46.7 71.2-41.9l84.2 13.9c14 2.3 24.9 9.7 31.2 19.9z"/>
        <path fill="#766C79" d="M493.8 705.9c8.5 1.4 12.9 9.1 9.9 17.3-3 8.1-12.3 13.6-20.7 12.2-8.5-1.4-12.9-9.2-9.9-17.3 3-8.1 12.3-13.6 20.7-12.2z"/>
        <path fill="#CFC6D4" d="M1116.5 498.6l-21.9-3.6c-7.9-1.3-12-8.5-9.2-16.1l29.8-81.2c2.8-7.6-1.4-14.8-9.2-16.1l-510.4-84.5c-7.9-1.3-16.5 3.8-19.3 11.3L396.3 799c-2.8 7.6 1.4 14.7 9.2 16l510.4 84.5c7.9 1.3 16.5-3.8 19.3-11.3L965 807c2.8-7.6 11.4-12.6 19.3-11.3l20.9 3.5c2 .3 4.3-1 5-2.9l108-294.6c.5-1.5-.2-2.8-1.7-3.1zM981 452.8l9.7-26.4c.7-1.8 2.8-3.1 4.7-2.7l25.1 4.2c1.9.3 2.9 2.1 2.2 3.9l-9.7 26.4c-.7 1.8-2.8 3.1-4.7 2.7l-25.1-4.2c-1.9-.4-2.9-2.1-2.2-3.9zM788.4 603L685.7 719.8c-15.3 17.4-39.1 26.5-60.4 22.9l-78-12.9c-3.3-.6-6.5-1.4-9.5-2.5-.4-.1-.8-.3-1.2-.4-.2-.1-.3-.1-.5-.2-9.6-4-20.7-13.9-24.9-22.3l-15.5-31.2-13.7-27.5c-2.5-5.1-2.7-11.2-.5-17.1l18.1-49.2c7.6-20.7 24-38.9 45.9-50.4 6.5-3.4 11.6-9.1 14-15.5l47.8-130.4c6.4-17.3 26.1-28.9 44.1-26L837.6 388c18 3 27.5 19.4 21.1 36.8l-57.6 157.1c-2.7 7.5-7.1 14.7-12.7 21.1zm240.1 40.6c-10.2 27.9-42.1 46.7-71.2 41.9l-84.2-13.9c-29.1-4.8-44.4-31.4-34.1-59.3 10.2-27.9 42.1-46.7 71.2-41.9l84.2 13.9c29.1 4.8 44.3 31.3 34.1 59.3z"/>
        <path fill="#9D92A0" d="M1118.1 499.6l82.3 133.3c.3.6.4 1.3.1 2l-82.3-133.3c.3-.7.2-1.4-.1-2z"/>
        <path fill="#766C79" d="M897.8 603c10.1 1.7 15.4 10.9 11.9 20.7-3.6 9.7-14.7 16.3-24.8 14.6-10.1-1.7-15.5-10.9-11.9-20.7 3.5-9.7 14.6-16.2 24.8-14.6z"/>
        <path fill="#9D92A0" d="M1010.2 796.3c-.7 2-3 3.3-5 2.9l-20.9-3.5 82.3 133.3 20.9 3.5c2.1.3 4.3-1 5-2.9l108-294.6-82.3-133.3z"/>
        <path fill="#766C79" d="M984.2 795.7c-7.9-1.3-16.5 3.8-19.3 11.3l-29.8 81.2 82.3 133.3 29.8-81.2c2.8-7.6 11.4-12.6 19.3-11.3z"/>
        <path fill="#9D92A0" d="M935.2 888.3c-2.8 7.6-11.4 12.6-19.3 11.3l-510.4-84.5c-3.8-.6-6.7-2.6-8.4-5.4L479.4 943c1.7 2.8 4.6 4.8 8.4 5.4l510.4 84.5c7.9 1.3 16.5-3.8 19.3-11.3z"/>
        <path fill="#CFC6D4" d="M1194 745.1l-82.3-133.3 37.9-103.3 82.3 133.3z"/>
        <path fill="#766C79" d="M1162.8 830.2l-82.3-133.3 13 2.1 82.3 133.3z"/>
        <path fill="#CFC6D4" d="M1178.5 850.8l-82.4-133.3 43.7-119 82.3 133.3z"/>
        <path fill="#CFC6D4" d="M1124.9 933.5l-82.3-133.3 37.9-103.3 82.3 133.3z"/>
        <path fill="#766C79" d="M1169.6 849.3L1087.2 716l8.9 1.5 82.4 133.3z"/>
        <path fill="#E2DFE0" d="M1124.7 614l6.2-17 8.9 1.5-43.7 119-8.9-1.5 6.3-17-13-2.1-37.9 103.3-32-5.3 107-291.7 32 5.3-37.9 103.3z"/>
        <path fill="#766C79" d="M1093 928.3l-82.4-133.4 32 5.3 82.3 133.3z"/>
    </g>
    <g transform="translate(-267.442 -176.6)">
        <path fill="#766C79" d="M982.4 617.1c10.1 1.7 15.4 10.9 11.9 20.7-3.6 9.7-14.7 16.3-24.8 14.6-10.1-1.7-15.5-10.9-11.9-20.7 3.6-9.8 14.7-16.3 24.8-14.6z"/>
    </g>
    <g transform="translate(-267.442 -176.6)">
        <path fill="#9D92A0" d="M928.7 597.5l8.3 13.7c5.1 8.2 6.2 18.8 2.2 29.7-7.7 21-31.7 35.2-53.6 31.5-10.6-1.8-18.7-7.3-23.5-15l-8.3-13.7c4.7 7.7 12.9 13.2 23.5 15 21.9 3.6 45.9-10.5 53.6-31.5 4-10.8 2.9-21.4-2.2-29.7z"/>
    </g>
    <g transform="translate(-267.442 -176.6)">
        <path fill="#CFC6D4" d="M905.3 582.6c21.9 3.6 33.4 23.6 25.7 44.7-7.7 21-31.7 35.2-53.6 31.5-21.9-3.6-33.4-23.6-25.7-44.7 7.7-21 31.7-35.2 53.6-31.5zm-20.5 55.7c10.1 1.7 21.2-4.9 24.8-14.6 3.6-9.7-1.7-19-11.9-20.7-10.1-1.7-21.3 4.9-24.8 14.6-3.5 9.8 1.8 19 11.9 20.7"/>
    </g>
    <g transform="translate(-267.442 -176.6)">
        <path fill="#CFC6D4" d="M989.9 596.6c21.9 3.6 33.4 23.6 25.7 44.7-7.7 21-31.7 35.2-53.6 31.5-21.9-3.6-33.4-23.6-25.7-44.7 7.7-21 31.7-35.1 53.6-31.5zm-20.4 55.7c10.1 1.7 21.3-4.9 24.8-14.6 3.6-9.7-1.7-19-11.9-20.7-10.1-1.7-21.2 4.9-24.8 14.6-3.6 9.8 1.8 19.1 11.9 20.7"/>
    </g>
    <path fill="#766C79" transform="translate(-267.442 -176.6)" d="M867.3 620.3l6.7 11.1 34.6-21.4-6.3-10.5z"/>
    <g transform="translate(-267.442 -176.6)">
        <path fill="#E2DFE0" d="M891.3 592.3c10.1 1.7 15.4 10.9 11.9 20.7-3.6 9.7-14.7 16.3-24.8 14.6-10.1-1.7-15.5-10.9-11.9-20.7 3.5-9.7 14.6-16.3 24.8-14.6z"/>
    </g>
    <path fill="#766C79" transform="translate(-267.442 -176.6)" d="M951.9 634.3l6.7 11.1 34.7-21.4-6.4-10.5z"/>
    <g transform="translate(-267.442 -176.6)">
        <path fill="#E2DFE0" d="M975.9 606.3c10.1 1.7 15.4 10.9 11.9 20.7-3.6 9.7-14.7 16.3-24.8 14.6-10.1-1.7-15.5-10.9-11.9-20.7 3.6-9.7 14.7-16.2 24.8-14.6z"/>
    </g>
    <g transform="translate(-267.442 -176.6)">
        <path fill="#766C79" d="M647.2 677.3c8.4 1.4 12.9 9.1 9.9 17.3-3 8.1-12.3 13.6-20.7 12.2-8.4-1.4-12.9-9.1-9.9-17.2 3-8.2 12.3-13.7 20.7-12.3z"/>
    </g>
    <g transform="translate(-267.442 -176.6)">
        <path fill="#CFC6D4" d="M834.4 407.8c7.2 1.2 11 7.8 8.5 14.8L784 583.3c-1.9 5.1-4.8 9.9-8.6 14.2L670.3 716.9c-9.9 11.2-25.1 17-38.9 14.7L561.2 720c-3.2-.5-6.3-1.4-9.3-2.7l-5.5-2.3c-8-3.4-14.7-9.4-19-16.9l-26.6-50.2c2.6 3.1 6.3 5.3 11 6 11.5 1.9 24.2-5.5 28.2-16.6 4.1-11.1-2-21.6-13.5-23.5-8.6-1.4-17.7 2.3-23.5 8.8l12.9-35.2c5.7-15.6 18.2-29.4 34.1-37.7 13.1-6.9 22.7-17.5 27.2-29.7l48.9-133.4c2.5-6.9 10.5-11.6 17.7-10.4zm-197 296.3c7 1.2 14.6-3.4 17.1-10 2.5-6.7-1.2-13-8.2-14.2-7-1.2-14.6 3.3-17.1 10-2.5 6.7 1.2 13.1 8.2 14.2"/>
        <path fill="#E3E3E4" d="M838.2 420.8c.7-2 .6-3.9-.2-5.4-.8-1.4-2.4-2.4-4.4-2.7L643 381.1c-.5-.1-1-.1-1.5-.1-4.6 0-9.2 3.2-10.7 7.3L610 445.2 573.4 545c-2.5 6.9 1.8 14.5 9.1 15.8l178 31.4c7.9 1.4 15.9-2.9 18.7-10.5 0-.1 0-.1.1-.2z"/>
    </g>
    <path fill="#9D92A0" d="M294.358 544.1c1.1-.2 2.2-.6 3.1-1.1l26.5-13.9c14.9-8.5 18.6-28.3 7.9-41.8-8.6-10.8-23.8-13.7-35.8-6.8l-40.6 21.8c-2.8 1.5-5.9 2.3-9 2.3l-11.6.1c-1.7 0-3.3.5-4.7 1.3l-26.7 15.8c-12.4 7.3-17.3 22.8-11.4 36 6.9 15.3 25.7 21.2 40.1 12.5l34.6-20.9z"/>
    <path fill="#9D92A0" d="M760.258 469.1c.3-6.7-1.3-13-4.6-18.3l-9.7-15.8c5.1 8.2 6.2 18.8 2.2 29.7-7.7 21-31.7 35.2-53.6 31.5-10.6-1.8-18.7-7.3-23.4-15l9.7 15.8c3.4 5.5 8.5 9.8 15 12.5 26.6 1.5 54.1-15.5 64.4-40.4z"/>
    <g transform="translate(-267.442 -176.6)">
        <defs>
            <path id="argxs_astro_pi_mission_zero_attr_4" d="M1228.2 356.8l-64.9-21-81.9 41.9 24.4 4c3.4.6 6.1 2.2 7.9 4.5l.9 1.5 11.6 18.4c.1.1.1.2.2.3 1.6 2.9 2 6.6.6 10.3l-8.7 25.9 69.4 114.2 67-12.4 34.7-63.5z"/>
        </defs>
        <clipPath id="argxs_astro_pi_mission_zero_attr_5">
            <use xlink:href="#argxs_astro_pi_mission_zero_attr_4" x="0" y="0" width="100%" height="100%" overflow="visible"/>
        </clipPath>
        <defs>
            <filter filterUnits="userSpaceOnUse" x="1026.6" y="349.7" width="233.7" height="222.5">
                <feFlood result="flood"/>
                <feBlend in="SourceGraphic" in2="flood" mode="normal"/>
            </filter>
        </defs>
        <g clip-path="url(#argxs_astro_pi_mission_zero_attr_5)" transform="translate(0 2)">
            <path fill="#CFC6D4" d="M1171.1 350.1c8.6 1.4 16.1 6 20.4 13.5 8.5 14.9 1 35.4-16.8 45.9l-96.7 56.9c-8.9 5.2-18.7 7-27.4 5.5-8.6-1.4-16.1-6-20.4-13.5-8.5-14.9-1-35.4 16.8-45.9l96.8-56.9c8.9-5.2 18.7-6.9 27.3-5.5z"/>
            <path d="M1256.8 469.4c-.1-.2-.3-.5-.4-.7l-65.3-105.8c.1.2.3.5.4.7 8.5 14.9 1 35.4-16.8 45.9l-96.7 56.9 65.3 105.8 96.7-56.9c17.8-10.5 25.3-31.1 16.8-45.9z" id="path16114" fill="#847985"/>
        </g>
    </g>
    <g transform="translate(-267.442 -176.6)">
        <defs>
            <path id="argxs_astro_pi_mission_zero_attr_6" d="M418.9 837c-4.5-.7-7.8-3.4-9.2-7l-10.9-18.2c-1.3-1.3-2.3-2.9-2.9-4.8-.7-2.4-.6-5.2.4-8l8.7-23.7-107 56 112.5 180.5 124.7-55.6-71.8-111.9z"/>
        </defs>
        <clipPath id="argxs_astro_pi_mission_zero_attr_7">
            <use xlink:href="#argxs_astro_pi_mission_zero_attr_6" x="0" y="0" width="100%" height="100%" overflow="visible"/>
        </clipPath>
        <g clip-path="url(#argxs_astro_pi_mission_zero_attr_7)">
            <path fill="#766C79" d="M483.2 816.1L386.5 873c-8.9 5.2-18.7 7-27.4 5.5-8.4-1.4-15.6-5.7-20-12.7l65.3 105.8c4.3 7 11.6 11.4 20 12.7 8.6 1.4 18.4-.3 27.4-5.5l96.7-56.9z" id="path16172"/>
            <path fill="#CFC6D4" d="M479.7 756.8c8.6 1.4 16.1 6 20.4 13.5 8.5 14.9 1 35.4-16.8 45.9L386.5 873c-8.9 5.2-18.7 7-27.4 5.5-8.6-1.4-16.1-6-20.4-13.5-8.5-14.9-1-35.4 16.8-45.9l96.8-56.9c8.9-5.1 18.7-6.9 27.4-5.4z"/>
        </g>
    </g>
    <g transform="translate(-267.442 -176.6)">
        <g fill="#C30C80">
                <path d="M645.3 384.9c4.4.7 6.7 4.7 5.1 8.9-1.6 4.2-6.3 7-10.7 6.3-4.4-.7-6.7-4.7-5.1-8.9 1.5-4.2 6.3-7.1 10.7-6.3z"/>
                <path d="M637.3 406.6c4.4.7 6.7 4.7 5.1 8.9-1.5 4.2-6.3 7-10.7 6.3-4.4-.7-6.7-4.7-5.1-8.9 1.5-4.2 6.3-7 10.7-6.3z"/>
                <ellipse transform="rotate(-31.697 668.018 396.723)" cx="668" cy="396.7" rx="8.8" ry="7.3"/>
                <path d="M629.3 428.4c4.4.7 6.7 4.7 5.1 8.9-1.5 4.2-6.3 7-10.7 6.3-4.4-.7-6.7-4.7-5.1-8.9 1.5-4.2 6.3-7 10.7-6.3z"/>
                <path d="M662.8 410.9c4.4.7 6.7 4.7 5.1 8.9-1.5 4.2-6.4 7-10.7 6.3-4.4-.7-6.7-4.7-5.1-8.9 1.5-4.2 6.3-7.1 10.7-6.3z"/>
                <ellipse transform="rotate(-31.697 693.505 400.942)" cx="693.5" cy="400.9" rx="8.8" ry="7.3"/>
                <path d="M621.3 450.2c4.4.7 6.7 4.7 5.1 8.9-1.5 4.2-6.3 7-10.7 6.3-4.4-.7-6.7-4.7-5.1-8.9 1.6-4.2 6.4-7 10.7-6.3z"/>
                <ellipse transform="rotate(-31.697 652.045 440.278)" cx="652" cy="440.3" rx="8.8" ry="7.3"/>
                <path d="M688.3 415.1c4.4.7 6.7 4.7 5.1 8.9-1.5 4.2-6.3 7-10.7 6.3-4.4-.7-6.7-4.7-5.1-8.9 1.5-4.2 6.3-7 10.7-6.3z"/>
                <path d="M721.8 397.5c4.4.7 6.7 4.7 5.1 8.9-1.5 4.2-6.3 7-10.7 6.3-4.4-.7-6.7-4.7-5.1-8.9 1.5-4.2 6.3-7 10.7-6.3z"/>
                <path d="M613.4 472c4.4.7 6.7 4.7 5.1 8.9-1.5 4.2-6.3 7-10.7 6.3-4.4-.7-6.7-4.7-5.1-8.9 1.5-4.2 6.3-7.1 10.7-6.3z"/>
                <path d="M646.8 454.4c4.4.7 6.7 4.7 5.1 8.9-1.5 4.2-6.3 7-10.7 6.3-4.4-.7-6.7-4.7-5.1-8.9 1.5-4.2 6.3-7 10.7-6.3z"/>
                <ellipse transform="rotate(-31.697 677.532 444.498)" cx="677.5" cy="444.5" rx="8.8" ry="7.3"/>
                <path d="M713.8 419.3c4.4.7 6.7 4.7 5.1 8.9-1.5 4.2-6.3 7-10.7 6.3-4.4-.7-6.7-4.7-5.1-8.9 1.5-4.2 6.3-7 10.7-6.3z"/>
                <ellipse transform="rotate(-31.697 744.497 409.384)" cx="744.5" cy="409.4" rx="8.8" ry="7.3"/>
                <path d="M605.4 493.7c4.4.7 6.7 4.7 5.1 8.9-1.5 4.2-6.3 7-10.7 6.3-4.4-.7-6.7-4.7-5.1-8.9 1.5-4.2 6.3-7 10.7-6.3z"/>
                <ellipse transform="rotate(-31.697 636.078 483.816)" cx="636.1" cy="483.8" rx="8.8" ry="7.3"/>
                <path d="M672.3 458.6c4.4.7 6.7 4.7 5.1 8.9-1.5 4.2-6.3 7-10.7 6.3-4.4-.7-6.7-4.7-5.1-8.9 1.5-4.2 6.3-7 10.7-6.3z"/>
                <path d="M705.8 441.1c4.4.7 6.7 4.7 5.1 8.9-1.5 4.2-6.3 7-10.7 6.3-4.4-.7-6.7-4.7-5.1-8.9 1.5-4.2 6.3-7 10.7-6.3z"/>
                <path d="M739.3 423.5c4.4.7 6.7 4.7 5.1 8.9-1.5 4.2-6.4 7-10.7 6.3-4.4-.7-6.7-4.7-5.1-8.9 1.5-4.2 6.3-7 10.7-6.3z"/>
                <ellipse transform="rotate(-31.697 769.984 413.604)" cx="770" cy="413.6" rx="8.8" ry="7.3"/>
                <path d="M597.4 515.5c4.4.7 6.7 4.7 5.1 8.9-1.5 4.2-6.3 7-10.7 6.3-4.4-.7-6.7-4.7-5.1-8.9 1.5-4.2 6.3-7 10.7-6.3z"/>
                <ellipse transform="rotate(-31.697 628.091 505.594)" cx="628.1" cy="505.6" rx="8.8" ry="7.3"/>
                <ellipse transform="rotate(-31.697 661.565 488.036)" cx="661.5" cy="488" rx="8.8" ry="7.3"/>
                <path d="M697.8 462.9c4.4.7 6.7 4.7 5.1 8.9-1.5 4.2-6.3 7-10.7 6.3-4.4-.7-6.7-4.7-5.1-8.9 1.5-4.3 6.3-7.1 10.7-6.3z"/>
                <ellipse transform="rotate(-31.697 728.524 452.94)" cx="728.5" cy="452.9" rx="8.8" ry="7.3"/>
                <path d="M764.8 427.7c4.4.7 6.7 4.7 5.1 8.9-1.5 4.2-6.3 7-10.7 6.3-4.4-.7-6.7-4.7-5.1-8.9 1.5-4.2 6.3-7 10.7-6.3z"/>
                <path d="M589.4 537.3c4.4.7 6.7 4.7 5.1 8.9-1.5 4.2-6.3 7-10.7 6.3-4.4-.7-6.7-4.7-5.1-8.9 1.5-4.2 6.3-7 10.7-6.3z"/>
                <ellipse transform="rotate(-31.697 795.471 417.823)" cx="795.4" cy="417.8" rx="8.8" ry="7.3"/>
                <ellipse transform="rotate(-31.697 620.105 527.372)" cx="620.1" cy="527.3" rx="8.8" ry="7.3"/>
                <ellipse transform="rotate(-31.697 653.578 509.813)" cx="653.6" cy="509.8" rx="8.8" ry="7.3"/>
                <path d="M689.8 484.6c4.4.7 6.7 4.7 5.1 8.9-1.5 4.2-6.3 7-10.7 6.3-4.4-.7-6.7-4.7-5.1-8.9 1.6-4.2 6.4-7 10.7-6.3z"/>
                <path d="M723.3 467.1c4.4.7 6.7 4.7 5.1 8.9-1.5 4.2-6.4 7-10.7 6.3-4.4-.7-6.7-4.7-5.1-8.9 1.5-4.2 6.3-7.1 10.7-6.3z"/>
                <ellipse transform="rotate(-31.697 754.01 457.159)" cx="754" cy="457.1" rx="8.8" ry="7.3"/>
                <path d="M790.3 432c4.4.7 6.7 4.7 5.1 8.9-1.5 4.2-6.3 7-10.7 6.3-4.4-.7-6.7-4.7-5.1-8.9 1.5-4.2 6.3-7.1 10.7-6.3z"/>
                <ellipse transform="rotate(-31.697 612.118 549.15)" cx="612.1" cy="549.1" rx="8.8" ry="7.3"/>
                <ellipse transform="rotate(-31.697 820.976 422.045)" cx="820.9" cy="422" rx="8.8" ry="7.3"/>
                <ellipse transform="rotate(-31.697 645.592 531.591)" cx="645.6" cy="531.6" rx="8.8" ry="7.3"/>
                <path d="M681.8 506.4c4.4.7 6.7 4.7 5.1 8.9-1.5 4.2-6.3 7-10.7 6.3-4.4-.7-6.7-4.7-5.1-8.9 1.6-4.2 6.4-7 10.7-6.3z"/>
                <ellipse transform="rotate(-31.697 712.557 496.478)" cx="712.5" cy="496.5" rx="8.8" ry="7.3"/>
                <path d="M748.8 471.3c4.4.7 6.7 4.7 5.1 8.9-1.5 4.2-6.3 7-10.7 6.3-4.4-.7-6.7-4.7-5.1-8.9 1.5-4.2 6.3-7 10.7-6.3z"/>
                <ellipse transform="rotate(-31.697 779.498 461.378)" cx="779.5" cy="461.4" rx="8.8" ry="7.3"/>
                <path d="M815.8 436.2c4.4.7 6.7 4.7 5.1 8.9-1.5 4.2-6.4 7-10.7 6.3-4.4-.7-6.7-4.7-5.1-8.9 1.5-4.2 6.3-7 10.7-6.3z"/>
                <ellipse transform="rotate(-31.697 637.605 553.369)" cx="637.6" cy="553.3" rx="8.8" ry="7.3"/>
                <path d="M673.8 528.2c4.4.7 6.7 4.7 5.1 8.9-1.5 4.2-6.3 7-10.7 6.3-4.4-.7-6.7-4.7-5.1-8.9 1.6-4.2 6.4-7.1 10.7-6.3z"/>
                <ellipse transform="rotate(-31.697 704.57 518.255)" cx="704.5" cy="518.2" rx="8.8" ry="7.3"/>
                <ellipse transform="rotate(-31.697 738.044 500.697)" cx="738" cy="500.7" rx="8.8" ry="7.3"/>
                <path d="M774.3 475.5c4.4.7 6.7 4.7 5.1 8.9-1.5 4.2-6.3 7-10.7 6.3-4.4-.7-6.7-4.7-5.1-8.9 1.5-4.2 6.3-7 10.7-6.3z"/>
                <ellipse transform="rotate(-31.697 805.003 465.6)" cx="805" cy="465.6" rx="8.8" ry="7.3"/>
                <path d="M665.9 549.9c4.4.7 6.7 4.7 5.1 8.9-1.5 4.2-6.3 7-10.7 6.3-4.4-.7-6.7-4.7-5.1-8.9 1.5-4.2 6.3-7 10.7-6.3z"/>
                <ellipse transform="rotate(-31.697 696.584 540.033)" cx="696.6" cy="540" rx="8.8" ry="7.3"/>
                <ellipse transform="rotate(-31.697 730.058 522.475)" cx="730" cy="522.5" rx="8.8" ry="7.3"/>
                <ellipse transform="rotate(-31.697 763.531 504.916)" cx="763.5" cy="504.9" rx="8.8" ry="7.3"/>
                <path d="M799.8 479.7c4.4.7 6.7 4.7 5.1 8.9-1.5 4.2-6.3 7-10.7 6.3-4.4-.7-6.7-4.7-5.1-8.9 1.5-4.2 6.3-7 10.7-6.3z"/>
                <ellipse transform="rotate(-31.697 688.598 561.81)" cx="688.6" cy="561.8" rx="8.8" ry="7.3"/>
                <ellipse transform="rotate(-31.697 722.071 544.252)" cx="722" cy="544.2" rx="8.8" ry="7.3"/>
                <ellipse transform="rotate(-31.697 755.545 526.694)" cx="755.5" cy="526.7" rx="8.8" ry="7.3"/>
                <ellipse transform="rotate(-31.697 789.036 509.139)" cx="789" cy="509.1" rx="8.8" ry="7.3"/>
                <ellipse transform="rotate(-31.697 714.084 566.03)" cx="714.1" cy="566" rx="8.8" ry="7.3"/>
                <ellipse transform="rotate(-31.697 747.558 548.472)" cx="747.5" cy="548.4" rx="8.8" ry="7.3"/>
                <ellipse transform="rotate(-31.697 781.05 530.917)" cx="781" cy="530.9" rx="8.8" ry="7.3"/>
                <ellipse transform="rotate(-31.697 739.572 570.25)" cx="739.5" cy="570.2" rx="8.8" ry="7.3"/>
                <ellipse transform="rotate(-31.697 773.063 552.694)" cx="773" cy="552.7" rx="8.8" ry="7.3"/>
                <ellipse transform="rotate(-31.697 765.077 574.472)" cx="765" cy="574.4" rx="8.8" ry="7.3"/>
        </g>
    </g>
    <path fill="#766C79" d="M331.358 508.8c1.2-6.2-.4-12.6-4.4-17.6-4.2-5.2-10.5-8.2-17.2-8.1-3.7 0-7.3 1-10.7 3l-40.6 21.8c-1.4.7-2.8 1.2-4.3 1.6-4.6 1.3-6.7 6.7-4.4 10.9.6 1.1 1 1.8 1.3 2.2.9 1.4 5.1 11.4 15.6 18.2 1.7 1.1 3.7 1.5 5.6 1.1l21-4c.5-.1 1-.3 1.4-.5l26.3-13.9c5.4-3.1 9.2-8.5 10.4-14.7z"/>
    <path fill="#CFC6D4" transform="translate(-267.442 -176.6)" d="M508.6 607.4l43.4-4.8-1.7 39.8-26.3 20.4-12.8 4.6-15.2-28.6z"/>
    <g transform="translate(-267.442 -176.6)">
        <path fill="#8E1832" d="M531.3 622.6l6.3 10c1.9 3 2.3 7 .8 11-2.9 7.8-11.8 13.1-19.9 11.7-2.4-.4-4.4-1.3-6-2.6-1.1-.8-2-1.8-2.7-3l-6.3-10c.7 1.1 1.6 2.1 2.7 3 1.6 1.3 3.7 2.2 6 2.6 8.1 1.3 17-3.9 19.9-11.7 1.5-4 1.1-7.9-.8-11z"/>
    </g>
    <g transform="translate(-267.442 -176.6)">
        <path fill="#DD0D2A" d="M500.3 644.2c2.3 1.8 5.1 3 8.4 3.6 11.3 1.9 23.6-5.4 27.6-16.2 4-10.8-1.9-21.1-13.2-23-7.6-1.3-15.6 1.6-21.3 6.9-1.4 1.3-2.7 2.8-3.7 4.3-1.1 1.6-1.9 3.2-2.6 5-.6 1.8-1 3.5-1.2 5.2-.4 5.7 1.8 10.8 6 14.2z"/>
    </g>
    <path fill="#CFC6D4" d="M236.358 546.6c-3 8.1-12.3 13.6-20.7 12.2-8.5-1.4-12.9-9.2-9.9-17.3 3-8.1 12.3-13.6 20.7-12.2 8.4 1.4 12.8 9.2 9.9 17.3z" id="path16454"/>
    <path fill="#766C79" transform="translate(-267.442 -176.6)" d="M565 933l-75.8-12.5-27.2-44.6 75.9 12.6z"/>
    <path fill="#766C79" transform="translate(-267.442 -176.6)" d="M650.5 947.2l-75.9-12.6-27.1-44.5 75.8 12.5z"/>
    <path fill="#766C79" transform="translate(-267.442 -176.6)" d="M735.9 961.3L660 948.8l-26.7-43.9 75.9 12.6z"/>
    <g transform="translate(-267.442 -176.6)">
        <path fill="#cfc6d5" d="M510.6 970.2l-75.6-12 27-82.3 75.9 12.6z"/>
    </g>
    <g transform="translate(-267.442 -176.6)">
        <path fill="#9e94a2" d="M525.2 987.4l-14.6-17.2-75.6-12 11 18z"/>
    </g>
    <g transform="translate(-267.442 -176.6)">
        <path fill="#756b77" d="M525.2 987.4l-14.6-17.2 27.3-81.7 12.3 20.2z"/>
    </g>
    <g transform="translate(-267.442 -176.6)">
        <defs>
            <circle id="argxs_astro_pi_mission_zero_attr_8" cx="1294.6" cy="1219.3" r="256.2"/>
        </defs>
        <use xlink:href="#argxs_astro_pi_mission_zero_attr_8" fill="#DF3A8C" x="0" y="0" width="100%" height="100%" overflow="visible"/>
        <clipPath>
            <use xlink:href="#argxs_astro_pi_mission_zero_attr_8" x="0" y="0" width="100%" height="100%" overflow="visible"/>
        </clipPath>
        <path fill="#CC378B" d="M1551.1 1197.8c-9.9-117.2-97.1-209.3-207.1-230.5 71.3 33.6 123.2 103.1 130.3 187.2 10.6 125.5-82.6 235.8-208.1 246.4-92.7 7.8-177.1-41.1-219.2-117.7 30.5 119.2 143.4 202.4 270 191.8 141.2-11.8 246-136 234.1-277.2z"/>
        <g fill="#A01977">
            <path d="M1221.3 1317.1c-20.8 0-46-5.3-46-5.3-3.2-.3-5.1-2.1-5.1-5.1v-23.8c0-2.9 2.1-4.3 5.1-4 0 0 28.3 4.8 45.2 4.8 19.5 0 27.3-6.9 27.3-20.3v-9.9c0-15-10.2-20.3-28.3-20.3h-28.1c-2.9 0-5.1-2.1-5.1-5.1v-23.3c0-2.9 2.1-5.1 5.1-5.1h22.7c20.3 0 28.3-6.4 28.3-21.4v-5.6c0-11.8-5.3-17.4-24.3-17.4-17.1 0-42.8 4.5-42.8 4.5-2.9.3-5.1-1.1-5.1-4v-23.5c0-2.9 1.9-4.8 5.1-5.1 0 0 22.7-5.3 44.6-5.3 35.5 0 58.5 11.2 58.5 48.4v7.2c0 17.9-8 29.4-20.3 36.6 15.2 6.7 25.7 19 25.7 39.8v11.5c0 39.4-26.4 51.7-62.5 51.7z"/>
            <path d="M1362.7 1317.1c-39 0-57.5-22.2-57.5-61.5v-72.2c0-39.3 18.4-61.5 57.5-61.5 39 0 57.5 22.2 57.5 61.5v72.2c-.1 39.3-18.5 61.5-57.5 61.5zm21.4-132.3c0-19.2-5.3-29.4-21.4-29.4-16 0-21.4 10.2-21.4 29.4v69.5c0 19.2 5.3 29.4 21.4 29.4 16 0 21.4-10.2 21.4-29.4z"/>
            <path d="M1390.2 1030.3c3 1.5 6 3.1 8.8 4.7.3.2.6.3.9.5l17.9-31.4v-.1l-1.1-.6c-3.4-1.9-6.9-3.8-10.4-5.5l-16.1 32.4z"/>
            <path d="M1389.2 1029.8c0 .1 0 .1 0 0 .1.1.1 0 .1 0l16.1-32.4h-.1l-16.1 32.4z"/>
            <path d="M1369.9 1021.4c3.1 1.2 6.2 2.5 9.3 3.8.4.2.7.3 1 .4l14.5-33.1c-.4-.2-.8-.3-1.2-.5-3.6-1.5-7.3-3-10.9-4.4h-.1l-12.6 33.8z"/>
            <path d="M1408.6 1040.7s0 .1 0 0c0 .1 0 .1 0 0 .1.1.1 0 .1 0l19.4-30.5h-.1l-19.4 30.5z"/>
            <path d="M1426.7 1053.6s0 .1 0 0c0 .1 0 .1 0 0 .1.1.1.1.1 0l22.5-28.3h-.1l-22.5 28.3z"/>
            <path d="M1409.5 1041.3s0 .1 0 0c2.8 1.8 5.6 3.7 8.3 5.6l.9.6 21.1-29.3v-.1c-.4-.3-.7-.5-1.1-.7-3.2-2.2-6.4-4.5-9.7-6.6l-19.5 30.5z"/>
            <path d="M1368.8 1021c.1 0 .1 0 0 0 .1.1.1 0 .1 0l12.6-33.9v-.1h-.1l-12.6 34z"/>
            <path d="M1304.8 1430.9c-3.1.1-6.3.2-9.5.2h-.6s-.1 0-.1.1v26.4l-.1 9.7v.1h.7c3.7 0 7.4-.1 11.2-.2 0 0 .1 0 .1-.1l-1.7-36.2c0 .1 0 0 0 0z"/>
            <path d="M1305.9 1430.9s-.1 0 0 0l1.7 36.2s0 .1.1.1c0 0 .1 0 .1-.1l-1.9-36.2z"/>
            <path d="M1303.6 1008c.1 0 .1 0 0 0l1.5-36.2h-.1l-1.4 36.2z"/>
            <path d="M1347.6 1014.4c.1 0 .1 0 0 0l9-35.1v-.1h-.1l-8.9 35.2z"/>
            <path d="M1348.7 1014.7c3.3.9 6.5 1.8 9.7 2.8l.4.1c.2.1.4.1.7.2h.1l11-34.5c-.4-.1-.8-.3-1.2-.4-3.8-1.2-7.6-2.2-11.3-3.2h-.1l-9.3 35c-.1-.1-.1-.1 0 0z"/>
            <path d="M1427.6 1054.4c2.6 2.1 5.2 4.2 7.7 6.4l.2.2.6.6 24.1-27-1-.9c-2.9-2.6-5.9-5.1-9-7.6h-.1l-22.5 28.3c-.1-.1-.1-.1 0 0z"/>
            <path d="M1325.8 1010.1s.1 0 0 0l5.2-35.8v-.1s-.1 0-.1.1l-5.1 35.8c-.1-.1 0 0 0 0z"/>
            <path d="M1444.2 1069.2c2.3 2.3 4.7 4.8 7 7.2.3.3.5.5.7.8l26.8-24.3-.3-.3c-.2-.2-.4-.4-.6-.7-2.6-2.9-5.4-5.7-8.1-8.5h-.1l-25.4 25.8c0-.1 0 0 0 0z"/>
            <path d="M1499.6 1164.4c.9 3.2 1.6 6.5 2.4 9.7.1.3.1.6.2.9v.1h.1l35.4-7.5s.1 0 0-.1c0-.2-.1-.5-.2-.7l-.1-.5c-.8-3.8-1.8-7.6-2.8-11.4l-35 9.5z"/>
            <path d="M1499.3 1163.3c0 .1 0 .1 0 0 .1.1.1.1 0 0l34.9-9.5h-.1l-34.8 9.5z"/>
            <path d="M1443.4 1068.4c.1.1.1 0 .1 0l25.3-25.8h-.1l-25.3 25.8c0-.1 0 0 0 0z"/>
            <path d="M1506.5 1207.2c0 .1 0 .1 0 0l36.2-2v-.1l-36.2 2.1z"/>
            <path d="M1504.1 1185.1l35.7-5.8s.1 0 .1-.1c0 0 0-.1-.1 0l-35.7 5.9c0-.1 0 0 0 0z"/>
            <path d="M1492.3 1142.2s0 .1 0 0c0 .1.1.1 0 0l33.7-13.2h-.1l-33.6 13.2c0-.1 0 0 0 0z"/>
            <path d="M1504.2 1186.2c.5 3.3 1 6.7 1.3 9.9 0 .4.1.7.1 1.1l36-3.8c0-.2 0-.4-.1-.7 0-.2 0-.4-.1-.6-.4-3.9-.9-7.8-1.6-11.6h-.1l-35.5 5.7c.1-.1 0 0 0 0z"/>
            <path d="M1492.7 1143.2c1.2 3.2 2.3 6.3 3.4 9.5.1.4.2.7.4 1.1l34.4-11.2v-.1c-.1-.2-.1-.4-.2-.5-.1-.2-.1-.5-.2-.7-1.2-3.7-2.6-7.5-4-11.1h-.1l-33.7 13z"/>
            <path d="M1483.6 1122.9c1.5 3 3 6 4.4 9 .1.3.3.7.5 1l33-14.8v-.1c-.2-.4-.4-.8-.5-1.2-1.6-3.6-3.3-7.1-5.1-10.6h-.1l-32.2 16.7c0-.1-.1 0 0 0z"/>
            <path d="M1315.9 1008.9s0-.1 0 0l3.5-36c-.4 0-.8-.1-1.3-.1-3.8-.4-7.8-.6-11.7-.8-.1 0-.1 0-.1.1l-1.6 36.1c3.4.1 6.7.4 10 .7.4-.1.8-.1 1.2 0z"/>
            <path d="M1459.2 1085.7c2.1 2.6 4.2 5.3 6.2 7.9.2.3.4.6.7.9l29.2-21.4-.1-.1c-.2-.3-.4-.6-.7-.9-2.3-3.1-4.7-6.2-7.2-9.3l-28.1 22.9c-.1-.1-.1 0 0 0z"/>
            <path d="M1458.4 1084.8s.1 0 0 0c.1 0 .1 0 0 0 .1 0 .1 0 0 0l28-23h-.1l-27.9 23c.1 0 0 0 0 0z"/>
            <path d="M1483.1 1121.9s0 .1 0 0c0 .1 0 0 0 0l32.1-16.7v-.1h-.1l-32 16.8c-.1 0-.1 0 0 0z"/>
            <path d="M1472.3 1103.6c1.8 2.8 3.6 5.7 5.3 8.6.2.3.4.6.6 1l31.2-18.2v-.1c-.2-.4-.4-.7-.7-1.1-2-3.3-4.1-6.7-6.2-10h-.1l-30.1 19.8z"/>
            <path d="M1471.7 1102.7c.1.1.1.1 0 0 .1.1.1 0 0 0l30.2-19.9v-.1h-.1l-30.1 20c0-.1 0 0 0 0z"/>
            <path d="M1409.8 1397.5c-.1 0-.1 0 0 0-2.9 1.8-5.7 3.6-8.6 5.2-.3.2-.6.4-1 .6l18 31.4c.4-.2.8-.4 1.1-.7 3.3-1.9 6.7-4 10-6.1v-.1l-19.5-30.3z"/>
            <path d="M1492.8 1295.7c-.1 0-.1 0 0 0l-3.9 9.3-.3.6-.2.4v.1l33 14.8c.1-.3.3-.6.4-.9l.1-.2c1.6-3.5 3.1-7.2 4.5-10.8v-.1z"/>
            <path d="M1484.2 1314.9c-.1.1-.1.1 0 0l-.1.1 32.3 16.3z"/>
            <path d="M1493.2 1294.6s-.1 0 0 0c-.1.1-.1.1 0 .1l33.8 12.8h.1v-.1z"/>
            <path d="M1472.5 1335.1s0 .1 0 0c-1.9 2.8-3.8 5.6-5.8 8.3-.2.3-.4.6-.7.9v.1l29.2 21.3c.2-.3.4-.6.7-.9l.1-.1c2.3-3.2 4.5-6.4 6.7-9.7v-.1z"/>
            <path d="M1499.7 1274.5s-.1 0 0 0c-.9 3.2-1.9 6.5-2.9 9.6-.1.2-.1.4-.2.5-.1.2-.1.4-.2.5l34.4 11.2v-.1c.1-.4.3-.8.4-1.1 1.2-3.7 2.3-7.5 3.3-11.3v-.1z"/>
            <path d="M1483.7 1315.9s-.1 0 0 0c-1.6 3-3.2 5.9-4.8 8.8-.1.1-.2.3-.2.4l-.3.6 31.3 18.2c.1-.2.2-.3.3-.5.1-.2.2-.4.4-.6 1.9-3.4 3.8-6.8 5.6-10.3z"/>
            <path d="M1473.2 1334.2c-.1 0-.1 0 0 0-.1 0-.1.1 0 0l-.1.1 30.4 19.6z"/>
            <path d="M1543.1 1218.2c0-4-.1-7.9-.3-11.7h-.1l-36.1 1.9c.2 3.3.3 6.7.3 10v1.1s0 .1.1.1h36.2s.1 0 .1-.1c-.2-.5-.2-.9-.2-1.3z"/>
            <path d="M1506.6 1230.6s-.1 0 0 0c-.2 3.3-.5 6.7-.8 10.1 0 .4-.1.7-.1 1.1 0 0 0 .1.1.1l36 3.7h.1v-.1c0-.4.1-.8.1-1.2.4-3.9.7-7.8.9-11.7 0 0 0-.1-.1-.1z"/>
            <path d="M1506.7 1229.5c-.1 0-.1 0 0 0-.1 0-.1 0 0 0-.1.1 0 .1 0 .1l36.1 1.7h.1s0-.1-.1-.1z"/>
            <path d="M1500 1273.4c-.1 0-.1 0 0 0-.1.1-.1.1 0 .1l35 9.2h.1v-.1z"/>
            <path d="M1460.1 1352.3c0-.1 0-.1 0 0-.1 0-.1 0 0 0l28.1 22.8z"/>
            <path d="M1504.5 1251.6c-.1 0-.1 0 0 0-.1.1 0 .1 0 .1l35.7 5.5h.1v-.1z"/>
            <path d="M1540 1258.4l-35.7-5.6s-.1 0-.1.1c-.5 3.3-1.1 6.6-1.8 9.8l-.2 1.1v.1l35.4 7.5c.1-.4.2-.8.3-1.3.8-3.9 1.6-7.8 2.1-11.7.1 0 .1 0 0 0z"/>
            <path d="M1390.4 1408.6c-3 1.5-6.1 3-9.1 4.3-.2.1-.5.2-.7.3l-.3.1v.1l14.5 33.1h.1c.3-.1.7-.3 1-.4l.2-.1c3.5-1.6 7.1-3.3 10.6-5.1l-16.3-32.3z"/>
            <path d="M1370 1417.6c-3.1 1.2-6.3 2.3-9.5 3.3-.2.1-.4.1-.6.2-.2 0-.3.1-.5.2v.1l11 34.5 1.3-.4c3.7-1.2 7.4-2.5 11.1-3.9l-12.8-34z"/>
            <path d="M1326.9 1428.8c-3.3.5-6.6.9-9.9 1.3h-.5c-.2 0-.4 0-.6.1l3.5 36s0 .1.1.1c.4 0 .9-.1 1.3-.1 3.9-.4 7.8-.9 11.6-1.5l-5.5-35.9c.1 0 .1 0 0 0z"/>
            <path d="M1349.8 1424s0 .1 0 0c0 .1 0 .1 0 0l9.3 35h.1v-.1l-9.4-34.9c.1.1 0 0 0 0z"/>
            <path d="M1371 1417.2s-.1 0 0 0l12.9 33.8h.1v-.1l-13-33.8c.1.1 0 .1 0 .1z"/>
            <path d="M1328 1428.6s0 .1 0 0l5.5 35.8h.1s.1 0 0-.1l-5.6-35.7c.1 0 0 0 0 0z"/>
            <path d="M1348.8 1424.3s-.1 0 0 0c-3.3.8-6.6 1.6-9.8 2.3-.2 0-.4.1-.5.1-.1 0-.4.1-.5.1l7.3 35.4h.1c.4-.1.8-.2 1.3-.3 3.8-.8 7.6-1.7 11.4-2.7l-9.3-34.9z"/>
            <path d="M1337.9 1012.2s0-.1 0 0l7.3-35.5c-.4-.1-.9-.2-1.3-.3-3.8-.8-7.7-1.4-11.6-2l-5.4 35.8c3.3.5 6.6 1.1 9.9 1.7.3.1.7.2 1.1.3z"/>
            <path d="M1410.6 1396.9c0 .1 0 .1 0 0l19.7 30.4h.1l-19.8-30.4c.1 0 .1 0 0 0z"/>
            <path d="M1444.4 1369.6c-2.4 2.3-4.8 4.7-7.3 6.9-.3.3-.5.5-.8.7l24.1 27 1-.9c2.9-2.6 5.8-5.3 8.5-8.1v-.1l-25.5-25.5z"/>
            <path d="M1445.2 1368.8s0 .1 0 0c0 .1 0 .1 0 0l25.5 25.6z"/>
            <path d="M1428.7 1383.8h-.1s0 .1.1 0l22.7 28.1z"/>
            <path d="M1459.4 1353.1s-.1 0 0 0c-2.2 2.6-4.4 5.2-6.6 7.6l-.3.3c-.1.2-.3.3-.5.5l26.8 24.3c.1-.2.3-.3.4-.5.1-.2.3-.3.4-.5 2.6-2.9 5.2-5.9 7.6-8.9z"/>
            <path d="M1427.8 1384.5c-2.6 2.1-5.3 4.1-8 6.1l-.9.7v.1l21.2 29.3c.4-.3.7-.5 1.1-.8 3.2-2.3 6.3-4.8 9.3-7.1v-.1l-22.7-28.2z"/>
            <path d="M1391.4 1408.1h-.1l16.4 32.2h.1v-.1z"/>
        </g>
    </g>
    <g transform="translate(-267.442 -176.6)">
        <defs>
            <path id="argxs_astro_pi_mission_zero_attr_10" d="M950.1 917c-2.8 7.6-11.4 12.6-19.3 11.3l-52.4-8.7 126.7 187.4 72.6-42.5v-46.8L970.6 861.1z"/>
        </defs>
        <clipPath id="argxs_astro_pi_mission_zero_attr_11">
            <use xlink:href="#argxs_astro_pi_mission_zero_attr_10" x="0" y="0" width="100%" height="100%" overflow="visible"/>
        </clipPath>
        <defs>
            <filter id="Adobe_OpacityMaskFilter_1_" filterUnits="userSpaceOnUse" x="871.7" y="829.1" width="183.3" height="252.2">
                <feFlood result="flood"/>
                <feBlend in="SourceGraphic" in2="flood" mode="normal"/>
            </filter>
        </defs>
        <g clip-path="url(#argxs_astro_pi_mission_zero_attr_11)">
            <path fill="#D20B76" d="M939.4 842.3l65.3 105.8c.1.2.3.5.4.7L939.8 843c-.2-.2-.3-.5-.4-.7z"/>
            <path fill="#766C79" d="M1051.4 1029.4l-65.3-105.8-46.3-80.6 65.3 105.8z"/>
            <path fill="#CFC6D4" d="M919.4 829.6c8.6 1.4 16.1 6 20.4 13.5l46.3 80.6c8.5 14.9 1 35.4-16.8 45.9-8.9 5.2-18.7 7-27.4 5.6-8.6-1.4-16.1-6-20.4-13.5L875.2 881c-8.5-14.9-1-35.4 16.8-45.9 8.9-5.2 18.7-7 27.4-5.5z"/>
            <path fill="#9D92A0" d="M987.3 1068.1L922 962.3c4.3 7 11.6 11.4 20 12.7 8.6 1.4 18.4-.3 27.4-5.6 17.8-10.5 25.4-31 16.8-45.9l65.3 105.8c8.5 14.9 1 35.4-16.8 45.9-8.9 5.2-18.7 7-27.4 5.6-8.4-1.3-15.7-5.7-20-12.7z"/>
        </g>
    </g>
</svg>