<svg xmlns="http://www.w3.org/2000/svg" width="255" height="82" fill="none" viewBox="0 0 255 82">
    <defs>
        <linearGradient id="a" x1="56.3293" x2="2.87497" y1="-.39187" y2="24.3916" gradientUnits="userSpaceOnUse">
            <stop offset=".1" stop-color="#3BEA62"/>
            <stop offset=".59" stop-color="#F0EB18"/>
        </linearGradient>
        <linearGradient id="b" x1="4.06843" x2="62.664" y1="4.32643" y2="62.922" gradientUnits="userSpaceOnUse">
            <stop offset=".26" stop-color="#F0EB18"/>
            <stop offset=".65" stop-color="#087CFA"/>
        </linearGradient>
    </defs>
    <path fill="#000" fill-rule="evenodd"
          d="M95.2232 17c2.83 0 5.3598.65 7.5898 1.93l.01-.02c2.23 1.29 3.98 3.06 5.23 5.33 1.25 2.27 1.88 4.84 1.88 7.73 0 2.89-.62 5.46-1.88 7.73-1.25 2.27-3 4.05-5.23 5.33-2.24 1.29-4.7598 1.93-7.5898 1.93h-11.24V17h11.23Zm4.8498 24.06c1.4-.85 2.49-2.04 3.25-3.6.76-1.56 1.14-3.38 1.14-5.48 0-2.1-.38-3.93-1.14-5.48-.76-1.56-1.85-2.76-3.25-3.6-1.3998-.84-3.0398-1.26-4.8898-1.26h-5.86v20.68h5.86c1.85 0 3.49-.41 4.8898-1.26Zm27.92-15.33c1.11.66 2.02 1.54 2.73 2.63v-3.31h4.96v21.92h-4.96v-3.31c-.71 1.09-1.62 1.98-2.73 2.63-1.36.8-2.95 1.2-4.76 1.2-1.94 0-3.68-.49-5.22-1.47-1.54-.98-2.75-2.34-3.62-4.09-.87-1.75-1.3-3.72-1.3-5.92 0-2.2.43-4.17 1.3-5.92.87-1.75 2.08-3.11 3.61-4.09 1.53-.98 3.28-1.47 5.23-1.47 1.81 0 3.4.4 4.76 1.2Zm-.28 16.36c.94-.59 1.67-1.41 2.2-2.46.53-1.05.79-2.26.79-3.63s-.26-2.58-.79-3.63c-.52-1.05-1.26-1.87-2.2-2.46-.94-.59-2.05-.89-3.25-.89-1.2 0-2.27.3-3.21.89-.94.59-1.67 1.41-2.19 2.46s-.78 2.26-.78 3.63.26 2.59.78 3.64c.52 1.05 1.25 1.88 2.19 2.46.94.59 1.99.88 3.21.88s2.31-.3 3.25-.89Zm15.11-22.39h4.7v5.35h5.82l-.02 4.39h-5.82l.02 11.06c0 .6.2 1.1.59 1.49.39.39.89.59 1.49.59h3.72v4.39h-4.73c-1.17 0-2.23-.25-3.16-.75-.93-.5-1.66-1.2-2.18-2.08-.52-.89-.78-1.89-.78-3l-.02-11.71h-3.85l.02-4.39h2.4c.55 0 .98-.17 1.31-.5.32-.33.49-.76.49-1.29V19.7Zm27.02 6.03c1.11.66 2.02 1.54 2.73 2.63v-3.31h4.97v21.92h-4.97v-3.31c-.71 1.09-1.62 1.98-2.73 2.63-1.36.8-2.95 1.2-4.76 1.2-1.94 0-3.68-.49-5.22-1.47-1.54-.98-2.75-2.34-3.62-4.09-.87-1.75-1.31-3.72-1.31-5.92 0-2.2.44-4.17 1.31-5.92.87-1.75 2.08-3.11 3.61-4.09 1.53-.98 3.27-1.47 5.23-1.47 1.81 0 3.4.4 4.76 1.2Zm-.3 16.36c.95-.59 1.68-1.41 2.21-2.46s.79-2.26.79-3.63-.26-2.58-.79-3.63c-.53-1.05-1.27-1.87-2.21-2.46-.94-.59-2.05-.89-3.25-.89-1.2 0-2.27.3-3.21.89-.94.59-1.67 1.41-2.19 2.46s-.78 2.26-.78 3.63.26 2.58.78 3.64c.52 1.05 1.25 1.87 2.19 2.46.94.59 1.99.88 3.21.88s2.31-.3 3.25-.89Zm18.02 4.87h-5.05V17h5.05v29.96Zm15.24-22.43c2.15 0 4.11.5 5.86 1.5h-.01c1.75 1 3.13 2.37 4.14 4.12 1.01 1.74 1.51 3.7 1.51 5.85 0 2.15-.51 4.1-1.51 5.85s-2.39 3.12-4.14 4.12c-1.75 1-3.73 1.5-5.88 1.5s-4.11-.5-5.86-1.5-3.13-2.38-4.14-4.12c-1.01-1.74-1.51-3.7-1.51-5.85 0-2.15.5-4.1 1.5-5.85s2.38-3.12 4.14-4.12c1.77-1 3.75-1.5 5.9-1.5Zm3.25 17.55c.95-.58 1.69-1.4 2.21-2.46s.78-2.25.78-3.62-.26-2.58-.79-3.63c-.52-1.05-1.26-1.87-2.21-2.46-.95-.59-2.04-.89-3.26-.89-1.22 0-2.31.3-3.26.88-.94.58-1.68 1.4-2.2 2.46-.52 1.06-.78 2.28-.78 3.64 0 1.36.26 2.57.78 3.62.52 1.05 1.25 1.88 2.2 2.46.94.59 2.04.88 3.26.88 1.22 0 2.31-.3 3.27-.88Zm16.91-13.71c.57-.93 1.27-1.69 2.1-2.26l-.01.01c1.17-.81 2.53-1.21 4.09-1.21h.81V30h-1.41c-1.12 0-2.11.21-2.94.62-.84.42-1.48 1.01-1.93 1.78-.45.77-.67 1.68-.67 2.74v11.83h-5.05V25.05h5.01v3.32Zm29.19 1.67c.93 1.73 1.4 3.71 1.4 5.94l-.02-.01v1.22h-17.29c.1 1.01.35 1.94.78 2.77.54 1.05 1.28 1.87 2.23 2.45.95.59 2.02.88 3.22.88 1.06 0 2-.21 2.85-.62.85-.41 1.54-.99 2.1-1.73h5.5c-.52 1.36-1.27 2.52-2.25 3.49-.98.97-2.17 1.72-3.57 2.25-1.39.53-2.94.79-4.64.79-2.15 0-4.09-.5-5.81-1.48-1.72-.99-3.08-2.36-4.07-4.11-.99-1.76-1.49-3.78-1.49-5.93s.5-4.1 1.5-5.84c1-1.74 2.37-3.11 4.1-4.1 1.74-.99 3.61-1.49 5.77-1.49 2.16 0 4.07.48 5.76 1.46 1.69.98 3 2.33 3.93 4.06Zm-15.798 3.77c.13-.7163.34-1.3929.668-2.01.54-1.02 1.28-1.82 2.23-2.4.95-.58 2.02-.87 3.22-.87 1.2 0 2.26.3 3.18.9.92.6 1.63 1.43 2.13 2.49.28.59.47 1.22.59 1.89h-12.018ZM90.2229 67.5157c.869 0 1.6581.2397 2.3573.6992.6992.4694 1.2485 1.1087 1.6481 1.9178.3995.8091.5993 1.728.5993 2.7468 0 1.0189-.1998 1.9378-.5993 2.7469-.3996.819-.9489 1.4583-1.6481 1.9178-.6992.4694-1.4883.6992-2.3673.6992-.8191 0-1.5383-.1798-2.1476-.5394-.4794-.2697-.839-.6692-1.1486-1.1287v1.4284H84v-14.004h2.9266v5.1841c.3097-.4495.6693-.8491 1.1487-1.1287.6093-.3596 1.3285-.5394 2.1476-.5394Zm.4494 7.7811c.3696-.2298.6593-.5594.8691-.9789.2097-.4195.3096-.889.3096-1.4384 0-.5493-.0999-1.0288-.3096-1.4483-.2098-.4195-.4995-.7492-.8691-.9789-.3695-.2297-.789-.3496-1.2785-.3496-.4894 0-.9189.1199-1.2885.3496-.3696.2297-.6593.5594-.869.9789-.2098.4195-.3097.889-.3097 1.4383 0 .5494.0999 1.0289.3097 1.4484.2097.4195.4994.7491.869.9789.3696.2297.8091.3496 1.2885.3496.4795 0 .909-.1199 1.2785-.3496Zm7.1518-7.5414 2.3569 6.3627h.01l2.168-6.3627h2.937l-4.256 10.8675c-.299.7792-.739 1.3984-1.308 1.8679-.5694.4695-1.2686.6992-2.0876.6992h-1.828v-2.587h1.6382c.2297 0 .4195-.05.5693-.1499.1498-.0998.2797-.2497.3896-.4594l.2996-.6093-3.9055-9.629h3.0165Zm16.5209 6.4326c.17-.3096.25-.6592.25-1.0488v-9.1395h3.096v9.3593c0 .879-.199 1.6681-.609 2.3773-.409.7091-.969 1.2585-1.678 1.6581-.709.3995-1.518.5993-2.407.5993h-2.368v-2.8468h1.958c.4 0 .749-.0799 1.049-.2497.31-.1698.539-.3995.709-.7092Zm15.243-1.8978h-6.493v3.0165h7.372v2.697h-10.388v-14.004h10.188v2.7069h-7.172v2.9666h6.493v2.617Zm6.153-5.5137h-4.156v-2.7768h11.377v2.7768h-4.125v11.2172h-3.096V66.7765Zm17.18 3.8956c.29.0799.559.1798.809.3096h.01c.569.3097 1.019.7292 1.338 1.2785.32.5494.48 1.1687.48 1.8579 0 .7492-.2 1.4184-.609 2.0077-.41.5893-.979 1.0488-1.718 1.3784-.74.3297-1.579.4995-2.517.4995h-6.343v-14.004h6.223c.889 0 1.688.1598 2.387.4695.699.3096 1.238.7491 1.628 1.3085.39.5593.579 1.1986.579 1.9078 0 .6193-.149 1.1686-.439 1.6481-.29.4794-.699.859-1.209 1.1187-.179.0943-.385.153-.584.2098l-.035.01Zm-2.797-4.3251h-2.747v3.4461h2.747c.38 0 .719-.0799 1.009-.2198.3-.1398.519-.3396.689-.6093.17-.2697.25-.5893.25-.9289 0-.3396-.09-.6393-.25-.889-.17-.2597-.399-.4495-.689-.5893-.29-.1399-.629-.2098-1.009-.2098Zm1.239 9.0896c.319-.1498.569-.3496.749-.6193v.02c.18-.2697.27-.5694.27-.9289 0-.3596-.09-.6793-.27-.9589-.18-.2797-.44-.4995-.759-.6493-.33-.1498-.699-.2297-1.109-.2297h-2.867v3.5858h2.867c.42 0 .799-.0699 1.119-.2197Zm16.541-4.6647c-.43.6693-1.029 1.1987-1.808 1.5682h-.01c-.14.07-.3.1299-.46.1898l3.197 5.4738h-3.536l-2.837-5.1042h-2.018v5.1042h-3.096v-14.004h6.133c1.009 0 1.898.1798 2.667.5494.769.3696 1.358.889 1.778 1.5582.419.6692.629 1.4284.629 2.3173 0 .889-.21 1.6781-.639 2.3473Zm-3.556-.6093c.319-.1598.569-.3895.739-.6792v.01c.17-.2897.26-.6293.26-1.0288 0-.3995-.09-.7392-.26-1.0288-.17-.2897-.42-.5094-.739-.6693-.32-.1498-.699-.2297-1.129-.2297h-2.787v3.8656h2.787c.43 0 .809-.0799 1.129-.2398Zm5.494 7.8411 5.004-14.004h3.366l5.104 14.004h-3.086l-1.059-3.0865h-5.194l-.989 3.0865h-3.146Zm6.452-10.3781-1.608 4.9443h3.706l-1.718-4.9443-.19-.899-.19.899Zm11.427 10.3781h-3.196v-14.004h3.196v14.004Zm5.434-14.004 6.013 9.4692h.01v-9.4692h2.827v14.004h-3.047l-5.993-9.4692v9.4692h-2.827v-14.004h3.017Zm19.627 6.4326c.55.3996.979.889 1.279 1.4684v-.02c.309.5893.459 1.2286.459 1.9178 0 .849-.229 1.6081-.679 2.2774-.449.6692-1.079 1.1986-1.878 1.5782-.809.3795-1.738.5693-2.767.5693-1.028 0-1.947-.1898-2.746-.5594-.8-.3695-1.429-.8989-1.888-1.5582-.46-.6592-.699-1.4383-.709-2.3073h3.096c0 .3596.1.6792.29.9589.189.2797.459.4894.809.6392.349.1499.749.2298 1.178.2298.43 0 .799-.0699 1.119-.1998.32-.1298.559-.3196.739-.5693.18-.2498.27-.5294.27-.8391 0-.3895-.12-.7092-.36-.9689-.239-.2597-.569-.4395-.979-.5393l-2.517-.5194c-.659-.1399-1.238-.3896-1.738-.7492-.499-.3596-.889-.8191-1.158-1.3584-.27-.5494-.41-1.1587-.41-1.8279 0-.8391.22-1.5782.639-2.2275.43-.6492 1.019-1.1587 1.778-1.5282.76-.3696 1.619-.5494 2.597-.5494.979 0 1.858.1798 2.617.5294.76.3496 1.359.839 1.788 1.4683.43.6193.66 1.3485.68 2.1575h-3.097c0-.2996-.09-.5693-.25-.809-.169-.2398-.399-.4196-.689-.5494-.289-.1398-.639-.1998-1.019-.1998-.379 0-.719.0699-1.008.1898-.29.1199-.52.2997-.68.5194-.159.2297-.239.4894-.239.7891 0 .3396.109.6093.329.839.22.2298.52.3796.889.4695l2.377.4894c.71.1299 1.329.3996 1.878.7891Z"
          clip-rule="evenodd"/>
    <path fill="#3BEA62"
          d="M57.9994 16.446V4.18737c0-2.30372-1.8869-4.161205-4.1906-4.12433L42.7659.239292c-1.1813.01875-2.2975.543121-3.0663 1.439988L6.99315 39.8376C6.35253 40.5851 6 41.5375 6 42.5219v11.3492c0 2.2781 1.84685 4.125 4.125 4.125h11.003c1.1894 0 2.3212-.5137 3.1043-1.4087l32.7465-37.4246c.6581-.7519 1.0206-1.7168 1.0206-2.7162v-.0006Z"/>
    <path fill="url(#a)"
          d="M57.9999 14.9867V4.12495C57.9999 1.84685 56.1531 0 53.875 0H41.3095c-.2 0-.4.014372-.5981.043746L3.52681 5.49181C1.50121 5.78868 0 7.52616 0 9.57301V24.9703c0 2.2787 1.84751 4.1256 4.12623 4.125l18.50417-.0044c.4256 0 .8487-.0663 1.2537-.1956l31.2453-9.9786c1.7093-.5463 2.8699-2.135 2.8699-3.9294l.0006-.0006Z"/>
    <path fill="url(#b)"
          d="M64.0002 59.877V25.7499c0-1.6581-.9931-3.1549-2.5206-3.7999L24.0588 6.15266c-.5181-.21875-1.0756-.32937-1.6381-.32437l-18.32855.15C1.82717 5.99704.000977 7.83826.000977 10.1032v17.6654c0 .8057.235597 1.5932.678092 2.2663L21.7876 62.1439c.7624 1.1606 2.0581 1.8587 3.4468 1.8587h34.6408c2.2781 0 4.125-1.8469 4.125-4.125v-.0006Z"/>
    <path fill="#000" d="M51.9995 12H12v39.9995h39.9995V12Z"/>
    <path fill="#fff" fill-rule="evenodd"
          d="M16.9971 16.9922h5.713c1.4219 0 2.6956.3212 3.8212.9643 1.1256.6432 2.0063 1.5344 2.6419 2.6744.6356 1.14.9537 2.4275.9537 3.8643 0 1.4369-.3181 2.7244-.9537 3.8643-.6362 1.14-1.5169 2.0313-2.6419 2.6744-1.1256.6431-2.3993.9644-3.8212.9644h-5.713V16.9922Zm8.028 11.8761c.6719-.4 1.19-.9737 1.5544-1.7206.3643-.7469.5468-1.6306.5468-2.6531 0-1.0225-.1825-1.9062-.5468-2.6531-.3644-.7469-.8825-1.32-1.5544-1.7206-.6719-.4-1.4544-.6-2.3475-.6h-2.7549v9.9468h2.7549c.8931 0 1.6756-.1994 2.3475-.5994Z"
          clip-rule="evenodd"/>
    <path fill="#fff" d="M32.9998 43.998H17v3h15.9998v-3Z"/>
    <path fill="#fff" d="M35.6044 29.3614V16.9922h-2.9149v15.0061h10.0324v-2.6369h-7.1175Z"/>
</svg>