<svg xmlns="http://www.w3.org/2000/svg" width="261" height="82" fill="none" viewBox="0 0 261 82">
    <defs>
        <linearGradient id="a" x1="-.102411" x2="64.0532" y1="32.0002" y2="32.0002" gradientUnits="userSpaceOnUse">
            <stop offset="0" stop-color="#FB43FF"/>
            <stop offset=".97" stop-color="#FB406D"/>
        </linearGradient>
    </defs>
    <path fill="#000" fill-rule="evenodd"
          d="m96.5032 29.23 6.8898-12.22V17h5.67L98.2132 35.58v11.39h-5.2V35.63l-11.02-18.62h5.79l7.06 12.26.83 1.69.83-1.73Zm21.5498-4.69c2.15 0 4.11.5 5.86 1.5h-.01c1.75 1 3.13 2.37 4.14 4.12 1.01 1.74 1.51 3.7 1.51 5.85 0 2.15-.51 4.1-1.51 5.85s-2.39 3.12-4.14 4.12c-1.75 1-3.73 1.5-5.88 1.5s-4.11-.5-5.86-1.5-3.13-2.38-4.14-4.12c-1.01-1.74-1.51-3.7-1.51-5.85 0-2.15.5-4.1 1.5-5.85s2.38-3.12 4.14-4.12c1.77-1 3.75-1.5 5.9-1.5Zm3.26 17.55c.95-.58 1.69-1.4 2.21-2.46s.78-2.25.78-3.62-.26-2.58-.79-3.63c-.52-1.05-1.26-1.87-2.21-2.46-.95-.59-2.04-.89-3.26-.89-1.22 0-2.31.3-3.26.88-.94.58-1.68 1.4-2.2 2.46-.52 1.06-.78 2.28-.78 3.64 0 1.36.26 2.57.78 3.62.52 1.05 1.25 1.88 2.2 2.46.94.59 2.04.88 3.26.88 1.22 0 2.31-.3 3.27-.88Zm25.61-1.59c.42-.81.63-1.72.63-2.75l-.01-.02V25.04h5.05v21.92h-4.9v-3.23c-.63 1.06-1.44 1.93-2.45 2.56-1.25.79-2.72 1.18-4.4 1.18-1.57 0-2.95-.35-4.13-1.03-1.18-.68-2.1-1.67-2.76-2.97-.65-1.29-.98-2.84-.98-4.64V25.05h5.03v13.01c0 1.06.18 1.96.54 2.7.36.74.86 1.31 1.53 1.7.67.39 1.47.59 2.41.59.99 0 1.88-.22 2.65-.67.77-.45 1.37-1.07 1.79-1.88Zm5.11-23.49h23.85v4.82h-9.25v25.15h-5.31V21.83h-9.29v-4.82Zm28.23 11.37c.57-.93 1.27-1.69 2.1-2.26l-.01.01c1.17-.81 2.53-1.21 4.09-1.21h.81v5.09h-1.41c-1.12 0-2.11.21-2.94.62-.84.42-1.48 1.01-1.93 1.78-.45.77-.67 1.68-.67 2.74v11.83h-5.05V25.06h5.01v3.32Zm23.29-2.64c1.11.66 2.02 1.54 2.73 2.63v-3.31h4.97v21.92h-4.97v-3.31c-.71 1.09-1.62 1.98-2.73 2.63-1.36.8-2.95 1.2-4.76 1.2-1.94 0-3.68-.49-5.22-1.47-1.54-.98-2.75-2.34-3.62-4.09-.87-1.75-1.31-3.72-1.31-5.92 0-2.2.44-4.17 1.31-5.92.87-1.75 2.08-3.11 3.61-4.09 1.53-.98 3.27-1.47 5.23-1.47 1.81 0 3.4.4 4.76 1.2Zm-.3 16.36c.95-.59 1.68-1.41 2.21-2.46s.79-2.26.79-3.63-.26-2.58-.79-3.63c-.53-1.05-1.27-1.87-2.21-2.46-.94-.59-2.05-.89-3.25-.89-1.2 0-2.27.3-3.21.89-.94.59-1.67 1.41-2.19 2.46s-.78 2.26-.78 3.63.26 2.58.78 3.64c.52 1.05 1.25 1.87 2.19 2.46.94.59 1.99.88 3.21.88s2.31-.3 3.25-.89Zm23.22-13.08c-1.17 0-2.23.3-3.16.9v-.01c-.93.6-1.66 1.43-2.19 2.49-.53 1.07-.79 2.29-.79 3.61 0 1.32.26 2.52.79 3.58.52 1.06 1.25 1.89 2.19 2.5.94.61 1.99.91 3.16.91.8 0 1.55-.15 2.25-.45.7-.3 1.31-.71 1.83-1.25s.93-1.18 1.23-1.92h5.37c-.39 1.6-1.09 3.01-2.09 4.23-1 1.22-2.25 2.17-3.73 2.85-1.48.68-3.11 1.02-4.88 1.02-2.14 0-4.08-.5-5.81-1.5-1.74-1-3.1-2.37-4.09-4.12-.99-1.74-1.49-3.7-1.49-5.85 0-2.15.5-4.1 1.49-5.85s2.36-3.12 4.09-4.12 3.67-1.5 5.81-1.5c1.77 0 3.4.34 4.88 1.02 1.48.68 2.72 1.63 3.73 2.85 1.01 1.22 1.7 2.63 2.09 4.23h-5.37c-.3-.75-.71-1.38-1.23-1.92-.52-.53-1.13-.95-1.83-1.25-.7-.3-1.45-.45-2.25-.45Zm24.794 6.2652 8.876-10.2252h-5.86l-8.56 9.76V17.01h-5.05v29.96h5.05V36.1l8.67 10.87h6.14l-9.266-11.6848ZM90.2229 67.5157c.869 0 1.6581.2397 2.3573.6992.6992.4694 1.2485 1.1087 1.6481 1.9178.3995.8091.5993 1.728.5993 2.7468 0 1.0189-.1998 1.9378-.5993 2.7469-.3996.819-.9489 1.4583-1.6481 1.9178-.6992.4694-1.4883.6992-2.3673.6992-.8191 0-1.5383-.1798-2.1476-.5394-.4794-.2697-.839-.6692-1.1486-1.1287v1.4284H84v-14.004h2.9266v5.1841c.3097-.4495.6693-.8491 1.1487-1.1287.6093-.3596 1.3285-.5394 2.1476-.5394Zm.4494 7.7811c.3696-.2298.6593-.5594.8691-.9789.2097-.4195.3096-.889.3096-1.4384 0-.5493-.0999-1.0288-.3096-1.4483-.2098-.4195-.4995-.7492-.8691-.9789-.3695-.2297-.789-.3496-1.2785-.3496-.4894 0-.9189.1199-1.2885.3496-.3696.2297-.6593.5594-.869.9789-.2098.4195-.3097.889-.3097 1.4383 0 .5494.0999 1.0289.3097 1.4484.2097.4195.4994.7491.869.9789.3696.2297.8091.3496 1.2885.3496.4795 0 .909-.1199 1.2785-.3496Zm7.1518-7.5414 2.3569 6.3627h.01l2.168-6.3627h2.937l-4.256 10.8675c-.299.7792-.739 1.3984-1.308 1.8679-.5694.4695-1.2686.6992-2.0876.6992h-1.828v-2.587h1.6382c.2297 0 .4195-.05.5693-.1499.1498-.0998.2797-.2497.3896-.4594l.2996-.6093-3.9055-9.629h3.0165Zm16.5209 6.4326c.17-.3096.25-.6592.25-1.0488v-9.1395h3.096v9.3593c0 .879-.199 1.6681-.609 2.3773-.409.7091-.969 1.2585-1.678 1.6581-.709.3995-1.518.5993-2.407.5993h-2.368v-2.8468h1.958c.4 0 .749-.0799 1.049-.2497.31-.1698.539-.3995.709-.7092Zm15.243-1.8978h-6.493v3.0165h7.372v2.697h-10.388v-14.004h10.188v2.7069h-7.172v2.9666h6.493v2.617Zm6.153-5.5137h-4.156v-2.7768h11.377v2.7768h-4.125v11.2172h-3.096V66.7765Zm17.18 3.8956c.29.0799.559.1798.809.3096h.01c.569.3097 1.019.7292 1.338 1.2785.32.5494.48 1.1687.48 1.8579 0 .7492-.2 1.4184-.609 2.0077-.41.5893-.979 1.0488-1.718 1.3784-.74.3297-1.579.4995-2.517.4995h-6.343v-14.004h6.223c.889 0 1.688.1598 2.387.4695.699.3096 1.238.7491 1.628 1.3085.39.5593.579 1.1986.579 1.9078 0 .6193-.149 1.1686-.439 1.6481-.29.4794-.699.859-1.209 1.1187-.179.0943-.385.153-.584.2098l-.035.01Zm-2.797-4.3251h-2.747v3.4461h2.747c.38 0 .719-.0799 1.009-.2198.3-.1398.519-.3396.689-.6093.17-.2697.25-.5893.25-.9289 0-.3396-.09-.6393-.25-.889-.17-.2597-.399-.4495-.689-.5893-.29-.1399-.629-.2098-1.009-.2098Zm1.239 9.0896c.319-.1498.569-.3496.749-.6193v.02c.18-.2697.27-.5694.27-.9289 0-.3596-.09-.6793-.27-.9589-.18-.2797-.44-.4995-.759-.6493-.33-.1498-.699-.2297-1.109-.2297h-2.867v3.5858h2.867c.42 0 .799-.0699 1.119-.2197Zm16.541-4.6647c-.43.6693-1.029 1.1987-1.808 1.5682h-.01c-.14.07-.3.1299-.46.1898l3.197 5.4738h-3.536l-2.837-5.1042h-2.018v5.1042h-3.096v-14.004h6.133c1.009 0 1.898.1798 2.667.5494.769.3696 1.358.889 1.778 1.5582.419.6692.629 1.4284.629 2.3173 0 .889-.21 1.6781-.639 2.3473Zm-3.556-.6093c.319-.1598.569-.3895.739-.6792v.01c.17-.2897.26-.6293.26-1.0288 0-.3995-.09-.7392-.26-1.0288-.17-.2897-.42-.5094-.739-.6693-.32-.1498-.699-.2297-1.129-.2297h-2.787v3.8656h2.787c.43 0 .809-.0799 1.129-.2398Zm5.494 7.8411 5.004-14.004h3.366l5.104 14.004h-3.086l-1.059-3.0865h-5.194l-.989 3.0865h-3.146Zm6.452-10.3781-1.608 4.9443h3.706l-1.718-4.9443-.19-.899-.19.899Zm11.427 10.3781h-3.196v-14.004h3.196v14.004Zm5.434-14.004 6.013 9.4692h.01v-9.4692h2.827v14.004h-3.047l-5.993-9.4692v9.4692h-2.827v-14.004h3.017Zm19.627 6.4326c.55.3996.979.889 1.279 1.4684v-.02c.309.5893.459 1.2286.459 1.9178 0 .849-.229 1.6081-.679 2.2774-.449.6692-1.079 1.1986-1.878 1.5782-.809.3795-1.738.5693-2.767.5693-1.028 0-1.947-.1898-2.746-.5594-.8-.3695-1.429-.8989-1.888-1.5582-.46-.6592-.699-1.4383-.709-2.3073h3.096c0 .3596.1.6792.29.9589.189.2797.459.4894.809.6392.349.1499.749.2298 1.178.2298.43 0 .799-.0699 1.119-.1998.32-.1298.559-.3196.739-.5693.18-.2498.27-.5294.27-.8391 0-.3895-.12-.7092-.36-.9689-.239-.2597-.569-.4395-.978-.5393l-2.518-.5194c-.659-.1399-1.238-.3896-1.738-.7492-.499-.3596-.889-.8191-1.158-1.3584-.27-.5494-.41-1.1587-.41-1.8279 0-.8391.22-1.5782.639-2.2275.43-.6492 1.019-1.1587 1.778-1.5282.76-.3696 1.619-.5494 2.597-.5494.979 0 1.858.1798 2.617.5294.76.3496 1.359.839 1.788 1.4683.43.6193.66 1.3485.68 2.1575h-3.097c0-.2996-.09-.5693-.25-.809-.169-.2398-.399-.4196-.689-.5494-.289-.1398-.639-.1998-1.019-.1998-.379 0-.719.0699-1.008.1898-.29.1199-.52.2997-.68.5194-.159.2297-.239.4894-.239.7891 0 .3396.109.6093.329.839.22.2298.52.3796.889.4695l2.377.4894c.71.1299 1.329.3996 1.878.7891Z"
          clip-rule="evenodd"/>
    <path fill="url(#a)"
          d="M1.30634 51.2446c-.09688-.0713-.12875-.2019-.07625-.31L8.86571 35.209.058214 24.6908c-.08875-.1056-.074375-.2637.031875-.3518L25.7788 2.93209C30.3495-.877908 36.967-.985408 41.6626 2.67147c4.6937 3.65687 6.1937 10.08813 3.5969 15.43623l-2.7994 5.7669c1.0919-.3663 2.1725-.6994 3.2412-.9988l12.6738-3.6406c.1381-.04.2819.045.3131.1856l5.3056 23.585c.0325.1457-.0662.2882-.215.3069-1.6818.2119-10.8575 1.53-22.2812 6.3294-12.9431 5.4362-21.4844 13.1625-22.6944 14.2925-.0894.0837-.2206.0869-.3187.0144L1.30634 51.2446Z"/>
    <path fill="#000" d="M52 12H12v40h40V12Z"/>
    <path fill="#fff" d="m21.4666 26.3709-5.4881-9.3787h3.1513l3.3981 5.9919.3969.8575.3968-.8682 3.3119-5.9812h3.0975l-5.4025 9.3575v5.6487h-2.8619v-5.6275Z"/>
    <path fill="#fff" d="M33 43.9984H17v3h16v-3Z"/>
    <path fill="#fff" d="M42.3248 16.9922H30.2879l-.0006 2.6369h4.5662v12.3693h2.9263V19.6291h4.545v-2.6369Z"/>
</svg>