<svg xmlns="http://www.w3.org/2000/svg" width="278" height="82" fill="none" viewBox="0 0 278 82">
    <defs>
        <linearGradient id="a" x1="4.0675" x2="62.6637" y1="4.32313" y2="62.9194" gradientUnits="userSpaceOnUse">
            <stop offset=".25" stop-color="#007EFF"/>
            <stop offset=".73" stop-color="#FF0A67"/>
        </linearGradient>
        <linearGradient id="b" x1="56.3294" x2="2.87438" y1="-.390623" y2="24.3925" gradientUnits="userSpaceOnUse">
            <stop offset=".3" stop-color="#FFB700"/>
            <stop offset=".58" stop-color="#007EFF"/>
        </linearGradient>
    </defs>
    <path fill="url(#a)"
          d="M64 59.8737V25.7463c0-1.6582-.9931-3.155-2.5206-3.8L24.0581 6.14876c-.5181-.21875-1.0756-.32938-1.6381-.32438l-18.32875.15C1.82625 5.99251 0 7.83376 0 10.0988v17.6656c0 .8056.235625 1.5931.678125 2.2662L21.7869 62.14c.7625 1.1606 2.0581 1.8587 3.4468 1.8587H59.875c2.2781 0 4.125-1.8468 4.125-4.125Z"/>
    <path fill="url(#b)"
          d="M58 14.9875V4.125C58 1.84687 56.1531 0 53.875 0H41.3094c-.2 0-.4.014375-.5981.04375L3.52688 5.49187C1.50125 5.78875 0 7.52625 0 9.57312V24.9706c0 2.2788 1.8475 4.1256 4.12625 4.125l18.50435-.0044c.4256 0 .8488-.0662 1.2538-.1956L55.13 18.9169c1.7094-.5463 2.87-2.135 2.87-3.9294Z"/>
    <path fill="#FFB700"
          d="M58 16.45V4.19125C58 1.8875 56.1131.03 53.8094.066875L43 0c-1.1812.01875-2.5312.78625-3.3 1.68312L6.99312 39.8412C6.3525 40.5887 6 41.5412 6 42.5256V53.875C6 56.1531 7.84687 58 10.125 58h11.0031c1.1894 0 2.3213-.5138 3.1044-1.4088l32.7469-37.425C57.6375 18.4144 58 17.4494 58 16.45Z"/>
    <path fill="#000" d="M52 12H12v40h40V12Z"/>
    <path fill="#fff" fill-rule="evenodd"
          d="M16.9961 16.9922h6.4419c1.0506 0 1.9756.1931 2.7762.5787.8.3857 1.4163.9288 1.8488 1.6294.4325.7006.6487 1.5113.6487 2.4331 0 .9219-.22 1.7488-.6594 2.46-.4393.7113-1.065 1.2613-1.8756 1.6507-.223.107-.4559.1994-.6987.2771l3.5556 5.9779h-3.355l-3.2351-5.6707h-2.5212v5.67h-2.9262V16.9922Zm7.5406 6.6294c.3681-.1825.6519-.4432.8519-.7825.2-.3394.3-.7344.3-1.1844 0-.45-.1-.8519-.3-1.1844-.2-.3325-.4844-.5894-.8519-.7719-.3681-.1825-.7987-.2731-1.2919-.2731h-3.3231v4.47h3.3231c.4932 0 .9238-.0919 1.2919-.2737Z"
          clip-rule="evenodd"/>
    <path fill="#fff" d="M32.999 43.9985h-16v3h16v-3Z"/>
    <path fill="#fff" d="M41.7559 16.9922h-10.14v15.0062h2.9263v-5.8631h6.785v-2.6475h-6.785v-3.8481h7.2137v-2.6475Z"/>
    <path fill="#fff" fill-rule="evenodd"
          d="M105.71 30.97c-.86 1.39-2.08 2.47-3.66 3.24h.01c-.53.26-1.1.46-1.68.63l7.29 12.13h-6.12l-6.73-11.6h-5.49v11.6H84V17.01h12.7c2.06 0 3.86.37 5.42 1.13 1.56.76 2.76 1.83 3.61 3.21.85 1.38 1.27 2.96 1.27 4.79s-.43 3.44-1.29 4.83Zm-9.32-.1c1.04 0 1.95-.2 2.71-.58v.01c.77-.39 1.36-.93 1.78-1.64.42-.7.63-1.55.63-2.49 0-.94-.21-1.76-.63-2.46-.43-.7-1.02-1.24-1.78-1.62-.77-.38-1.67-.57-2.71-.57h-7.06v9.35h7.06Zm20.15-8.13h-5.76v-5.01h5.76v5.01Zm-.34 24.22h-5.05V25.05h5.05v21.91Zm18.56-21.23c1.1.64 2 1.51 2.71 2.59V17h5.05v29.98h-5.05V43.7c-.71 1.07-1.61 1.94-2.71 2.59-1.36.8-2.95 1.2-4.76 1.2-1.94 0-3.68-.49-5.22-1.47-1.54-.98-2.75-2.34-3.62-4.09-.87-1.75-1.3-3.72-1.3-5.92 0-2.2.43-4.17 1.3-5.92.87-1.75 2.08-3.11 3.61-4.09 1.53-.98 3.28-1.47 5.23-1.47 1.81 0 3.4.4 4.76 1.2Zm-.28 16.36c.94-.59 1.67-1.41 2.2-2.46.53-1.05.79-2.26.79-3.63s-.26-2.58-.79-3.63c-.52-1.05-1.26-1.87-2.2-2.46-.94-.59-2.05-.89-3.25-.89-1.2 0-2.27.3-3.21.89-.94.59-1.67 1.41-2.19 2.46s-.78 2.26-.78 3.63.26 2.59.78 3.64c.52 1.05 1.25 1.88 2.19 2.46.94.59 1.99.88 3.21.88s2.31-.3 3.25-.89Zm23.15-17.56c2.16 0 4.08.49 5.76 1.46l-.02-.01c1.69.98 3 2.33 3.93 4.06.93 1.73 1.4 3.71 1.4 5.94v1.22h-17.29c.1 1.01.35 1.94.78 2.77.54 1.05 1.28 1.87 2.23 2.45.95.59 2.02.88 3.22.88 1.06 0 2.01-.21 2.85-.62.84-.41 1.54-.99 2.1-1.73h5.5c-.52 1.36-1.27 2.52-2.25 3.49-.98.97-2.18 1.72-3.57 2.25-1.39.53-2.94.79-4.64.79-2.15 0-4.09-.5-5.81-1.48-1.72-.99-3.08-2.36-4.07-4.11-.99-1.76-1.49-3.78-1.49-5.93s.5-4.1 1.5-5.84c1-1.74 2.37-3.11 4.1-4.1 1.74-.99 3.61-1.49 5.77-1.49Zm-6.118 9.28h12.018c-.12-.67-.31-1.3-.59-1.89-.5-1.06-1.21-1.89-2.13-2.49-.92-.6-1.98-.9-3.18-.9-1.2 0-2.27.29-3.22.87-.95.58-1.69 1.38-2.23 2.4-.328.6171-.538 1.2937-.668 2.01Zm25.888-5.44c.57-.93 1.27-1.69 2.1-2.26l-.01.01c1.17-.81 2.54-1.21 4.09-1.21h.81V30h-1.41c-1.12 0-2.11.21-2.94.62-.84.42-1.48 1.01-1.93 1.78-.45.77-.67 1.68-.67 2.74v11.83h-5.05V25.05h5.01v3.32Zm15.49 18.59h-5.33V17h20.01v4.84h-14.68v8.29h13.83v4.84h-13.83v11.99Zm22.97 0h-5.05V17h5.05v29.96Zm15.24-22.43c2.15 0 4.11.5 5.86 1.5h-.01c1.75 1 3.13 2.37 4.14 4.12 1.01 1.74 1.51 3.7 1.51 5.85 0 2.15-.51 4.1-1.51 5.85s-2.39 3.12-4.14 4.12c-1.75 1-3.73 1.5-5.88 1.5s-4.11-.5-5.86-1.5-3.13-2.38-4.14-4.12c-1.01-1.74-1.51-3.7-1.51-5.85 0-2.15.5-4.1 1.5-5.85s2.38-3.12 4.14-4.12c1.77-1 3.75-1.5 5.9-1.5Zm3.25 17.55c.95-.58 1.69-1.4 2.21-2.46s.78-2.25.78-3.62-.26-2.58-.79-3.63c-.52-1.05-1.26-1.87-2.21-2.46-.95-.59-2.04-.89-3.26-.89-1.22 0-2.31.3-3.26.88-.94.58-1.68 1.4-2.2 2.46-.52 1.06-.78 2.28-.78 3.64 0 1.36.26 2.57.78 3.62.52 1.05 1.25 1.88 2.2 2.46.94.59 2.04.88 3.26.88 1.22 0 2.31-.3 3.27-.88Zm34.12-3.25 4.32-13.78h5.09l-7.26 21.92h-5.01l-4.62-14.34-.41-1.69-.36 1.67-4.73 14.36h-5.09l-7.26-21.92h5.22l4.43 13.78.47 2.03.45-2.03 4.58-13.78h4.62l4.62 13.78.49 2.03.45-2.03ZM90.2229 67.5157c.869 0 1.6581.2397 2.3573.6992.6992.4694 1.2485 1.1087 1.6481 1.9178.3995.8091.5993 1.728.5993 2.7468 0 1.0189-.1998 1.9378-.5993 2.7469-.3996.819-.9489 1.4583-1.6481 1.9178-.6992.4694-1.4883.6992-2.3673.6992-.8191 0-1.5383-.1798-2.1476-.5394-.4794-.2697-.839-.6692-1.1486-1.1287v1.4284H84v-14.004h2.9266v5.1841c.3097-.4495.6693-.8491 1.1487-1.1287.6093-.3596 1.3285-.5394 2.1476-.5394Zm.4494 7.7811c.3696-.2298.6593-.5594.8691-.9789.2097-.4195.3096-.889.3096-1.4384 0-.5493-.0999-1.0288-.3096-1.4483-.2098-.4195-.4995-.7492-.8691-.9789-.3695-.2297-.789-.3496-1.2785-.3496-.4894 0-.9189.1199-1.2885.3496-.3696.2297-.6593.5594-.869.9789-.2098.4195-.3097.889-.3097 1.4383 0 .5494.0999 1.0289.3097 1.4484.2097.4195.4994.7491.869.9789.3696.2297.8091.3496 1.2885.3496.4795 0 .909-.1199 1.2785-.3496Zm7.1518-7.5414 2.3569 6.3627h.01l2.168-6.3627h2.937l-4.256 10.8675c-.299.7792-.739 1.3984-1.308 1.8679-.5694.4695-1.2686.6992-2.0876.6992h-1.828v-2.587h1.6382c.2297 0 .4195-.05.5693-.1499.1498-.0998.2797-.2497.3896-.4594l.2996-.6093-3.9055-9.629h3.0165Zm16.5209 6.4326c.17-.3096.25-.6592.25-1.0488v-9.1395h3.096v9.3593c0 .879-.199 1.6681-.609 2.3773-.409.7091-.969 1.2585-1.678 1.6581-.709.3995-1.518.5993-2.407.5993h-2.368v-2.8468h1.958c.4 0 .749-.0799 1.049-.2497.31-.1698.539-.3995.709-.7092Zm15.243-1.8978h-6.493v3.0165h7.372v2.697h-10.388v-14.004h10.188v2.7069h-7.172v2.9666h6.493v2.617Zm6.153-5.5137h-4.156v-2.7768h11.377v2.7768h-4.125v11.2172h-3.096V66.7765Zm17.18 3.8956c.29.0799.559.1798.809.3096h.01c.569.3097 1.019.7292 1.338 1.2785.32.5494.48 1.1687.48 1.8579 0 .7492-.2 1.4184-.609 2.0077-.41.5893-.979 1.0488-1.718 1.3784-.74.3297-1.579.4995-2.517.4995h-6.343v-14.004h6.223c.889 0 1.688.1598 2.387.4695.699.3096 1.238.7491 1.628 1.3085.39.5593.579 1.1986.579 1.9078 0 .6193-.149 1.1686-.439 1.6481-.29.4794-.699.859-1.209 1.1187-.179.0944-.385.1531-.584.2098l-.035.01Zm-2.797-4.3251h-2.747v3.4461h2.747c.38 0 .719-.0799 1.009-.2198.3-.1398.519-.3396.689-.6093.17-.2697.25-.5893.25-.9289 0-.3396-.09-.6393-.25-.889-.17-.2597-.399-.4495-.689-.5893-.29-.1399-.629-.2098-1.009-.2098Zm1.239 9.0896c.319-.1498.569-.3496.749-.6193v.02c.18-.2697.27-.5694.27-.9289 0-.3596-.09-.6793-.27-.9589-.18-.2797-.44-.4995-.759-.6493-.33-.1498-.699-.2297-1.109-.2297h-2.867v3.5858h2.867c.42 0 .799-.0699 1.119-.2197Zm16.541-4.6647c-.43.6693-1.029 1.1987-1.808 1.5682h-.01c-.14.07-.3.1299-.46.1898l3.197 5.4738h-3.536l-2.837-5.1042h-2.018v5.1042h-3.096v-14.004h6.133c1.009 0 1.898.1798 2.667.5494.769.3696 1.358.889 1.778 1.5582.419.6692.629 1.4284.629 2.3173 0 .889-.21 1.6781-.639 2.3473Zm-3.556-.6093c.319-.1598.569-.3895.739-.6792v.01c.17-.2897.26-.6293.26-1.0288 0-.3995-.09-.7392-.26-1.0288-.17-.2897-.42-.5094-.739-.6693-.32-.1498-.699-.2297-1.129-.2297h-2.787v3.8656h2.787c.43 0 .809-.0799 1.129-.2398Zm5.494 7.8411 5.004-14.004h3.366l5.104 14.004h-3.086l-1.059-3.0865h-5.194l-.989 3.0865h-3.146Zm6.452-10.3781-1.608 4.9443h3.706l-1.718-4.9443-.19-.899-.19.899Zm11.427 10.3781h-3.196v-14.004h3.196v14.004Zm5.434-14.004 6.013 9.4692h.01v-9.4692h2.827v14.004h-3.047l-5.993-9.4692v9.4692h-2.827v-14.004h3.017Zm19.627 6.4326c.55.3996.979.889 1.279 1.4684v-.02c.31.5893.459 1.2286.459 1.9178 0 .849-.229 1.6081-.679 2.2774-.449.6692-1.079 1.1986-1.878 1.5782-.809.3795-1.738.5693-2.767.5693-1.028 0-1.947-.1898-2.746-.5594-.8-.3695-1.429-.8989-1.888-1.5582-.46-.6592-.699-1.4383-.709-2.3073h3.096c0 .3596.1.6792.29.9589.189.2797.459.4894.809.6392.349.1499.749.2298 1.178.2298.43 0 .799-.0699 1.119-.1998.32-.1298.559-.3196.739-.5693.18-.2498.27-.5294.27-.8391 0-.3895-.12-.7092-.36-.9689-.239-.2597-.569-.4395-.979-.5393l-2.517-.5194c-.659-.1399-1.238-.3896-1.738-.7492-.499-.3596-.889-.8191-1.158-1.3584-.27-.5494-.41-1.1587-.41-1.8279 0-.8391.22-1.5782.639-2.2275.43-.6492 1.019-1.1587 1.778-1.5282.76-.3696 1.619-.5494 2.597-.5494.979 0 1.858.1798 2.617.5294.76.3496 1.359.839 1.788 1.4683.43.6193.66 1.3485.68 2.1575h-3.097c0-.2996-.09-.5693-.25-.809-.169-.2398-.399-.4196-.689-.5494-.289-.1398-.639-.1998-1.019-.1998-.379 0-.719.0699-1.008.1898-.29.1199-.52.2997-.68.5194-.159.2297-.239.4894-.239.7891 0 .3396.109.6093.329.839.22.2298.52.3796.889.4695l2.377.4894c.71.1299 1.329.3996 1.878.7891Z"
          clip-rule="evenodd"/>
</svg>