<svg id="argxs" xmlns="http://www.w3.org/2000/svg" width="243" height="82" fill="none" viewBox="0 0 243 82">
    <defs>
        <linearGradient id="argxs_qodana_light_attr_1" x1="64.3912" x2="39.6074" y1="56.3294" y2="2.875" gradientUnits="userSpaceOnUse">
            <stop offset=".1" stop-color="#7256FF"/>
            <stop offset=".59" stop-color="#FF2D90"/>
        </linearGradient>
        <linearGradient id="argxs_qodana_light_attr_2" x1="59.6763" x2="1.08" y1="4.0675" y2="62.6638" gradientUnits="userSpaceOnUse">
            <stop offset=".21" stop-color="#FF2D90"/>
            <stop offset=".7" stop-color="#FF8200"/>
        </linearGradient>
    </defs>
    <path fill="#000" fill-rule="evenodd" clip-rule="evenodd"
          d="M98.1932 16.5c2.8698 0 5.4598.67 7.7698 2.02h-.02c2.31 1.34 4.13 3.2 5.45 5.56 1.32 2.36 1.98 5 1.98 7.91s-.66 5.55-1.98 7.91c-1.32 2.36-3.14 4.21-5.45 5.56-1.56.91-3.25 1.5-5.07 1.8v.31c0 .47.09.87.27 1.21.18.34.43.59.76.76.33.17.73.26 1.2.26h3.6v4.02h-4.54c-1.26 0-2.3598-.24-3.3098-.74-.95-.5-1.68-1.19-2.19-2.09-.51-.9-.77-1.96-.77-3.17v-.5c-1.96-.26-3.78-.88-5.45-1.86-2.31-1.34-4.13-3.2-5.46-5.56-1.33-2.36-1.99-5-1.99-7.91s.66-5.55 1.99-7.91c1.33-2.36 3.15-4.21 5.46-5.56 2.31-1.35 4.88-2.02 7.75-2.02Zm4.9898 24.89c1.48-.92 2.64-2.21 3.48-3.86.84-1.65 1.26-3.49 1.26-5.53s-.42-3.88-1.26-5.53c-.84-1.65-2-2.93-3.48-3.86-1.48-.93-3.14-1.39-4.9798-1.39-1.84 0-3.51.46-4.99 1.39-1.49.92-2.65 2.21-3.49 3.86-.84 1.65-1.26 3.49-1.26 5.53s.42 3.88 1.26 5.53c.84 1.65 2.01 2.93 3.49 3.86 1.49.93 3.14 1.39 4.99 1.39 1.8498 0 3.4998-.46 4.9798-1.39Zm24.53-16.84c2.15 0 4.11.5 5.86 1.5s3.13 2.38 4.14 4.12c1.01 1.74 1.51 3.7 1.51 5.85 0 2.15-.5 4.1-1.51 5.85s-2.39 3.12-4.14 4.12c-1.76 1-3.74 1.5-5.89 1.5-2.15 0-4.11-.5-5.86-1.5s-3.13-2.37-4.14-4.12c-1.01-1.74-1.51-3.7-1.51-5.85 0-2.15.5-4.1 1.5-5.85s2.38-3.12 4.14-4.12c1.77-1 3.75-1.5 5.9-1.5Zm3.25 17.55c.95-.58 1.69-1.4 2.21-2.46s.78-2.25.78-3.62-.26-2.58-.79-3.63c-.52-1.05-1.26-1.87-2.21-2.46-.95-.59-2.04-.89-3.26-.89-1.22 0-2.31.3-3.26.88-.95.58-1.68 1.4-2.2 2.46-.52 1.06-.78 2.28-.78 3.64 0 1.36.26 2.56.78 3.62.52 1.05 1.25 1.88 2.2 2.46.94.59 2.04.88 3.26.88 1.22 0 2.32-.3 3.27-.88Zm25.67-16.35c1.1.64 2 1.51 2.71 2.59v-11.3h5.05V47h-5.05v-3.28c-.71 1.07-1.61 1.94-2.71 2.59-1.36.8-2.95 1.2-4.76 1.2-1.94 0-3.68-.49-5.22-1.47-1.54-.98-2.75-2.34-3.62-4.09-.87-1.75-1.3-3.72-1.3-5.92 0-2.2.43-4.17 1.3-5.92.87-1.75 2.08-3.11 3.61-4.09 1.53-.98 3.28-1.47 5.23-1.47 1.81 0 3.4.4 4.76 1.2Zm-.28 16.36c.94-.59 1.67-1.41 2.2-2.46.53-1.05.79-2.26.79-3.63s-.26-2.58-.79-3.63c-.52-1.05-1.26-1.87-2.2-2.46-.94-.59-2.05-.89-3.25-.89-1.2 0-2.27.3-3.21.89-.94.59-1.67 1.41-2.19 2.46s-.78 2.26-.78 3.63.26 2.58.78 3.64 1.25 1.88 2.19 2.46c.94.59 1.99.88 3.21.88s2.31-.3 3.25-.89Zm26.82-16.37c1.11.66 2.02 1.54 2.73 2.63v-3.31h4.97v21.92h-4.97v-3.31c-.71 1.09-1.62 1.98-2.73 2.63-1.36.8-2.95 1.2-4.76 1.2-1.94 0-3.68-.49-5.22-1.47-1.54-.98-2.75-2.34-3.62-4.09-.87-1.75-1.31-3.72-1.31-5.92 0-2.2.44-4.17 1.31-5.92.87-1.75 2.08-3.11 3.61-4.09 1.53-.98 3.27-1.47 5.23-1.47 1.81 0 3.4.4 4.76 1.2Zm-.29 16.37c.95-.59 1.68-1.41 2.21-2.46s.79-2.26.79-3.63-.26-2.58-.79-3.63c-.53-1.05-1.27-1.87-2.21-2.46-.94-.59-2.05-.89-3.25-.89-1.2 0-2.27.3-3.21.89-.94.59-1.67 1.41-2.19 2.46s-.78 2.26-.78 3.63.26 2.58.78 3.64 1.25 1.88 2.19 2.46c.94.59 1.99.88 3.21.88s2.31-.3 3.25-.89Zm24.73-17.57c1.57 0 2.95.35 4.13 1.03l.01.03c1.18.68 2.1 1.67 2.76 2.97.65 1.29.98 2.84.98 4.64v13.78h-5.03V33.98c0-1.06-.18-1.96-.54-2.7-.36-.74-.87-1.31-1.54-1.7-.67-.39-1.47-.59-2.4-.59-.99 0-1.88.22-2.65.67-.77.45-1.37 1.07-1.79 1.88-.42.81-.63 1.72-.63 2.75v12.69h-5.05V25.06h4.9v3.21c.63-1.06 1.44-1.92 2.45-2.55 1.25-.79 2.72-1.18 4.4-1.18Zm29.18 3.83v-3.31h4.96v21.92h-4.96v-3.31c-.71 1.09-1.62 1.98-2.73 2.63-1.36.8-2.95 1.2-4.76 1.2-1.94 0-3.68-.49-5.22-1.47-1.54-.98-2.75-2.34-3.62-4.09-.87-1.75-1.3-3.72-1.3-5.92 0-2.2.43-4.17 1.3-5.92.87-1.75 2.08-3.11 3.61-4.09 1.53-.98 3.28-1.47 5.23-1.47 1.81 0 3.4.4 4.76 1.2 1.11.66 2.02 1.54 2.73 2.63Zm-3.01 13.74c.94-.59 1.67-1.41 2.2-2.46.53-1.05.79-2.26.79-3.63s-.26-2.58-.79-3.63c-.52-1.05-1.26-1.87-2.2-2.46-.94-.59-2.05-.89-3.25-.89-1.2 0-2.27.3-3.21.89-.94.59-1.67 1.41-2.19 2.46s-.78 2.26-.78 3.63.26 2.58.78 3.64 1.25 1.88 2.19 2.46c.94.59 1.99.88 3.21.88s2.31-.3 3.25-.89ZM90.2229 67.5157c.869 0 1.6581.2397 2.3573.6992.6992.4694 1.2485 1.1087 1.6481 1.9178.3995.8091.5993 1.728.5993 2.7468 0 1.0189-.1998 1.9378-.5993 2.7469-.3996.819-.9489 1.4583-1.6481 1.9178-.6992.4694-1.4883.6992-2.3673.6992-.8191 0-1.5383-.1798-2.1476-.5394-.4794-.2697-.839-.6692-1.1486-1.1287v1.4284H84v-14.004h2.9266v5.1841c.3097-.4495.6693-.8491 1.1487-1.1287.6093-.3596 1.3285-.5394 2.1476-.5394Zm.4494 7.7811c.3696-.2298.6593-.5594.8691-.9789.2097-.4195.3096-.889.3096-1.4384 0-.5493-.0999-1.0288-.3096-1.4483-.2098-.4195-.4995-.7492-.8691-.9789-.3695-.2297-.789-.3496-1.2785-.3496-.4894 0-.9189.1199-1.2885.3496-.3696.2297-.6593.5594-.869.9789-.2098.4195-.3097.889-.3097 1.4383 0 .5494.0999 1.0289.3097 1.4484.2097.4195.4994.7491.869.9789.3696.2297.8091.3496 1.2885.3496.4795 0 .909-.1199 1.2785-.3496Zm7.1518-7.5414 2.3569 6.3627h.01l2.168-6.3627h2.937l-4.256 10.8675c-.299.7792-.739 1.3984-1.308 1.8679-.5694.4695-1.2686.6992-2.0876.6992h-1.828v-2.587h1.6382c.2297 0 .4195-.05.5693-.1499.1498-.0998.2797-.2497.3896-.4594l.2996-.6093-3.9055-9.629h3.0165Zm16.5209 6.4326c.17-.3096.25-.6592.25-1.0488v-9.1395h3.096v9.3593c0 .879-.199 1.6681-.609 2.3773-.409.7091-.969 1.2585-1.678 1.6581-.709.3995-1.518.5993-2.407.5993h-2.368v-2.8468h1.958c.4 0 .749-.0799 1.049-.2497.31-.1698.539-.3995.709-.7092Zm15.243-1.8978h-6.493v3.0165h7.372v2.697h-10.388v-14.004h10.188v2.7069h-7.172v2.9666h6.493v2.617Zm6.153-5.5137h-4.156v-2.7768h11.377v2.7768h-4.125v11.2172h-3.096V66.7765Zm17.18 3.8956c.29.0799.559.1798.809.3096h.01c.569.3097 1.019.7292 1.338 1.2785.32.5494.48 1.1687.48 1.8579 0 .7492-.2 1.4184-.609 2.0077-.41.5893-.979 1.0488-1.718 1.3784-.74.3297-1.579.4995-2.517.4995h-6.343v-14.004h6.223c.889 0 1.688.1598 2.387.4695.699.3096 1.238.7491 1.628 1.3085.39.5593.579 1.1986.579 1.9078 0 .6193-.149 1.1686-.439 1.6481-.29.4794-.699.859-1.209 1.1187-.179.0943-.385.153-.584.2098l-.035.01Zm-2.797-4.3251h-2.747v3.4461h2.747c.38 0 .719-.0799 1.009-.2198.3-.1398.519-.3396.689-.6093.17-.2697.25-.5893.25-.9289 0-.3396-.09-.6393-.25-.889-.17-.2597-.399-.4495-.689-.5893-.29-.1399-.629-.2098-1.009-.2098Zm1.239 9.0896c.319-.1498.569-.3496.749-.6193v.02c.18-.2697.27-.5694.27-.9289 0-.3596-.09-.6793-.27-.9589-.18-.2797-.44-.4995-.759-.6493-.33-.1498-.699-.2297-1.109-.2297h-2.867v3.5858h2.867c.42 0 .799-.0699 1.119-.2197Zm16.541-4.6647c-.43.6693-1.029 1.1987-1.808 1.5682h-.01c-.14.07-.3.1299-.46.1898l3.197 5.4738h-3.536l-2.837-5.1042h-2.018v5.1042h-3.096v-14.004h6.133c1.009 0 1.898.1798 2.667.5494.769.3696 1.358.889 1.778 1.5582.419.6692.629 1.4284.629 2.3173 0 .889-.21 1.6781-.639 2.3473Zm-3.556-.6093c.319-.1598.569-.3895.739-.6792v.01c.17-.2897.26-.6293.26-1.0288 0-.3995-.09-.7392-.26-1.0288-.17-.2897-.42-.5094-.739-.6693-.32-.1498-.699-.2297-1.129-.2297h-2.787v3.8656h2.787c.43 0 .809-.0799 1.129-.2398Zm5.494 7.8411 5.004-14.004h3.366l5.104 14.004h-3.086l-1.059-3.0865h-5.194l-.989 3.0865h-3.146Zm6.452-10.3781-1.608 4.9443h3.706l-1.718-4.9443-.19-.899-.19.899Zm11.427 10.3781h-3.196v-14.004h3.196v14.004Zm5.434-14.004 6.013 9.4692h.01v-9.4692h2.827v14.004h-3.047l-5.993-9.4692v9.4692h-2.827v-14.004h3.017Zm19.627 6.4326c.55.3996.979.889 1.279 1.4684v-.02c.309.5893.459 1.2286.459 1.9178 0 .849-.229 1.6081-.679 2.2774-.449.6692-1.079 1.1986-1.878 1.5782-.809.3795-1.738.5693-2.767.5693-1.028 0-1.947-.1898-2.746-.5594-.8-.3695-1.429-.8989-1.888-1.5582-.46-.6592-.699-1.4383-.709-2.3073h3.096c0 .3596.1.6792.29.9589.189.2797.459.4894.809.6392.349.1499.749.2298 1.178.2298.43 0 .799-.0699 1.119-.1998.32-.1298.559-.3196.739-.5693.18-.2498.27-.5294.27-.8391 0-.3895-.12-.7092-.36-.9689-.239-.2597-.569-.4395-.979-.5393l-2.517-.5194c-.659-.1399-1.238-.3896-1.738-.7492-.499-.3596-.889-.8191-1.158-1.3584-.27-.5494-.41-1.1587-.41-1.8279 0-.8391.22-1.5782.639-2.2275.43-.6492 1.019-1.1587 1.778-1.5282.76-.3696 1.619-.5494 2.597-.5494.979 0 1.858.1798 2.617.5294.76.3496 1.359.839 1.788 1.4683.43.6193.66 1.3485.68 2.1575h-3.097c0-.2996-.09-.5693-.25-.809-.169-.2398-.399-.4196-.689-.5494-.289-.1398-.639-.1998-1.019-.1998-.379 0-.719.0699-1.008.1898-.29.1199-.52.2997-.68.5194-.159.2297-.239.4894-.239.7891 0 .3396.109.6093.329.839.22.2298.52.3796.889.4695l2.377.4894c.71.1299 1.329.3996 1.878.7891Z"/>
    <path fill="#7256FF"
          d="M47.55 58h12.2588c2.3037 0 4.1612-1.8869 4.1243-4.1906l-.1762-11.0431c-.0188-1.1813-.5431-2.2975-1.44-3.0663L24.1588 6.99312C23.4113 6.3525 22.4587 6 21.4744 6H10.125C7.84687 6 6 7.84687 6 10.125v11.0031c0 1.1894.51375 2.3213 1.40875 3.1044L44.8338 56.9794C45.5856 57.6375 46.5506 58 47.55 58Z"/>
    <path fill="url(#argxs_qodana_light_attr_1)"
          d="M49.0131 58h10.8618c2.2781 0 4.125-1.8469 4.125-4.125V41.3094c0-.2-.0144-.4-.0437-.5981L58.508 3.52688C58.2112 1.50125 56.4737 0 54.4268 0H39.0293c-2.2788 0-4.1256 1.8475-4.125 4.12625l.0044 18.50435c0 .4256.0662.8488.1956 1.2538L45.083 55.13c.5463 1.7094 2.135 2.87 3.9294 2.87h.0007Z"/>
    <path fill="url(#argxs_qodana_light_attr_2)"
          d="M4.125 64h34.1275c1.6581 0 3.155-.9931 3.8-2.5206L57.85 24.0581c.2187-.5181.3294-1.0756.3244-1.6381l-.15-18.32875C58.0056 1.82625 56.1644 0 53.8994 0H36.2337c-.8056 0-1.5931.235625-2.2662.678125L1.85938 21.7869C.69875 22.55 0 23.845 0 25.2337V59.875C0 62.1531 1.84687 64 4.125 64Z"/>
    <path fill="#000" d="M52 12H12v40h40V12Z"/>
    <path fill="#fff" fill-rule="evenodd" clip-rule="evenodd"
          d="M19.943 31.2425c-1.1681-.675-2.0868-1.6044-2.755-2.7869-.6681-1.1825-1.0025-2.5025-1.0025-3.9606s.3338-2.7781 1.0025-3.9606c.6682-1.1825 1.5863-2.1119 2.755-2.7869 1.1682-.675 2.4744-1.0131 3.9175-1.0131 1.4432 0 2.7388.3375 3.9069 1.0131 1.1681.675 2.085 1.6044 2.7494 2.7869.6644 1.1825.9969 2.5025.9969 3.9606s-.3325 2.7781-.9969 3.9606-1.5813 2.1119-2.7494 2.7869c-.7626.4407-1.5824.7377-2.4594.8909v.0678c0 .2213.0432.4126.1288.5732.0856.1606.2087.2825.37.3643.1606.0819.3519.1232.5737.1232h1.8332v2.165h-2.4119c-.6506 0-1.22-.1269-1.7094-.3807l-.0006.0013c-.4894-.2538-.865-.6131-1.1256-1.0775-.2613-.4644-.3913-1.0112-.3913-1.64l-.0009-.1697c-.9418-.1436-1.8212-.4495-2.631-.9178Zm6.3082-2.2294c.7075-.4462 1.2612-1.065 1.6612-1.8543.4-.7894.6-1.6775.6-2.6638 0-.9862-.2-1.8737-.6-2.6638-.4-.7893-.9537-1.4075-1.6612-1.8543-.7075-.4463-1.5044-.67-2.39-.67-.8857 0-1.6844.2231-2.3957.67-.7112.4468-1.2687 1.065-1.6718 1.8543-.4038.7894-.6057 1.6776-.6057 2.6638 0 .9863.2019 1.8744.6057 2.6638.4037.7893.9612 1.4081 1.6718 1.8543.7113.4469 1.5094.67 2.3957.67.8862 0 1.6831-.2231 2.39-.67Z"/>
    <path fill="#fff" d="M32.9937 43.9981h-16v3h16v-3Z"/>
    <path fill="#fff" fill-rule="evenodd" clip-rule="evenodd"
          d="M39.7887 16.9919h-5.7132v15.0062h5.7132c1.4218 0 2.6956-.3212 3.8212-.9643 1.125-.6432 2.0056-1.5344 2.6419-2.6744.6356-1.14.9537-2.4275.9537-3.8644 0-1.4369-.3181-2.7244-.9537-3.8644-.6356-1.14-1.5163-2.0312-2.6419-2.6744-1.1256-.6431-2.3994-.9643-3.8212-.9643Zm3.87 10.1556c-.3644.7469-.8825 1.3206-1.5544 1.7206-.6719.4-1.4544.5994-2.3475.5994h-2.755v-9.9469h2.755c.8931 0 1.6756.2 2.3475.6.6719.4006 1.19.9738 1.5544 1.7206.3643.7469.5468 1.6307.5468 2.6532s-.1825 1.9062-.5468 2.6531Z"/>
</svg>