<svg id="argxs" xmlns="http://www.w3.org/2000/svg" width="300" height="74" fill="none" viewBox="0 0 300 74">
    <defs>
        <linearGradient id="argxs_ai_assistant_dark_attr" x1="4.75407" x2="70.6146" y1="8.63622" y2="59.748" gradientUnits="userSpaceOnUse">
            <stop offset="0" stop-color="#955AE0"/>
            <stop offset="1" stop-color="#4D67F0"/>
        </linearGradient>
    </defs>
    <path fill="#fff" fill-rule="evenodd" clip-rule="evenodd"
          d="M68.0078 38.96 78.8778 9h5.76l11.21 29.96h-5.39l-2.55-7.19h-12.03l-2.35 7.19h-5.52Zm13.24-23.39-4.04 12.01h9.26l-4.3-12.01-.47-1.86-.45 1.86Zm23.0802 23.39h-5.4602V9h5.4602v29.96Zm15.95 0L131.148 9h5.75l11.22 29.96h-5.39l-2.55-7.19h-12.03l-2.35 7.19h-5.52Zm13.24-23.39-4.04 12.01h9.26l-4.3-12.01-.47-1.86-.45 1.86Zm28.76 10.46c1.16.2 2.17.61 3.04 1.22h-.03c.87.61 1.54 1.38 2 2.3.47.93.7 1.92.7 2.99 0 1.32-.4 2.52-1.19 3.58-.79 1.06-1.87 1.89-3.25 2.47-1.38.59-2.82.88-4.59.88s-3.36-.28-4.77-.85c-1.41-.57-2.54-1.37-3.37-2.4-.83-1.03-1.29-2.22-1.38-3.56h5.05c.08.59.31 1.09.7 1.5.39.41.91.73 1.54.95.63.22 1.37.33 2.21.33.79 0 1.49-.11 2.12-.34.63-.23 1.12-.55 1.47-.95.35-.4.52-.88.52-1.42 0-.4-.1-.77-.29-1.09-.19-.32-.46-.6-.81-.82-.35-.22-.75-.37-1.21-.44l-4.86-.81c-1.17-.19-2.19-.58-3.06-1.17-.87-.59-1.54-1.33-2.02-2.21-.48-.88-.72-1.85-.72-2.91 0-1.3.35-2.46 1.05-3.48.7-1.02 1.7-1.82 2.99-2.4 1.29-.58 2.81-.87 4.46-.87s3.14.27 4.46.81c1.32.54 2.37 1.31 3.15 2.31.78 1 1.22 2.17 1.32 3.51h-5.03c-.08-.56-.3-1.04-.65-1.45-.35-.4-.81-.72-1.37-.95-.56-.22-1.16-.34-1.87-.34-.71 0-1.34.11-1.89.33-.55.22-.97.53-1.27.93-.3.4-.45.86-.45 1.37 0 .39.1.72.28 1.01.18.29.46.53.82.71.36.19.82.33 1.38.43l4.82.83Zm21.09 0c1.16.2 2.17.61 3.04 1.22h-.03c.87.61 1.54 1.38 2 2.3.47.93.7 1.92.7 2.99 0 1.32-.4 2.52-1.19 3.58-.79 1.06-1.87 1.89-3.25 2.47-1.38.59-2.82.88-4.59.88s-3.36-.29-4.77-.85c-1.41-.57-2.54-1.37-3.37-2.4-.83-1.03-1.29-2.22-1.38-3.56h5.05c.08.59.31 1.09.7 1.5.39.41.9.73 1.54.95.63.22 1.37.33 2.21.33.79 0 1.49-.11 2.12-.34.63-.23 1.12-.54 1.47-.95.35-.4.52-.88.52-1.42 0-.4-.1-.76-.29-1.09-.19-.32-.46-.6-.81-.82-.35-.22-.75-.37-1.21-.44l-4.86-.81c-1.17-.19-2.19-.58-3.06-1.17-.87-.59-1.54-1.33-2.02-2.21-.48-.88-.72-1.85-.72-2.91 0-1.3.35-2.46 1.05-3.48.7-1.02 1.7-1.82 2.99-2.4 1.29-.58 2.81-.87 4.46-.87s3.14.27 4.46.81c1.32.54 2.37 1.31 3.15 2.31.78 1 1.22 2.17 1.32 3.51h-5.03c-.08-.56-.3-1.04-.65-1.45-.35-.4-.81-.72-1.37-.95-.56-.22-1.16-.34-1.87-.34-.71 0-1.34.11-1.89.33-.55.22-.97.53-1.27.93-.3.4-.45.86-.45 1.37 0 .39.1.72.28 1.01.18.29.46.53.82.71.36.19.82.33 1.38.43l4.82.83Zm14.94-11.29h-5.76V9.73h5.76v5.01Zm-.35 24.22h-5.05V17.05h5.05v21.91Zm16.47-12.93c1.16.2 2.17.61 3.04 1.22h-.03c.87.61 1.54 1.38 2 2.3.47.93.7 1.92.7 2.99 0 1.32-.4 2.52-1.19 3.58-.79 1.06-1.87 1.89-3.25 2.47-1.38.59-2.82.88-4.59.88s-3.36-.28-4.77-.85c-1.41-.57-2.54-1.37-3.37-2.4-.83-1.03-1.29-2.22-1.38-3.56h5.05c.08.59.31 1.09.7 1.5.39.41.91.73 1.54.95.63.22 1.37.33 2.21.33.79 0 1.49-.11 2.12-.34.63-.23 1.12-.55 1.47-.95.35-.4.52-.88.52-1.42 0-.4-.1-.77-.29-1.09-.19-.32-.46-.6-.81-.82-.35-.22-.75-.37-1.21-.44l-4.86-.81c-1.17-.19-2.19-.58-3.06-1.17-.87-.59-1.54-1.33-2.02-2.21-.48-.88-.72-1.85-.72-2.91 0-1.3.35-2.46 1.05-3.48.7-1.02 1.7-1.82 2.99-2.4 1.29-.58 2.81-.87 4.46-.87s3.14.27 4.46.81c1.32.54 2.37 1.31 3.15 2.31.78 1 1.22 2.17 1.32 3.51h-5.03c-.08-.56-.3-1.04-.65-1.45-.35-.4-.81-.72-1.37-.95-.56-.22-1.16-.34-1.87-.34-.71 0-1.34.11-1.89.33-.55.22-.97.53-1.27.93-.3.4-.45.86-.45 1.37 0 .39.1.72.28 1.01.18.29.46.53.82.71.36.19.82.33 1.38.43l4.82.83Zm11.69-14.33h4.7v5.34h5.82l-.02 4.39h-5.82l.02 11.07c0 .6.19 1.1.59 1.49.4.39.89.59 1.49.59h3.72v4.39h-4.73c-1.17 0-2.23-.25-3.16-.75-.93-.5-1.66-1.19-2.18-2.08-.52-.89-.78-1.89-.78-3l-.02-11.71h-3.85l.02-4.39h2.4c.55 0 .98-.17 1.31-.5.33-.33.49-.76.49-1.29V11.7Zm22.91 4.83c1.79 0 3.34.31 4.67.94l.01.01c1.32.63 2.36 1.54 3.09 2.74.73 1.2 1.1 2.61 1.1 4.22v14.53h-4.99v-3.13c-.59 1.11-1.38 1.98-2.39 2.6-1.14.69-2.5 1.04-4.08 1.04-1.41 0-2.68-.27-3.79-.81-1.11-.54-1.99-1.3-2.62-2.26-.63-.96-.95-2.06-.95-3.26 0-1.2.31-2.3.92-3.3.62-1 1.47-1.82 2.55-2.47 1.08-.65 2.31-1.05 3.68-1.19l5.42-.62c.38-.04.69-.2.92-.49.15-.18.24-.43.3-.72v-.44c0-.67-.16-1.25-.47-1.74-.32-.49-.77-.87-1.35-1.13-.59-.27-1.29-.4-2.08-.4s-1.48.12-2.08.36c-.6.24-1.07.56-1.42.97-.35.41-.56.87-.63 1.38h-4.99c.15-1.3.63-2.47 1.42-3.5.79-1.03 1.86-1.85 3.19-2.44 1.33-.59 2.78-.89 4.57-.89Zm3.24 16.75c.4-.73.6-1.56.6-2.52v-2.07l-5.42.63c-.63.08-1.19.26-1.67.56-.48.3-.86.68-1.13 1.14-.27.46-.41.97-.41 1.55 0 .58.16 1.1.47 1.56.32.46.76.81 1.33 1.05.57.24 1.23.36 1.97.36.96 0 1.81-.2 2.55-.59.74-.39 1.31-.95 1.71-1.67Zm22.13-16.75c1.57 0 2.95.35 4.13 1.03l.01.03c1.18.68 2.1 1.67 2.76 2.97.65 1.29.98 2.84.98 4.64v13.78h-5.03V25.97c0-1.06-.18-1.96-.54-2.7-.36-.74-.87-1.31-1.54-1.7-.67-.39-1.47-.59-2.4-.59-.99 0-1.88.22-2.65.67-.77.45-1.37 1.07-1.79 1.88-.42.81-.63 1.72-.63 2.75v12.69h-5.05V17.05h4.9v3.21c.63-1.06 1.44-1.92 2.45-2.55 1.25-.79 2.72-1.18 4.4-1.18Zm24.79.52h.01l-.01-.01v.01Zm0 0h-5.81V11.7h-4.71v3.55c0 .53-.16.96-.49 1.29-.33.33-.76.5-1.31.5h-2.4l-.02 4.39h3.85l.02 11.71c0 1.11.26 2.11.78 3 .52.89 1.25 1.58 2.18 2.08.93.5 1.99.75 3.16.75h4.73v-4.39h-3.72c-.6 0-1.09-.2-1.49-.59-.4-.39-.59-.89-.59-1.49l-.02-11.07h5.82l.02-4.38ZM74.2307 59.7657c.869 0 1.6581.2397 2.3573.6992.6992.4694 1.2485 1.1087 1.6481 1.9178.3995.8091.5993 1.728.5993 2.7468 0 1.0189-.1998 1.9378-.5993 2.7469-.3996.819-.9489 1.4583-1.6481 1.9178-.6992.4694-1.4883.6992-2.3673.6992-.8191 0-1.5382-.1798-2.1475-.5394-.4795-.2697-.8391-.6692-1.1487-1.1287v1.4284h-2.9167v-14.004h2.9267v5.1841c.3096-.4495.6692-.8491 1.1486-1.1287.6093-.3596 1.3285-.5394 2.1476-.5394Zm.4495 7.7811c.3695-.2298.6592-.5594.869-.9789.2097-.4195.3096-.889.3096-1.4384 0-.5493-.0999-1.0288-.3096-1.4483-.2098-.4195-.4995-.7492-.869-.9789-.3696-.2297-.7891-.3496-1.2786-.3496-.4894 0-.9189.1199-1.2885.3496-.3696.2297-.6592.5594-.869.9789s-.3096.889-.3096 1.4383c0 .5494.0998 1.0289.3096 1.4484s.4994.7491.869.9789c.3696.2297.8091.3496 1.2885.3496.4795 0 .909-.1199 1.2786-.3496Zm7.1518-7.5414 2.3573 6.3627h.0099l2.1676-6.3627h2.9366l-4.2551 10.8675c-.2997.7792-.7392 1.3984-1.3085 1.8679-.5694.4695-1.2686.6992-2.0876.6992h-1.8279v-2.587h1.6381c.2297 0 .4195-.05.5693-.1499.1499-.0998.2797-.2497.3896-.4594l.2996-.6093-3.9055-9.629h3.0166Zm16.521 6.4326c.1698-.3096.2497-.6592.2497-1.0488v-9.1395h3.0963v9.3593c0 .879-.2 1.6681-.609 2.3773-.41.7091-.969 1.2585-1.6782 1.6581-.7092.3995-1.5183.5993-2.4072.5993h-2.3673v-2.8468h1.9577c.3996 0 .7492-.0799 1.0488-.2497.3097-.1698.5394-.3995.7092-.7092Zm15.243-1.8978h-6.493v3.0165h7.372v2.697h-10.389v-14.004h10.189v2.7069h-7.172v2.9666h6.493v2.617Zm6.152-5.5137h-4.155v-2.7768h11.377v2.7768h-4.125v11.2172h-3.097V59.0265Zm17.181 3.8956c.289.0799.559.1798.809.3096h.01c.569.3097 1.019.7292 1.338 1.2785.32.5494.48 1.1687.48 1.8579 0 .7492-.2 1.4184-.61 2.0077-.409.5893-.978 1.0488-1.718 1.3784-.739.3297-1.578.4995-2.517.4995h-6.342v-14.004h6.222c.889 0 1.689.1598 2.388.4695.699.3096 1.238.7491 1.628 1.3085.389.5593.579 1.1986.579 1.9078 0 .6193-.15 1.1686-.439 1.6481-.29.4794-.7.859-1.209 1.1187-.179.0943-.385.153-.584.2098l-.035.01Zm-2.797-4.3251h-2.747v3.4461h2.747c.38 0 .719-.0799 1.009-.2198.299-.1398.519-.3396.689-.6093.17-.2697.25-.5893.25-.9289 0-.3396-.09-.6393-.25-.889-.17-.2597-.4-.4495-.689-.5893-.29-.1399-.629-.2098-1.009-.2098Zm1.239 9.0896c.319-.1498.569-.3496.749-.6193v.02c.179-.2697.269-.5694.269-.9289 0-.3596-.09-.6793-.269-.9589-.18-.2797-.44-.4995-.759-.6493-.33-.1498-.7-.2297-1.109-.2297h-2.867v3.5858h2.867c.419 0 .799-.0699 1.119-.2197Zm16.541-4.6647c-.43.6693-1.029 1.1987-1.808 1.5682h-.01c-.14.07-.3.1299-.46.1898l3.197 5.4738h-3.536l-2.837-5.1042h-2.018v5.1042h-3.096v-14.004h6.133c1.009 0 1.898.1798 2.667.5494.769.3696 1.358.889 1.778 1.5582.419.6692.629 1.4284.629 2.3173 0 .889-.21 1.6781-.639 2.3473Zm-3.556-.6093c.319-.1598.569-.3895.739-.6792v.01c.17-.2897.26-.6293.26-1.0288 0-.3995-.09-.7392-.26-1.0288-.17-.2897-.42-.5094-.739-.6693-.32-.1498-.7-.2297-1.129-.2297h-2.787v3.8656h2.787c.429 0 .809-.0799 1.129-.2398Zm5.493 7.8411 5.005-14.004h3.366l5.104 14.004h-3.087l-1.058-3.0865h-5.194l-.989 3.0865h-3.147Zm6.453-10.3781-1.608 4.9443h3.706l-1.718-4.9443-.19-.899-.19.899Zm11.427 10.3781h-3.196v-14.004h3.196v14.004Zm5.434-14.004 6.013 9.4692h.01v-9.4692h2.826v14.004h-3.046l-5.993-9.4692v9.4692h-2.827v-14.004h3.017Zm19.627 6.4326c.549.3996.979.889 1.279 1.4684v-.02c.309.5893.459 1.2286.459 1.9178 0 .849-.23 1.6081-.679 2.2774-.45.6692-1.079 1.1986-1.878 1.5782-.809.3795-1.738.5693-2.767.5693s-1.948-.1898-2.747-.5594c-.799-.3695-1.428-.8989-1.887-1.5582-.46-.6592-.7-1.4383-.71-2.3073h3.097c0 .3596.1.6792.289.9589.19.2797.46.4894.81.6392.349.1499.749.2298 1.178.2298.43 0 .799-.0699 1.119-.1998.32-.1298.559-.3196.739-.5693.18-.2498.27-.5294.27-.8391 0-.3895-.12-.7092-.36-.9689-.24-.2597-.569-.4395-.979-.5393l-2.517-.5194c-.659-.1399-1.238-.3896-1.738-.7492-.499-.3596-.889-.8191-1.158-1.3584-.27-.5494-.41-1.1587-.41-1.8279 0-.8391.22-1.5782.639-2.2275.43-.6492 1.019-1.1587 1.778-1.5282.759-.3696 1.618-.5494 2.597-.5494.979 0 1.858.1798 2.617.5294.759.3496 1.359.839 1.788 1.4683.43.6193.659 1.3485.679 2.1575h-3.096c0-.2996-.09-.5693-.25-.809-.17-.2398-.399-.4196-.689-.5494-.29-.1398-.639-.1998-1.019-.1998-.379 0-.719.0699-1.009.1898-.289.1199-.519.2997-.679.5194-.16.2297-.24.4894-.24.7891 0 .3396.11.6093.33.839.22.2298.519.3796.889.4695l2.377.4894c.709.1299 1.329.3996 1.878.7891Z"/>
    <path fill="url(#argxs_ai_assistant_dark_attr)"
          d="M3.72781 8.16C8.04781 5.7 13.9878 4.5 19.0878 4.5c14.94 0 24.42 6.96 24.42 16.38 0 7.5-6.54 12.12-15.24 12.12-7.02 0-12.24-2.58-12.24-6 0-3.24 3.3-4.8 7.98-3l1.2-3.66c-7.26-2.34-13.26.96-13.26 6.66s7.08 9.78 16.56 9.78c11.28 0 19.5-6.24 19.5-15.9 0-12.06-11.4-20.88-28.92-20.88-5.64 0-11.99999 1.44-17.21999 4.26l1.86 3.9ZM44.2878 39.84c-4.32 2.46-10.26 3.66-15.36 3.66-14.94 0-24.41999-6.96-24.41999-16.38 0-7.5 6.53999-12.12 15.23999-12.12 7.02 0 12.24 2.58 12.24 6 0 3.24-3.3 4.8-7.98 3l-1.2 3.66c7.26 2.34 13.26-.96 13.26-6.66s-7.08-9.78-16.56-9.78C8.22781 11.22.007813 17.46.007813 27.12.007813 39.18 11.4078 48 28.9278 48c5.64 0 12-1.44 17.22-4.26l-1.86-3.9Z"/>
</svg>