<svg xmlns="http://www.w3.org/2000/svg" width="281" height="79" fill="none" viewBox="0 0 281 79">
    <defs>
        <linearGradient id="rbm_gr_a" x1="4.21657" x2="62.9214" y1="60.0186" y2="1.31316" gradientUnits="userSpaceOnUse">
            <stop offset=".29" stop-color="#FF2358"/>
            <stop offset=".75" stop-color="#7256FF"/>
        </linearGradient>
        <linearGradient id="rbm_gr_b" x1="-.723242" x2="24.1396" y1="7.62395" y2="61.2495" gradientUnits="userSpaceOnUse">
            <stop offset=".29" stop-color="#FF8100"/>
            <stop offset=".56" stop-color="#FF2358"/>
        </linearGradient>
    </defs>
    <path fill="#000" fill-rule="evenodd"
          d="M105.697 30.97c-.86 1.39-2.08 2.47-3.66 3.24h.01c-.53.26-1.1.46-1.68.63l7.29 12.13h-6.12l-6.7297-11.6h-5.49v11.6h-5.33V17.01h12.7c2.06 0 3.8597.37 5.4197 1.13 1.56.76 2.76 1.83 3.61 3.21.85 1.38 1.27 2.96 1.27 4.79s-.43 3.44-1.29 4.83Zm-9.3197-.1c1.04 0 1.95-.19 2.71-.58v.01c.77-.39 1.3597-.93 1.7797-1.64.42-.7.63-1.55.63-2.49 0-.94-.21-1.76-.63-2.46-.43-.7-1.0197-1.24-1.7797-1.62-.77-.38-1.67-.57-2.71-.57h-7.06v9.35h7.06Zm28.3697 9.62c.42-.81.63-1.72.63-2.75l-.01-.02V25.03h5.05v21.92h-4.9v-3.23c-.63 1.06-1.44 1.93-2.45 2.56-1.25.79-2.72 1.18-4.4 1.18-1.57 0-2.95-.34-4.13-1.03-1.18-.68-2.1-1.67-2.76-2.97-.65-1.29-.98-2.84-.98-4.64V25.04h5.03v13.01c0 1.06.18 1.96.54 2.7.36.74.87 1.31 1.53 1.7.67.39 1.47.59 2.41.59.99 0 1.88-.22 2.65-.67.77-.45 1.37-1.07 1.79-1.88Zm23.15-15.96c1.94 0 3.68.49 5.21 1.47v-.01c1.54.98 2.74 2.34 3.61 4.09.87 1.75 1.3 3.72 1.3 5.92 0 2.2-.43 4.17-1.3 5.92-.87 1.75-2.08 3.11-3.61 4.09-1.53.98-3.28 1.47-5.23 1.47-1.8 0-3.38-.4-4.75-1.2-1.11-.65-2.01-1.53-2.72-2.61v3.29h-5.05V17h5.05v11.34c.71-1.08 1.61-1.96 2.72-2.61 1.37-.8 2.96-1.2 4.77-1.2Zm1.97 17.56c.94-.59 1.67-1.41 2.19-2.46s.78-2.26.78-3.63-.26-2.58-.78-3.63c-.52-1.05-1.25-1.87-2.19-2.46-.94-.59-1.99-.89-3.21-.89s-2.31.3-3.25.89c-.94.59-1.67 1.41-2.2 2.46-.53 1.05-.79 2.26-.79 3.63s.26 2.58.79 3.64c.52 1.06 1.26 1.88 2.2 2.46.94.59 2.05.88 3.25.88 1.2 0 2.27-.3 3.21-.89Zm25.6-3.44c.42-.81.63-1.72.63-2.75l-.02-.03V25.02h5.05V45.5c0 1.69-.37 3.15-1.13 4.39-.75 1.24-1.83 2.2-3.23 2.88-1.4.68-3.04 1.02-4.92 1.02h-8.2V49.4h7.88c.96 0 1.77-.17 2.45-.49.68-.32 1.2-.8 1.56-1.43.37-.63.55-1.39.55-2.29l.04-3.15c-.61.97-1.39 1.75-2.34 2.34-1.25.77-2.72 1.16-4.4 1.16-1.57 0-2.95-.34-4.13-1.01-1.18-.67-2.1-1.65-2.76-2.94-.65-1.29-.98-2.83-.98-4.63V25.04h5.03v11.17c0 1.06.18 1.96.54 2.7.36.74.87 1.31 1.54 1.7.67.39 1.47.59 2.4.59.99 0 1.88-.22 2.65-.67.77-.45 1.37-1.07 1.79-1.88Zm27.98 1.62.49-1.67.02-.01 8.97-21.59h6.91v29.96h-5.26V25.69l.04-1.13-9.27 22.41h-3.94l-9.25-22.26.06.99v21.27h-5.27V17.01h6.83l9.18 21.59.49 1.67Zm27.19-17.53h-5.76v-5.01h5.76v5.01Zm-.35 24.22h-5.05V25.04h5.05v21.92Zm16.64-22.43c1.57 0 2.95.35 4.13 1.03l.01.03c1.18.68 2.1 1.67 2.76 2.97.65 1.29.98 2.84.98 4.64v13.78h-5.03V33.97c0-1.06-.18-1.96-.54-2.7-.36-.74-.87-1.31-1.54-1.7-.67-.39-1.47-.59-2.4-.59-1 0-1.88.22-2.65.67-.77.45-1.37 1.07-1.79 1.88-.42.81-.63 1.72-.63 2.75v12.69h-5.05V25.05h4.9v3.21c.63-1.06 1.45-1.92 2.45-2.55 1.25-.79 2.72-1.18 4.4-1.18Zm32.39 5.52c.93 1.73 1.4 3.71 1.4 5.94l-.02-.01v1.22h-17.29c.1 1.01.35 1.94.78 2.77.54 1.05 1.28 1.87 2.23 2.45.95.59 2.02.88 3.22.88 1.06 0 2.01-.21 2.85-.62.85-.41 1.54-.99 2.1-1.73h5.5c-.52 1.36-1.27 2.52-2.25 3.49-.98.97-2.17 1.72-3.57 2.25-1.39.53-2.94.79-4.64.79-2.15 0-4.09-.49-5.81-1.48-1.72-.99-3.08-2.36-4.07-4.11-.99-1.76-1.49-3.78-1.49-5.93s.5-4.1 1.5-5.84c1-1.74 2.37-3.11 4.1-4.1 1.74-.99 3.61-1.49 5.77-1.49 2.16 0 4.08.49 5.76 1.46 1.69.98 3 2.33 3.93 4.06Zm-15.798 3.76c.13-.7163.34-1.3929.668-2.01.54-1.02 1.28-1.82 2.23-2.4.95-.58 2.02-.87 3.22-.87 1.2 0 2.26.3 3.18.9.92.6 1.63 1.43 2.13 2.49.28.59.47 1.22.59 1.89h-12.018ZM87.6973 74.19c.17-.31.25-.66.25-1.05h.01v-9.15h3.1v9.37c0 .88-.2 1.67-.61 2.38s-.97 1.26-1.68 1.66c-.71.4-1.52.6-2.41.6h-2.37v-2.85h1.95c.4 0 .75-.08 1.05-.25.31-.17.54-.4.71-.71Zm15.2597-1.9h-6.4997v3.02h7.3797v2.7H93.4373V63.99h10.1997v2.71h-7.1797v2.97h6.4997v2.62Zm6.16-5.52h-4.16v-2.78h11.39v2.78h-4.13V78h-3.1V66.77Zm17.2 3.9c.29.08.56.18.81.31h.01c.57.31 1.02.73 1.34 1.28.32.55.48 1.17.48 1.86 0 .75-.2 1.42-.61 2.01-.41.59-.98 1.05-1.72 1.38-.74.33-1.58.5-2.52.5h-6.35V63.99h6.23c.89 0 1.69.16 2.39.47.7.31 1.24.75 1.63 1.31.39.56.58 1.2.58 1.91 0 .62-.15 1.17-.44 1.65-.29.48-.7.86-1.21 1.12-.179.0945-.385.1532-.585.21l-.035.01Zm-2.8-4.33h-2.75v3.45h2.75c.38 0 .72-.08 1.01-.22.3-.14.52-.34.69-.61.17-.27.25-.59.25-.93 0-.34-.09-.64-.25-.89-.17-.26-.4-.45-.69-.59-.29-.14-.63-.21-1.01-.21Zm1.24 9.1c.32-.15.57-.35.75-.62v.02c.18-.27.27-.57.27-.93 0-.36-.09-.68-.27-.96-.18-.28-.44-.5-.76-.65-.33-.15-.7-.23-1.11-.23h-2.87v3.59h2.87c.42 0 .8-.07 1.12-.22Zm16.56-4.67c-.43.67-1.03 1.2-1.81 1.57h-.01c-.14.07-.3.13-.46.19l3.2 5.48h-3.54l-2.84-5.11h-2.02v5.11h-3.1V63.99h6.14c1.01 0 1.9.18 2.67.55.77.37 1.36.89 1.78 1.56.42.67.63 1.43.63 2.32 0 .89-.21 1.68-.64 2.35Zm-3.56-.61c.32-.16.57-.39.74-.68v.01c.17-.29.26-.63.26-1.03s-.09-.74-.26-1.03c-.17-.29-.42-.51-.74-.67-.32-.15-.7-.23-1.13-.23h-2.79v3.87h2.79c.43 0 .81-.08 1.13-.24Zm5.51 7.85 5.01-14.02h3.36l5.12 14.02h-3.09l-1.06-3.09h-5.2l-.99 3.09h-3.15Zm6.46-10.39-1.61 4.95h3.71l-1.72-4.95-.19-.9-.19.9Zm11.43 10.39h-3.2V63.99h3.2v14.02Zm5.44-14.02 6.02 9.48h.01v-9.48h2.83v14.02h-3.05l-6-9.48v9.48h-2.83V63.99h3.02Zm17.78 5.66c.71.13 1.33.4 1.88.79v-.02c.55.4.97.88 1.28 1.47.31.59.46 1.23.46 1.92 0 .85-.23 1.61-.68 2.28-.45.67-1.08 1.2-1.88 1.58-.81.38-1.74.57-2.77.57s-1.95-.19-2.75-.56c-.8-.37-1.43-.9-1.89-1.56-.46-.66-.7-1.44-.71-2.31h3.1c0 .36.1.68.29.96.19.28.46.49.81.64.35.15.75.23 1.18.23.43 0 .8-.07 1.12-.2.32-.13.56-.32.74-.57.18-.25.27-.53.27-.84 0-.39-.12-.71-.36-.97s-.57-.44-.98-.54l-2.52-.52c-.66-.14-1.24-.39-1.74-.75s-.89-.82-1.16-1.36c-.27-.55-.41-1.16-.41-1.83 0-.84.22-1.58.64-2.23.43-.65 1.02-1.16 1.78-1.53.76-.37 1.62-.55 2.6-.55s1.86.18 2.62.53c.76.35 1.36.84 1.79 1.47.43.62.66 1.35.68 2.16h-3.1c0-.3-.09-.57-.25-.81-.17-.24-.4-.42-.69-.55-.29-.14-.64-.2-1.02-.2s-.72.07-1.01.19c-.29.12-.52.3-.68.52-.16.23-.24.49-.24.79 0 .34.11.61.33.84.22.23.52.38.89.47l2.38.49Zm14.38 8.36h-3.2V63.99h3.2v14.02Zm7.88-14.02c1.33 0 2.53.31 3.59.91 1.06.61 1.9 1.44 2.5 2.51.61 1.06.91 2.27.91 3.59 0 1.32-.31 2.52-.91 3.59-.6 1.07-1.43 1.9-2.5 2.51-1.07.61-2.26.91-3.59.91h-5.47V63.99h5.47Zm2.01 10.86c.58-.35 1.03-.85 1.34-1.5v-.01c.31-.65.47-1.44.47-2.35 0-.91-.16-1.7-.47-2.35-.31-.65-.76-1.15-1.34-1.5-.58-.35-1.26-.52-2.05-.52h-2.32v8.75h2.32c.79 0 1.47-.17 2.05-.52Zm9.8-2.56v3.02h7.38v2.7h-10.4V63.99h10.2v2.71h-7.18v2.97h6.5v2.62h-6.5Z"
          clip-rule="evenodd"/>
    <path fill="url(#rbm_gr_a)"
          d="M59.9216 0H25.9533c-1.6291 0-3.1017.971054-3.7434 2.46807L6.14181 39.9587c-.21702.5068-.32931 1.0531-.32931 1.6046v18.364C5.8125 62.1766 7.63592 64 9.88523 64H27.8512c.8046 0 1.5913-.2385 2.2609-.6854l32.0687-21.4033c1.1322-.7552 1.8118-2.0265 1.8118-3.3874l.0017-34.45117C63.9943 1.82342 62.1709 0 59.9216 0Z"/>
    <path fill="url(#rbm_gr_b)"
          d="M14.5134 5.82031H4.06687c-2.24931 0-4.07273 1.82342-4.07273 4.07273V22.9857c0 .1926.013964.3852.040728.576L5.31196 60.5054c.28683 2.0067 2.00494 3.4967 4.032 3.4967H25.017c2.2499 0 4.0733-1.824 4.0727-4.0739l-.0047-18.5384c0-.4376-.0704-.8722-.2088-1.287L18.3773 8.60489c-.5545-1.66283-2.1109-2.78458-3.8639-2.78458Z"/>
    <path fill="#FF8100"
          d="m15.9418 5.82031-11.87551.00175c-2.24873.00058-4.07215 1.824-4.07215 4.07273V21.4014c0 1.1887.519564 2.3185 1.42196 3.0924L39.577 57.2036c.7383.6324 1.6785.9803 2.6507.9803h11.8755c2.2493 0 4.0728-1.8234 4.0728-4.0727V42.6029c0-1.1887-.5196-2.3186-1.422-3.0924L18.5931 6.80126c-.7383-.63302-1.6785-.98037-2.6513-.98037v-.00058Z"/>
    <path fill="#000" d="M51.9941 12h-40v40h40V12Z"/>
    <path fill="#fff" fill-rule="evenodd"
          d="m41.8894 17-2.9783 9.8464-.225 1.2857-.2571-1.2857L35.3433 17h-4.0711v15h2.8819V21.2967l-.0431-.7071L37.5611 32h2.1214l3.4926-11.4856-.0425.7823V32h2.8928V17h-4.136Zm-15.6291 8.7536c.8145-.3925 1.439-.943 1.8752-1.6501.4425-.714.6641-1.5359.6641-2.4646 0-.9287-.2181-1.7317-.6538-2.4319-.4287-.7002-1.0429-1.2426-1.843-1.6283-.8001-.3857-1.7248-.5786-2.7751-.5786h-6.4393v14.9994h2.9249v-5.6679h2.5203l3.2337 5.6679h3.3537l-3.5747-6.0094c.0714-.0227.1441-.0435.2167-.0644.1715-.0491.343-.0983.4973-.1721Zm-6.2458-6.3216h3.3215c.493 0 .9212.0924 1.2857.2784.3713.1779.6572.4356.8569.7714.1997.3277.3002.7215.3002 1.1783 0 .4569-.0999.8466-.3002 1.1893-.1997.3363-.4856.5958-.8569.7823-.3645.1779-.7927.268-1.2857.268h-3.3215V19.432Zm-3.0262 24.5681h16v3h-16v-3Z"
          clip-rule="evenodd"/>
</svg>