<svg id="argxs" width="1000" height="700" viewBox="-2100 -1470 4200 2940" xmlns="http://www.w3.org/2000/svg" xmlns:xlink="http://www.w3.org/1999/xlink">
    <defs>
        <g id="argxs_brazil_attr_11">
            <clipPath id="argxs_brazil_attr_5">
                <path d="m-31.5 0v-70h63v70zm31.5-47v12h31.5v-12z"/>
            </clipPath>
            <use clip-path="url(#argxs_brazil_attr_5)" xlink:href="#argxs_brazil_attr_13"/>
            <path d="M5-35H31.5V-25H5z"/>
            <path d="m21.5-35h10v35h-10z"/>
        </g>
        <g id="argxs_brazil_attr_15">
            <use xlink:href="#argxs_brazil_attr_14"/>
            <path d="m28 0c0-10 0-32-15-32h-19c22 0 22 22 22 32"/>
        </g>
        <g id="s" fill="#fff">
            <g id="argxs_brazil_attr_3">
                <path id="t" transform="rotate(18,0,-1)" d="m0-1v1h0.5"/>
                <use transform="scale(-1,1)" xlink:href="#t"/>
            </g>
            <use transform="rotate(72)" xlink:href="#argxs_brazil_attr_3"/>
            <use transform="rotate(-72)" xlink:href="#argxs_brazil_attr_3"/>
            <use transform="rotate(144)" xlink:href="#argxs_brazil_attr_3"/>
            <use transform="rotate(216)" xlink:href="#argxs_brazil_attr_3"/>
        </g>
        <g id="argxs_brazil_attr_1">
            <use transform="scale(31.5)" xlink:href="#s"/>
        </g>
        <g id="argxs_brazil_attr_2">
            <use transform="scale(26.25)" xlink:href="#s"/>
        </g>
        <g id="argxs_brazil_attr_4">
            <use transform="scale(21)" xlink:href="#s"/>
        </g>
        <g id="argxs_brazil_attr_6">
            <use transform="scale(15)" xlink:href="#s"/>
        </g>
        <g id="argxs_brazil_attr_7">
            <use transform="scale(10.5)" xlink:href="#s"/>
        </g>
        <path id="argxs_brazil_attr_9" d="m-31.5 0h33a30 30 0 0 0 30-30v-10a30 30 0 0 0-30-30h-33zm13-13h19a19 19 0 0 0 19-19v-6a19 19 0 0 0-19-19h-19z" fill-rule="evenodd"/>
        <path id="argxs_brazil_attr_10" transform="translate(-31.5)" d="m0 0h63v-13h-51v-18h40v-12h-40v-14h48v-13h-60z"/>
        <path id="argxs_brazil_attr_4" d="m-26.25 0h52.5v-12h-40.5v-16h33v-12h-33v-11h39.25v-12h-51.25z"/>
        <path id="argxs_brazil_attr_12" d="m-31.5 0h12v-48l14 48h11l14-48v48h12v-70h-17.5l-14 48-14-48h-17.5z"/>
        <path id="argxs_brazil_attr_13" d="m0 0a31.5 35 0 0 0 0-70 31.5 35 0 0 0 0 70m0-13a18.5 22 0 0 0 0-44 18.5 22 0 0 0 0 44" fill-rule="evenodd"/>
        <path id="argxs_brazil_attr_14" d="m-31.5 0h13v-26h28a22 22 0 0 0 0-44h-40zm13-39h27a9 9 0 0 0 0-18h-27z" fill-rule="evenodd"/>
        <path id="argxs_brazil_attr_16"
              d="m-15.75-22c0 7 6.75 10.5 16.75 10.5s14.74-3.25 14.75-7.75c0-14.25-46.75-5.25-46.5-30.25 0.25-21.5 24.75-20.5 33.75-20.5s26 4 25.75 21.25h-15.25c0-7.5-7-10.25-15-10.25-7.75 0-13.25 1.25-13.25 8.5-0.25 11.75 46.25 4 46.25 28.75 0 18.25-18 21.75-31.5 21.75-11.5 0-31.55-4.5-31.5-22z"/>
    </defs>
    <clipPath id="argxs_brazil_attr_8">
        <circle r="735"/>
    </clipPath>
    <path d="m-2100-1470h4200v2940h-4200z" fill="#009440"/>
    <path d="M -1743,0 0,1113 1743,0 0,-1113 Z" fill="#ffcb00"/>
    <circle r="735" fill="#302681"/>
    <path d="m-2205 1470a1785 1785 0 0 1 3570 0h-105a1680 1680 0 1 0-3360 0z" clip-path="url(#argxs_brazil_attr_8)" fill="#fff"/>
    <g transform="translate(-420,1470)" fill="#009440">
        <use transform="rotate(-7)" y="-1697.5" xlink:href="#argxs_brazil_attr_13"/>
        <use transform="rotate(-4)" y="-1697.5" xlink:href="#argxs_brazil_attr_15"/>
        <use transform="rotate(-1)" y="-1697.5" xlink:href="#argxs_brazil_attr_9"/>
        <use transform="rotate(2)" y="-1697.5" xlink:href="#argxs_brazil_attr_10"/>
        <use transform="rotate(5)" y="-1697.5" xlink:href="#argxs_brazil_attr_12"/>
        <use transform="rotate(9.75)" y="-1697.5" xlink:href="#argxs_brazil_attr_4"/>
        <use transform="rotate(14.5)" y="-1697.5" xlink:href="#argxs_brazil_attr_14"/>
        <use transform="rotate(17.5)" y="-1697.5" xlink:href="#argxs_brazil_attr_15"/>
        <use transform="rotate(20.5)" y="-1697.5" xlink:href="#argxs_brazil_attr_13"/>
        <use transform="rotate(23.5)" y="-1697.5" xlink:href="#argxs_brazil_attr_11"/>
        <use transform="rotate(26.5)" y="-1697.5" xlink:href="#argxs_brazil_attr_15"/>
        <use transform="rotate(29.5)" y="-1697.5" xlink:href="#argxs_brazil_attr_10"/>
        <use transform="rotate(32.5)" y="-1697.5" xlink:href="#argxs_brazil_attr_16"/>
        <use transform="rotate(35.5)" y="-1697.5" xlink:href="#argxs_brazil_attr_16"/>
        <use transform="rotate(38.5)" y="-1697.5" xlink:href="#argxs_brazil_attr_13"/>
    </g>
    <use x="-600" y="-132" xlink:href="#argxs_brazil_attr_1"/>
    <use x="-535" y="177" xlink:href="#argxs_brazil_attr_1"/>
    <use x="-625" y="243" xlink:href="#argxs_brazil_attr_2"/>
    <use x="-463" y="132" xlink:href="#argxs_brazil_attr_6"/>
    <use x="-382" y="250" xlink:href="#argxs_brazil_attr_2"/>
    <use x="-404" y="323" xlink:href="#argxs_brazil_attr_4"/>
    <use x="228" y="-228" xlink:href="#argxs_brazil_attr_1"/>
    <use x="515" y="258" xlink:href="#argxs_brazil_attr_1"/>
    <use x="617" y="265" xlink:href="#argxs_brazil_attr_4"/>
    <use x="545" y="323" xlink:href="#argxs_brazil_attr_2"/>
    <use x="368" y="477" xlink:href="#argxs_brazil_attr_2"/>
    <use x="367" y="551" xlink:href="#argxs_brazil_attr_4"/>
    <use x="441" y="419" xlink:href="#argxs_brazil_attr_4"/>
    <use x="500" y="382" xlink:href="#argxs_brazil_attr_2"/>
    <use x="365" y="405" xlink:href="#argxs_brazil_attr_4"/>
    <use x="-280" y="30" xlink:href="#argxs_brazil_attr_2"/>
    <use x="200" y="-37" xlink:href="#argxs_brazil_attr_4"/>
    <use y="330" xlink:href="#argxs_brazil_attr_1"/>
    <use x="85" y="184" xlink:href="#argxs_brazil_attr_2"/>
    <use y="118" xlink:href="#argxs_brazil_attr_2"/>
    <use x="-74" y="184" xlink:href="#argxs_brazil_attr_4"/>
    <use x="-37" y="235" xlink:href="#argxs_brazil_attr_6"/>
    <use x="220" y="495" xlink:href="#argxs_brazil_attr_2"/>
    <use x="283" y="430" xlink:href="#argxs_brazil_attr_4"/>
    <use x="162" y="412" xlink:href="#argxs_brazil_attr_4"/>
    <use x="-295" y="390" xlink:href="#argxs_brazil_attr_1"/>
    <use y="575" xlink:href="#argxs_brazil_attr_7"/>
</svg>