<svg id="argxs" xmlns="http://www.w3.org/2000/svg" width="329" height="74" fill="none" viewBox="0 0 329 74">
    <defs>
        <linearGradient id="argxs_license_vault_dark_attr_1" x1="-1.26419" x2="47.3438" y1=".984" y2="17.184" gradientUnits="userSpaceOnUse">
            <stop offset="0" stop-color="#6B57FF"/>
            <stop offset="1" stop-color="#0094FF"/>
        </linearGradient>
        <linearGradient id="argxs_license_vault_dark_attr_2" x1="40.8878" x2="12.6478" y1="28.88" y2=".64" gradientUnits="userSpaceOnUse">
            <stop offset="0" stop-color="#FF45ED"/>
            <stop offset="1" stop-color="#6B57FF"/>
        </linearGradient>
        <linearGradient id="argxs_license_vault_dark_attr_3" x1="12.3185" x2="46.8644" y1="12.3185" y2="46.8644" gradientUnits="userSpaceOnUse">
            <stop offset="0" stop-color="#FF45ED"/>
            <stop offset=".644276" stop-color="#6B57FF"/>
            <stop offset="1" stop-color="#087CFA"/>
        </linearGradient>
    </defs>
    <path fill="#fff" fill-rule="evenodd"
          d="M68.0078 9.01172h5.31V34.1517h14.44v4.82h-19.75V9.01172Zm27.81 29.95998h-5.05v-21.92h5.05v21.92Zm.35-24.23h-5.76v-5.01h5.76v5.01Zm14.6402 6.27c-1.17 0-2.23.3-3.16.9v-.01c-.93.6-1.66 1.43-2.19 2.49-.53 1.07-.79 2.29-.79 3.61 0 1.32.26 2.52.79 3.58.52 1.06 1.25 1.89 2.19 2.5.94.61 1.99.91 3.16.91.8 0 1.55-.15 2.25-.45.7-.3 1.31-.71 1.83-1.25s.93-1.18 1.23-1.92h5.37c-.39 1.6-1.09 3.01-2.09 4.23-1 1.22-2.25 2.17-3.73 2.85-1.48.68-3.11 1.02-4.88 1.02-2.14 0-4.08-.5-5.81-1.5-1.74-1-3.1-2.37-4.09-4.12-.9902-1.74-1.4902-3.7-1.4902-5.85 0-2.15.5-4.1 1.4902-5.85.99-1.75 2.36-3.12 4.09-4.12s3.67-1.5 5.81-1.5c1.77 0 3.4.34 4.88 1.02 1.48.68 2.72 1.63 3.73 2.85 1.01 1.22 1.7 2.63 2.09 4.23h-5.37c-.3-.75-.71-1.38-1.23-1.92-.52-.53-1.13-.95-1.83-1.25-.7-.3-1.45-.45-2.25-.45Zm24.22-4.48c2.16 0 4.08.49 5.76 1.46l-.02-.01c1.69.98 3 2.33 3.93 4.06.93 1.73 1.4 3.71 1.4 5.94v1.22h-17.29c.1 1.01.35 1.94.78 2.77.54 1.05 1.28 1.87 2.23 2.45.95.59 2.02.88 3.22.88 1.06 0 2.01-.21 2.85-.62.84-.41 1.54-.99 2.1-1.73h5.5c-.52 1.36-1.27 2.52-2.25 3.49-.98.97-2.18 1.72-3.57 2.25-1.39.53-2.94.79-4.64.79-2.15 0-4.09-.5-5.81-1.48-1.72-.99-3.08-2.36-4.07-4.11-.99-1.76-1.49-3.78-1.49-5.93s.5-4.1 1.5-5.84c1-1.74 2.37-3.11 4.1-4.1 1.74-.99 3.61-1.49 5.77-1.49Zm-6.118 9.29h12.018c-.12-.67-.31-1.3-.59-1.89-.5-1.06-1.21-1.89-2.13-2.49-.92-.6-1.98-.9-3.18-.9-1.2 0-2.27.29-3.22.87-.95.58-1.69 1.38-2.23 2.4-.329.6171-.538 1.2937-.668 2.01Zm32.638-9.28c1.57 0 2.95.35 4.13 1.03l.01.03c1.18.68 2.1 1.67 2.76 2.97.65 1.29.98 2.84.98 4.64v13.78h-5.03v-13.01c0-1.06-.18-1.96-.54-2.7-.36-.74-.87-1.31-1.54-1.7-.67-.39-1.47-.59-2.4-.59-.99 0-1.88.22-2.65.67-.77.45-1.37 1.07-1.79 1.88-.42.81-.63 1.72-.63 2.75v12.69h-5.05v-21.92h4.9v3.21c.63-1.06 1.44-1.92 2.45-2.55 1.25-.79 2.72-1.18 4.4-1.18Zm24.14 9.5c1.16.2 2.17.61 3.04 1.22h-.03c.87.61 1.54 1.38 2 2.3.47.93.7 1.92.7 2.99 0 1.32-.4 2.52-1.19 3.58-.79 1.06-1.87 1.89-3.25 2.47-1.38.59-2.82.88-4.59.88s-3.36-.28-4.77-.85c-1.41-.57-2.54-1.37-3.37-2.4-.83-1.03-1.29-2.22-1.38-3.56h5.05c.08.59.31 1.09.7 1.5.39.41.91.73 1.54.95.63.22 1.37.33 2.21.33.79 0 1.49-.11 2.12-.34.63-.23 1.12-.55 1.47-.95.35-.4.52-.88.52-1.42 0-.4-.1-.77-.29-1.09-.19-.32-.46-.6-.81-.82-.35-.22-.75-.37-1.21-.44l-4.86-.81c-1.17-.19-2.19-.58-3.06-1.17-.87-.59-1.54-1.33-2.02-2.21-.48-.88-.72-1.85-.72-2.91 0-1.3.35-2.46 1.05-3.48.7-1.02 1.7-1.82 2.99-2.4 1.29-.58 2.81-.87 4.46-.87s3.14.27 4.46.81c1.32.54 2.37 1.31 3.15 2.31.78 1 1.22 2.17 1.32 3.51h-5.03c-.08-.56-.3-1.04-.65-1.45-.35-.4-.81-.72-1.37-.95-.56-.22-1.16-.34-1.87-.34-.71 0-1.34.11-1.89.33-.55.22-.97.53-1.27.93-.3.4-.45.86-.45 1.37 0 .39.1.72.28 1.01.18.29.46.53.82.71.36.19.82.33 1.38.43l4.82.83Zm19.45-9.51c2.16 0 4.08.49 5.76 1.46l-.02-.01c1.69.98 3 2.33 3.93 4.06.93 1.73 1.4 3.71 1.4 5.94v1.22h-17.29c.1 1.01.35 1.94.78 2.77.54 1.05 1.28 1.87 2.23 2.45.95.59 2.02.88 3.22.88 1.06 0 2-.21 2.85-.62.85-.41 1.54-.99 2.1-1.73h5.5c-.52 1.36-1.27 2.52-2.25 3.49-.98.97-2.17 1.72-3.57 2.25-1.39.53-2.94.79-4.64.79-2.15 0-4.09-.49-5.81-1.48-1.72-.99-3.08-2.36-4.07-4.11-.99-1.76-1.49-3.78-1.49-5.93s.5-4.1 1.5-5.84c1-1.74 2.37-3.11 4.1-4.1 1.74-.99 3.61-1.49 5.77-1.49Zm-6.118 9.29h12.018c-.12-.67-.31-1.3-.59-1.89-.5-1.06-1.21-1.89-2.13-2.49-.92-.6-1.98-.9-3.18-.9-1.2 0-2.27.29-3.22.87-.95.58-1.69 1.38-2.23 2.4-.329.6171-.538 1.2937-.668 2.01Zm45.258 6.43 7.94-23.23998h5.71l-10.98 29.95998h-5.67l-11.04-29.95998h5.67l8.37 23.23998Zm22.95-15.71c1.79 0 3.34.31 4.67.94l.01.01c1.32.63 2.36 1.54 3.09 2.74.73 1.2 1.1 2.61 1.1 4.22v14.53h-4.99v-3.13c-.59 1.11-1.38 1.98-2.39 2.6-1.14.69-2.5 1.04-4.08 1.04-1.41 0-2.68-.27-3.79-.81-1.11-.54-1.99-1.3-2.62-2.26-.63-.96-.95-2.06-.95-3.26 0-1.2.31-2.3.92-3.3.62-1 1.47-1.82 2.55-2.47 1.08-.65 2.31-1.05 3.68-1.19l5.42-.62c.38-.04.69-.2.92-.49.15-.18.24-.43.3-.72v-.44c0-.67-.16-1.25-.47-1.74-.32-.49-.77-.87-1.35-1.13-.59-.27-1.29-.4-2.08-.4s-1.48.12-2.08.36c-.6.24-1.07.56-1.42.97-.35.41-.56.87-.63 1.38h-4.99c.15-1.3.63-2.47 1.42-3.5.79-1.03 1.86-1.85 3.19-2.44 1.33-.59 2.78-.89 4.57-.89Zm3.23 16.75c.4-.73.6-1.56.6-2.52v-2.07l-5.42.63c-.63.08-1.19.26-1.67.56-.48.3-.86.68-1.13 1.14-.27.46-.41.97-.41 1.55 0 .58.16 1.1.47 1.56.32.46.76.81 1.33 1.05.57.24 1.23.36 1.97.36.96 0 1.81-.2 2.55-.59.74-.39 1.31-.95 1.71-1.67Zm24.03-.8c.42-.81.62-1.74.62-2.77v-12.69h5.05v21.92h-4.9v-3.23c-.63 1.06-1.44 1.93-2.45 2.56-1.25.79-2.72 1.18-4.4 1.18-1.57 0-2.95-.35-4.13-1.03-1.18-.68-2.11-1.68-2.76-2.97-.65-1.29-.98-2.84-.98-4.64v-13.78h5.03v13.01c0 1.06.18 1.96.54 2.7.36.74.86 1.31 1.53 1.7.67.39 1.47.59 2.41.59.99 0 1.88-.22 2.65-.67.77-.45 1.37-1.07 1.79-1.88Zm15.65 6.48h-5.05V9.01172h5.05V38.9717Zm17.56-21.92h.01l-.01-.01v.01Zm0 0h-5.81v-5.35h-4.71v3.55c0 .53-.17.96-.49 1.29-.33.33-.76.5-1.31.5h-2.4l-.02 4.39h3.85l.02 11.71c0 1.11.26 2.11.78 3 .52.88 1.25 1.58 2.18 2.08.93.5 1.99.75 3.16.75h4.73v-4.39h-3.72c-.6 0-1.1-.2-1.49-.59-.39-.39-.59-.89-.59-1.49l-.02-11.07h5.82l.02-4.38ZM74.2307 59.5174c.869 0 1.6581.2397 2.3573.6992.6992.4695 1.2485 1.1087 1.6481 1.9178.3995.8091.5993 1.728.5993 2.7468 0 1.0189-.1998 1.9378-.5993 2.7469-.3996.8191-.9489 1.4583-1.6481 1.9178-.6992.4695-1.4883.6992-2.3673.6992-.8191 0-1.5382-.1798-2.1475-.5394-.4795-.2697-.8391-.6692-1.1487-1.1287v1.4284h-2.9167v-14.004h2.9267v5.1841c.3096-.4495.6692-.849 1.1486-1.1287.6093-.3596 1.3285-.5394 2.1476-.5394Zm.4495 7.7811c.3695-.2298.6592-.5594.869-.9789.2097-.4195.3096-.889.3096-1.4384 0-.5493-.0999-1.0288-.3096-1.4483-.2098-.4195-.4995-.7491-.869-.9789-.3696-.2297-.7891-.3496-1.2786-.3496-.4894 0-.9189.1199-1.2885.3496-.3696.2298-.6592.5594-.869.9789s-.3096.889-.3096 1.4384c0 .5493.0998 1.0288.3096 1.4483s.4994.7491.869.9789c.3696.2297.8091.3496 1.2885.3496.4795 0 .909-.1199 1.2786-.3496Zm7.1518-7.5414 2.3573 6.3627h.0099l2.1676-6.3627h2.9366l-4.2551 10.8676c-.2997.7791-.7392 1.3983-1.3085 1.8678-.5694.4695-1.2686.6992-2.0876.6992h-1.8279v-2.587h1.6381c.2297 0 .4195-.05.5693-.1499.1499-.0998.2797-.2497.3896-.4594l.2996-.6093-3.9055-9.629h3.0166Zm16.521 6.4326c.1698-.3096.2497-.6592.2497-1.0488v-9.1395h3.0963v9.3593c0 .879-.2 1.6681-.609 2.3773-.41.7092-.969 1.2585-1.6782 1.6581-.7092.3995-1.5183.5993-2.4072.5993h-2.3673v-2.8468h1.9577c.3996 0 .7492-.0799 1.0488-.2497.3097-.1698.5394-.3995.7092-.7092Zm15.243-1.8978h-6.493v3.0166h7.372v2.6969h-10.389v-14.004h10.189v2.7069h-7.172v2.9666h6.493v2.617Zm6.152-5.5137h-4.155v-2.7768h11.377v2.7768h-4.125v11.2172h-3.097V58.7782Zm17.181 3.8956c.289.0799.559.1798.809.3096h.01c.569.3097 1.019.7292 1.338 1.2786.32.5493.48 1.1686.48 1.8578 0 .7492-.2 1.4184-.61 2.0077-.409.5893-.978 1.0488-1.718 1.3784-.739.3297-1.578.4995-2.517.4995h-6.342v-14.004h6.222c.889 0 1.689.1598 2.388.4695.699.3096 1.238.7491 1.628 1.3085.389.5593.579 1.1986.579 1.9078 0 .6193-.15 1.1687-.439 1.6481-.29.4795-.7.859-1.209 1.1187-.179.0944-.385.1531-.584.2098l-.035.01Zm-2.797-4.3251h-2.747v3.4461h2.747c.38 0 .719-.0799 1.009-.2198.299-.1398.519-.3396.689-.6093.17-.2697.25-.5893.25-.9289 0-.3396-.09-.6393-.25-.889-.17-.2597-.4-.4495-.689-.5893-.29-.1398-.629-.2098-1.009-.2098Zm1.239 9.0896c.319-.1498.569-.3496.749-.6193v.02c.179-.2697.269-.5694.269-.9289 0-.3596-.09-.6793-.269-.9589-.18-.2797-.44-.4995-.759-.6493-.33-.1498-.7-.2297-1.109-.2297h-2.867v3.5859h2.867c.419 0 .799-.07 1.119-.2198Zm16.541-4.6646c-.43.6692-1.029 1.1986-1.808 1.5682h-.01c-.14.0699-.3.1298-.46.1897l3.197 5.4738h-3.536l-2.837-5.1042h-2.018v5.1042h-3.096v-14.004h6.133c1.009 0 1.898.1798 2.667.5494.769.3696 1.358.889 1.778 1.5582.419.6692.629 1.4284.629 2.3173 0 .889-.21 1.6781-.639 2.3474Zm-3.556-.6093c.319-.1599.569-.3896.739-.6793v.01c.17-.2896.26-.6293.26-1.0288 0-.3995-.09-.7392-.26-1.0288-.17-.2897-.42-.5094-.739-.6693-.32-.1498-.7-.2297-1.129-.2297h-2.787v3.8656h2.787c.429 0 .809-.0799 1.129-.2397Zm5.493 7.841 5.005-14.004h3.366l5.104 14.004h-3.087l-1.058-3.0865h-5.194l-.989 3.0865h-3.147Zm6.453-10.3781-1.608 4.9443h3.706l-1.718-4.9443-.19-.899-.19.899Zm11.427 10.3781h-3.196v-14.004h3.196v14.004Zm5.434-14.004 6.013 9.4692h.01v-9.4692h2.826v14.004h-3.046l-5.993-9.4692v9.4692h-2.827v-14.004h3.017Zm19.627 6.4326c.549.3996.979.889 1.279 1.4684v-.02c.309.5893.459 1.2286.459 1.9178 0 .849-.23 1.6081-.679 2.2774-.45.6692-1.079 1.1986-1.878 1.5782-.809.3795-1.738.5693-2.767.5693s-1.948-.1898-2.747-.5593c-.799-.3696-1.428-.899-1.887-1.5583-.46-.6592-.7-1.4383-.71-2.3073h3.097c0 .3596.1.6792.289.9589.19.2797.46.4894.81.6393.349.1498.749.2297 1.178.2297.43 0 .799-.0699 1.119-.1998.32-.1298.559-.3196.739-.5693.18-.2497.27-.5294.27-.8391 0-.3895-.12-.7092-.36-.9689-.24-.2597-.569-.4395-.979-.5393l-2.517-.5194c-.659-.1399-1.238-.3896-1.738-.7492-.499-.3596-.889-.819-1.158-1.3584-.27-.5494-.41-1.1587-.41-1.8279 0-.8391.22-1.5782.639-2.2275.43-.6492 1.019-1.1586 1.778-1.5282.759-.3696 1.618-.5494 2.597-.5494.979 0 1.858.1798 2.617.5294.759.3496 1.359.839 1.788 1.4683.43.6193.659 1.3485.679 2.1575h-3.096c0-.2996-.09-.5693-.25-.809-.17-.2398-.399-.4195-.689-.5494-.29-.1398-.639-.1998-1.019-.1998-.379 0-.719.07-1.009.1898-.289.1199-.519.2997-.679.5194-.16.2298-.24.4895-.24.7891 0 .3396.11.6093.33.8391.22.2297.519.3795.889.4694l2.377.4895c.709.1298 1.329.3995 1.878.789Z"
          clip-rule="evenodd"/>
    <path fill="url(#argxs_license_vault_dark_attr_1)" d="M47.9838 0H.007812v18.808H47.9838V0Z"/>
    <path fill="url(#argxs_license_vault_dark_attr_2)" d="M.007813 23 24.0078 48l23.976-25V0l-23.976 27.088L.007813 0v23Z"/>
    <path fill="url(#argxs_license_vault_dark_attr_3)" d="M0 48h48V0H0v48Z"/>
    <path fill="#000" d="M0 48V0l24 18v30H0Z"/>
    <path fill="#fff" d="M5 43h14v-3H5v3Z"/>
</svg>