<svg id="argxs" xmlns="http://www.w3.org/2000/svg" width="226" height="79" fill="none" viewBox="0 0 226 79">
    <defs>
        <radialGradient id="argxs_fleet_dark_attr_1" cx="0" cy="0" r="1" gradientTransform="rotate(49.385 -18.029987 36.649084) scale(49.4299)" gradientUnits="userSpaceOnUse">
            <stop offset=".026042" stop-color="#8DFDFD"/>
            <stop offset=".270833" stop-color="#87FBFB"/>
            <stop offset=".484416" stop-color="#74D6F4"/>
            <stop offset=".931964" stop-color="#0038FF"/>
        </radialGradient>
        <radialGradient id="argxs_fleet_dark_attr_2" cx="0" cy="0" r="1" gradientTransform="rotate(132.274 3.919184 20.864728) scale(23.7857)" gradientUnits="userSpaceOnUse">
            <stop offset="0" stop-color="#0500FF" stop-opacity="0"/>
            <stop offset="1" stop-color="#0100FF" stop-opacity=".15"/>
        </radialGradient>
        <radialGradient id="argxs_fleet_dark_attr_3" cx="0" cy="0" r="1" gradientTransform="rotate(42.678 -19.143042 44.644478) scale(41.8951)" gradientUnits="userSpaceOnUse">
            <stop offset=".520394" stop-color="#FF00E5" stop-opacity="0"/>
            <stop offset="1" stop-color="#FF00E5" stop-opacity=".65"/>
        </radialGradient>
        <radialGradient id="argxs_fleet_dark_attr_5" cx="0" cy="0" r="1" gradientTransform="matrix(30.00005 -22.00001 19.46596 26.54453 32.3943 42.4)" gradientUnits="userSpaceOnUse">
            <stop offset=".777466" stop-color="#001AFF"/>
            <stop offset="1" stop-color="#8ACEFF"/>
        </radialGradient>
        <radialGradient id="argxs_fleet_dark_attr_6" cx="0" cy="0" r="1" gradientTransform="matrix(14.91531 -8.80077 11.61873 19.69112 44.057 27.7156)" gradientUnits="userSpaceOnUse">
            <stop offset=".71875" stop-color="#FA00FF" stop-opacity="0"/>
            <stop offset="1" stop-color="#FF00D6" stop-opacity=".44"/>
        </radialGradient>
        <radialGradient id="argxs_fleet_dark_attr_8" cx="0" cy="0" r="1" gradientTransform="rotate(63.435 -9.856848 34.706598) scale(30.4105 69.8305)" gradientUnits="userSpaceOnUse">
            <stop offset="0" stop-color="#0D67A9"/>
            <stop offset="1" stop-color="#AEDDFF"/>
        </radialGradient>
        <radialGradient id="argxs_fleet_dark_attr_10" cx="0" cy="0" r="1" gradientTransform="rotate(73.835 -3.838438 33.695644) scale(28.736 56.1739)" gradientUnits="userSpaceOnUse">
            <stop offset="0" stop-color="#0068C9"/>
            <stop offset="1" stop-color="#fff"/>
        </radialGradient>
        <filter id="argxs_fleet_dark_attr_7" width="48.3066" height="34.5039" x="8.25781" y="24.2656" color-interpolation-filters="sRGB" filterUnits="userSpaceOnUse">
            <feFlood flood-opacity="0" result="BackgroundImageFix"/>
            <feBlend in="SourceGraphic" in2="BackgroundImageFix" result="shape"/>
            <feGaussianBlur result="effect1_foregroundBlur_7245_10456" stdDeviation="1"/>
        </filter>
        <filter id="argxs_fleet_dark_attr_9" width="45.7066" height="31.9039" x="9.55781" y="25.5656" color-interpolation-filters="sRGB" filterUnits="userSpaceOnUse">
            <feFlood flood-opacity="0" result="BackgroundImageFix"/>
            <feBlend in="SourceGraphic" in2="BackgroundImageFix" result="shape"/>
            <feGaussianBlur result="effect1_foregroundBlur_7245_10456" stdDeviation=".35"/>
        </filter>
        <linearGradient id="argxs_fleet_dark_attr_4" x1="63.9941" x2="37.1941" y1="33.6" y2="34.4" gradientUnits="userSpaceOnUse">
            <stop offset="0" stop-color="#FD3AF5"/>
            <stop offset="1" stop-color="#FD3AF5" stop-opacity="0"/>
        </linearGradient>
    </defs>
    <path fill="#fff" fill-rule="evenodd"
          d="M89.3241 46.96h-5.33V17h20.0099v4.84H89.3241v8.3h13.8299v4.84H89.3241v11.98Zm22.9699 0h-5.05V17h5.05v29.96Zm15.06-22.44c2.16 0 4.08.49 5.76 1.46l-.02-.01c1.69.98 3 2.33 3.93 4.06.93 1.73 1.4 3.71 1.4 5.94v1.22h-17.29c.1 1.01.35 1.94.78 2.77.54 1.05 1.28 1.87 2.23 2.45.95.59 2.02.88 3.22.88 1.06 0 2.01-.21 2.85-.62.84-.41 1.54-.99 2.1-1.73h5.5c-.52 1.36-1.27 2.52-2.25 3.49-.98.97-2.17 1.72-3.57 2.25-1.39.53-2.94.79-4.64.79-2.15 0-4.09-.5-5.81-1.48-1.72-.99-3.08-2.36-4.07-4.11-.99-1.76-1.49-3.78-1.49-5.93s.5-4.1 1.5-5.84c1-1.74 2.37-3.11 4.1-4.1 1.74-.99 3.61-1.49 5.77-1.49Zm-6.108 9.29h12.018c-.12-.67-.31-1.3-.59-1.89-.5-1.06-1.21-1.89-2.13-2.49-.92-.6-1.98-.9-3.18-.9-1.2 0-2.27.29-3.22.87-.95.58-1.69 1.38-2.23 2.4-.328.6171-.538 1.2937-.668 2.01Zm30.988-9.29c2.16 0 4.08.49 5.76 1.46l-.02-.01c1.69.98 3 2.33 3.93 4.06.93 1.73 1.4 3.71 1.4 5.94v1.22h-17.29c.1 1.01.35 1.94.78 2.77.54 1.05 1.28 1.87 2.23 2.45.95.59 2.02.88 3.22.88 1.06 0 2.01-.21 2.85-.62.85-.41 1.54-.99 2.1-1.73h5.5c-.52 1.36-1.27 2.52-2.25 3.49-.98.97-2.17 1.72-3.57 2.25-1.39.53-2.94.79-4.64.79-2.15 0-4.09-.5-5.81-1.48-1.72-.99-3.08-2.36-4.07-4.11-.99-1.76-1.49-3.78-1.49-5.93s.5-4.1 1.5-5.84c1-1.74 2.36-3.11 4.1-4.1 1.74-.99 3.61-1.49 5.77-1.49Zm-6.108 9.29h12.018c-.12-.67-.31-1.3-.59-1.89-.5-1.06-1.21-1.89-2.13-2.49-.92-.6-1.98-.9-3.18-.9-1.2 0-2.27.29-3.22.87-.95.58-1.69 1.38-2.23 2.4-.328.6171-.538 1.2937-.668 2.01Zm27.188-8.77h5.81l-.02 4.39h-5.82l.02 11.06c0 .6.2 1.1.59 1.49.39.39.89.59 1.49.59h3.72v4.39h-4.73c-1.17 0-2.23-.25-3.16-.75-.93-.5-1.66-1.2-2.18-2.08-.52-.89-.78-1.89-.78-3l-.02-11.71h-3.85l.02-4.39h2.4c.55 0 .98-.16 1.31-.5.32-.33.49-.76.49-1.29v-3.55h4.71v5.35ZM87.7041 74.19c.17-.31.25-.66.25-1.05h.01v-9.15h3.1v9.37c0 .88-.2 1.67-.61 2.38s-.97 1.26-1.68 1.66c-.71.4-1.52.6-2.41.6h-2.37v-2.85h1.95c.4 0 .75-.08 1.05-.25.31-.17.54-.4.71-.71Zm15.2599-1.9h-6.4999v3.02h7.3799v2.7H93.4441V63.99h10.1999v2.71h-7.1799v2.97h6.4999v2.62Zm6.16-5.52h-4.16v-2.78h11.39v2.78h-4.13V78h-3.1V66.77Zm17.2 3.9c.29.08.56.18.81.31h.01c.57.31 1.02.73 1.34 1.28.32.55.48 1.17.48 1.86 0 .75-.2 1.42-.61 2.01-.41.59-.98 1.05-1.72 1.38-.74.33-1.58.5-2.52.5h-6.35V63.99h6.23c.89 0 1.69.16 2.39.47.7.31 1.24.75 1.63 1.31.39.56.58 1.2.58 1.91 0 .62-.15 1.17-.44 1.65-.29.48-.7.86-1.21 1.12-.179.0945-.386.1532-.585.21l-.035.01Zm-2.8-4.33h-2.75v3.45h2.75c.38 0 .72-.08 1.01-.22.3-.14.52-.34.69-.61.17-.27.25-.59.25-.93 0-.34-.09-.64-.25-.89-.17-.26-.4-.45-.69-.59-.29-.14-.63-.21-1.01-.21Zm1.24 9.1c.32-.15.57-.35.75-.62v.02c.18-.27.27-.57.27-.93 0-.36-.09-.68-.27-.96-.18-.28-.44-.5-.76-.65-.33-.15-.7-.23-1.11-.23h-2.87v3.59h2.87c.42 0 .8-.07 1.12-.22Zm16.56-4.67c-.43.67-1.03 1.2-1.81 1.57h-.01c-.14.07-.3.13-.46.19l3.2 5.48h-3.54l-2.84-5.11h-2.02v5.11h-3.1V63.99h6.14c1.01 0 1.9.18 2.67.55.77.37 1.36.89 1.78 1.56.42.67.63 1.43.63 2.32 0 .89-.21 1.68-.64 2.35Zm-3.56-.61c.32-.16.57-.39.74-.68v.01c.17-.29.26-.63.26-1.03s-.09-.74-.26-1.03c-.17-.29-.42-.51-.74-.67-.32-.15-.7-.23-1.13-.23h-2.79v3.87h2.79c.43 0 .81-.08 1.13-.24Zm5.51 7.85 5.01-14.02h3.36l5.12 14.02h-3.09l-1.06-3.09h-5.2l-.99 3.09h-3.15Zm6.46-10.39-1.61 4.95h3.71l-1.72-4.95-.19-.9-.19.9Zm11.43 10.39h-3.2V63.99h3.2v14.02Zm5.44-14.02 6.02 9.48h.01v-9.48h2.83v14.02h-3.05l-6-9.48v9.48h-2.83V63.99h3.02Zm17.78 5.66c.71.13 1.33.4 1.88.79v-.02c.55.4.97.88 1.28 1.47.31.59.46 1.23.46 1.92 0 .85-.23 1.61-.68 2.28-.45.67-1.08 1.2-1.88 1.58-.81.38-1.74.57-2.77.57s-1.95-.19-2.75-.56c-.8-.37-1.43-.9-1.89-1.56-.46-.66-.7-1.44-.71-2.31h3.1c0 .36.1.68.29.96.19.28.46.49.81.64.35.15.75.23 1.18.23.43 0 .8-.07 1.12-.2.32-.13.56-.32.74-.57.18-.25.27-.53.27-.84 0-.39-.12-.71-.36-.97s-.57-.44-.98-.54l-2.52-.52c-.66-.14-1.24-.39-1.74-.75s-.89-.82-1.16-1.36c-.27-.55-.41-1.16-.41-1.83 0-.84.22-1.58.64-2.23.43-.65 1.02-1.16 1.78-1.53.76-.37 1.62-.55 2.6-.55s1.86.18 2.62.53c.76.35 1.36.84 1.79 1.47.43.62.66 1.35.68 2.16h-3.1c0-.3-.09-.57-.25-.81-.17-.24-.4-.42-.69-.55-.29-.14-.64-.2-1.02-.2s-.72.07-1.01.19c-.29.12-.52.3-.68.52-.16.23-.24.49-.24.79 0 .34.11.61.33.84.22.23.52.38.89.47l2.38.49Zm14.38 8.36h-3.2V63.99h3.2v14.02Zm7.88-14.02c1.33 0 2.53.31 3.59.91 1.06.61 1.9 1.44 2.5 2.51.61 1.06.91 2.27.91 3.59 0 1.32-.31 2.52-.91 3.59-.6 1.07-1.43 1.9-2.5 2.51-1.07.61-2.26.91-3.59.91h-5.47V63.99h5.47Zm2.01 10.86c.58-.35 1.03-.85 1.34-1.5v-.01c.31-.65.47-1.44.47-2.35 0-.91-.16-1.7-.47-2.35-.31-.65-.76-1.15-1.34-1.5-.58-.35-1.26-.52-2.05-.52h-2.32v8.75h2.32c.79 0 1.47-.17 2.05-.52Zm9.8-2.56v3.02h7.38v2.7h-10.4V63.99h10.2v2.71h-7.18v2.97h6.5v2.62h-6.5Z"
          clip-rule="evenodd"/>
    <path fill="url(#argxs_fleet_dark_attr_1)"
          d="M63.9941 32c0 17.6731-14.3268 32-32 32C14.3211 64-.00586 49.6731-.00586 32c0-17.6731 14.32696-32 31.99996-32 8.306 3.75956 16.9952 17.7487 20.6338 22.1202 3.6389 4.3715 13.0573 9.8798 8.4414-1.6751 1.9681 3.1232 2.9248 8.3051 2.9248 11.5549Z"/>
    <path fill="url(#argxs_fleet_dark_attr_2)"
          d="M63.9941 32c0 17.6731-14.3268 32-32 32C14.3211 64-.00586 49.6731-.00586 32c0-17.6731 14.32696-32 31.99996-32 8.306 3.75956 16.9952 17.7487 20.6338 22.1202 3.6389 4.3715 13.0573 9.8798 8.4414-1.6751 1.9681 3.1232 2.9248 8.3051 2.9248 11.5549Z"/>
    <path fill="url(#argxs_fleet_dark_attr_3)"
          d="M63.9941 32c0 17.6731-14.3268 32-32 32C14.3211 64-.00586 49.6731-.00586 32c0-17.6731 14.32696-32 31.99996-32 8.306 3.75956 16.9952 17.7487 20.6338 22.1202 3.6389 4.3715 13.0573 9.8798 8.4414-1.6751 1.9681 3.1232 2.9248 8.3051 2.9248 11.5549Z"/>
    <path fill="url(#argxs_fleet_dark_attr_4)" fill-opacity=".3"
          d="M63.9941 32c0 17.6731-14.3268 32-32 32C14.3211 64-.00586 49.6731-.00586 32c0-17.6731 14.32696-32 31.99996-32 8.306 3.75956 16.9952 17.7487 20.6338 22.1202 3.6389 4.3715 13.0573 9.8798 8.4414-1.6751 1.9681 3.1232 2.9248 8.3051 2.9248 11.5549Z"/>
    <path fill="url(#argxs_fleet_dark_attr_5)"
          d="M61.0886 20.4758c-3.1529-5.3391-9.686-9.2821-17.5378-10.2688 2.2608 2.7375 4.3175 5.5453 6.0172 7.8664 1.2242 1.6711 2.2633 3.0899 3.0601 4.0469 3.6389 4.3711 13.0573 9.8797 8.4414-1.675.0063.0102.0127.0203.0191.0305Z"/>
    <path fill="url(#argxs_fleet_dark_attr_6)"
          d="M61.0886 20.4758c-3.1529-5.3391-9.686-9.2821-17.5378-10.2688 2.2608 2.7375 4.3175 5.5453 6.0172 7.8664 1.2242 1.6711 2.2633 3.0899 3.0601 4.0469 3.6389 4.3711 13.0573 9.8797 8.4414-1.675.0063.0102.0127.0203.0191.0305Z"/>
    <g filter="url(#argxs_fleet_dark_attr_7)">
        <path fill="url(#argxs_fleet_dark_attr_8)"
              d="M29.3127 27.0066c12.113-2.5862 23.3196 1.8139 25.0306 9.8279 1.711 8.014-6.7214 16.6071-18.8343 19.1933C23.396 58.614 12.1894 54.214 10.4783 46.2c-1.711-8.014 6.7215-16.6072 18.8344-19.1934Z"/>
    </g>
    <g filter="url(#argxs_fleet_dark_attr_9)">
        <path fill="url(#argxs_fleet_dark_attr_10)" fill-opacity=".2" fill-rule="evenodd" clip-rule="evenodd"
              d="M48.9867 47.3643c3.1734-3.2337 4.5278-6.8744 3.8174-10.2012-.7102-3.3268-3.4332-6.0967-7.6507-7.7527-4.2039-1.6506-9.7148-2.1025-15.5122-.8645-5.7973 1.2377-10.6433 3.9007-13.8065 7.1243-3.1734 3.2339-4.5276 6.8744-3.8173 10.2012.7103 3.3267 3.4332 6.0968 7.6506 7.7527 4.2039 1.6506 9.7148 2.1024 15.5122.8647 5.7974-1.2377 10.6433-3.9009 13.8065-7.1245Zm-13.4778 8.6636c12.1128-2.5862 20.5452-11.1793 18.8343-19.1933-1.7112-8.0141-12.9177-12.4142-25.0305-9.828-12.1131 2.5862-20.54545 11.1795-18.8344 19.1935 1.711 8.0138 12.9176 12.414 25.0306 9.8278Z"/>
    </g>
</svg>