<?xml version="1.0" encoding="UTF-8"?><svg xmlns="http://www.w3.org/2000/svg" width="2654.93" height="1542" viewBox="0 0 2654.93 1542"><g id="Logo_Trace" isolation="isolate"><g id="LOGO"><g id="TEXT"><polygon id="S" points="1475.97 807 1350.97 1039 1467.97 1039 1391.97 1181 1979.97 1181 1888.97 1352 1642.97 1352 1713.97 1221 1370.97 1221 1247.97 1452 2081.97 1452 2278.97 1081 1691.97 1081 1713.97 1039 2300.97 1039 2424.97 807 1475.97 807" fill="#fdfffa" stroke-width="0"/><polygon id="U" points="459.97 807 116.97 1452 1180.97 1452 1305.97 1221 1138.97 1221 1359.97 807 971.97 807 751.97 1221 533.97 1221 754.97 807 459.97 807" fill="#fdfffa" stroke-width="0"/><polygon id="E" points="1581.97 90 1457.97 321 1573.97 321 1353.97 735 2193.97 735 2317.97 504 1722.97 504 1743.97 464 1928.97 464 1982.97 364 1797.97 364 1820.97 321 2414.97 321 2537.97 90 1581.97 90" fill="#fdfffa" stroke-width="0"/><polygon id="Z" points="675.97 90 551.97 321 1145.97 321 1122.97 364 529.97 364 332.97 735 1171.97 735 1294.97 504 1047.97 504 978.97 635 760.97 635 851.97 464 1315.97 464 1514.97 90 675.97 90" fill="#fdfffa" stroke-width="0"/></g></g></g></svg>