<svg xmlns="http://www.w3.org/2000/svg" width="267" height="82" fill="none" viewBox="0 0 267 82">
    <defs>
        <linearGradient id="a" x1="56.3294" x2="2.87438" y1="-.391251" y2="24.3925" gradientUnits="userSpaceOnUse">
            <stop offset=".18" stop-color="#6B57FF"/>
            <stop offset=".54" stop-color="#FF45ED"/>
        </linearGradient>
        <linearGradient id="b" x1="4.0675" x2="62.6638" y1="4.3225" y2="62.9188" gradientUnits="userSpaceOnUse">
            <stop offset=".12" stop-color="#FF45ED"/>
            <stop offset=".92" stop-color="#FC801D"/>
        </linearGradient>
    </defs>
    <path fill="#fff" fill-rule="evenodd"
          d="M97.91 25.74c1.1.64 2 1.52 2.71 2.59v-11.3h5.05v29.96h-5.05v-3.28c-.71 1.07-1.61 1.94-2.71 2.59-1.36.8-2.95 1.2-4.76 1.2-1.94 0-3.68-.49-5.22-1.47-1.54-.98-2.75-2.34-3.62-4.09-.87-1.75-1.31-3.72-1.31-5.92 0-2.2.44-4.17 1.31-5.92.87-1.75 2.08-3.11 3.61-4.09 1.53-.98 3.27-1.47 5.23-1.47 1.81 0 3.4.4 4.76 1.2Zm-.29 16.36c.95-.59 1.68-1.41 2.21-2.46s.79-2.26.79-3.63-.26-2.58-.79-3.63c-.53-1.05-1.27-1.87-2.21-2.46-.94-.59-2.05-.89-3.25-.89-1.2 0-2.27.3-3.21.89-.94.59-1.67 1.41-2.19 2.46s-.78 2.26-.78 3.63.26 2.58.78 3.64 1.25 1.88 2.19 2.46c.94.59 1.99.88 3.21.88s2.31-.3 3.25-.89Zm23.26-17.57c2.15 0 4.11.5 5.86 1.5s3.13 2.37 4.14 4.12c1.01 1.74 1.51 3.7 1.51 5.85 0 2.15-.5 4.1-1.51 5.85s-2.38 3.12-4.14 4.12c-1.76 1-3.74 1.5-5.89 1.5-2.15 0-4.11-.5-5.86-1.5s-3.13-2.37-4.14-4.12c-1.01-1.74-1.51-3.7-1.51-5.85 0-2.15.5-4.1 1.5-5.85s2.38-3.12 4.14-4.12c1.77-1 3.75-1.5 5.9-1.5Zm3.26 17.55c.95-.58 1.69-1.4 2.21-2.46s.78-2.25.78-3.62-.26-2.58-.79-3.63c-.52-1.05-1.26-1.87-2.21-2.46-.95-.59-2.04-.89-3.26-.89-1.22 0-2.31.3-3.26.88-.95.58-1.68 1.4-2.2 2.46-.52 1.06-.78 2.28-.78 3.64 0 1.36.26 2.56.78 3.62.52 1.05 1.25 1.88 2.2 2.46.94.59 2.04.88 3.26.88 1.22 0 2.32-.3 3.27-.88Zm13.38-22.38h4.7v5.35h5.82l-.02 4.39h-5.82l.02 11.06c0 .6.2 1.1.59 1.49.4.39.89.59 1.49.59h3.72v4.39h-4.73c-1.17 0-2.23-.25-3.16-.75-.93-.5-1.66-1.2-2.18-2.08-.52-.89-.78-1.89-.78-3l-.02-11.71h-3.85l.02-4.39h2.4c.55 0 .98-.17 1.31-.5.33-.33.49-.76.49-1.29V19.7Zm28.31 1.63c-1.84 0-3.51.46-5 1.38v-.01c-1.49.92-2.66 2.19-3.5 3.81-.84 1.62-1.26 3.44-1.26 5.47s.42 3.85 1.26 5.47c.84 1.62 2.01 2.89 3.5 3.81 1.49.92 3.16 1.38 5 1.38 1.36 0 2.62-.22 3.78-.68 1.17-.46 2.17-1.11 3-1.97.83-.86 1.46-1.86 1.87-3h5.61c-.49 2.06-1.39 3.88-2.73 5.47-1.34 1.59-3 2.82-5 3.7-2 .88-4.19 1.32-6.57 1.32-2.86 0-5.44-.67-7.74-2.02-2.31-1.34-4.12-3.2-5.44-5.56-1.32-2.36-1.98-5-1.98-7.91s.66-5.55 1.98-7.91c1.32-2.36 3.14-4.21 5.44-5.56 2.31-1.35 4.89-2.02 7.74-2.02 2.38 0 4.57.44 6.57 1.32 2 .87 3.66 2.11 5 3.7 1.34 1.59 2.24 3.42 2.73 5.47h-5.61c-.41-1.15-1.04-2.14-1.87-3-.84-.86-1.84-1.51-3-1.97-1.16-.46-2.42-.69-3.78-.69Zm28.37 3.2c2.15 0 4.11.5 5.86 1.5h-.01c1.75 1 3.13 2.37 4.14 4.12 1.01 1.74 1.51 3.7 1.51 5.85 0 2.15-.5 4.1-1.51 5.85-1 1.75-2.39 3.12-4.14 4.12-1.75 1-3.73 1.5-5.88 1.5s-4.11-.5-5.86-1.5-3.13-2.37-4.14-4.12c-1.01-1.74-1.51-3.7-1.51-5.85 0-2.15.5-4.1 1.5-5.85s2.38-3.12 4.14-4.12c1.77-1 3.75-1.5 5.9-1.5Zm3.26 17.55c.95-.58 1.69-1.4 2.21-2.46s.78-2.25.78-3.62-.26-2.58-.79-3.63c-.52-1.05-1.26-1.87-2.21-2.46-.95-.59-2.04-.89-3.26-.89-1.22 0-2.31.3-3.26.88-.94.58-1.68 1.4-2.2 2.46-.52 1.06-.78 2.28-.78 3.64 0 1.36.26 2.56.78 3.62.52 1.05 1.25 1.88 2.2 2.46.94.59 2.04.88 3.26.88 1.22 0 2.31-.3 3.27-.88Zm13.89-17.03 5.71 15.52h.01l5.5-15.52h5.22l-8.37 21.92h-4.99l-8.45-21.92h5.37Zm28.05-.52c2.16 0 4.08.49 5.76 1.46l-.02-.01c1.69.98 3 2.33 3.93 4.06.93 1.73 1.4 3.71 1.4 5.94v1.22h-17.29c.1 1.01.35 1.94.78 2.77.54 1.05 1.28 1.87 2.23 2.45.95.59 2.02.88 3.22.88 1.06 0 2.01-.21 2.85-.62.84-.41 1.54-.99 2.1-1.73h5.5c-.52 1.36-1.27 2.52-2.25 3.49-.98.97-2.17 1.72-3.57 2.25-1.39.53-2.94.79-4.64.79-2.15 0-4.09-.5-5.81-1.48-1.72-.99-3.08-2.36-4.07-4.11-.99-1.76-1.49-3.78-1.49-5.93s.5-4.1 1.5-5.84c1-1.74 2.37-3.11 4.1-4.1 1.74-.99 3.61-1.49 5.77-1.49Zm-6.118 9.28H245.3c-.12-.67-.31-1.3-.59-1.89-.5-1.06-1.21-1.89-2.13-2.49-.92-.6-1.98-.9-3.18-.9-1.2 0-2.27.29-3.22.87-.95.58-1.69 1.38-2.23 2.4-.328.6171-.538 1.2937-.668 2.01Zm27.988-7.7c1.17-.81 2.54-1.21 4.09-1.21l-.01.01h.81V30h-1.41c-1.12 0-2.11.21-2.94.62-.84.42-1.48 1.01-1.93 1.78-.45.77-.67 1.68-.67 2.74v11.83h-5.05V25.05h5.01v3.32c.57-.93 1.27-1.69 2.1-2.26ZM90.2292 67.5157c.869 0 1.6581.2397 2.3573.6992.6992.4694 1.2486 1.1087 1.6481 1.9178.3996.8091.5993 1.728.5993 2.7468 0 1.0189-.1997 1.9378-.5993 2.7469-.3995.819-.9489 1.4583-1.6481 1.9178-.6992.4694-1.4883.6992-2.3673.6992-.819 0-1.5382-.1798-2.1475-.5394-.4795-.2697-.8391-.6692-1.1487-1.1287v1.4284h-2.9167v-14.004h2.9267v5.1841c.3096-.4495.6692-.8491 1.1487-1.1287.6093-.3596 1.3285-.5394 2.1475-.5394Zm.4495 7.7811c.3696-.2298.6592-.5594.869-.9789s.3096-.889.3096-1.4384c0-.5493-.0998-1.0288-.3096-1.4483s-.4994-.7492-.869-.9789c-.3696-.2297-.7891-.3496-1.2785-.3496-.4895 0-.919.1199-1.2886.3496-.3695.2297-.6592.5594-.869.9789-.2097.4195-.3096.889-.3096 1.4383 0 .5494.0999 1.0289.3096 1.4484.2098.4195.4995.7491.869.9789.3696.2297.8091.3496 1.2886.3496.4794 0 .9089-.1199 1.2785-.3496Zm7.1518-7.5414 2.3575 6.3627h.01l2.167-6.3627h2.937l-4.255 10.8675c-.3.7792-.739 1.3984-1.3087 1.8679-.5693.4695-1.2685.6992-2.0876.6992h-1.8279v-2.587h1.6381c.2298 0 .4195-.05.5694-.1499.1498-.0998.2796-.2497.3895-.4594l.2997-.6093-3.9055-9.629h3.0165Zm16.5215 6.4326c.169-.3096.249-.6592.249-1.0488v-9.1395h3.097v9.3593c0 .879-.2 1.6681-.61 2.3773-.409.7091-.968 1.2585-1.678 1.6581-.709.3995-1.518.5993-2.407.5993h-2.367v-2.8468h1.958c.399 0 .749-.0799 1.048-.2497.31-.1698.54-.3995.71-.7092Zm15.242-1.8978h-6.492v3.0165h7.371v2.697h-10.388v-14.004h10.188v2.7069h-7.171v2.9666h6.492v2.617Zm6.153-5.5137h-4.155v-2.7768h11.377v2.7768h-4.126v11.2172h-3.096V66.7765Zm17.18 3.8956c.29.0799.56.1798.809.3096h.01c.57.3097 1.019.7292 1.339 1.2785.319.5494.479 1.1687.479 1.8579 0 .7492-.199 1.4184-.609 2.0077-.41.5893-.979 1.0488-1.718 1.3784-.739.3297-1.578.4995-2.517.4995h-6.343v-14.004h6.223c.889 0 1.688.1598 2.387.4695.699.3096 1.239.7491 1.628 1.3085.39.5593.58 1.1986.58 1.9078 0 .6193-.15 1.1686-.44 1.6481-.289.4794-.699.859-1.208 1.1187-.18.0943-.386.153-.585.2098l-.035.01Zm-2.796-4.3251h-2.747v3.4461h2.747c.379 0 .719-.0799 1.008-.2198.3-.1398.52-.3396.69-.6093.169-.2697.249-.5893.249-.9289 0-.3396-.09-.6393-.249-.889-.17-.2597-.4-.4495-.69-.5893-.289-.1399-.629-.2098-1.008-.2098Zm1.238 9.0896c.32-.1498.569-.3496.749-.6193v.02c.18-.2697.27-.5694.27-.9289 0-.3596-.09-.6793-.27-.9589-.18-.2797-.439-.4995-.759-.6493-.33-.1498-.699-.2297-1.109-.2297h-2.866v3.5858h2.866c.42 0 .799-.0699 1.119-.2197Zm16.541-4.6647c-.429.6693-1.029 1.1987-1.808 1.5682h-.01c-.14.07-.299.1299-.459.1898l3.196 5.4738h-3.536l-2.837-5.1042h-2.017v5.1042h-3.097v-14.004h6.133c1.009 0 1.898.1798 2.667.5494.769.3696 1.359.889 1.778 1.5582.42.6692.629 1.4284.629 2.3173 0 .889-.209 1.6781-.639 2.3473Zm-3.556-.6093c.32-.1598.57-.3895.739-.6792v.01c.17-.2897.26-.6293.26-1.0288 0-.3995-.09-.7392-.26-1.0288-.169-.2897-.419-.5094-.739-.6693-.319-.1498-.699-.2297-1.128-.2297h-2.787v3.8656h2.787c.429 0 .809-.0799 1.128-.2398Zm5.494 7.8411 5.004-14.004h3.366l5.104 14.004h-3.086l-1.059-3.0865h-5.194l-.989 3.0865h-3.146Zm6.453-10.3781-1.609 4.9443h3.706l-1.718-4.9443-.19-.899-.189.899Zm11.426 10.3781h-3.196v-14.004h3.196v14.004Zm5.434-14.004 6.013 9.4692h.01v-9.4692h2.827v14.004h-3.046l-5.994-9.4692v9.4692h-2.826v-14.004h3.016Zm19.628 6.4326c.549.3996.979.889 1.278 1.4684v-.02c.31.5893.46 1.2286.46 1.9178 0 .849-.23 1.6081-.68 2.2774-.449.6692-1.078 1.1986-1.877 1.5782-.809.3795-1.738.5693-2.767.5693s-1.948-.1898-2.747-.5594c-.799-.3695-1.428-.8989-1.888-1.5582-.459-.6592-.699-1.4383-.709-2.3073h3.096c0 .3596.1.6792.29.9589.19.2797.459.4894.809.6392.35.1499.749.2298 1.179.2298.429 0 .799-.0699 1.118-.1998.32-.1298.56-.3196.74-.5693.179-.2498.269-.5294.269-.8391 0-.3895-.12-.7092-.359-.9689-.24-.2597-.57-.4395-.979-.5393l-2.517-.5194c-.66-.1399-1.239-.3896-1.738-.7492-.5-.3596-.889-.8191-1.159-1.3584-.27-.5494-.409-1.1587-.409-1.8279 0-.8391.219-1.5782.639-2.2275.429-.6492 1.019-1.1587 1.778-1.5282.759-.3696 1.618-.5494 2.597-.5494.979 0 1.858.1798 2.617.5294.759.3496 1.358.839 1.788 1.4683.429.6193.659 1.3485.679 2.1575H211.2c0-.2996-.089-.5693-.249-.809-.17-.2398-.4-.4196-.689-.5494-.29-.1398-.64-.1998-1.019-.1998-.38 0-.719.0699-1.009.1898-.29.1199-.52.2997-.679.5194-.16.2297-.24.4894-.24.7891 0 .3396.11.6093.33.839.219.2298.519.3796.889.4695l2.377.4894c.709.1299 1.328.3996 1.878.7891Z"
          clip-rule="evenodd"/>
    <path fill="#6B57FF"
          d="M58 16.4501V4.19132C58 1.88757 56.1131.03007 53.8094.066946l-11.0431.17625C41.585.261946 40.4688.786321 39.7 1.6832L6.99312 39.8413C6.3525 40.5888 6 41.5413 6 42.5257v11.3494c0 2.2781 1.84687 4.125 4.125 4.125h11.0031c1.1894 0 2.3213-.5138 3.1044-1.4088l32.7469-37.425C57.6375 18.4144 58 17.4494 58 16.4501Z"/>
    <path fill="url(#a)"
          d="M58 14.9875V4.125C58 1.84687 56.1531 0 53.875 0H41.3094c-.2 0-.4.014375-.5981.04375L3.52688 5.49188C1.50125 5.78875 0 7.52625 0 9.57312V24.9706c0 2.2788 1.8475 4.1256 4.12625 4.125l18.50435-.0044c.4256 0 .8488-.0662 1.2538-.1956L55.13 18.9169c1.7094-.5463 2.87-2.135 2.87-3.9294Z"/>
    <path fill="url(#b)"
          d="M64 59.8738V25.7463c0-1.6582-.9931-3.155-2.5206-3.8L24.0581 6.14876c-.5181-.21875-1.0756-.32938-1.6381-.32438l-18.32875.15C1.82625 5.99251 0 7.83376 0 10.0988v17.6656c0 .8056.235625 1.5931.678125 2.2662L21.7869 62.14c.7625 1.1606 2.0581 1.8588 3.4468 1.8588H59.875c2.2781 0 4.125-1.8469 4.125-4.125Z"/>
    <path fill="#000" d="M52 12H12v40h40V12Z"/>
    <path fill="#fff"
          d="M32.6609 28.4556c.6643 1.1825 1.5787 2.1119 2.7437 2.7869V31.24c1.165.6756 2.4656 1.0131 3.9019 1.0131 1.215 0 2.3294-.225 3.3444-.675 1.0143-.45 1.86-1.0806 2.535-1.8919.6756-.8112 1.1275-1.7418 1.3562-2.7924h-3.0656c-.2.5431-.4981 1.0206-.895 1.4312-.3969.4113-.8738.7275-1.4313.9488-.5575.2218-1.165.3324-1.8225.3324-.8862 0-1.6868-.2212-2.4012-.6643-.7144-.4432-1.2738-1.0519-1.6775-1.8275-.4038-.775-.6056-1.6488-.6056-2.6206 0-.9719.2018-1.845.6056-2.6207.4037-.775.9631-1.3843 1.6775-1.8275.715-.4431 1.515-.6644 2.4012-.6644.6575 0 1.265.1113 1.8225.3326.5575.2218 1.0344.5381 1.4313.9487.3969.4112.695.8881.895 1.4313h3.0656c-.2287-1.0507-.6812-1.9813-1.3562-2.7925-.6757-.8113-1.5207-1.4419-2.535-1.8919-1.015-.45-2.1294-.675-3.3444-.675-1.4369 0-2.7375.3381-3.9019 1.0131-1.1644.675-2.0794 1.6044-2.7437 2.7869-.6644 1.1825-.9969 2.5025-.9969 3.9606s.3325 2.7781.9969 3.9606Z"/>
    <path fill="#fff" fill-rule="evenodd"
          d="M16.9902 16.9919h5.7132c1.4218 0 2.6956.3212 3.8212.9643 1.1256.6432 2.0063 1.5344 2.6425 2.6744.6356 1.14.9538 2.4275.9538 3.8644 0 1.4369-.3182 2.7244-.9538 3.8644-.6362 1.14-1.5169 2.0312-2.6425 2.6744-1.1256.6431-2.3994.9643-3.8212.9643h-5.7132V16.9919Zm8.0282 11.8762c.6718-.4 1.19-.9737 1.5543-1.7206.3644-.7469.5469-1.6306.5469-2.6531 0-1.0225-.1825-1.9063-.5469-2.6532-.3643-.7468-.8825-1.32-1.5543-1.7206-.6719-.4-1.4544-.6-2.3475-.6h-2.755v9.9469h2.755c.8931 0 1.6756-.1994 2.3475-.5994Z"
          clip-rule="evenodd"/>
    <path fill="#fff" d="M32.9932 43.9982h-16v3h16v-3Z"/>
</svg>