<svg xmlns="http://www.w3.org/2000/svg" width="226" height="79" fill="none" viewBox="0 0 226 79">
    <defs>
        <linearGradient id="a" x1="3.98138" x2="62.6868" y1="4.22438" y2="62.9293" gradientUnits="userSpaceOnUse">
            <stop offset=".29" stop-color="#009AE5"/>
            <stop offset=".7" stop-color="#00D980"/>
        </linearGradient>
        <linearGradient id="b" x1="56.3788" x2="2.75258" y1="-.71738" y2="24.1455" gradientUnits="userSpaceOnUse">
            <stop offset=".3" stop-color="#FF318C"/>
            <stop offset=".54" stop-color="#009AE5"/>
        </linearGradient>
    </defs>
    <path fill="#000" fill-rule="evenodd"
          d="M98.1941 21.33c-1.84 0-3.51.46-5 1.38v-.01c-1.49.92-2.66 2.19-3.5 3.81-.84 1.62-1.26 3.44-1.26 5.47s.42 3.85 1.26 5.47c.84 1.62 2.01 2.89 3.5 3.81 1.49.92 3.16 1.38 5 1.38 1.36 0 2.6099-.22 3.7799-.68 1.17-.46 2.17-1.11 3-1.97.83-.86 1.46-1.86 1.87-3h5.61c-.49 2.06-1.39 3.88-2.73 5.47-1.34 1.59-3 2.82-5 3.7-2 .88-4.19 1.32-6.5699 1.32-2.86 0-5.44-.67-7.74-2.02-2.31-1.34-4.12-3.2-5.44-5.56-1.32-2.36-1.98-5-1.98-7.91s.66-5.55 1.98-7.91c1.32-2.36 3.14-4.21 5.44-5.56 2.31-1.35 4.89-2.02 7.74-2.02 2.3799 0 4.5699.44 6.5699 1.32 2 .87 3.66 2.11 5 3.7 1.34 1.59 2.25 3.42 2.73 5.47h-5.61c-.41-1.15-1.03-2.14-1.87-3-.84-.86-1.83-1.51-3-1.97-1.17-.46-2.4199-.69-3.7799-.69ZM121.904 17h.01l-.01-.01V17Zm0 0h-5.3v29.96h19.75v-4.82h-14.45V17Zm22.51 29.97h-5.05V25.05h5.05v21.92Zm.35-24.23h-5.76v-5.01h5.76v5.01Zm14.77 1.8c2.15 0 4.11.5 5.86 1.5s3.13 2.37 4.14 4.12c1.01 1.74 1.51 3.7 1.51 5.85 0 2.15-.5 4.1-1.51 5.85s-2.38 3.12-4.14 4.12c-1.76 1-3.74 1.5-5.89 1.5-2.15 0-4.11-.5-5.86-1.5s-3.13-2.37-4.14-4.12c-1.01-1.74-1.51-3.7-1.51-5.85 0-2.15.5-4.1 1.5-5.85s2.38-3.12 4.14-4.12c1.77-1 3.75-1.5 5.9-1.5Zm3.26 17.55c.95-.58 1.69-1.4 2.21-2.46s.78-2.25.78-3.62-.26-2.58-.79-3.63c-.52-1.05-1.26-1.87-2.21-2.46-.95-.59-2.04-.89-3.26-.89-1.22 0-2.31.3-3.26.88-.95.58-1.68 1.4-2.2 2.46-.52 1.06-.78 2.28-.78 3.64 0 1.36.26 2.56.78 3.62.52 1.05 1.25 1.88 2.2 2.46.94.59 2.04.88 3.26.88 1.22 0 2.32-.3 3.27-.88Zm27.78-16.52c1.18.68 2.1 1.67 2.76 2.97l.01.03c.65 1.29.98 2.84.98 4.64v13.78h-5.03V33.98c0-1.06-.18-1.96-.54-2.7-.36-.74-.87-1.31-1.54-1.7-.67-.39-1.47-.59-2.4-.59-1 0-1.88.22-2.65.67-.77.45-1.37 1.07-1.79 1.88-.42.81-.63 1.72-.63 2.75v12.69h-5.05V25.06h4.9v3.21c.63-1.06 1.45-1.92 2.45-2.55 1.25-.79 2.72-1.18 4.4-1.18 1.57 0 2.95.34 4.13 1.03ZM87.7041 74.22c.17-.31.25-.66.25-1.05h.01v-9.15h3.1v9.37c0 .88-.2 1.67-.61 2.38s-.97 1.26-1.68 1.66c-.71.4-1.52.6-2.41.6h-2.37v-2.85h1.95c.4 0 .75-.08 1.05-.25.31-.17.54-.4.71-.71Zm15.2599-1.9h-6.4999v3.02h7.3799v2.7H93.4441V64.02h10.1999v2.71h-7.1799v2.97h6.4999v2.62Zm6.16-5.52h-4.16v-2.78h11.39v2.78h-4.13v11.23h-3.1V66.8Zm17.2 3.9c.29.08.56.18.81.31h.01c.57.31 1.02.73 1.34 1.28.32.55.48 1.17.48 1.86 0 .75-.2 1.42-.61 2.01-.41.59-.98 1.05-1.72 1.38-.74.33-1.58.5-2.52.5h-6.35V64.02h6.23c.89 0 1.69.16 2.39.47.7.31 1.24.75 1.63 1.31.39.56.58 1.2.58 1.91 0 .62-.15 1.17-.44 1.65-.29.48-.7.86-1.21 1.12-.179.0945-.386.1533-.585.2101l-.035.0099Zm-2.8-4.33h-2.75v3.45h2.75c.38 0 .72-.08 1.01-.22.3-.14.52-.34.69-.61.17-.27.25-.59.25-.93 0-.34-.09-.64-.25-.89-.17-.26-.4-.45-.69-.59-.29-.14-.63-.21-1.01-.21Zm1.24 9.1c.32-.15.57-.35.75-.62v.02c.18-.27.27-.57.27-.93 0-.36-.09-.68-.27-.96-.18-.28-.44-.5-.76-.65-.33-.15-.7-.23-1.11-.23h-2.87v3.59h2.87c.42 0 .8-.07 1.12-.22Zm16.56-4.67c-.43.67-1.03 1.2-1.81 1.57h-.01c-.14.07-.3.13-.46.19l3.2 5.48h-3.54l-2.84-5.11h-2.02v5.11h-3.1V64.02h6.14c1.01 0 1.9.18 2.67.55.77.37 1.36.89 1.78 1.56.42.67.63 1.43.63 2.32 0 .89-.21 1.68-.64 2.35Zm-3.56-.61c.32-.16.57-.39.74-.68v.01c.17-.29.26-.63.26-1.03s-.09-.74-.26-1.03c-.17-.29-.42-.51-.74-.67-.32-.15-.7-.23-1.13-.23h-2.79v3.87h2.79c.43 0 .81-.08 1.13-.24Zm5.51 7.85 5.01-14.02h3.36l5.12 14.02h-3.09l-1.06-3.09h-5.2l-.99 3.09h-3.15Zm6.46-10.39-1.61 4.95h3.71l-1.72-4.95-.19-.9-.19.9Zm11.43 10.39h-3.2V64.02h3.2v14.02Zm5.44-14.02 6.02 9.48h.01v-9.48h2.83v14.02h-3.05l-6-9.48v9.48h-2.83V64.02h3.02Zm17.78 5.66c.71.13 1.33.4 1.88.79v-.02c.55.4.97.88 1.28 1.47.31.59.46 1.23.46 1.92 0 .85-.23 1.61-.68 2.28-.45.67-1.08 1.2-1.88 1.58-.81.38-1.74.57-2.77.57s-1.95-.19-2.75-.56c-.8-.37-1.43-.9-1.89-1.56-.46-.66-.7-1.44-.71-2.31h3.1c0 .36.1.68.29.96.19.28.46.49.81.64.35.15.75.23 1.18.23.43 0 .8-.07 1.12-.2.32-.13.56-.32.74-.57.18-.25.27-.53.27-.84 0-.39-.12-.71-.36-.97s-.57-.44-.98-.54l-2.52-.52c-.66-.14-1.24-.39-1.74-.75s-.89-.82-1.16-1.36c-.27-.55-.41-1.16-.41-1.83 0-.84.22-1.58.64-2.23.43-.65 1.02-1.16 1.78-1.53.76-.37 1.62-.55 2.6-.55s1.86.18 2.62.53c.76.35 1.36.84 1.79 1.47.43.62.66 1.35.68 2.16h-3.1c0-.3-.09-.57-.25-.81-.17-.24-.4-.42-.69-.55-.29-.14-.64-.2-1.02-.2s-.72.07-1.01.19c-.29.12-.52.3-.68.52-.16.23-.24.49-.24.79 0 .34.11.61.33.84.22.23.52.38.89.47l2.38.49Zm14.38 8.36h-3.2V64.02h3.2v14.02Zm7.88-14.02c1.33 0 2.53.31 3.59.91 1.06.61 1.9 1.44 2.5 2.51.61 1.06.91 2.27.91 3.59 0 1.32-.31 2.52-.91 3.59-.6 1.07-1.43 1.9-2.5 2.51-1.07.61-2.26.91-3.59.91h-5.47V64.02h5.47Zm2.01 10.86c.58-.35 1.03-.85 1.34-1.5v-.01c.31-.65.47-1.44.47-2.35 0-.91-.16-1.7-.47-2.35-.31-.65-.76-1.15-1.34-1.5-.58-.35-1.26-.52-2.05-.52h-2.32v8.75h2.32c.79 0 1.47-.17 2.05-.52Zm9.8-2.56v3.02h7.38v2.7h-10.4V64.02h10.2v2.71h-7.18v2.97h6.5v2.62h-6.5Z"
          clip-rule="evenodd"/>
    <path fill="url(#a)"
          d="M64 59.9294V25.9611c0-1.6291-.9711-3.1017-2.4681-3.7434L24.0413 6.14962c-.5068-.21702-1.0531-.32931-1.6046-.32931H4.07273C1.82342 5.82031 0 7.64373 0 9.89304V27.859c0 .8047.238545 1.5913.685382 2.261L22.0887 62.1886c.7552 1.1322 2.0265 1.8118 3.3874 1.8118l34.4512.0017c2.2493 0 4.0727-1.8234 4.0727-4.0727Z"/>
    <path fill="url(#b)"
          d="M58.1818 14.5193V4.07273C58.1818 1.82342 56.3584 0 54.1091 0H41.0164c-.1925 0-.3851.013964-.576.040727L3.49673 5.3184C1.49004 5.60465 0 7.32334 0 9.34982V25.0228c0 2.2499 1.824 4.0733 4.07389 4.0728l18.53851-.0047c.4375 0 .8721-.0704 1.2869-.2089l31.4979-10.4995c1.6629-.5544 2.7846-2.1108 2.7846-3.8638v.0006Z"/>
    <path fill="#FF318C"
          d="m58.1814 15.9476-.0017-11.87545C58.1797 1.82342 56.3562 0 54.1069 0H42.6003c-1.1886 0-2.3185.519564-3.0923 1.42196L6.79872 39.5834c-.63243.7383-.98036 1.6786-.98036 2.6508v11.8755c0 2.2493 1.82342 4.0727 4.07273 4.0727H21.3994c1.1887 0 2.3186-.5196 3.0924-1.422L57.201 18.599c.6331-.7383.9804-1.6786.9804-2.6514Z"/>
    <path fill="#000" d="M52 12H12v40h40V12Z"/>
    <path fill="#fff"
          d="M20.0471 31.161c1.1594.668 2.4537 1.0029 3.8828 1.0029v-.0011c1.2086 0 2.3183-.2241 3.328-.6721 1.0097-.448 1.8486-1.0731 2.5172-1.8771.6754-.8108 1.1274-1.7388 1.3548-2.784h-3.0508c-.1995.54-.4977 1.0172-.896 1.4292-.3915.4057-.864.7188-1.4189.9388-.5543.22-1.1588.3309-1.8131.3309-.8817 0-1.6783-.22-2.3892-.6612-.7114-.4411-1.2697-1.0451-1.6748-1.8131-.3983-.7743-.5972-1.6463-.5972-2.6132 0-.9668.1989-1.8348.5972-2.6028.4057-.7749.964-1.3829 1.6748-1.824.7109-.4412 1.5075-.6612 2.3892-.6612.6537 0 1.2583.1109 1.8131.3309.5549.22 1.0274.5371 1.4189.9491.3983.4057.6965.8789.896 1.4189h3.0508c-.228-1.0451-.6794-1.9691-1.3548-2.7731-.6686-.8109-1.5075-1.44-2.5172-1.888-1.0097-.448-2.1194-.672-3.328-.672-1.4297 0-2.724.3371-3.8828 1.0131-1.1595.668-2.0697 1.5931-2.7309 2.7731-.6611 1.1732-.992 2.4852-.992 3.936 0 1.4509.3309 2.7669.992 3.9469.6617 1.1731 1.572 2.0971 2.7309 2.7731Z"/>
    <path fill="#fff" d="M36.1248 29.2833V16.9742h-2.9012v14.9331h9.984v-2.624h-7.0828Z"/>
    <path fill="#fff" d="M16.9941 43.9988h16v3h-16v-3Z"/>
</svg>