<svg id="argxs" xmlns="http://www.w3.org/2000/svg" version="1.1" width="181" height="20" viewBox="0 0 181 20" fill="#1D1C39">
    <path d="M6.52484 7.46529C7.67233 7.46529 8.33026 6.84045 8.33026 5.75206C8.33026 4.72782 7.62269 4.03883 6.56961 4.03883H3.96707V2.11473C3.96707 0.727041 2.96946 0.00112915 1.98353 0.00112915C0.997607 0.00112915 0 0.727041 0 2.11473V15.3862C0 18.5755 1.27304 19.9982 4.12766 19.9982C5.67517 19.9982 6.5589 19.6017 7.21684 19.215C7.71905 18.9361 7.89813 18.3443 7.89813 17.8836C7.89813 17.0304 7.32682 16.08 6.50635 16.08C6.39247 16.08 6.27763 16.0995 6.15402 16.1403C6.1112 16.1578 6.06253 16.1792 6.009 16.2044C5.79293 16.3035 5.49803 16.4386 5.06492 16.4386C4.55298 16.4386 3.9661 16.2579 3.9661 14.8507V7.46432H6.52484V7.46529Z"
          fill-rule="evenodd" clip-rule="evenodd"/>
    <path d="M15.699 6.92871C16.2012 6.74601 16.7005 6.65369 17.1832 6.65369C18.8339 6.65369 19.9882 7.71875 20.5595 8.77896L13.1675 11.4649C12.8297 9.86928 13.294 7.80233 15.699 6.92773M23.6389 14.2957C23.2467 14.2957 22.8574 14.4395 22.5148 14.7106L22.4593 14.7602C21.7663 15.3773 20.9702 15.8437 20.0261 16.1868C19.3205 16.4433 18.6295 16.5735 17.9715 16.5735C16.2576 16.5735 14.8162 15.6591 14.0775 14.1149L23.198 10.8012C24.6336 10.2794 24.8273 9.2182 24.5285 8.39997C23.4151 5.34666 20.7921 3.44977 17.6835 3.44977C16.6693 3.44977 15.6153 3.64607 14.5505 4.03283C12.2127 4.88216 10.5474 6.41464 9.73375 8.4641C8.99698 10.3212 9.0145 12.5047 9.78338 14.6135C11.0272 18.0253 13.6716 19.9815 17.0411 19.9815C17.6786 19.9815 18.3463 19.9106 19.0256 19.7697C19.6407 19.6424 20.213 19.4811 20.7736 19.277C22.2997 18.7231 23.6886 17.9223 24.7923 16.9622L24.802 16.9535L24.8108 16.9438C25.1767 16.5288 25.3227 16.0361 25.2215 15.5541C25.0706 14.836 24.3922 14.2947 23.6419 14.2947"
          fill-rule="evenodd" clip-rule="evenodd"/>
    <path d="M38.9437 11.774C38.9437 14.0965 37.6229 16.4394 34.6729 16.4394C32.1453 16.4394 30.447 14.5824 30.447 11.8187C30.447 9.05494 32.1638 7.10946 34.7177 7.10946C36.8209 7.10946 38.9437 8.55253 38.9437 11.7749M41.0167 3.54986C39.841 3.54986 38.9884 4.38267 38.9884 5.53033V5.59349C37.8205 4.27091 36.089 3.54986 34.0481 3.54986C29.4416 3.54986 26.3466 6.85485 26.3466 11.7749C26.3466 16.695 29.388 20 33.9147 20C36.1338 20 37.9422 19.1954 39.0789 17.7202V18.0195C39.0789 19.4791 40.0804 20 41.0177 20C42.1866 20 42.9127 19.241 42.9127 18.0195V5.52936C42.9127 4.32631 42.1691 3.54889 41.0177 3.54889"
          fill-rule="evenodd" clip-rule="evenodd"/>
    <path d="M63.8147 3.54892C61.4847 3.54892 59.6832 4.57899 58.8034 6.39231C57.8388 4.52943 56.1054 3.54892 53.7628 3.54892C52.0187 3.54892 50.4595 4.23887 49.5358 5.38362C49.5076 4.31661 48.6823 3.54892 47.5523 3.54892C46.543 3.54892 45.524 4.18931 45.524 5.61879V18.0186C45.524 19.2965 46.2286 19.999 47.5075 19.999C48.7864 19.999 49.5358 19.2586 49.5358 18.0186V10.6137C49.5358 8.16968 50.6269 6.9297 52.7778 6.9297C54.9287 6.9297 55.7541 8.10069 55.7541 10.9713V17.9739C55.7541 19.2799 56.4587 19.999 57.7376 19.999C59.0165 19.999 59.7659 19.2605 59.7659 17.9739V11.0597C59.7659 8.28046 60.8414 6.9297 63.0546 6.9297C65.1394 6.9297 66.0299 8.16482 66.0299 11.0597V17.9739C66.0299 19.2799 66.7346 19.999 68.0135 19.999C69.2923 19.999 70.0418 19.2605 70.0418 17.9739V11.0597C70.0418 6.07552 67.9463 3.54794 63.8138 3.54794"
          fill-rule="evenodd" clip-rule="evenodd"/>
    <path d="M94.2519 3.54892C93.3711 3.54892 92.6324 4.18251 92.2801 5.24077L88.8921 14.7962L85.5479 5.28644C85.1849 4.24373 84.7255 3.54892 83.6647 3.54892C82.5308 3.54892 82.1123 4.16016 81.7376 5.28547L78.3924 14.7962L75.0064 5.24465C74.6521 4.18348 73.9144 3.54892 73.0336 3.54892C72.1528 3.54892 71.3177 4.23984 71.3177 5.39528C71.3177 5.76552 71.4024 6.1348 71.5999 6.62651L76.1568 18.2256C76.5928 19.2896 77.1398 19.9981 78.3934 19.9981C79.7657 19.9981 80.2874 19.0467 80.5891 18.2188L83.6627 9.85279L86.6497 18.2139C87.0448 19.3985 87.7991 19.999 88.8911 19.999C89.9832 19.999 90.7014 19.4024 91.1744 18.2226L95.6817 6.58958C95.8763 6.15229 95.9678 5.77232 95.9678 5.39431C95.9678 4.34188 95.2301 3.54794 94.251 3.54794"
          fill-rule="evenodd" clip-rule="evenodd"/>
    <path d="M104.454 16.8408C101.819 16.8408 100.183 14.8992 100.183 11.774C100.183 8.64878 101.859 6.79658 104.454 6.79658C107.049 6.79658 108.725 8.75081 108.725 11.774C108.725 14.7972 107.049 16.8408 104.454 16.8408ZM104.454 3.59363C101.852 3.59363 99.6965 4.44684 98.222 6.06095C96.9002 7.50792 96.1713 9.53698 96.1713 11.774C96.1713 14.011 96.8993 16.0517 98.221 17.5094C99.6984 19.1381 101.853 19.9991 104.454 19.9991C110.567 19.9991 112.736 15.5678 112.736 11.774C112.736 7.9802 110.567 3.59363 104.454 3.59363Z"
          fill-rule="evenodd" clip-rule="evenodd"/>
    <path d="M122.427 3.54889C120.863 3.54889 119.431 4.20581 118.418 5.36999C118.337 4.35254 117.481 3.54889 116.442 3.54889C115.329 3.54889 114.457 4.41862 114.457 5.52936V18.0185C114.457 19.3188 115.455 19.999 116.442 19.999C117.429 19.999 118.425 19.3188 118.425 18.0185V12.0859C118.425 8.50297 119.408 6.97438 121.713 6.97438C122.081 6.97438 122.294 7.02394 122.499 7.07156C122.681 7.11334 122.854 7.15318 123.099 7.15318C124.045 7.15318 124.681 6.44671 124.681 5.39525C124.681 4.27286 123.797 3.54889 122.429 3.54889"
          fill-rule="evenodd" clip-rule="evenodd"/>
    <path d="M133.826 11.8158L138.16 7.31548C138.763 6.71299 139.332 6.1445 139.332 5.35057C139.332 4.32341 138.556 3.54793 137.528 3.54793C136.722 3.54793 136.15 4.16598 135.597 4.76362L130.354 10.1735V1.98047C130.354 0.888198 129.464 0 128.37 0C127.276 0 126.386 0.888198 126.386 1.98047V18.0186C126.386 19.1108 127.276 19.999 128.37 19.999C129.464 19.999 130.354 19.1108 130.354 18.0186V13.1539L135.602 18.6036C135.694 18.6959 135.785 18.7901 135.875 18.8844C136.402 19.4325 136.946 20 137.752 20C138.705 20 139.512 19.1954 139.512 18.2421C139.512 17.5502 139.042 17.0225 138.561 16.5424L133.828 11.8167H133.826V11.8158Z"
          fill-rule="evenodd" clip-rule="evenodd"/>
    <path fill="#ff22b1"
          d="M144.39 14.8467C142.969 14.8467 141.813 16.0012 141.813 17.4209C141.813 18.8407 142.969 19.9951 144.39 19.9951C145.811 19.9951 146.968 18.8407 146.968 17.4209C146.968 16.0012 145.812 14.8467 144.39 14.8467Z"
          fill-rule="evenodd" clip-rule="evenodd"/>
    <path d="M149.629 15.5085C149.629 14.8389 149.733 14.2257 149.938 13.6679C150.143 13.1111 150.423 12.6379 150.776 12.2501C151.128 11.8624 151.549 11.5611 152.036 11.3435C152.524 11.1268 153.05 11.0179 153.615 11.0179C154.497 11.0179 155.237 11.2414 155.837 11.6875C156.436 12.1335 156.848 12.7088 157.071 13.4133C157.129 13.5659 157.135 13.7097 157.089 13.8448C157.042 13.9799 156.918 14.0469 156.718 14.0469H156.471C156.341 14.0469 156.232 14.0178 156.144 13.9585C156.056 13.9002 155.983 13.7943 155.925 13.6417C155.772 13.184 155.504 12.805 155.122 12.5057C154.739 12.2064 154.249 12.0567 153.649 12.0567C152.885 12.0567 152.232 12.3764 151.692 13.0168C151.151 13.6572 150.88 14.4871 150.88 15.5085C150.88 16.5298 151.148 17.3607 151.683 18.0001C152.217 18.6395 152.873 18.9592 153.649 18.9592C154.272 18.9592 154.769 18.8096 155.139 18.5103C155.509 18.211 155.771 17.832 155.924 17.3743C155.982 17.2217 156.056 17.1158 156.144 17.0575C156.232 16.9992 156.34 16.969 156.47 16.969H156.717C156.916 16.969 157.04 17.0371 157.088 17.1712C157.134 17.3062 157.128 17.4501 157.07 17.6026C156.846 18.3072 156.436 18.8824 155.836 19.3285C155.236 19.7745 154.496 19.9971 153.614 19.9971C152.392 19.9971 151.421 19.586 150.704 18.7649C149.987 17.9437 149.628 16.8573 149.628 15.5075H149.629V15.5085Z"/>
    <path d="M158.482 15.5075C158.482 14.838 158.585 14.2248 158.791 13.667C158.996 13.1102 159.281 12.6369 159.646 12.2492C160.01 11.8614 160.442 11.5602 160.943 11.3425C161.442 11.1258 161.986 11.017 162.574 11.017C163.808 11.017 164.799 11.428 165.545 12.2492C166.292 13.0713 166.665 14.1568 166.665 15.5065C166.665 16.1761 166.561 16.7893 166.356 17.3471C166.151 17.9049 165.866 18.3772 165.501 18.7649C165.136 19.1526 164.704 19.4548 164.204 19.6716C163.704 19.8883 163.161 19.9971 162.573 19.9971C161.339 19.9971 160.348 19.586 159.602 18.7649C158.855 17.9437 158.481 16.8573 158.481 15.5075H158.482ZM159.734 15.5075C159.734 16.5288 159.999 17.3597 160.527 17.9991C161.057 18.6386 161.738 18.9583 162.573 18.9583C163.408 18.9583 164.06 18.6386 164.601 17.9991C165.142 17.3597 165.413 16.5288 165.413 15.5075C165.413 14.4862 165.148 13.6116 164.62 12.9897C164.09 12.3677 163.409 12.0568 162.574 12.0568C161.739 12.0568 161.087 12.3765 160.546 13.0169C160.005 13.6573 159.734 14.4872 159.734 15.5085V15.5075Z"/>
    <path d="M168.481 19.5044V11.8799C168.481 11.7273 168.519 11.6098 168.596 11.5281C168.672 11.4465 168.786 11.4047 168.939 11.4047H169.15C169.303 11.4047 169.421 11.4465 169.503 11.5281C169.584 11.6107 169.626 11.7283 169.626 11.8799V12.9187H169.679C169.926 12.3434 170.293 11.9149 170.781 11.6331C171.268 11.3513 171.812 11.2104 172.412 11.2104C173.011 11.2104 173.573 11.3629 174.061 11.6681C174.548 11.9732 174.904 12.4601 175.127 13.1296C175.421 12.4494 175.824 11.9586 176.335 11.6593C176.847 11.36 177.425 11.2104 178.072 11.2104C178.472 11.2104 178.851 11.2716 179.21 11.395C179.568 11.5184 179.88 11.7147 180.144 11.9849C180.409 12.255 180.618 12.6068 180.77 13.0412C180.923 13.4756 181 14.0042 181 14.6261V19.5034C181 19.656 180.956 19.7765 180.868 19.8649C180.779 19.9534 180.658 19.9971 180.506 19.9971H180.294C180.13 19.9971 180.006 19.9534 179.924 19.8649C179.841 19.7765 179.8 19.657 179.8 19.5034V14.7845C179.8 13.8691 179.627 13.2171 179.28 12.8303C178.934 12.4426 178.448 12.2492 177.825 12.2492C177.155 12.2492 176.574 12.531 176.079 13.0946C175.586 13.6582 175.338 14.4502 175.338 15.4716V19.5034C175.338 19.656 175.295 19.7765 175.206 19.8649C175.118 19.9534 174.997 19.9971 174.845 19.9971H174.634C174.469 19.9971 174.346 19.9534 174.264 19.8649C174.181 19.7765 174.14 19.657 174.14 19.5034V14.7845C174.14 13.8691 173.961 13.2171 173.602 12.8303C173.243 12.4426 172.764 12.2492 172.165 12.2492C171.494 12.2492 170.913 12.531 170.419 13.0946C169.925 13.6582 169.678 14.457 169.678 15.4891V19.5034C169.678 19.656 169.634 19.7765 169.546 19.8649C169.457 19.9534 169.336 19.9971 169.184 19.9971H168.973C168.809 19.9971 168.685 19.9534 168.602 19.8649C168.52 19.7765 168.479 19.657 168.479 19.5034H168.481V19.5044Z"/>
</svg>