<svg id="argxs" xmlns="http://www.w3.org/2000/svg" width="264" height="79" fill="none" viewBox="0 0 264 79">
    <defs>
        <linearGradient id="argxs_data_grip_light_attr_1" x1="59.7777" x2="1.07287" y1="3.98196" y2="62.6868" gradientUnits="userSpaceOnUse">
            <stop offset=".28" stop-color="#7256FF"/>
            <stop offset=".66" stop-color="#00D980"/>
        </linearGradient>
        <linearGradient id="argxs_data_grip_light_attr_2" x1="64.7178" x2="39.4774" y1="56.3788" y2="1.93862" gradientUnits="userSpaceOnUse">
            <stop offset=".3" stop-color="#FF43F2"/>
            <stop offset=".54" stop-color="#7256FF"/>
        </linearGradient>
    </defs>
    <path fill="#000" fill-rule="evenodd" clip-rule="evenodd"
          d="M95.2241 17c2.83 0 5.3599.65 7.5899 1.93l.01-.02c2.23 1.29 3.98 3.06 5.23 5.33 1.25 2.27 1.88 4.84 1.88 7.73 0 2.89-.62 5.46-1.88 7.73-1.25 2.27-3 4.05-5.23 5.33-2.24 1.29-4.7599 1.93-7.5899 1.93h-11.24V17h11.23Zm4.8599 24.07c1.4-.85 2.49-2.04 3.25-3.6v.01c.76-1.56 1.14-3.38 1.14-5.48 0-2.1-.38-3.92-1.14-5.48-.76-1.56-1.85-2.76-3.25-3.6-1.3999-.84-3.0399-1.26-4.8899-1.26h-5.86v20.67h5.86c1.85 0 3.49-.41 4.8899-1.26Zm27.92-15.33c1.11.66 2.02 1.54 2.73 2.63v-3.31h4.96v21.92h-4.96v-3.31c-.71 1.09-1.62 1.98-2.73 2.63-1.36.8-2.95 1.2-4.76 1.2-1.94 0-3.68-.49-5.22-1.47-1.54-.98-2.75-2.34-3.62-4.09-.87-1.75-1.3-3.72-1.3-5.92 0-2.2.43-4.17 1.3-5.92.87-1.75 2.08-3.11 3.61-4.09 1.53-.98 3.28-1.47 5.23-1.47 1.81 0 3.4.4 4.76 1.2Zm-.29 16.36c.94-.59 1.67-1.41 2.2-2.46.53-1.05.79-2.26.79-3.63s-.26-2.58-.79-3.63c-.52-1.05-1.26-1.87-2.2-2.46-.94-.59-2.05-.89-3.25-.89-1.2 0-2.27.3-3.21.89-.94.59-1.67 1.41-2.19 2.46s-.78 2.26-.78 3.63.26 2.58.78 3.64 1.25 1.88 2.19 2.46c.94.59 1.99.88 3.21.88s2.31-.3 3.25-.89Zm15.11-22.4h4.7v5.35h5.82l-.02 4.39h-5.82l.02 11.06c0 .6.2 1.1.59 1.49.39.39.89.59 1.49.59h3.72v4.39h-4.73c-1.17 0-2.23-.25-3.16-.75-.93-.5-1.66-1.2-2.18-2.08-.52-.89-.78-1.89-.78-3l-.02-11.71h-3.85l.02-4.39h2.4c.55 0 .98-.16 1.31-.5.32-.33.49-.76.49-1.29V19.7Zm27.02 6.04c1.11.66 2.02 1.54 2.73 2.63v-3.31h4.97v21.92h-4.97v-3.31c-.71 1.09-1.62 1.98-2.73 2.63-1.36.8-2.95 1.2-4.76 1.2-1.94 0-3.68-.49-5.22-1.47-1.54-.98-2.75-2.34-3.62-4.09-.87-1.75-1.31-3.72-1.31-5.92 0-2.2.44-4.17 1.31-5.92.87-1.75 2.08-3.11 3.61-4.09 1.53-.98 3.27-1.47 5.23-1.47 1.81 0 3.4.4 4.76 1.2Zm-.29 16.36c.95-.59 1.68-1.41 2.21-2.46s.79-2.26.79-3.63-.26-2.58-.79-3.63c-.53-1.05-1.27-1.87-2.21-2.46-.94-.59-2.05-.89-3.25-.89-1.2 0-2.27.3-3.21.89-.94.59-1.67 1.41-2.19 2.46s-.78 2.26-.78 3.63.26 2.58.78 3.64 1.25 1.88 2.19 2.46c.94.59 1.99.88 3.21.88s2.31-.3 3.25-.89Zm36.88-6.56h-7.19v-4.29h12.41v2.31c0 2.63-.62 5-1.88 7.11-1.26 2.12-2.99 3.78-5.19 4.99-2.2 1.21-4.51 1.82-7.37 1.82-2.86 0-5.44-.67-7.74-2.02-2.31-1.34-4.12-3.2-5.44-5.56-1.32-2.36-1.98-5-1.98-7.91s.66-5.55 1.98-7.91c1.32-2.36 3.14-4.21 5.44-5.56 2.31-1.35 4.89-2.02 7.74-2.02 2.27 0 4.36.4 6.29 1.21 1.93.8 3.56 1.93 4.9 3.39 1.35 1.45 2.29 3.14 2.85 5.07h-5.71c-.49-1-1.14-1.86-1.95-2.59-.82-.73-1.76-1.28-2.84-1.67-1.08-.39-2.25-.58-3.5-.58-1.84 0-3.51.46-5 1.38-1.49.92-2.66 2.19-3.5 3.81-.84 1.62-1.26 3.44-1.26 5.47s.42 3.85 1.26 5.47c.84 1.62 2.01 2.89 3.5 3.81 1.49.92 3.16 1.38 5 1.38 1.71 0 3.25-.32 4.63-.96 1.38-.65 2.48-1.54 3.29-2.69.73-1.04 1.14-2.19 1.26-3.46Zm14.35-7.17c.57-.93 1.27-1.69 2.1-2.26l-.01.01c1.17-.81 2.53-1.21 4.09-1.21h.81V30h-1.41c-1.12 0-2.11.21-2.94.62-.84.42-1.48 1.01-1.93 1.78-.45.77-.67 1.68-.67 2.74v11.83h-5.05V25.05h5.01v3.32Zm14.92 18.6h-5.05V25.05h5.05v21.92Zm.35-24.23h-5.76v-5.01h5.76v5.01Zm22.29 3.26c1.54.98 2.74 2.34 3.61 4.09l.01-.03c.87 1.75 1.3 3.72 1.3 5.92 0 2.2-.43 4.17-1.3 5.92-.87 1.75-2.08 3.11-3.62 4.09s-3.28 1.47-5.22 1.47c-1.81 0-3.4-.4-4.76-1.2-1.11-.64-2-1.52-2.71-2.6V53.8h-5.05V25.04h4.94v3.47c.72-1.16 1.65-2.1 2.82-2.78 1.37-.8 2.95-1.2 4.75-1.2 1.95 0 3.7.49 5.23 1.47Zm-3.23 16.1c.94-.59 1.67-1.41 2.19-2.46s.78-2.26.78-3.63-.26-2.58-.78-3.63c-.52-1.05-1.25-1.87-2.19-2.46-.94-.59-1.99-.89-3.21-.89s-2.31.3-3.25.89c-.94.59-1.67 1.41-2.2 2.46-.53 1.05-.79 2.26-.79 3.63s.26 2.58.79 3.64c.52 1.06 1.26 1.88 2.2 2.46.94.59 2.05.88 3.25.88 1.2 0 2.27-.3 3.21-.89ZM87.7041 74.22c.17-.31.25-.66.25-1.05h.01v-9.15h3.1v9.37c0 .88-.2 1.67-.61 2.38s-.97 1.26-1.68 1.66c-.71.4-1.52.6-2.41.6h-2.37v-2.85h1.95c.4 0 .75-.08 1.05-.25.31-.17.54-.4.71-.71Zm15.2599-1.9h-6.4999v3.02h7.3799v2.7H93.4441V64.02h10.1999v2.71h-7.1799v2.97h6.4999v2.62Zm6.16-5.52h-4.16v-2.78h11.39v2.78h-4.13v11.23h-3.1V66.8Zm17.2 3.9c.29.08.56.18.81.31h.01c.57.31 1.02.73 1.34 1.28.32.55.48 1.17.48 1.86 0 .75-.2 1.42-.61 2.01-.41.59-.98 1.05-1.72 1.38-.74.33-1.58.5-2.52.5h-6.35V64.02h6.23c.89 0 1.69.16 2.39.47.7.31 1.24.75 1.63 1.31.39.56.58 1.2.58 1.91 0 .62-.15 1.17-.44 1.65-.29.48-.7.86-1.21 1.12-.179.0945-.386.1533-.585.2101l-.035.0099Zm-2.8-4.33h-2.75v3.45h2.75c.38 0 .72-.08 1.01-.22.3-.14.52-.34.69-.61.17-.27.25-.59.25-.93 0-.34-.09-.64-.25-.89-.17-.26-.4-.45-.69-.59-.29-.14-.63-.21-1.01-.21Zm1.24 9.1c.32-.15.57-.35.75-.62v.02c.18-.27.27-.57.27-.93 0-.36-.09-.68-.27-.96-.18-.28-.44-.5-.76-.65-.33-.15-.7-.23-1.11-.23h-2.87v3.59h2.87c.42 0 .8-.07 1.12-.22Zm16.56-4.67c-.43.67-1.03 1.2-1.81 1.57h-.01c-.14.07-.3.13-.46.19l3.2 5.48h-3.54l-2.84-5.11h-2.02v5.11h-3.1V64.02h6.14c1.01 0 1.9.18 2.67.55.77.37 1.36.89 1.78 1.56.42.67.63 1.43.63 2.32 0 .89-.21 1.68-.64 2.35Zm-3.56-.61c.32-.16.57-.39.74-.68v.01c.17-.29.26-.63.26-1.03s-.09-.74-.26-1.03c-.17-.29-.42-.51-.74-.67-.32-.15-.7-.23-1.13-.23h-2.79v3.87h2.79c.43 0 .81-.08 1.13-.24Zm5.51 7.85 5.01-14.02h3.36l5.12 14.02h-3.09l-1.06-3.09h-5.2l-.99 3.09h-3.15Zm6.46-10.39-1.61 4.95h3.71l-1.72-4.95-.19-.9-.19.9Zm11.43 10.39h-3.2V64.02h3.2v14.02Zm5.44-14.02 6.02 9.48h.01v-9.48h2.83v14.02h-3.05l-6-9.48v9.48h-2.83V64.02h3.02Zm17.78 5.66c.71.13 1.33.4 1.88.79v-.02c.55.4.97.88 1.28 1.47.31.59.46 1.23.46 1.92 0 .85-.23 1.61-.68 2.28-.45.67-1.08 1.2-1.88 1.58-.81.38-1.74.57-2.77.57s-1.95-.19-2.75-.56c-.8-.37-1.43-.9-1.89-1.56-.46-.66-.7-1.44-.71-2.31h3.1c0 .36.1.68.29.96.19.28.46.49.81.64.35.15.75.23 1.18.23.43 0 .8-.07 1.12-.2.32-.13.56-.32.74-.57.18-.25.27-.53.27-.84 0-.39-.12-.71-.36-.97s-.57-.44-.98-.54l-2.52-.52c-.66-.14-1.24-.39-1.74-.75s-.89-.82-1.16-1.36c-.27-.55-.41-1.16-.41-1.83 0-.84.22-1.58.64-2.23.43-.65 1.02-1.16 1.78-1.53.76-.37 1.62-.55 2.6-.55s1.86.18 2.62.53c.76.35 1.36.84 1.79 1.47.43.62.66 1.35.68 2.16h-3.1c0-.3-.09-.57-.25-.81-.17-.24-.4-.42-.69-.55-.29-.14-.64-.2-1.02-.2s-.72.07-1.01.19c-.29.12-.52.3-.68.52-.16.23-.24.49-.24.79 0 .34.11.61.33.84.22.23.52.38.89.47l2.38.49Zm14.38 8.36h-3.2V64.02h3.2v14.02Zm7.88-14.02c1.33 0 2.53.31 3.59.91 1.06.61 1.9 1.44 2.5 2.51.61 1.06.91 2.27.91 3.59 0 1.32-.31 2.52-.91 3.59-.6 1.07-1.43 1.9-2.5 2.51-1.07.61-2.26.91-3.59.91h-5.47V64.02h5.47Zm2.01 10.86c.58-.35 1.03-.85 1.34-1.5v-.01c.31-.65.47-1.44.47-2.35 0-.91-.16-1.7-.47-2.35-.31-.65-.76-1.15-1.34-1.5-.58-.35-1.26-.52-2.05-.52h-2.32v8.75h2.32c.79 0 1.47-.17 2.05-.52Zm9.8-2.56v3.02h7.38v2.7h-10.4V64.02h10.2v2.71h-7.18v2.97h6.5v2.62h-6.5Z"/>
    <path fill="url(#argxs_data_grip_light_attr_1)"
          d="M4.07273 64H38.041c1.6291 0 3.1017-.9711 3.7434-2.4681l16.0681-37.4906c.217-.5068.3293-1.0531.3293-1.6046V4.07273C58.1818 1.82342 56.3584 0 54.1091 0h-17.966c-.8046 0-1.5912.238545-2.2609.685382L1.81353 22.0881C.681309 22.8439.001745 24.1146.001745 25.4755L0 59.9273C0 62.1766 1.82342 64 4.07273 64Z"/>
    <path fill="url(#argxs_data_grip_light_attr_2)"
          d="M49.4812 58.1818h10.4465c2.2493 0 4.0727-1.8234 4.0727-4.0727V41.0164c0-.1925-.0139-.3851-.0407-.576L58.682 3.49673C58.3952 1.49004 56.6771 0 54.65 0H38.977c-2.2499 0-4.0733 1.824-4.0727 4.07389l.0047 18.53851c0 .4375.0704.8721.2088 1.2869l10.4995 31.4979c.5545 1.6629 2.1109 2.7846 3.8639 2.7846Z"/>
    <path fill="#FF43F2"
          d="m48.0521 58.1839 11.8755-.0017c2.2493 0 4.0722-1.8234 4.0722-4.0727V42.6029c0-1.1887-.5196-2.3186-1.422-3.0924L24.4164 6.80068c-.7384-.63244-1.6786-.98037-2.6508-.98037H9.89011c-2.24931 0-4.07273 1.82342-4.07273 4.07273V21.4014c0 1.1887.51957 2.3185 1.42197 3.0924L45.4002 57.203c.7383.633 1.6786.9804 2.6514.9804l.0005.0005Z"/>
    <path fill="#000" d="M52 12H12v40h40V12Z"/>
    <path fill="#fff" fill-rule="evenodd" clip-rule="evenodd"
          d="M22.751 17.368h-5.7569v15.1222h5.7569c1.4327 0 2.7144-.3241 3.8451-.9721 1.1376-.6481 2.027-1.5444 2.6681-2.6895.6405-1.1521.9611-2.4523.9611-3.8995s-.3206-2.7433-.9611-3.8885c-.6411-1.152-1.5305-2.0524-2.6681-2.7005-1.1307-.648-2.4124-.9721-3.8451-.9721Zm2.3331 11.968c-.677.4033-1.4651.6047-2.3655.6047l-2.7757.0006V19.9175h2.7757c.8998 0 1.6885.2008 2.3655.6047.677.4033 1.1989.9825 1.5664 1.7388.3674.7493.5508 1.6381.5508 2.6681s-.1834 1.9222-.5508 2.6785c-.3675.7494-.8894 1.3245-1.5664 1.7284Z"/>
    <path fill="#fff"
          d="M35.3272 31.7339c1.174.6764 2.4846 1.0155 3.9318 1.0155 1.3899 0 2.6427-.3096 3.7589-.9293 1.1231-.6197 2.0055-1.4651 2.6461-2.5385.6481-1.0797.9721-2.2856.9721-3.6182v-1.1879h-6.405v2.322h3.5161c-.0722.5605-.2757 1.0719-.6107 1.534-.3958.5468-.9322.9762-1.6092 1.2852-.6701.3095-1.4188.4646-2.2469.4646-.8928 0-1.6989-.2228-2.4193-.6695-.7204-.4467-1.2857-1.0583-1.696-1.836-.4027-.7841-.6046-1.6671-.6046-2.6461 0-.9791.2013-1.858.6046-2.6357.4109-.7847.9762-1.4003 1.696-1.847.7199-.4467 1.5265-.6695 2.4193-.6695.6053 0 1.1706.0972 1.696.2916.526.1875.9831.4577 1.372.8101.3963.3455.7094.7563.9397 1.2314h3.1541c-.2736-.9866-.7528-1.8575-1.4367-2.6138-.677-.7562-1.5126-1.3436-2.5061-1.7608-.9866-.4172-2.0663-.6266-3.2404-.6266-1.4477 0-2.7578.3414-3.9318 1.0259-1.1741.6764-2.0959 1.6132-2.7653 2.8081-.6695 1.188-1.0046 2.5165-1.0046 3.9857 0 1.4692.3351 2.8018 1.0046 3.9967.67 1.1879 1.5918 2.1236 2.7653 2.8081Z"/>
    <path fill="#fff" d="M16.9941 44.0037h16v3h-16v-3Z"/>
</svg>