<svg id="argxs" xmlns="http://www.w3.org/2000/svg" width="154" height="48" fill="none" viewBox="0 0 154 48">
    <defs>
        <linearGradient id="argxs_mps_dark_attr_1" x1="36.336" x2="-9.336" y1="63.8" y2="5.296" gradientUnits="userSpaceOnUse">
            <stop offset=".06" stop-color="#087CFA"/>
            <stop offset=".87" stop-color="#21D789"/>
        </linearGradient>
        <linearGradient id="argxs_mps_dark_attr_2" x1="61.2405" x2="15.5605" y1="44.36" y2="-14.144" gradientUnits="userSpaceOnUse">
            <stop offset=".05" stop-color="#087CFA"/>
            <stop offset=".18" stop-color="#0A83F0"/>
            <stop offset=".39" stop-color="#0F98D6"/>
            <stop offset=".67" stop-color="#19BAAC"/>
            <stop offset=".87" stop-color="#21D789"/>
        </linearGradient>
        <linearGradient id="argxs_mps_dark_attr_3" x1="27.2805" x2="43.9045" y1="37.016" y2="-7.688" gradientUnits="userSpaceOnUse">
            <stop offset=".12" stop-color="#21D789"/>
            <stop offset=".36" stop-color="#6AE273"/>
            <stop offset=".58" stop-color="#A8EB61"/>
            <stop offset=".77" stop-color="#D5F254"/>
            <stop offset=".92" stop-color="#F1F64C"/>
            <stop offset="1" stop-color="#FCF84A"/>
        </linearGradient>
    </defs>
    <path fill="#fff"
          d="m84.99 31.09-.49 1.67-.49-1.67L74.83 9.5H68v29.96h5.27V18.19l-.06-.98 9.25 22.26h3.94l9.27-22.41-.04 1.13v21.27h5.26V9.5h-6.91l-8.97 21.59h-.02Zm39.95-20.46c-1.56-.76001-3.36-1.13-5.41-1.13h-12.71v29.96h5.33v-11.6h7.21c2.1 0 3.93-.39 5.51-1.16 1.58-.77 2.8-1.85 3.66-3.24.86-1.39 1.29-3 1.29-4.83s-.42-3.41-1.27-4.79c-.85-1.38-2.05-2.45-3.61-3.21Zm-1.25 10.52c-.42.71-1.01 1.25-1.78 1.64-.76.39-1.67.58-2.71.58h-7.06v-9.35h7.06c1.04 0 1.94.19 2.71.57.76.38 1.35.92 1.78 1.62.42.7.63 1.52.63 2.46s-.21 1.79-.63 2.49v-.01Zm29.32 5.76c-.64-1.2-1.52-2.21-2.66-3.04-1.14-.83-2.44-1.41-3.9-1.73l-5.05-1.13c-1.01-.27-1.81-.7-2.4-1.27-.59-.58-.88-1.32-.88-2.21 0-.8.21-1.5.62-2.1.41-.6.99-1.06 1.73-1.39.74-.33 1.6-.49 2.57-.49.97 0 1.85.17 2.6.51.75.34 1.33.83 1.73 1.46.41.63.61 1.33.61 2.12h5.35c-.01-1.68-.46-3.18-1.33-4.48-.87-1.31-2.09-2.33-3.66-3.06-1.57-.73001-3.36-1.1-5.37-1.1-2.01 0-3.73.37999-5.29 1.13-1.56.76-2.77 1.8-3.64 3.12-.87 1.33-1.31 2.83-1.31 4.52 0 1.38.29 2.63.88 3.75.58 1.11 1.41 2.05 2.46 2.8 1.06.76 2.29 1.3 3.7 1.63l5.22 1.18c1.1.27 1.96.75 2.59 1.42.63.68.94 1.54.94 2.58 0 .84-.22 1.59-.67 2.24-.45.65-1.08 1.16-1.9 1.52-.82.36-1.77.55-2.86.55-1.09 0-2.12-.2-2.99-.6-.86-.4-1.54-.95-2.02-1.66-.49-.71-.73-1.52-.73-2.45H132c.01 1.83.49 3.44 1.42 4.84.93 1.4 2.23 2.49 3.88 3.26 1.65.78 3.55 1.17 5.69 1.17 2.14 0 4.02-.4 5.68-1.19 1.66-.79 2.95-1.88 3.87-3.26.92-1.38 1.38-2.94 1.38-4.67 0-1.43-.32-2.74-.95-3.94l.04-.03Z"/>
    <path fill="url(#argxs_mps_dark_attr_1)" d="M0 48h48L23.896 23.936 0 0v48Z"/>
    <path fill="url(#argxs_mps_dark_attr_2)" d="m48.0005 48-24.104-24.064L48.0005 0v48Z"/>
    <path fill="url(#argxs_mps_dark_attr_3)" d="m35.9285 35.928-12.032-11.992L48.0005 0l-12.072 35.928Z"/>
</svg>