<svg xmlns="http://www.w3.org/2000/svg" width="197" height="73" fill="none" viewBox="0 0 197 73">
    <path fill="#000"
          d="m78.5215 67.8232 2.0498-5.7119h1.9599l-3.6181 9.1231c-.2069.5345-.5203.9607-.9395 1.2793-.4192.324-.9146.4863-1.4863.4863h-1.4131v-1.6934h1.3067c.1742 0 .333-.0482.4746-.1455.1414-.0918.2557-.2247.3427-.3974l.3428-.7207-3.2099-7.9317h2.0009l2.1895 5.7119Zm-11.4434-4.4824c.2715-.4031.6139-.7268 1.0293-.9697.5227-.3024 1.1298-.4541 1.8213-.4541.7405 0 1.4051.1869 1.9932.5596.5879.3672 1.0454.8827 1.372 1.5468.3322.659.4981 1.4046.4981 2.2364 0 .8317-.1659 1.5798-.4981 2.2441-.3321.6589-.7927 1.1742-1.3808 1.5469-.5826.3672-1.2439.5517-1.9844.5517-.6914 0-1.2986-.1517-1.8213-.4541-.4158-.2431-.7577-.568-1.0293-.9716v1.2304h-1.9277V59.0654h1.9277v4.2754Zm100.6349-4.4697c.767 0 1.451.1402 2.05.4209.599.2754 1.065.6623 1.397 1.1592.332.4914.501 1.0562.506 1.6933h-2.042c0-.297-.078-.5651-.236-.8027-.153-.2376-.374-.4212-.662-.5508-.284-.1296-.613-.1943-.989-.1943-.37 0-.697.0623-.98.1865-.283.1242-.503.2997-.661.5264-.158.2268-.238.4915-.238.7939 0 .3403.112.6214.335.8428.224.216.529.3749.915.4775l1.928.4297c.555.1242 1.051.3431 1.486.6563.436.3132.774.6967 1.013 1.1504.245.4535.368.9503.368 1.4902 0 .6535-.177 1.2427-.531 1.7666-.348.5239-.841.9368-1.478 1.2392-.632.2971-1.353.4463-2.165.4463-.816 0-1.541-.1459-2.172-.4375-.632-.297-1.127-.7109-1.487-1.2402-.354-.5293-.533-1.1397-.539-1.831h2.042c0 .3509.093.6616.278.9316.185.2646.441.4728.767.624.332.1512.714.2266 1.144.2266.414 0 .776-.0671 1.087-.2022.315-.1404.557-.3322.726-.5752.174-.2484.262-.5319.262-.8506 0-.3942-.12-.7188-.359-.9726-.24-.2591-.57-.4394-.989-.542l-1.993-.4463c-.539-.1242-1.01-.329-1.413-.6152-.403-.2863-.716-.6403-.939-1.0615-.224-.4213-.335-.8941-.335-1.418 0-.6371.166-1.2068.498-1.709.332-.5022.795-.8964 1.388-1.1826.594-.2863 1.266-.4297 2.018-.4297Zm-75.3663 8.085c0 .6588-.1546 1.2505-.4649 1.7744-.3049.5239-.7275.9344-1.2666 1.2314-.5336.297-1.1383.4453-1.8134.4453h-1.9024v-1.8545h1.6738c.3375 0 .6372-.073.8985-.2187.2668-.1458.4741-.3516.6211-.6162.1469-.2646.2207-.5647.2207-.8994v-7.753h2.0332v7.8907Zm10.6063-6.0997h-6.1259v2.9727h5.5709v1.75h-5.5709v3.0381h6.2899v1.79h-8.2742V59.0654h8.1102v1.791Zm10.38.0323h-3.528v9.5185h-2.027v-9.5185h-3.545v-1.8233h9.1v1.8233Zm6.551-1.8233c.702 0 1.329.127 1.879.3809.55.2538.977.6079 1.282 1.0615.31.4482.466.9613.466 1.5391 0 .5022-.12.948-.36 1.3369-.234.3888-.563.6912-.988.9072-.15.0776-.31.1398-.477.1895.222.0606.434.1427.632.248.468.2484.833.5944 1.094 1.0371.261.4429.393.9427.393 1.499 0 .6048-.164 1.1474-.491 1.628-.321.4753-.773.8481-1.356 1.1181-.577.2646-1.236.3965-1.977.3965h-4.99V59.0654h4.893Zm10.727 0c.784 0 1.473.1435 2.067.4297.593.2862 1.051.6911 1.372 1.2149.326.5237.49 1.1287.49 1.8144 0 .6912-.166 1.3019-.498 1.8311-.327.5238-.792.932-1.396 1.2236-.2.0973-.412.1764-.634.2412l2.781 4.5869h-2.336l-2.568-4.3906h-2.096v4.3906h-2.033V59.0654h4.851Zm15.456 11.3418h-2.058l-.972-2.7217h-4.59l-.898 2.7217h-2.108l4.149-11.3418h2.197l4.28 11.3418Zm3.551 0h-2.083V59.0654h2.083v11.3418Zm10.009-3.0136v-8.3282h1.903v11.3418h-2.042l-5.407-8.3281v8.3281h-1.903V59.0654h2.033l5.416 8.3282Zm-90.1719-3.7754c-.4629 0-.8774.1139-1.2422.3408-.3592.2214-.6394.5321-.8408.9316-.1696.332-.2672.708-.294 1.128V66.5c.0267.4211.1243.8.294 1.1367.2014.3941.4816.7048.8408.9317.3648.2214.7793.332 1.2422.332.4627 0 .8707-.1107 1.2246-.332.3594-.2269.6379-.5374.834-.9317.2013-.3995.3017-.8586.3017-1.3769 0-.5184-.1003-.975-.3017-1.3692-.1961-.3996-.4746-.7102-.834-.9316-.3539-.2267-.7619-.3408-1.2246-.3408Zm47.5209 5.1855h2.786c.386 0 .726-.0681 1.02-.2031.3-.1404.531-.3346.695-.583.163-.2538.245-.5481.245-.8828 0-.3349-.084-.6324-.253-.8916-.164-.2593-.393-.4616-.687-.6075-.294-.1457-.634-.2187-1.02-.2187h-2.786v3.3867Zm23.521-7.251-1.544 4.545h3.537l-1.641-4.545-.18-.705-.172.705Zm-12.704 2.7627h2.695c.398 0 .741-.073 1.03-.2187.294-.1458.52-.3516.678-.6162.163-.2699.244-.5857.244-.9473 0-.3563-.081-.6671-.244-.9316-.158-.2647-.384-.467-.678-.6075-.289-.1458-.632-.2187-1.03-.2187h-2.695v3.54Zm-10.817-.4541h2.687c.354 0 .665-.0647.932-.1943.272-.135.482-.3244.629-.5674.152-.2429.228-.5234.228-.8418 0-.3186-.076-.5973-.228-.8349-.147-.2376-.357-.4212-.629-.5508-.273-.1351-.583-.2022-.932-.2022h-2.687v3.1914ZM95.3486 31.96c0 1.5374.2588 2.8596.7764 3.9658.5361 1.0872 1.2938 1.9218 2.2734 2.5029.9797.5625 2.1446.8438 3.4946.8438 1.46-.0001 2.744-.3284 3.853-.9844 1.128-.6562 1.997-1.5757 2.607-2.7569.628-1.1811.943-2.5311.943-4.0498V14.5791h5.379v28.7988h-5.213v-4.4736c-.848 1.505-1.966 2.6972-3.356 3.5742-1.645 1.0497-3.585 1.5742-5.822 1.5742-2.0332 0-3.8269-.44-5.3797-1.3213-1.5525-.8999-2.772-2.2032-3.6592-3.9091-.8688-1.7062-1.3037-3.7594-1.3037-6.1592v-18.084h5.4072V31.96Zm86.8294-18.0557c2.754 0 5.194.6373 7.32 1.9121 2.126 1.2562 3.781 3.0282 4.964 5.3154 1.183 2.2873 1.774 4.8937 1.774 7.8184v1.2939h-23.021c.127 1.5647.499 2.9805 1.116 4.2471.776 1.5561 1.849 2.7655 3.217 3.6279 1.368.8623 2.911 1.2939 4.63 1.294 1.553 0 2.94-.3196 4.16-.957 1.238-.6375 2.255-1.5275 3.05-2.6709h5.933c-.684 1.7059-1.654 3.1777-2.911 4.415-1.257 1.2374-2.754 2.1932-4.492 2.8682-1.738.6562-3.651.9843-5.74.9843-2.717 0-5.176-.6468-7.375-1.9404-2.2-1.2937-3.929-3.0933-5.186-5.3994-1.257-2.3061-1.886-4.9028-1.886-7.79 0-2.8124.639-5.363 1.915-7.6504 1.275-2.3059 3.013-4.1059 5.212-5.3995 2.2-1.3122 4.64-1.9686 7.32-1.9687ZM81.7676 32.1846c0 2.1374-.49 4.0594-1.4697 5.7656-.9797 1.6873-2.3289 3.0182-4.0479 3.9932-1.719.9561-3.6508 1.4345-5.7949 1.4345h-6.378v-5.3154h5.878c1.183 0 2.2467-.2621 3.1894-.7871.9427-.525 1.6729-1.2656 2.1905-2.2217.536-.9562.8037-2.0344.8037-3.2344V4.00488h5.6289V32.1846ZM137.71 13.9043c2.033 0 3.826.4498 5.379 1.3496 1.553.8812 2.764 2.1757 3.633 3.8818.887 1.7061 1.33 3.7595 1.33 6.1592v18.083h-5.379V25.998c0-1.5373-.268-2.8501-.804-3.9375-.517-1.1061-1.266-1.9404-2.246-2.5029-.98-.5812-2.145-.8721-3.494-.8721-1.46.0001-2.754.3282-3.882.9844-1.109.6562-1.978 1.5748-2.606 2.7559-.61 1.1811-.915 2.5312-.915 4.0498v16.9023h-5.379V14.5791h5.213v4.4365c.855-1.4874 1.964-2.6663 3.327-3.5361 1.645-1.05 3.586-1.5752 5.823-1.5752Zm23.618 29.4736h-5.38V14.5791h5.38v28.7988Zm20.85-24.917c-1.738.0001-3.291.421-4.658 1.2647-1.368.8249-2.44 1.9971-3.216 3.5156-.47.9297-.794 1.9427-.973 3.0381h17.334c-.176-1.0411-.472-2.0072-.89-2.8975-.721-1.5559-1.746-2.7655-3.077-3.6279-1.312-.8625-2.82-1.293-4.52-1.293Zm-20.379-7.0312h-6.294V5.52344h6.294v5.90626Z"/>
    <path fill="#48E054" d="M48 16.0127v2.667C48 37.3462 39.9968 47.9999 18.668 48H16V32h2.668c9.3303-.0001 13.3388-3.9935 13.3388-13.333L32 16.0127h16Z"/>
    <path fill="#48E054" d="M16 32H0V16l16 .0127V32Z"/>
    <path fill="#48E054" d="M32 16.0127H16V0h16v16.0127Z"/>
</svg>