<svg xmlns="http://www.w3.org/2000/svg" width="315" height="78" fill="none" viewBox="0 0 315 78">
    <defs>
        <linearGradient id="a" x1=".255812" x2="48.1438" y1="40.072" y2="15.2" gradientUnits="userSpaceOnUse">
            <stop offset=".04" stop-color="#FC801D"/>
            <stop offset=".38" stop-color="#FE2857"/>
            <stop offset=".99" stop-color="#AF1DF5"/>
        </linearGradient>
    </defs>
    <path fill="#fff" fill-rule="evenodd"
          d="M68.0078 13h23.85v4.82h-9.25v25.15h-5.31V17.82h-9.29V13Zm33.2702 7.53c2.15 0 4.11.5 5.86 1.5s3.13 2.37 4.14 4.12c1.01 1.74 1.51 3.7 1.51 5.85 0 2.15-.5 4.1-1.51 5.85s-2.39 3.12-4.14 4.12c-1.76 1-3.74 1.5-5.89 1.5-2.1502 0-4.1102-.5-5.8602-1.5s-3.13-2.37-4.14-4.12c-1.01-1.74-1.51-3.7-1.51-5.85 0-2.15.5-4.1 1.5-5.85s2.38-3.12 4.14-4.12c1.77-1 3.75-1.5 5.9002-1.5Zm3.25 17.55c.95-.58 1.69-1.4 2.21-2.46s.78-2.25.78-3.62-.26-2.58-.79-3.63c-.52-1.05-1.26-1.87-2.21-2.46-.95-.59-2.04-.89-3.26-.89-1.22 0-2.3102.3-3.2602.88-.95.58-1.68 1.4-2.2 2.46-.52 1.06-.78 2.28-.78 3.64 0 1.36.26 2.56.78 3.62.52 1.05 1.25 1.88 2.2 2.46.94.59 2.0402.88 3.2602.88 1.22 0 2.31-.29 3.27-.88Zm22.2-17.55c2.15 0 4.11.5 5.86 1.5h-.01c1.75 1 3.13 2.37 4.14 4.12 1.01 1.74 1.51 3.7 1.51 5.85 0 2.15-.5 4.1-1.51 5.85-1 1.75-2.39 3.12-4.14 4.12-1.75 1-3.73 1.5-5.88 1.5s-4.11-.5-5.86-1.5-3.13-2.37-4.14-4.12c-1.01-1.74-1.51-3.7-1.51-5.85 0-2.15.5-4.1 1.5-5.85s2.38-3.12 4.14-4.12c1.77-1 3.75-1.5 5.9-1.5Zm3.26 17.55c.95-.58 1.69-1.4 2.21-2.46s.78-2.25.78-3.62-.26-2.58-.79-3.63c-.52-1.05-1.26-1.87-2.21-2.46-.95-.59-2.04-.89-3.26-.89-1.22 0-2.31.3-3.26.88-.94.58-1.68 1.4-2.2 2.46-.52 1.06-.78 2.28-.78 3.64 0 1.36.26 2.57.78 3.62.52 1.05 1.25 1.88 2.2 2.46.94.59 2.04.88 3.26.88 1.22 0 2.31-.29 3.27-.88Zm17 4.88h-5.05V13h5.05v29.96Zm17.43-22.43c1.94 0 3.68.49 5.21 1.47v-.02c1.54.98 2.74 2.34 3.61 4.09.87 1.75 1.31 3.72 1.31 5.92 0 2.2-.44 4.17-1.31 5.92-.87 1.75-2.08 3.11-3.61 4.09-1.53.98-3.27 1.47-5.23 1.47-1.8 0-3.38-.4-4.75-1.2-1.11-.64-2.01-1.52-2.72-2.6v3.29h-5.05V13h5.05v11.33c.71-1.08 1.61-1.95 2.72-2.6 1.37-.8 2.96-1.2 4.77-1.2Zm1.97 17.56c.94-.59 1.67-1.41 2.19-2.46s.78-2.26.78-3.63-.26-2.58-.78-3.63c-.52-1.05-1.25-1.87-2.19-2.46-.94-.59-1.99-.89-3.21-.89s-2.31.3-3.25.89c-.95.59-1.68 1.41-2.21 2.46s-.79 2.26-.79 3.63.26 2.58.79 3.64c.53 1.05 1.27 1.88 2.21 2.46.94.59 2.05.88 3.25.88 1.2 0 2.27-.3 3.21-.89Zm22.22-17.56c2.15 0 4.11.5 5.86 1.5h-.01c1.75 1 3.13 2.37 4.14 4.12 1.01 1.74 1.51 3.7 1.51 5.85 0 2.15-.5 4.1-1.51 5.85-1 1.75-2.39 3.12-4.14 4.12-1.75 1-3.73 1.5-5.88 1.5s-4.11-.5-5.86-1.5-3.13-2.37-4.14-4.12c-1.01-1.74-1.51-3.7-1.51-5.85 0-2.15.5-4.1 1.5-5.85s2.38-3.12 4.14-4.12c1.77-1 3.75-1.5 5.9-1.5Zm3.25 17.55c.95-.58 1.69-1.4 2.21-2.46s.78-2.25.78-3.62-.26-2.58-.79-3.63c-.52-1.05-1.26-1.87-2.21-2.46-.95-.59-2.04-.89-3.26-.89-1.22 0-2.31.3-3.26.88-.94.58-1.68 1.4-2.2 2.46-.52 1.06-.78 2.28-.78 3.64 0 1.36.26 2.57.78 3.62.52 1.05 1.25 1.88 2.2 2.46.94.59 2.04.88 3.26.88 1.22 0 2.31-.29 3.27-.88Zm23.6-17.03h5.65l.01.01-7.31 10.66 7.76 11.25h-5.76l-5.02-7.48-4.85 7.48h-5.65l7.69-11.36-7.46-10.56h5.76l4.69 6.78 4.49-6.78Zm19 21.91L245.328 13h5.76l11.21 29.96h-5.39l-2.55-7.19h-12.03l-2.35 7.19h-5.52Zm13.24-23.39-4.04 12.01h9.26l-4.3-12.01-.47-1.86-.45 1.86Zm29.86.96c1.95 0 3.7.49 5.23 1.47v-.03c1.54.98 2.74 2.34 3.61 4.09.87 1.75 1.31 3.72 1.31 5.92 0 2.2-.44 4.17-1.31 5.92-.87 1.75-2.08 3.11-3.62 4.09s-3.28 1.47-5.22 1.47c-1.81 0-3.4-.4-4.76-1.2-1.11-.64-2-1.52-2.71-2.6V49.8h-5.05V21.04h4.94v3.47c.73-1.16 1.66-2.1 2.83-2.78 1.37-.8 2.95-1.2 4.75-1.2Zm1.99 17.56c.94-.59 1.67-1.41 2.19-2.46s.78-2.26.78-3.63-.26-2.58-.78-3.63c-.52-1.05-1.25-1.87-2.19-2.46-.94-.59-1.99-.89-3.21-.89s-2.31.3-3.25.89c-.95.59-1.68 1.41-2.21 2.46s-.79 2.26-.79 3.63.26 2.58.79 3.64c.53 1.05 1.27 1.88 2.21 2.46.94.59 2.05.88 3.25.88 1.2 0 2.27-.3 3.21-.89ZM309.188 22c1.54.98 2.74 2.34 3.61 4.09l.01-.03c.87 1.75 1.3 3.72 1.3 5.92 0 2.2-.43 4.17-1.3 5.92-.87 1.75-2.08 3.11-3.62 4.09s-3.28 1.47-5.22 1.47c-1.81 0-3.4-.4-4.76-1.2-1.11-.64-2-1.52-2.71-2.6V49.8h-5.05V21.04h4.94v3.47c.72-1.16 1.65-2.1 2.82-2.78 1.37-.8 2.95-1.2 4.75-1.2 1.95 0 3.7.49 5.23 1.47Zm-3.24 16.09c.94-.59 1.67-1.41 2.19-2.46s.78-2.26.78-3.63-.26-2.58-.78-3.63c-.52-1.05-1.25-1.87-2.19-2.46-.94-.59-1.99-.89-3.21-.89s-2.31.3-3.25.89c-.94.59-1.67 1.41-2.2 2.46-.53 1.05-.79 2.26-.79 3.63s.26 2.58.79 3.64c.52 1.05 1.26 1.88 2.2 2.46.94.59 2.05.88 3.25.88 1.2 0 2.27-.3 3.21-.89ZM74.2307 63.5157c.869 0 1.6581.2397 2.3573.6992.6992.4694 1.2485 1.1087 1.6481 1.9178.3995.8091.5993 1.728.5993 2.7468 0 1.0189-.1998 1.9378-.5993 2.7469-.3996.819-.9489 1.4583-1.6481 1.9178-.6992.4694-1.4883.6992-2.3673.6992-.8191 0-1.5382-.1798-2.1475-.5394-.4795-.2697-.8391-.6692-1.1487-1.1287v1.4284h-2.9167v-14.004h2.9267v5.1841c.3096-.4495.6692-.8491 1.1486-1.1287.6093-.3596 1.3285-.5394 2.1476-.5394Zm.4495 7.7811c.3695-.2298.6592-.5594.869-.9789.2097-.4195.3096-.889.3096-1.4384 0-.5493-.0999-1.0288-.3096-1.4483-.2098-.4195-.4995-.7492-.869-.9789-.3696-.2297-.7891-.3496-1.2786-.3496-.4894 0-.9189.1199-1.2885.3496-.3696.2297-.6592.5594-.869.9789s-.3096.889-.3096 1.4383c0 .5494.0998 1.0289.3096 1.4484s.4994.7491.869.9789c.3696.2297.8091.3496 1.2885.3496.4795 0 .909-.1199 1.2786-.3496Zm7.1518-7.5414 2.3573 6.3627h.0099l2.1676-6.3627h2.9366l-4.2551 10.8675c-.2997.7792-.7392 1.3984-1.3085 1.8679-.5694.4695-1.2686.6992-2.0876.6992h-1.8279v-2.587h1.6381c.2297 0 .4195-.05.5693-.1499.1499-.0998.2797-.2497.3896-.4594l.2996-.6093-3.9055-9.629h3.0166Zm16.521 6.4326c.1698-.3096.2497-.6592.2497-1.0488v-9.1395h3.0963v9.3593c0 .879-.2 1.6681-.609 2.3773-.41.7091-.969 1.2585-1.6782 1.6581-.7092.3995-1.5183.5993-2.4072.5993h-2.3673v-2.8468h1.9577c.3996 0 .7492-.0799 1.0488-.2497.3097-.1698.5394-.3995.7092-.7092Zm15.243-1.8978h-6.493v3.0165h7.372v2.697h-10.389v-14.004h10.189v2.7069h-7.172v2.9666h6.493v2.617Zm6.152-5.5137h-4.155v-2.7768h11.377v2.7768h-4.125v11.2172h-3.097V62.7765Zm17.181 3.8956c.289.0799.559.1798.809.3096h.01c.569.3097 1.019.7292 1.338 1.2785.32.5494.48 1.1687.48 1.8579 0 .7492-.2 1.4184-.61 2.0077-.409.5893-.978 1.0488-1.718 1.3784-.739.3297-1.578.4995-2.517.4995h-6.342v-14.004h6.222c.889 0 1.689.1598 2.388.4695.699.3096 1.238.7491 1.628 1.3085.389.5593.579 1.1986.579 1.9078 0 .6193-.15 1.1686-.439 1.6481-.29.4794-.7.859-1.209 1.1187-.179.0943-.385.153-.584.2098l-.035.01Zm-2.797-4.3251h-2.747v3.4461h2.747c.38 0 .719-.0799 1.009-.2198.299-.1398.519-.3396.689-.6093.17-.2697.25-.5893.25-.9289 0-.3396-.09-.6393-.25-.889-.17-.2597-.4-.4495-.689-.5893-.29-.1399-.629-.2098-1.009-.2098Zm1.239 9.0896c.319-.1498.569-.3496.749-.6193v.02c.179-.2697.269-.5694.269-.9289 0-.3596-.09-.6793-.269-.9589-.18-.2797-.44-.4995-.759-.6493-.33-.1498-.7-.2297-1.109-.2297h-2.867v3.5858h2.867c.419 0 .799-.0699 1.119-.2197Zm16.541-4.6647c-.43.6693-1.029 1.1987-1.808 1.5682h-.01c-.14.07-.3.1299-.46.1898l3.197 5.4738h-3.536l-2.837-5.1042h-2.018v5.1042h-3.096v-14.004h6.133c1.009 0 1.898.1798 2.667.5494.769.3696 1.358.889 1.778 1.5582.419.6692.629 1.4284.629 2.3173 0 .889-.21 1.6781-.639 2.3473Zm-3.556-.6093c.319-.1598.569-.3895.739-.6792v.01c.17-.2897.26-.6293.26-1.0288 0-.3995-.09-.7392-.26-1.0288-.17-.2897-.42-.5094-.739-.6693-.32-.1498-.7-.2297-1.129-.2297h-2.787v3.8656h2.787c.429 0 .809-.0799 1.129-.2398Zm5.493 7.8411 5.005-14.004h3.366l5.104 14.004h-3.087l-1.058-3.0865h-5.194l-.989 3.0865h-3.147Zm6.453-10.3781-1.608 4.9443h3.706l-1.718-4.9443-.19-.899-.19.899Zm11.427 10.3781h-3.196v-14.004h3.196v14.004Zm5.434-14.004 6.013 9.4692h.01v-9.4692h2.826v14.004h-3.046l-5.993-9.4692v9.4692h-2.827v-14.004h3.017Zm19.627 6.4326c.549.3996.979.889 1.279 1.4684v-.02c.309.5893.459 1.2286.459 1.9178 0 .849-.23 1.6081-.679 2.2774-.45.6692-1.079 1.1986-1.878 1.5782-.809.3795-1.738.5693-2.767.5693s-1.948-.1898-2.747-.5594c-.799-.3695-1.428-.8989-1.887-1.5582-.46-.6592-.7-1.4383-.71-2.3073h3.097c0 .3596.1.6792.289.9589.19.2797.46.4894.81.6392.349.1499.749.2298 1.178.2298.43 0 .799-.0699 1.119-.1998.32-.1298.559-.3196.739-.5693.18-.2498.27-.5294.27-.8391 0-.3895-.12-.7092-.36-.9689-.24-.2597-.569-.4395-.979-.5393l-2.517-.5194c-.659-.1399-1.238-.3896-1.738-.7492-.499-.3596-.889-.8191-1.158-1.3584-.27-.5494-.41-1.1587-.41-1.8279 0-.8391.22-1.5782.639-2.2275.43-.6492 1.019-1.1587 1.778-1.5282.759-.3696 1.618-.5494 2.597-.5494.979 0 1.858.1798 2.617.5294.759.3496 1.359.839 1.788 1.4683.43.6193.659 1.3485.679 2.1575h-3.096c0-.2996-.09-.5693-.25-.809-.17-.2398-.399-.4196-.689-.5494-.29-.1398-.639-.1998-1.019-.1998-.379 0-.719.0699-1.009.1898-.289.1199-.519.2997-.679.5194-.16.2297-.24.4894-.24.7891 0 .3396.11.6093.33.839.22.2298.519.3796.889.4695l2.377.4894c.709.1299 1.329.3996 1.878.7891Z"
          clip-rule="evenodd"/>
    <path fill="#000" d="m24.0078 56 24-14V14l-24 13.9999V56Z"/>
    <path fill="#fff" d="m39.0078 42-10 6v-4l10-6v4Z"/>
    <path fill="url(#a)" d="M24.0078 0 .007813 14v28L24.0078 56V28l24-14-24-14Z"/>
</svg>